<?xml version="1.0" encoding="UTF-8"?>
<svg version="1.1" xmlns="http://www.w3.org/2000/svg" width="633" height="654">
<path d="M0 0 C13.7385153 23.00742363 24.997804 46.94384976 34.76855469 71.8828125 C35.92462838 74.80920999 37.11633204 77.71805493 38.3203125 80.625 C52.17766962 114.62745493 52.17766962 114.62745493 46.875 129.0625 C45 131 45 131 41.8828125 131.12109375 C40.93148438 131.08113281 39.98015625 131.04117188 39 131 C38.95319092 132.08692139 38.90638184 133.17384277 38.8581543 134.29370117 C38.33757726 145.38064598 37.29159513 156.31462295 35.8125 167.3125 C35.65018387 168.53450104 35.65018387 168.53450104 35.48458862 169.78118896 C31.58805608 198.86997268 25.2600329 226.64799418 13.953125 253.79296875 C13.62473633 254.5821167 13.29634766 255.37126465 12.95800781 256.18432617 C12 258 12 258 10 259 C3.54145577 246.08291155 15.12319071 222.84494053 19.29443359 210.01123047 C24.39206959 194.22362445 27.71532793 178.4619641 29.75 162 C29.85739502 161.1429245 29.96479004 160.285849 30.07543945 159.40280151 C33.29165478 133.24084713 34.29073595 107.28165728 26.3125 81.875 C26.10544434 81.20670166 25.89838867 80.53840332 25.68505859 79.84985352 C24.02654563 74.98182159 21.73733907 70.55244639 19.2734375 66.05078125 C14.71205785 57.70530184 10.9929239 49.07419792 7.3125 40.3125 C6.66924242 38.79595971 6.02536363 37.27968277 5.38085938 35.76367188 C1.88341174 27.52469554 -1.56963192 19.26711701 -5 11 C-7.06255925 13.58750208 -8.53802616 15.92812562 -9.69921875 19.0234375 C-10.0132666 19.85673584 -10.32731445 20.69003418 -10.65087891 21.54858398 C-10.99296387 22.48130127 -11.33504883 23.41401855 -11.6875 24.375 C-12.24703369 25.87945679 -12.24703369 25.87945679 -12.81787109 27.41430664 C-15.60295018 34.98586599 -18.26286579 42.59926079 -20.90234375 50.22265625 C-21.24784775 51.21998779 -21.59335175 52.21731934 -21.94932556 53.24487305 C-23.69227053 58.28113695 -25.42747945 63.31989052 -27.15112305 68.36279297 C-30.1628883 77.13247906 -33.248079 85.80817472 -36.8671875 94.34765625 C-41.32523893 104.96099381 -42.38870389 113.66396876 -42.375 125.1875 C-42.37545319 125.86128693 -42.37590637 126.53507385 -42.37637329 127.22927856 C-42.3518881 139.79791619 -40.93623913 151.96907178 -39.06640625 164.3984375 C-38.00077635 171.5940032 -37.36930657 178.79257657 -36.79013062 186.03790283 C-34.27842148 216.83291432 -26.57403712 247.3621855 -15.67578125 276.27050781 C-14.63843606 279.02930946 -14 281.01675224 -14 284 C-16.1875 284.375 -16.1875 284.375 -19 284 C-27.23781912 276.58596279 -29.73925086 264.13620702 -32.76928711 253.85083008 C-33.91902993 250.033652 -35.17222205 246.2742118 -36.74609375 242.609375 C-37.00962646 241.98514648 -37.27315918 241.36091797 -37.54467773 240.71777344 C-39.04360117 238.67893394 -39.04360117 238.67893394 -42.36694336 237.63598633 C-46.60356652 235.72821052 -47.87946248 234.07300752 -50.3828125 230.21484375 C-50.75954102 229.64604492 -51.13626953 229.07724609 -51.52441406 228.49121094 C-52.32580206 227.27726142 -53.11944657 226.0581695 -53.90582275 224.83444214 C-55.5535361 222.27073215 -57.23899981 219.73268102 -58.92233276 217.192276 C-59.76444347 215.92027384 -60.60456015 214.64694927 -61.44265747 213.37229919 C-69.30022152 201.42891499 -77.71649897 189.87670913 -87 179 C-88.01827693 177.78389416 -89.03650251 176.56774532 -90.0546875 175.3515625 C-96.50369465 167.7135466 -103.06145458 160.1455042 -111 154 C-111.66 154 -112.32 154 -113 154 C-112.3915625 154.7321875 -111.783125 155.464375 -111.15625 156.21875 C-78.2493713 196.56656034 -53.09347311 244.86543546 -36.19140625 293.875 C-32.34724729 305.5261497 -32.34724729 305.5261497 -24 314 C-21.35559361 314.8814688 -19.71939248 315.16174818 -17 315.1875 C-16.319375 315.20167969 -15.63875 315.21585937 -14.9375 315.23046875 C-12.67385868 315.10940411 -12.67385868 315.10940411 -10 313 C-10.33 310.03 -10.66 307.06 -11 304 C-10.34 304.33 -9.68 304.66 -9 305 C-9 305.66 -9 306.32 -9 307 C-2.23966959 305.79279814 1.77209186 303.36959487 7 299 C7.99 298.21625 8.98 297.4325 10 296.625 C10.99 295.820625 10.99 295.820625 12 295 C12.99435406 298.09354597 12.87840996 299.90279155 12 303 C26.6234448 292.40099097 35.01105808 272.1619282 42 256 C41.37351562 256.86625 40.74703125 257.7325 40.1015625 258.625 C39.27638032 259.75024843 38.45084098 260.87523499 37.625 262 C37.2125 262.57234375 36.8 263.1446875 36.375 263.734375 C35.29828281 265.19315312 34.15333422 266.60100976 33 268 C32.34 268 31.68 268 31 268 C37.85720257 246.06083139 50.03942502 226.23333981 64.65869141 208.61767578 C65.98776223 207.01475928 67.29722873 205.39728019 68.60546875 203.77734375 C71.32392202 200.44563331 74.13492535 197.20615496 77 194 C77.82709473 193.06873291 77.82709473 193.06873291 78.67089844 192.11865234 C87.14330144 182.7218589 95.36384411 176.54844169 106.74365234 171.12744141 C110.79917043 169.1009988 114.66560847 166.75024441 118.5625 164.4375 C143.47187908 149.81101441 143.47187908 149.81101441 151.1875 149.9375 C152.445625 149.958125 153.70375 149.97875 155 150 C150.42682475 155.20532042 144.81022127 158.47022744 138.9375 162.0625 C137.87708496 162.71935791 136.81666992 163.37621582 135.72412109 164.05297852 C129.74589228 167.74436281 123.72644974 171.35952939 117.67553711 174.93017578 C109.98092144 179.47756327 102.69768185 184.03032705 96 190 C95.1646875 190.71671875 94.329375 191.4334375 93.46875 192.171875 C83.54612327 200.34662994 83.54612327 200.34662994 77 211 C78.37610601 209.48016736 79.75082062 207.95907486 81.125 206.4375 C81.95257813 205.52226562 82.78015625 204.60703125 83.6328125 203.6640625 C85.48191366 201.58306086 87.25130987 199.47613355 89 197.3125 C93.68959672 191.87360132 98.68117279 186.88651609 106.0625 186.0625 C108.0115625 186.0315625 108.0115625 186.0315625 110 186 C108.69950909 188.8814646 107.34060182 190.88646656 105.05859375 193.06640625 C104.47956299 193.62851807 103.90053223 194.19062988 103.30395508 194.76977539 C102.6880249 195.36137451 102.07209473 195.95297363 101.4375 196.5625 C96.34235727 201.55523431 91.61967359 206.63809362 87.1953125 212.24609375 C85.21489299 214.73042783 83.16250702 217.13265924 81.07421875 219.52636719 C74.08260479 227.58641793 67.99575556 236.18402503 62 245 C61.37399902 245.9178125 60.74799805 246.835625 60.10302734 247.78125 C51.92361258 259.8094483 44.02890359 271.9564875 36.6484375 284.4921875 C36.21861572 285.22066895 35.78879395 285.94915039 35.34594727 286.69970703 C34.37993218 288.35067641 33.42608984 290.00879116 32.48022461 291.67138672 C31.9672583 292.55842285 31.45429199 293.44545898 30.92578125 294.359375 C30.23609253 295.56932129 30.23609253 295.56932129 29.5324707 296.80371094 C27.42788967 299.81993063 24.89874397 301.67654727 21.83203125 303.6484375 C18.70452341 305.95572474 17.22089165 308.33732505 16 312 C25.58943859 306.29200084 30.43538004 297.27116684 35.88723755 287.88027954 C37.98268962 284.27385355 40.10420684 280.68279201 42.22265625 277.08984375 C42.63791061 276.38437912 43.05316498 275.67891449 43.48100281 274.95207214 C53.66394224 257.67106108 64.32954236 241.75350446 78 227 C83.20617151 221.3213506 88.19241945 215.56260719 92.9609375 209.51171875 C95.82275744 205.98652676 98.86420611 202.64152076 101.93359375 199.296875 C103.61106577 197.43231253 105.14894479 195.53862596 106.6875 193.5625 C114.2608354 184.68123481 126.39907201 174.98968853 138.125 173.1875 C139.07375 173.125625 140.0225 173.06375 141 173 C137.50794062 176.59476701 133.95966325 179.92026191 130 183 C129.34 183 128.68 183 128 183 C127.731875 183.5775 127.46375 184.155 127.1875 184.75 C125.98199197 187.03412048 124.56864477 188.95431531 123 191 C129.95357094 186.46555425 136.90201556 181.92347498 143.84387207 177.37112427 C147.39308517 175.04569164 150.95348852 172.73885514 154.5234375 170.4453125 C156.09909847 169.42209077 157.67462995 168.39866958 159.25 167.375 C159.95624512 166.92801758 160.66249023 166.48103516 161.39013672 166.02050781 C166.09600457 162.93992749 169.55801811 159.44225738 173 155 C170.36 154.67 167.72 154.34 165 154 C166 151 166 151 168.40161133 149.74487305 C169.4511499 149.33793213 170.50068848 148.93099121 171.58203125 148.51171875 C172.74283203 148.05216797 173.90363281 147.59261719 175.09960938 147.11914062 C176.32486328 146.64669922 177.55011719 146.17425781 178.8125 145.6875 C197.31287403 138.69258515 197.31287403 138.69258515 213 127 C204.15534305 129.95769879 195.66317753 133.35775313 187.21923828 137.3203125 C183.13211974 139.20288618 179.53040757 140.51255108 175 141 C175.73397714 136.24465513 178.32091494 134.66557138 182.046875 131.91796875 C191.23362799 125.95144002 201.37538538 121.71860868 211.5 117.625 C212.32411377 117.29121338 213.14822754 116.95742676 213.99731445 116.61352539 C222.17229332 113.39142213 230.11507058 110.97716448 239 112 C243.51315789 114.02631579 243.51315789 114.02631579 245 117 C246.13223149 127.64297602 239.82745778 137.84743772 235.1875 147.0625 C234.69185547 148.07376953 234.19621094 149.08503906 233.68554688 150.12695312 C225.45987788 166.56770468 225.45987788 166.56770468 219 172 C216.8125 171.6875 216.8125 171.6875 215 171 C216.15924409 167.90868243 217.50815675 165.03020884 219.0625 162.125 C220.98523116 158.36531007 221.65062654 155.19248148 222 151 C218.3773995 155.90376409 215.41597113 161.04083523 212.66137695 166.46557617 C203.04128513 185.40447229 190.69134893 201.87893857 176.31640625 217.4609375 C174.42084068 219.53870752 172.61030128 221.6514601 170.8125 223.8125 C162.03155755 233.90124238 151.50185173 242.77656725 141 251 C139.53046875 252.16208984 139.53046875 252.16208984 138.03125 253.34765625 C120.32668712 267.23696358 101.61372945 280.88219649 81.16186523 290.41503906 C77.34076596 292.21236906 74.1913312 294.23337067 71 297 C82.8235818 291.37122036 93.82921474 284.92751883 104.81835938 277.82470703 C111.37575802 273.60169863 117.37956683 269.87387701 125 268 C125.66 268.33 126.32 268.66 127 269 C126.44018741 272.35128033 125.61751584 273.69230788 122.89453125 275.69921875 C122.24806641 276.18165039 121.60160156 276.66408203 120.93554688 277.16113281 C120.23494141 277.66483398 119.53433594 278.16853516 118.8125 278.6875 C118.08998047 279.21569336 117.36746094 279.74388672 116.62304688 280.28808594 C107.31201642 287.03266672 97.87653123 293.21132293 87.625 298.4375 C86.98304688 298.76782227 86.34109375 299.09814453 85.6796875 299.43847656 C79.10084882 302.68371982 73.20811995 304.2936957 65.86132812 303.76879883 C62.45767576 303.52991045 59.40078509 303.57351114 56 304 C53.90109813 305.87889119 53.15017721 307.46290716 52.046875 310.03125 C50.75013891 312.46988802 49.81828699 312.89667673 47.25 313.8125 C45.84110673 314.23516798 44.42364669 314.63005597 43 315 C36.14500557 316.96354925 30.46982521 318.84620306 26.625 325.3125 C26.315625 326.1478125 26.315625 326.1478125 26 327 C26.721875 327.0825 27.44375 327.165 28.1875 327.25 C31.7403575 328.19742867 33.5411437 329.25186649 36 332 C36.44394545 337.32734534 34.18706471 340.5200575 31.4375 345 C28.54729434 349.73211951 26.94834147 352.50800548 28 358 C28.66 358.99 29.32 359.98 30 361 C25.57883696 359.64908907 23.51923342 357.86882275 21 354 C19.59383944 350.43772657 19.95919986 349.11628041 21.25 345.4375 C23 342 23 342 24.75 339.75 C25.1625 339.1725 25.575 338.595 26 338 C25.67 337.01 25.34 336.02 25 335 C23.7625 334.649375 22.525 334.29875 21.25 333.9375 C18.28594479 332.95830319 17.22545645 332.34699157 15.5 329.69140625 C14.68684079 327.94057283 13.91823633 326.16811499 13.203125 324.375 C11.80523113 321.61552119 10.66940702 320.53634937 8 319 C0.00804523 316.45354382 -9.08214373 320.72148787 -16.2578125 324.23046875 C-18 325 -18 325 -20 325 C-19.67 327.31 -19.34 329.62 -19 332 C-20.65 331.67 -22.3 331.34 -24 331 C-24 330.01 -24 329.02 -24 328 C-25.918125 328.061875 -25.918125 328.061875 -27.875 328.125 C-30.0546875 328.1953125 -30.0546875 328.1953125 -32 328 C-34 326 -34 326 -34.609375 323.7578125 C-36.75746854 319.49782924 -40.36879525 317.51504561 -44.25 314.875 C-45.89349135 313.72227912 -47.5354015 312.5673008 -49.17578125 311.41015625 C-49.99256348 310.83668457 -50.8093457 310.26321289 -51.65087891 309.67236328 C-60.42454761 303.42629899 -68.65321189 296.59716495 -76.54296875 289.2734375 C-78.72099653 287.25815584 -80.93609286 285.30727564 -83.1875 283.375 C-90.79891804 276.74219285 -98.00477039 269.453055 -103.98046875 261.296875 C-108.87142929 254.77559428 -113.31204518 251.43217409 -120.59375 247.859375 C-136.35714657 239.25458513 -146.72793038 223.89017917 -156 209 C-156.63437988 207.98196289 -157.26875977 206.96392578 -157.92236328 205.91503906 C-159.68448741 203.05711594 -161.42465056 200.18917895 -163.14349365 197.3052063 C-164.17016841 195.59143073 -165.21604613 193.88920625 -166.26220703 192.18725586 C-171.53644382 183.20429684 -171.53644382 183.20429684 -170.92578125 178.21484375 C-170.46751953 176.62349609 -170.46751953 176.62349609 -170 175 C-168.68 174.67 -167.36 174.34 -166 174 C-160.63603032 179.71081283 -157.1613707 185.81948014 -153.5625 192.75 C-145.05406791 209.84447862 -145.05406791 209.84447862 -132.5625 224 C-128.80448495 227.21519065 -125.29669562 230.62009593 -121.8125 234.125 C-121.26126465 234.67945801 -120.7100293 235.23391602 -120.14208984 235.80517578 C-117.8492248 238.11651571 -115.56095768 240.43238313 -113.27246094 242.74804688 C-107.02546436 249.06252096 -100.78406743 255.25572215 -94 261 C-92.37152983 262.47534536 -90.74598483 263.9539343 -89.125 265.4375 C-84.24079273 269.83995693 -79.16319323 273.93202957 -74 278 C-72.78294996 278.97282821 -71.56686881 279.94686931 -70.3515625 280.921875 C-69.71065674 281.43588867 -69.06975098 281.94990234 -68.40942383 282.47949219 C-67.09599531 283.53387754 -65.78333047 284.58921492 -64.47143555 285.64550781 C-61.07759501 288.37024365 -57.64331364 290.99924523 -54.125 293.5625 C-49.64785006 296.99469844 -46.30901939 301.218626 -42.84765625 305.64453125 C-41.06186257 308.01810116 -41.06186257 308.01810116 -39 310 C-44.08469544 296.328214 -50.06532658 283.10586622 -56.1875 269.875 C-56.58249695 269.02034149 -56.9774939 268.16568298 -57.38446045 267.28512573 C-63.04663177 255.04853624 -68.75894122 242.93766988 -75.5 231.25 C-76.01481934 230.35458496 -76.52963867 229.45916992 -77.06005859 228.53662109 C-78.70179396 225.68820775 -80.34986822 222.84355651 -82 220 C-82.54817383 219.05350586 -83.09634766 218.10701172 -83.66113281 217.13183594 C-94.98789101 197.61834492 -106.68766747 178.76014493 -122.05859375 162.1328125 C-124 160 -124 160 -126.375 156.9375 C-130.44659667 152.38118944 -135.18984307 148.74834037 -140 145 C-140.845625 144.32710937 -141.69125 143.65421875 -142.5625 142.9609375 C-152.19268485 135.59149727 -163.11449433 129.11563665 -174.875 125.9375 C-186.55092119 122.67809272 -194.89314636 113.54362006 -203.48828125 105.42333984 C-205.67826068 103.36139216 -207.8939378 101.3298728 -210.125 99.3125 C-211.14980469 98.37857422 -211.14980469 98.37857422 -212.1953125 97.42578125 C-214.04990164 95.79449146 -214.04990164 95.79449146 -217 95 C-216.11699219 95.84820312 -215.23398438 96.69640625 -214.32421875 97.5703125 C-206.11210359 105.55571989 -198.80768481 113.79823047 -192 123 C-191.44812012 123.74475586 -190.89624023 124.48951172 -190.32763672 125.25683594 C-187.92522223 128.50470405 -185.52802371 131.75627746 -183.14086914 135.01538086 C-178.86752609 140.84846754 -174.49642734 146.59408549 -170.06640625 152.30859375 C-167.62739881 155.48529721 -165.29134753 158.71573521 -163 162 C-188.26565608 154.59708911 -205.93902863 124.46349198 -218 103 C-218.19788893 108.85294569 -217.87547642 114.24827552 -216.375 119.9375 C-216.07033813 121.10333618 -216.07033813 121.10333618 -215.75952148 122.29272461 C-212.80268511 132.70457372 -208.36181436 142.60244497 -204.16992188 152.56103516 C-199.95598837 162.58078348 -196.15776222 172.59272733 -193 183 C-192.59265625 184.2478125 -192.1853125 185.495625 -191.765625 186.78125 C-188.76636183 196.0666401 -188.76636183 196.0666401 -189 201 C-193.16158869 199.50287073 -194.32600112 197.16115356 -196.3125 193.3203125 C-196.91320312 192.16273438 -197.51390625 191.00515625 -198.1328125 189.8125 C-198.43993164 189.20535156 -198.74705078 188.59820312 -199.06347656 187.97265625 C-199.98303725 186.15846562 -200.92329098 184.3563116 -201.8671875 182.5546875 C-206.86415312 172.8181107 -210.19194648 163.25755089 -212.84375 152.6640625 C-214.88777834 144.83327813 -218.03424982 137.66698541 -221.5 130.375 C-235.4067324 100.9420966 -235.4067324 100.9420966 -231.234375 88.765625 C-229.91971976 86.24065223 -228.37899236 84.31364885 -226.1875 82.5 C-220.39599428 81.17622726 -214.82897035 83.62930969 -209.625 86 C-208.93510986 86.30977783 -208.24521973 86.61955566 -207.53442383 86.9387207 C-195.26775429 92.53562229 -183.7204733 99.04841106 -172.38330078 106.33325195 C-161.28012974 113.4394168 -149.87420945 120.3858219 -137.875 125.875 C-128.80841128 130.25913017 -120.96871753 136.91571754 -113 143 C-111.78321083 143.91624007 -110.56582924 144.83169431 -109.34765625 145.74609375 C-102.6997719 150.76449815 -96.29423027 156.03751996 -89.97265625 161.45703125 C-87.94308998 163.19323052 -85.90365535 164.89743494 -83.8359375 166.5859375 C-81.50393391 168.57103146 -79.52937413 170.48266157 -77.5625 172.8125 C-75.81506054 174.87102209 -74.07449838 176.91903071 -72.24609375 178.90625 C-65.62897715 186.13030571 -60.74065322 194.46682421 -56 203 C-55.78774884 195.06613024 -56.43356443 187.48009072 -57.5 179.625 C-61.71489979 145.79261701 -52.80327891 109.63053278 -38.6171875 78.734375 C-32.27083172 64.74766305 -28.6379401 51.01831745 -25.77563477 35.99243164 C-20.62960661 9.3207552 -20.62960661 9.3207552 -10.125 2.125 C-6.67839207 -0.09366664 -4.06506063 -0.19688328 0 0 Z M221.1875 131.8125 C219.70443359 133.04806641 219.70443359 133.04806641 218.19140625 134.30859375 C217.12707286 135.20509878 216.06327772 136.10224317 215 137 C214.21858643 137.65766357 214.21858643 137.65766357 213.42138672 138.32861328 C211.82124131 139.67581813 210.22277508 141.024985 208.625 142.375 C208.08045166 142.83487305 207.53590332 143.29474609 206.97485352 143.76855469 C204.23441914 146.08840544 201.51011533 148.42341933 198.8125 150.79296875 C187.83189374 160.3803368 176.22461792 167.97205607 163.26220703 174.61474609 C157.35329277 177.69339649 152.06878945 181.30138963 146.73046875 185.26953125 C143.20129475 187.88869698 139.56628674 190.33135641 135.91479492 192.77587891 C127.10103284 198.68762275 118.92603612 204.95210026 111 212 C110.27941406 212.61101562 109.55882812 213.22203125 108.81640625 213.8515625 C99.18450693 222.02995589 90.85059829 231.12670328 83 241 C82.01659759 242.19588457 81.03077712 243.38978346 80.04296875 244.58203125 C68.89644344 258.06978897 58.64086271 272.15855509 48.625 286.5 C48.0357373 287.34304688 47.44647461 288.18609375 46.83935547 289.0546875 C44.43280215 292.50141348 42.0314846 295.95081545 39.66015625 299.421875 C35.41590954 305.50669602 30.77428298 310.33512787 25 315 C29.32799176 315 31.77281386 312.48301384 35.125 310 C42.22043916 304.86650461 49.47659098 300.05998233 56.875 295.375 C76.6323009 282.82945496 96.26374416 270.04033349 115 256 C115.61584961 255.54109375 116.23169922 255.0821875 116.86621094 254.609375 C123.86111477 249.36602221 130.32684378 243.81323388 136.625 237.75 C141.73443671 232.84316311 146.68179233 229.12131529 152.9609375 225.76171875 C175.47648589 212.70964635 189.75444079 191.27261424 202 169 C201.34 168.67 200.68 168.34 200 168 C190.47040123 173.47951929 184.56596861 182.74756662 178.75 191.8125 C177.56167234 193.65517619 176.3691069 195.49512788 175.171875 197.33203125 C174.6572168 198.13358643 174.14255859 198.9351416 173.61230469 199.76098633 C171.40349364 202.82837066 169.40168004 205.53277332 165.75 206.75 C165.1725 206.8325 164.595 206.915 164 207 C171.20427194 187.23350513 184.46071431 172.18358617 199.20239258 157.59179688 C201.06850509 155.74405402 202.92637712 153.88832035 204.78320312 152.03125 C215.56661878 141.28209739 215.56661878 141.28209739 221.44702148 136.43237305 C224.13258176 133.95537538 226.00897342 131.04875946 228 128 C224.89959601 128 223.53607928 129.84904646 221.1875 131.8125 Z M-49 157 C-48 160 -48 160 -48 160 Z M-47 179 C-47 180.98 -47 182.96 -47 185 C-46.67 185 -46.34 185 -46 185 C-46 183.02 -46 181.04 -46 179 C-46.33 179 -46.66 179 -47 179 Z M73 214 C74 216 74 216 74 216 Z M-42 215 C-42 218 -42 218 -42 218 Z M-51 218 C-50 220 -50 220 -50 220 Z M69 219 C70 221 70 221 70 221 Z M66 223 C67 225 67 225 67 225 Z M-40 225 C-39 228 -39 228 -39 228 Z M63 227 C63 230 63 230 63 230 Z M60 231 C60 234 60 234 60 234 Z M56 236 C57 238 57 238 57 238 Z M-38 313 C-37 315 -37 315 -37 315 Z " fill="#F1C743" transform="translate(303,0)"/>
<path d="M0 0 C13.64717776 6.13750856 25.16043788 22.12079451 35.48413086 32.58007812 C48.65779544 45.93828588 48.65779544 45.93828588 63 58 C63.87938232 58.71857178 64.75876465 59.43714355 65.66479492 60.17749023 C73.33874708 66.44717845 81.91770665 70.99669509 90.56787109 75.76733398 C104.16806197 83.26882546 116.92442513 91.21121655 129 101 C129.52416504 101.40814941 130.04833008 101.81629883 130.58837891 102.23681641 C135.52560518 106.16315207 138.07494731 110.51040531 141 116 C141.64388672 117.17175781 141.64388672 117.17175781 142.30078125 118.3671875 C144.91294775 123.55561443 145.7106571 127.3903777 144 133 C141.62945206 139.74204227 137.45328477 144.77335761 131 148 C125.83372183 148.59285159 125.83372183 148.59285159 123 148 C120.79361298 146.21178109 119.62765121 144.39360472 118 142 C117.34 141.34 116.68 140.68 116 140 C113.03 140.99 113.03 140.99 110 142 C110.680625 142.5775 111.36125 143.155 112.0625 143.75 C113.0215625 144.86375 113.0215625 144.86375 114 146 C113.78476664 148.48769724 113.24360625 149.72032914 111.6015625 151.60546875 C82.67670027 174.75679129 41.72924927 178.16227958 6.25 178.1875 C5.41494934 178.18858765 4.57989868 178.18967529 3.71954346 178.1907959 C1.29731524 178.19043861 -1.1246857 178.18121931 -3.546875 178.16796875 C-4.26499359 178.16675522 -4.98311218 178.16554169 -5.72299194 178.16429138 C-7.81839485 178.14530759 -9.90630054 178.08610127 -12 178 C-13.21604919 177.95391098 -13.21604919 177.95391098 -14.45666504 177.90689087 C-15.6677594 177.82403336 -15.6677594 177.82403336 -16.90332031 177.73950195 C-17.63915344 177.69461136 -18.37498657 177.64972076 -19.13311768 177.60346985 C-21 177 -21 177 -22.25604248 174.95378113 C-22.50154846 174.30903336 -22.74705444 173.66428558 -23 173 C-19.2382906 170.54941067 -15.47257064 170.7195226 -11.140625 170.7265625 C-9.54621406 170.70982025 -7.95181294 170.69212272 -6.35742188 170.67358398 C-5.10723267 170.66305496 -5.10723267 170.66305496 -3.83178711 170.65231323 C28.91126602 170.30591805 60.83493968 164.07970095 91 151 C89.95199219 151.2165625 88.90398437 151.433125 87.82421875 151.65625 C86.44534373 151.93765307 85.06643574 152.21889464 83.6875 152.5 C82.99720703 152.64308594 82.30691406 152.78617188 81.59570312 152.93359375 C78.67475227 153.52625044 75.98891878 154 73 154 C74.39159663 150.52100842 75.63251488 149.51947499 79 148 C78.36191406 147.89042969 77.72382813 147.78085937 77.06640625 147.66796875 C76.24011719 147.50941406 75.41382813 147.35085938 74.5625 147.1875 C73.32693359 146.96126953 73.32693359 146.96126953 72.06640625 146.73046875 C71.38449219 146.48941406 70.70257813 146.24835938 70 146 C69.67 145.01 69.34 144.02 69 143 C76.93228964 139.79860517 84.71024602 137.89220427 93.125 136.4375 C100.66850228 135.116297 107.79548725 133.62743858 115 131 C114.67 130.01 114.34 129.02 114 128 C111.33614702 126.86099631 111.33614702 126.86099631 107.9375 125.9375 C101.00332174 123.80730413 94.41004136 121.11550594 87.75 118.25 C59.45086367 106.25990254 30.27725097 98.66750606 -0.01220703 93.70654297 C-7.58172368 92.45968894 -14.92423574 90.90244324 -22.328125 88.9140625 C-29.1413445 87.21800573 -36.07418333 86.1314453 -43 85 C-42 83 -42 83 -40.20703125 82.3671875 C7.71460462 72.51706332 65.41144991 100.31702265 110 115 C108.91424057 114.19078532 107.82368343 113.3880059 106.73120117 112.58789062 C106.12443039 112.14014282 105.51765961 111.69239502 104.89250183 111.2310791 C101.92139365 109.29836277 98.70353997 108.39112057 95.3125 107.5 C94.590625 107.29769775 93.86875 107.09539551 93.125 106.88696289 C89.02211151 105.75421269 84.89716922 104.72142415 80.76171875 103.71484375 C79.88539795 103.50085938 79.00907715 103.286875 78.10620117 103.06640625 C76.41989421 102.65948103 74.73133847 102.26171874 73.0402832 101.875 C65.44546059 100.0705977 58.80261418 98.40348557 54 92 C57.63 92 61.26 92 65 92 C58.6743474 88.12298712 53.34432856 86.02728604 46 85 C46.65585189 88.60992379 46.65585189 88.60992379 48 92 C47.02752319 91.72627563 47.02752319 91.72627563 46.03540039 91.44702148 C40.98021002 90.04377423 35.91956076 88.72055294 30.80859375 87.53515625 C29.76123047 87.29216797 28.71386719 87.04917969 27.63476562 86.79882812 C25.50039512 86.30728403 23.36496592 85.82031489 21.22851562 85.33789062 C3.0860374 81.1012922 3.0860374 81.1012922 -1 76 C-1.1875 73.3125 -1.1875 73.3125 -1 71 C-2.485 71.495 -2.485 71.495 -4 72 C-5.4897559 72.05873464 -6.98212701 72.06118148 -8.47265625 72.02734375 C-9.80973633 72.00704102 -9.80973633 72.00704102 -11.17382812 71.98632812 C-12.12708984 71.97021484 -13.08035156 71.95410156 -14.0625 71.9375 C-22.91864274 71.84993102 -31.4774383 72.39829476 -40.25 73.5625 C-43.54847372 73.94732193 -46.68481629 74.08287959 -50 74 C-49.95875 74.78375 -49.9175 75.5675 -49.875 76.375 C-50 79 -50 79 -52 81 C-54.125 80.625 -54.125 80.625 -56 80 C-56 79.01 -56 78.02 -56 77 C-71.16083119 80.01333291 -85.723538 86.04313987 -99.4375 93.0625 C-100.2116626 93.44929932 -100.9858252 93.83609863 -101.78344727 94.23461914 C-106.83791461 96.91996177 -110.94791484 100.06888826 -114 105 C-114.50525948 108.29634467 -114.50525948 108.29634467 -114 111 C-110.30513674 110.63952554 -108.04663241 110.02854574 -104.84765625 108.0703125 C-100.71742958 105.64402853 -96.68231029 104.9031208 -92 104.125 C-83.13127277 102.5136456 -74.4731257 100.39295887 -65.77929688 98.01806641 C-58.93771921 96.16765382 -52.37043296 94.86278554 -45.25 94.8125 C-44.32703125 94.79832031 -43.4040625 94.78414063 -42.453125 94.76953125 C-40 95 -40 95 -37 97 C-49.06329202 105.75180009 -64.35200928 105.86447215 -78.72973633 107.22949219 C-81.08775099 107.4564131 -83.44417612 107.6964417 -85.80078125 107.9375 C-86.50616531 108.0001001 -87.21154938 108.0627002 -87.93830872 108.12719727 C-93.0283953 108.65388175 -97.26504244 110.05364573 -102 112 C-101.24074219 111.84015625 -100.48148438 111.6803125 -99.69921875 111.515625 C-94.72635139 110.82246925 -89.82766299 110.77624022 -84.8125 110.75 C-83.81541016 110.729375 -82.81832031 110.70875 -81.79101562 110.6875 C-80.83517578 110.68234375 -79.87933594 110.6771875 -78.89453125 110.671875 C-78.02675049 110.6625293 -77.15896973 110.65318359 -76.26489258 110.64355469 C-73.55719827 111.06968746 -72.69320355 111.90210314 -71 114 C-77.7173573 117.87721149 -85.25470951 119.36148517 -92.703125 121.30664062 C-98.90877453 122.97710624 -104.37205502 124.88477498 -110 128 C-109.60594852 131.67273109 -109.60594852 131.67273109 -107.390625 134.484375 C-106.68421875 134.90203125 -105.9778125 135.3196875 -105.25 135.75 C-104.43660156 136.25789062 -103.62320313 136.76578125 -102.78515625 137.2890625 C-101.40650391 138.13597656 -101.40650391 138.13597656 -100 139 C-92.79539452 143.60727637 -86.26987073 148.3538091 -80.1875 154.375 C-79.66567139 154.88691895 -79.14384277 155.39883789 -78.60620117 155.92626953 C-75 159.61756016 -75 159.61756016 -75 163 C-80.44181378 162.51659015 -84.07227299 161.16654677 -88.75 158.375 C-89.65407593 157.83758179 -89.65407593 157.83758179 -90.57641602 157.28930664 C-91.80398857 156.555356 -93.02808756 155.81556249 -94.24853516 155.06982422 C-95.85911617 154.08605422 -97.48176989 153.12212124 -99.10546875 152.16015625 C-110.96963194 144.94347216 -120.71682701 134.58259954 -124.546875 120.8828125 C-124.69640625 120.26148438 -124.8459375 119.64015625 -125 119 C-125.226875 118.154375 -125.45375 117.30875 -125.6875 116.4375 C-126.68375463 108.6667139 -126.06248161 101.76068014 -121.74609375 95.05078125 C-105.40535286 74.52467348 -66.46847681 66.89183354 -41.66796875 64.06689453 C1.31682865 59.65841433 1.31682865 59.65841433 8 63 C8.25 65.3125 8.25 65.3125 8 68 C5.984375 69.66796875 5.984375 69.66796875 4 71 C15.12598501 73.38468735 26.25670551 75.64733135 37.515625 77.3046875 C38.59536339 77.46379356 38.59536339 77.46379356 39.69691467 77.62611389 C43.22931465 78.14207909 46.76334283 78.64183214 50.30053711 79.1237793 C66.24217931 81.35459993 83.31040275 85.47469151 96.76953125 94.71484375 C100.50918056 96.86956288 104.58578079 98.29938831 108.63476562 99.76953125 C113.48039367 101.58475091 117.3669542 103.61250614 120.3359375 107.953125 C121.1446905 110.44598719 121.00491039 112.16660937 120.625 114.75 C120.51414063 115.54921875 120.40328125 116.3484375 120.2890625 117.171875 C120.14597656 118.07679688 120.14597656 118.07679688 120 119 C124.23084903 117.31192092 124.23084903 117.31192092 127 114 C127.28719281 110.76908091 127.15657486 108.4384096 126.0625 105.375 C122.22765971 100.9591233 116.90978531 99.41877708 111.3125 98.19140625 C106.20658307 96.94694697 101.79782101 94.59701968 97.1875 92.125 C96.27750244 91.6417627 95.36750488 91.15852539 94.42993164 90.66064453 C80.58090074 83.19729593 67.31679969 74.79988845 55 65 C54.06929687 64.26136719 53.13859375 63.52273438 52.1796875 62.76171875 C45.92521079 57.71806692 39.87886478 52.47633105 34 47 C33.21109375 46.27683594 32.4221875 45.55367188 31.609375 44.80859375 C18.56565356 32.37498186 6.86717307 16.68931151 0 0 Z M132 123 C132 126 132 126 132 126 Z M130 136 C130 138.31 130 140.62 130 143 C130.33 143 130.66 143 131 143 C131 140.69 131 138.38 131 136 C130.67 136 130.34 136 130 136 Z " fill="#F1C743" transform="translate(126,214)"/>
<path d="M0 0 C8.28375856 0.08658197 13.97214973 2.58670677 21.0625 6.6875 C22.09906738 7.26910889 23.13563477 7.85071777 24.20361328 8.44995117 C26.38494679 9.67549502 28.56231446 10.908122 30.73583984 12.14746094 C33.8783448 13.9309559 37.03785999 15.6784802 40.20703125 17.4140625 C60.40738333 28.51257687 80.60091987 40.06347238 99 54 C100.07673149 54.80220606 101.15355621 55.604287 102.23046875 56.40625 C124.92918266 73.45485848 146.92912688 93.23883583 164 116 C164.48758789 116.63679688 164.97517578 117.27359375 165.47753906 117.9296875 C174.81762996 130.14068539 183.21550768 142.74587754 191 156 C191.45890625 156.76183594 191.9178125 157.52367187 192.390625 158.30859375 C198.40481503 168.37351765 202.57784795 178.78281773 206.125 189.9375 C206.5159082 191.14599609 206.90681641 192.35449219 207.30957031 193.59960938 C209.51851592 200.91184243 211.35646196 208.34038802 210 216 C208.72900391 217.83178711 208.72900391 217.83178711 207 219 C200.08961608 219.89617947 194.21930029 216.3863607 188.5 213 C186.72316264 211.9886931 184.9458111 210.97828912 183.16796875 209.96875 C182.29188965 209.46472656 181.41581055 208.96070313 180.51318359 208.44140625 C169.24368864 201.97792284 157.71621465 196.46938088 145.80004883 191.29907227 C99.90489413 171.33307065 99.90489413 171.33307065 86.33203125 158.22265625 C83.76941482 155.78022953 81.07679549 153.58568828 78.3125 151.375 C74.57542237 148.35174618 71.10834607 145.24739314 67.78320312 141.78051758 C66.00729792 140.00728693 64.16186671 138.38656406 62.25 136.76171875 C58.15242486 133.19730282 54.38684957 129.41009138 50.6875 125.4375 C50.04087402 124.74422607 49.39424805 124.05095215 48.72802734 123.33666992 C42.74980256 116.85200388 37.2309933 110.09771539 32 103 C31.22140625 101.94425781 30.4428125 100.88851562 29.640625 99.80078125 C19.04363697 84.94672734 7.15126076 66.46498818 5 48 C9.12418121 50.96766478 11.84399142 54.27102115 14.5625 58.5 C15.20094849 59.4741687 15.20094849 59.4741687 15.85229492 60.46801758 C19.84111253 66.6181356 23.57333455 72.91960018 27.31762695 79.22021484 C35.11627541 92.2938706 43.04681126 105.43840624 53 117 C53.85291997 118.03403804 54.70437422 119.0692861 55.5546875 120.10546875 C67.17347786 134.12620121 79.88503996 147.72312598 95 158 C95.69287109 158.47244141 96.38574219 158.94488281 97.09960938 159.43164062 C112.01528917 169.47426341 127.45592174 177.20581058 144.42456055 183.11303711 C152.76426974 186.10258251 160.64064021 190.02779393 168.54931641 194.0012207 C169.5604248 194.50355225 170.5715332 195.00588379 171.61328125 195.5234375 C172.95579956 196.202854 172.95579956 196.202854 174.32543945 196.89599609 C177.21956321 198.0906312 179.90336499 198.59862115 183 199 C172.4586042 186.65678025 160.98631366 174.7773404 148 165 C147.34370605 164.49968262 146.68741211 163.99936523 146.01123047 163.48388672 C132.84882389 153.47275461 119.21159484 144.26344158 105.12109375 135.609375 C86.80969708 124.2948937 71.22981417 108.89204647 58 92 C57.08291952 90.8706137 56.16351389 89.74311276 55.2421875 88.6171875 C48.03701706 79.78000542 41.3322133 70.64031827 34.70166016 61.36767578 C31.76810296 57.28594871 28.79320052 53.23487532 25.8125 49.1875 C25.22678223 48.3919873 24.64106445 47.59647461 24.03759766 46.77685547 C20.5811404 42.09795704 17.07015363 37.46755012 13.5 32.875 C1 16.71546053 1 16.71546053 1 9 C11.92192603 10.56027515 19.24681088 22.67228775 25.48876953 30.98193359 C31.79885637 39.51957871 37.86706539 48.22888824 43.9375 56.9375 C54.341625 71.84964585 65.07813708 86.40853572 76.68969727 100.40576172 C77.86653811 101.83761764 79.0152563 103.29247818 80.16015625 104.75 C93.10349721 120.57879914 113.98255604 130.55279233 131.49731445 140.2800293 C152.04842928 151.7171583 167.39973072 163.39817544 182 182 C183.67855553 184.0699558 185.37088987 186.12814854 187.0625 188.1875 C188.375 189.79166667 189.6875 191.39583333 191 193 C188.47718797 187.65495128 185.9476249 182.31315577 183.41210938 176.97412109 C182.4542072 174.95663073 181.49720527 172.93871273 180.54101562 170.92041016 C169.47473131 147.58356941 159.1552382 127.40395975 141.41357422 108.54077148 C139.8096606 106.79253334 138.26366985 105.00032261 136.71484375 103.203125 C132.73972631 98.64078043 128.52977838 94.3381768 124.25 90.0625 C123.45795166 89.27053223 122.66590332 88.47856445 121.84985352 87.66259766 C116.88419541 82.74507112 111.85572788 78.15156934 106.34375 73.8515625 C104.0976519 72.077145 102.0278046 70.20363084 99.9375 68.25 C81.48302403 51.70347342 58.77490604 37.92795458 36.4375 27.3125 C33.23989482 25.76248068 30.63920734 24.00703698 27.90234375 21.74609375 C22.94194495 17.82219619 17.6608765 14.78378543 12.125 11.75 C10.27093953 10.72847908 8.41926485 9.7026128 6.5703125 8.671875 C5.36012451 8.00816895 5.36012451 8.00816895 4.12548828 7.33105469 C2.10099144 6.06324435 0.60266838 4.75926203 -1 3 C-0.67 2.01 -0.34 1.02 0 0 Z M192 194 C193 196 193 196 193 196 Z " fill="#F1C643" transform="translate(325,373)"/>
<path d="M0 0 C0.66 0 1.32 0 2 0 C1.46639822 4.21974739 0.55010746 7.3158889 -1.5625 11 C-2.1090625 11.969375 -2.655625 12.93875 -3.21875 13.9375 C-4.37384049 15.92344506 -5.53988254 17.90307624 -6.71875 19.875 C-12.10025372 28.99619275 -16.64821691 38.43593019 -21.08032227 48.0546875 C-28.74139335 64.38564616 -38.7526293 79.82491272 -56 87 C-58.90288084 87.95498574 -61.81693865 88.86249727 -64.73803711 89.75976562 C-77.91679005 94.04232501 -91.12778834 101.41359026 -102 110 C-94.11784335 110.37935513 -87.10182315 108.94155498 -79.4375 107.1875 C-76.92466606 106.63586671 -74.41164635 106.08507896 -71.8984375 105.53515625 C-68.75734453 104.83924824 -65.61701903 104.14175408 -62.48144531 103.42138672 C-35.60117466 97.26517618 -15.92877532 102.83755248 7 117 C10.37360347 119.15825147 13.71982299 121.35673119 17.0625 123.5625 C31.55417176 133.12482248 45.79703884 141.61840684 63.3125 143.875 C70.50709842 144.87710478 76.85242825 147.36205241 83.54199219 150.0390625 C86.35992465 151.14070952 89.19654719 152.18220367 92.0390625 153.21875 C93.09569092 153.60603271 94.15231934 153.99331543 95.2409668 154.39233398 C97.32157973 155.15399119 99.40370494 155.91153409 101.48754883 156.66430664 C110.88330899 160.13934415 121.12044622 164.18066933 126.875 172.8125 C128.25508433 176.72273894 129.37977571 179.95749924 128 184 C122.50068898 189.62573196 114.30120466 192.68718512 106.5625 193.25 C104 193 104 193 102 192 C102.33 189.36 102.66 186.72 103 184 C96.65162132 182.38670517 90.99998389 181.74315286 84.46875 181.875 C83.59279175 181.88257324 82.7168335 181.89014648 81.81433105 181.89794922 C79.04267565 181.92215042 76.27146026 181.95937835 73.5 182 C69.8437593 182.05358999 66.18773974 182.09338721 62.53125 182.125 C61.29804016 182.14989502 61.29804016 182.14989502 60.03991699 182.17529297 C54.44582914 182.22200769 49.40478693 181.43287634 44 180 C45.73291016 176.12646484 45.73291016 176.12646484 48.13671875 174.98828125 C48.97847656 174.76527344 49.82023438 174.54226563 50.6875 174.3125 C51.51636719 174.08175781 52.34523438 173.85101563 53.19921875 173.61328125 C60.03936403 172.11550885 66.65367551 171.81738188 73.625 171.8125 C74.553125 171.80025391 75.48125 171.78800781 76.4375 171.77539062 C81.19261669 171.76517189 84.62498672 172.02806348 89 174 C91.99991912 174.66995257 95.02717347 175.14483535 98.0625 175.625 C98.86494141 175.7590625 99.66738281 175.893125 100.49414062 176.03125 C104.09216062 176.61648811 107.33162293 177 111 177 C109.45892578 176.63648438 109.45892578 176.63648438 107.88671875 176.265625 C94.7165108 173.10617787 83.60935388 169.19991318 72.16552734 161.81640625 C60.60048712 154.37588172 51.28615817 148.95349848 37.296875 147.6875 C31.0293619 146.38053044 26.89806086 142.11214725 22.25 137.9375 C10.37922024 127.65658798 -3.14844707 120.03566168 -18 115 C-19.07894531 114.62101562 -19.07894531 114.62101562 -20.1796875 114.234375 C-40.01655511 108.27480104 -62.14317404 113.3426969 -81.76464844 117.47265625 C-82.50953522 117.62915649 -83.254422 117.78565674 -84.0218811 117.94689941 C-85.42108098 118.24261764 -86.81956662 118.54174643 -88.21713257 118.84509277 C-101.20789415 121.61127628 -112.63966465 122.45022661 -125 117 C-118.54499603 103.5058288 -103.66567777 96.87503402 -91.1875 89.875 C-78.9852182 83.00328571 -66.91529311 75.74012317 -62.0625 61.875 C-60.10276211 56.41329571 -56.7727338 53.20468984 -52 50 C-51.01 49.67 -50.02 49.34 -49 49 C-49.56444825 53.34863652 -51.15427964 56.17827655 -53.5625 59.8125 C-54.20316406 60.78832031 -54.84382813 61.76414062 -55.50390625 62.76953125 C-55.99761719 63.50558594 -56.49132812 64.24164063 -57 65 C-49.14717613 65.57930668 -43.64066345 64.78518761 -37.453125 59.73828125 C-32.19124842 54.3491012 -29.36941168 47.01302074 -26.13134766 40.31347656 C-18.99299671 25.71636531 -11.607697 11.607697 0 0 Z " fill="#F1C643" transform="translate(505,197)"/>
<path d="M0 0 C7.69319023 -0.42739946 14.4235436 0.81033282 21.0625 4.875 C23.36654407 7.40201607 24 8.57865897 24 12 C23.23381348 13.35810791 23.23381348 13.35810791 22.45214844 14.74365234 C20.70072745 18.67109906 20.96867416 20.5416903 21.765625 24.7265625 C22.11173828 26.64662109 22.11173828 26.64662109 22.46484375 28.60546875 C22.7255435 29.94551114 22.98726715 31.28535474 23.25 32.625 C23.7429804 35.24069602 24.22351161 37.85834514 24.703125 40.4765625 C24.92645508 41.63236816 25.14978516 42.78817383 25.37988281 43.97900391 C26.98038187 53.45524513 27.15060188 63.02670766 27.1328125 72.61328125 C27.13376923 73.7847319 27.13472595 74.95618256 27.13571167 76.16313171 C27.13638808 78.63129734 27.13457167 81.09946481 27.13037109 83.56762695 C27.1250688 87.2645285 27.13030695 90.96130556 27.13671875 94.65820312 C27.16115605 175.75405697 27.16115605 175.75405697 10 198 C9.34 197.67 8.68 197.34 8 197 C8.10831146 196.23674911 8.21662292 195.47349823 8.32821655 194.68711853 C9.36385549 187.38121021 10.39343354 180.07448235 11.41673851 172.76683712 C11.94262721 169.01280344 12.47060007 165.25909123 13.00390625 161.50610352 C16.50648382 136.83822949 19.41041906 112.45976616 19.3125 87.5 C19.31134186 86.57176422 19.31018372 85.64352844 19.30899048 84.68716431 C19.26477515 66.69268259 17.70086932 49.51834006 13.62890625 31.97265625 C12.71900904 27.67183774 12.32222972 23.37700091 12 19 C8.51986582 26.99927916 6.00086734 35.25181402 3.51132202 43.59606934 C-0.0584791 55.55682838 -3.76247797 67.4423123 -7.8125 79.25 C-17.85902931 108.8418765 -28.38303032 144.98382319 -16.3125 175.5625 C-14.983812 179.04239715 -14.57195108 181.31877927 -15 185 C-15.66 185.99 -16.32 186.98 -17 188 C-20.65654206 187.45913649 -20.65654206 187.45913649 -22.125 185.49609375 C-27.85801387 172.00815486 -32.1022372 155.6495473 -29.0078125 141.046875 C-27.40760134 132.90091816 -27.88438207 124.65790457 -28.04101562 116.40014648 C-28.26037925 103.67849917 -27.65197489 92.59210005 -22 81 C-21.38921547 79.53588468 -20.79296394 78.06562715 -20.2109375 76.58984375 C-19.91380859 75.83880371 -19.61667969 75.08776367 -19.31054688 74.31396484 C-19.00181641 73.52973145 -18.69308594 72.74549805 -18.375 71.9375 C-14.75857378 62.80339048 -10.98912522 53.73772259 -7.14990234 44.69506836 C-6.73949707 43.72061768 -6.3290918 42.74616699 -5.90625 41.7421875 C-5.53822266 40.8744873 -5.17019531 40.00678711 -4.79101562 39.11279297 C-3.8831249 37.06383041 -3.8831249 37.06383041 -4 35 C-20.71952824 68.14350926 -32.19082411 103.66130407 -41.13354492 139.60449219 C-41.31189377 140.32094406 -41.49024261 141.03739594 -41.67399597 141.77555847 C-42.15473793 143.71545435 -42.6302937 145.6566334 -43.10546875 147.59790039 C-43.94403819 150.7871649 -44.91835751 153.88581069 -46 157 C-49.79473276 153.20526724 -49.18168773 147.37342021 -49.25 142.25 C-49.10375465 105.25906669 -33.38946794 51.0669453 -7.1875 23.75 C-3.95110698 20.64945558 -1.28851742 19.04955836 3.25 18.875 C4.1575 18.91625 5.065 18.9575 6 19 C6.88556744 17.31026274 6.88556744 17.31026274 7 15 C5.16629332 11.80799208 3.11937311 9.13550461 0.6875 6.375 C-1 4 -1 4 -0.75 1.6875 C-0.5025 1.130625 -0.255 0.57375 0 0 Z " fill="#F1C643" transform="translate(280,378)"/>
<path d="M0 0 C3.0538143 9.54316967 -0.51327696 19.20852458 -4.84765625 27.80078125 C-9.16302658 35.89740144 -14.25804537 43.3499911 -19.61816406 50.78198242 C-25.60596723 59.13061969 -30.53712534 67.91358072 -34.98999023 77.16308594 C-48.11310232 104.27847442 -73.81129605 116.65918617 -99.60668945 129.73242188 C-101.32554275 130.64278465 -103.01289362 131.61357534 -104.67651367 132.62133789 C-106.89917625 133.94017529 -108.48687125 134.48655553 -111 134.9375 C-117.67901181 136.49801678 -121.2017992 141.21678441 -125.44921875 146.29296875 C-127.25687288 148.28275427 -128.25070513 148.9623848 -130.9453125 149.09765625 C-132.96354167 149.06510417 -134.98177083 149.03255208 -137 149 C-137 145.52764887 -136.70080468 145.24663335 -134.375 142.875 C-126.31839953 135.20589134 -116.31486998 129.99932707 -106.39819336 125.16040039 C-87.11312812 115.76615892 -87.11312812 115.76615892 -70 103 C-68.81560873 101.95480001 -67.62828295 100.91291217 -66.4375 99.875 C-65.88578125 99.38773437 -65.3340625 98.90046875 -64.765625 98.3984375 C-62.83576712 96.86992175 -60.81880938 95.72960157 -58.6875 94.5 C-54.66816475 91.8465019 -51.95772411 88.67968208 -49.2109375 84.78125 C-48.7774147 84.16910645 -48.34389191 83.55696289 -47.89723206 82.92626953 C-43.12819023 76.00371555 -39.52715146 68.58006725 -35.9375 61 C-30.93213312 50.48885528 -25.51177585 40.65745971 -19 31 C-18.06239705 29.59381864 -17.12487556 28.18758295 -16.1875 26.78125 C-15.08171943 25.12257914 -13.97539391 23.46413349 -12.84765625 21.8203125 C-10.48088565 18.23225458 -9.41214378 15.27599171 -9 11 C-13.29272905 11.53893066 -15.67034177 12.97101363 -19.05859375 15.61328125 C-24.81948461 19.94527835 -30.83551414 23.57242801 -37.0625 27.1875 C-47.84810099 33.55874109 -58.04699436 40.40292471 -68 48 C-68.63470215 48.47920898 -69.2694043 48.95841797 -69.92333984 49.45214844 C-78.3755148 55.84922418 -86.34876106 62.66068749 -94 70 C-94.92449951 70.87567627 -94.92449951 70.87567627 -95.86767578 71.76904297 C-109.25197158 84.49980225 -120.60055547 98.14274211 -129.84326172 114.17578125 C-130.81940956 115.83115303 -131.9009415 117.42355122 -133 119 C-133.99 119 -134.98 119 -136 119 C-138.56377118 115.15434323 -138.5099662 113.58969584 -138 109 C-134.83861999 98.53406493 -125.93629807 90.14091552 -119 82 C-114.86184353 77.12288701 -111.15479646 72.63030139 -108.4375 66.8125 C-95.44562235 39.47011698 -49.28816253 22.38518409 -24 10 C-22.95553711 9.48743652 -21.91107422 8.97487305 -20.83496094 8.44677734 C-17.91488547 7.01840869 -14.9901102 5.60035108 -12.0625 4.1875 C-11.18682373 3.76082031 -10.31114746 3.33414062 -9.40893555 2.89453125 C-8.60496338 2.51039063 -7.80099121 2.12625 -6.97265625 1.73046875 C-6.27406494 1.39426514 -5.57547363 1.05806152 -4.85571289 0.71166992 C-3 0 -3 0 0 0 Z " fill="#F2C643" transform="translate(261,374)"/>
<path d="M0 0 C4.10524918 1.4552975 8.20914512 2.91437004 12.3125 4.375 C13.25411484 4.7099649 13.25411484 4.7099649 14.2147522 5.05169678 C22.28785143 7.92593335 30.33493294 10.85787684 38.35620117 13.87451172 C65.02601228 23.88570794 91.8928566 32.77240078 120.390625 35.50390625 C124.97329496 36.13377539 129.07874465 37.44553883 133.38671875 39.09765625 C151.36526226 45.30549414 173.96570522 40.30875909 192.15112305 37.3671875 C194.80735421 37.02482983 197.32598446 36.93120713 200 37 C196.19233591 40.50513735 191.66656362 41.58440318 186.8125 43 C185.48424194 43.39191528 185.48424194 43.39191528 184.12915039 43.79174805 C168.70493554 48.21147166 153.13192737 50.14879762 137.1015625 50.16796875 C136.10474457 50.17129715 135.10792664 50.17462555 134.0809021 50.17805481 C131.98850968 50.18307933 129.89610938 50.18546453 127.80371094 50.18530273 C124.63983714 50.18748974 121.47631241 50.20569528 118.3125 50.22460938 C108.02452419 50.25223748 98.10377253 50.16264353 88 48 C92.57026249 52.87494666 97.75652846 56.87523719 103 61 C105.5855931 63.05784356 108.16689955 65.12068098 110.7421875 67.19140625 C112.09253495 68.27308596 113.44970833 69.34644912 114.8203125 70.40234375 C120.46496436 74.84147951 122.95779682 78.72665586 123.875 85.8125 C125.3746649 95.98522693 131.82483149 102.2050922 138.77294922 109.30834961 C143.01245648 113.71060057 145.88169787 117.55508932 146.1875 123.875 C146.125625 124.90625 146.06375 125.9375 146 127 C137.70738191 123.50551246 132.20079308 112.60871356 127 105.5625 C126.39043457 104.7377417 125.78086914 103.9129834 125.15283203 103.06323242 C122.55452343 99.5332496 119.97379237 96.00329037 117.53125 92.36328125 C116.8609375 91.37714844 116.190625 90.39101563 115.5 89.375 C114.9534375 88.53710938 114.406875 87.69921875 113.84375 86.8359375 C111.3797905 84.38241851 109.38681578 84.51081252 106 84 C103.48046875 82.29296875 103.48046875 82.29296875 101.1875 80.1875 C100.41792969 79.50042969 99.64835937 78.81335938 98.85546875 78.10546875 C96.98077552 75.97818528 96.37945861 74.76818169 96 72 C98.93703384 72.62936439 101.33788628 73.62420173 104 75 C98.36266906 69.60723873 92.71071698 64.95119466 86.05859375 60.875 C62.7062635 46.55939525 62.7062635 46.55939525 57 38 C56.875 34.8125 56.875 34.8125 57 32 C56.13761719 31.8040625 55.27523437 31.608125 54.38671875 31.40625 C34.91778292 26.6366691 13.51034281 18.46217563 0 3 C0 2.01 0 1.02 0 0 Z M105 41 C105 41.33 105 41.66 105 42 C119.45226221 43.79033248 119.45226221 43.79033248 134 44 C130.28809903 40.28809903 124.09749495 40.94849132 119.0625 40.90234375 C117.37497199 40.90888456 115.68745658 40.92065136 114 40.9375 C113.12988281 40.94201172 112.25976562 40.94652344 111.36328125 40.95117188 C109.24215707 40.9628264 107.1210689 40.98075643 105 41 Z " fill="#F1C743" transform="translate(354,359)"/>
<path d="M0 0 C6.67479207 8.34693306 8.11843667 21.37300008 9.58203125 31.73828125 C9.70919022 32.63693909 9.83634918 33.53559692 9.96736145 34.46148682 C11.33496115 44.69464747 11.79310713 54.9416354 12.1875 65.25 C12.26927211 67.14977898 12.35195227 69.04951909 12.43554688 70.94921875 C13.78226417 102.52801058 2.49355489 125.08511213 -12.44018555 152.43115234 C-16.25599068 159.4705655 -19.69467728 166.46608009 -22.6171875 173.92578125 C-24.89808061 179.73373782 -27.46704725 184.56934273 -31.25878906 189.57177734 C-34.66954187 194.32827586 -37.18176588 199.62834575 -39.875 204.8125 C-54.38935517 232.18303076 -54.38935517 232.18303076 -66.375 239.4375 C-70.52715545 240.3272476 -74.79311666 240.6631189 -79 240 C-81.25387468 238.31047746 -81.935937 237.23965609 -82.66976929 234.49443054 C-82.80501007 233.52133438 -82.94025085 232.54823822 -83.07958984 231.5456543 C-83.23578796 230.47221771 -83.39198608 229.39878113 -83.55291748 228.29281616 C-83.70045471 227.20618683 -83.84799194 226.1195575 -84 225 C-84.28885901 223.07512376 -84.57870927 221.15039596 -84.86962891 219.22583008 C-85.6421694 213.89904638 -86.39457184 208.56942973 -87.14160156 203.23901367 C-87.46269952 200.96294811 -87.78851267 198.68754255 -88.11914062 196.4128418 C-90.03796843 183.19987765 -91.5639892 170.36283054 -91 157 C-87.83995789 160.0345283 -86.05522732 162.4920138 -84.375 166.5625 C-83.76785156 167.98755859 -83.76785156 167.98755859 -83.1484375 169.44140625 C-79.81790774 179.76151716 -79.28571557 190.62797833 -78.47363281 201.37890625 C-77.75479054 210.73759159 -76.15486372 219.14943008 -73 228 C-72.34 228 -71.68 228 -71 228 C-57.89608346 214.44422427 -47.44951146 197.90358306 -38.37695312 181.48486328 C-36.98226152 178.96798897 -35.56284915 176.46624543 -34.140625 173.96484375 C-26.15000074 159.76490225 -19.34371745 145.09409052 -12.53320312 130.30810547 C-10.57178823 126.07607173 -8.56974357 121.86758042 -6.5 117.6875 C-6.19352539 117.06238525 -5.88705078 116.43727051 -5.57128906 115.79321289 C-3.85397585 112.38467823 -1.89385051 109.52156521 0.5 106.5625 C3.28986665 102.56238322 3.3199725 98.94243346 3.19726562 94.22680664 C3.18706642 93.47732034 3.17686722 92.72783403 3.16635895 91.95563602 C3.05121755 84.937621 2.78002396 77.92372926 2.44441223 70.91311455 C2.33986613 68.72739453 2.24038981 66.54148794 2.14196777 64.35548401 C1.93223221 59.71595559 1.7165338 55.07671541 1.5 50.4375 C1.248472 45.04404316 0.99960147 39.65048527 0.75654602 34.25663948 C0.65980726 32.13655328 0.55874874 30.01670518 0.45739746 27.89683533 C0.02776317 18.59093637 -0.07319681 9.31308344 0 0 Z " fill="#F2C644" transform="translate(323,414)"/>
<path d="M0 0 C1.44104152 3.85889641 0.61249858 7.19011116 -0.3125 11.0625 C-0.48491211 11.78856445 -0.65732422 12.51462891 -0.83496094 13.26269531 C-4.3913869 27.23068713 -10.12682599 40.64737154 -15.359375 54.05078125 C-15.72192383 54.98567383 -16.08447266 55.92056641 -16.45800781 56.88378906 C-17.12608523 58.60125518 -17.80184338 60.31576493 -18.48730469 62.02636719 C-20.07220209 66.08377192 -21.28078147 70.00440348 -22.09960938 74.28881836 C-22.27085327 75.17524521 -22.44209717 76.06167206 -22.61853027 76.97496033 C-22.74441528 77.64322342 -22.87030029 78.31148651 -23 79 C-21.9081691 78.60988991 -21.9081691 78.60988991 -20.79428101 78.2118988 C-13.82702235 75.72327257 -6.85844689 73.23838166 0.11152077 70.75735378 C3.6920717 69.48268329 7.27215302 68.20673015 10.85107422 66.92749023 C14.99563113 65.44629989 19.14175784 63.96957226 23.2890625 62.49609375 C23.96789364 62.25467022 24.64672478 62.01324669 25.34612656 61.76450729 C34.82138567 58.40060713 44.330331 55.18151068 53.97964478 52.34605408 C63.04032046 49.60227007 70.96603441 44.91928347 79 40 C81.30829021 38.5968513 83.6211089 37.20233466 85.9375 35.8125 C86.85402344 35.24144531 87.77054687 34.67039062 88.71484375 34.08203125 C91 33 91 33 94 34 C70.05136212 54.51206204 41.69643028 65.93618891 12.72460938 77.5078125 C9.46102215 78.81258127 6.20566692 80.13665092 2.953125 81.46875 C-23.65962656 92.34267237 -23.65962656 92.34267237 -31 90 C-33.18359375 88.80078125 -33.18359375 88.80078125 -35 87 C-38.37226864 58.84155687 -14.86426694 23.74362891 -1 1 C-0.67 0.67 -0.34 0.34 0 0 Z " fill="#F1C643" transform="translate(98,482)"/>
<path d="M0 0 C0.495 1.485 0.495 1.485 1 3 C-3.33551273 8.00041279 -8.43133861 10.64833964 -14.25 13.6875 C-16.22902655 14.74391987 -18.20687902 15.80254193 -20.18359375 16.86328125 C-21.16440918 17.38873535 -22.14522461 17.91418945 -23.15576172 18.45556641 C-33.04991289 23.82813295 -42.7432448 29.58896106 -52 36 C-52.95648438 36.6290625 -53.91296875 37.258125 -54.8984375 37.90625 C-63.26841199 43.49974385 -70.74374782 49.82852439 -78.27783203 56.49121094 C-82.41748943 60.11795927 -86.71086513 63.55316042 -91 67 C-92.12271503 67.92799938 -93.24509318 68.85640644 -94.3671875 69.78515625 C-101.54702318 75.65723262 -108.43940336 80.28413662 -117 84 C-115.54173195 79.49186848 -113.01469622 76.31979123 -109.9375 72.8125 C-109.44362793 72.24152588 -108.94975586 71.67055176 -108.44091797 71.08227539 C-107.43605247 69.92407318 -106.42794044 68.76867923 -105.41650391 67.61621094 C-104.17805853 66.20316227 -102.95309996 64.7783163 -101.73046875 63.3515625 C-82.43139151 41.22386354 -57.74829385 25.05441028 -32.11572266 11.16357422 C-29.78184444 9.880022 -27.47619295 8.55174443 -25.16796875 7.22265625 C-9.11744785 -1.84397822 -9.11744785 -1.84397822 0 0 Z " fill="#F1C643" transform="translate(233,377)"/>
<path d="M0 0 C28.35841913 2.66578332 57.99371685 8.86346047 84.60668945 19.046875 C98.67860675 24.15409912 114.76974803 23.54073796 129.55249023 24.10449219 C154.88066204 25.09321839 154.88066204 25.09321839 158.74536133 28.5703125 C159.36640747 29.27800781 159.36640747 29.27800781 160 30 C121.41778477 41.02349007 69.26235366 29.27899084 33.05078125 14.97094727 C30.74023813 14.0586456 28.42524159 13.15845648 26.109375 12.25976562 C17.25361891 8.80249256 8.57594091 5.11158452 0 1 C0 0.67 0 0.34 0 0 Z " fill="#F1C644" transform="translate(346,351)"/>
<path d="M0 0 C1.11245087 0.00040787 1.11245087 0.00040787 2.24737549 0.00082397 C14.07700637 0.02046095 25.87498905 0.37280541 37.6875 1 C38.40835785 1.03493561 39.1292157 1.06987122 39.87191772 1.10586548 C63.44684529 2.28297276 63.44684529 2.28297276 68.66748047 6.78833008 C69.04533691 7.25005615 69.42319336 7.71178223 69.8125 8.1875 C63.77222813 10.77618794 58.40542978 11.33858172 51.87109375 11.3203125 C51.10757095 11.32126923 50.34404816 11.32222595 49.55738831 11.32321167 C47.94279905 11.32389051 46.32820702 11.32205687 44.71362305 11.31787109 C42.28232424 11.31257047 39.85121458 11.31779917 37.41992188 11.32421875 C29.81341598 11.32729134 22.32903826 11.14938493 14.75170898 10.41894531 C8.88530116 9.95700042 3.00648405 9.99587475 -2.875 10 C-3.53358002 10.00027191 -4.19216003 10.00054382 -4.87069702 10.00082397 C-16.55479807 10.02294592 -27.74093727 10.66952581 -39.2109375 12.98828125 C-50.93733279 15.32748446 -62.24532377 15.51242317 -74.1875 15.1875 C-58.19203747 -1.65515533 -21.36206907 -0.02972542 0 0 Z " fill="#F1C744" transform="translate(446.1875,326.8125)"/>
<path d="M0 0 C4.12431974 1.52752583 7.15971269 4.0151259 9 8 C12.03178947 27.00883875 -1.33013123 44.20918826 -10.92578125 59.5546875 C-12.87003199 62.72605493 -14.64092454 65.97827416 -16.40771484 69.25097656 C-30.10440579 94.55661575 -47.31967409 120.01714 -71 137 C-71 133.58598483 -70.51853658 132.98165974 -68.54296875 130.33203125 C-68.01300293 129.61200928 -67.48303711 128.8919873 -66.93701172 128.15014648 C-66.35967285 127.37872314 -65.78233398 126.6072998 -65.1875 125.8125 C-63.98427149 124.17551139 -62.78247282 122.53747094 -61.58203125 120.8984375 C-60.97697754 120.0744043 -60.37192383 119.25037109 -59.74853516 118.40136719 C-48.08403613 102.38181785 -37.5296603 85.61653822 -27.25 68.6875 C-26.89178162 68.09771362 -26.53356323 67.50792725 -26.16448975 66.90026855 C-21.87622672 59.83200605 -17.65999656 52.73080538 -13.58911133 45.53442383 C-12.05664901 43.09034773 -10.41899035 41.08831155 -8.4375 39 C-1.06892928 31.01738172 2.53730358 20.94044631 3.25 10.25 C2.94546525 6.29104821 1.74985277 3.49970555 0 0 Z " fill="#F1C643" transform="translate(264,368)"/>
<path d="M0 0 C12.29969445 5.29486846 23.8526159 11.89791104 35.36572266 18.70556641 C37.98846894 20.25231421 40.6171155 21.78859761 43.24797058 23.32150269 C45.64300203 24.718476 48.03474179 26.12102125 50.4258728 27.5246582 C52.14896073 28.53465751 53.87485239 29.53986883 55.60083008 30.54492188 C75.8722988 42.49568607 75.8722988 42.49568607 78.203125 48.37890625 C65.65284908 49.67721066 57.84270199 46.75288193 47.203125 40.37890625 C46.53635742 39.98848145 45.86958984 39.59805664 45.18261719 39.19580078 C37.71374844 34.80011678 30.62446464 30.02766079 23.703125 24.81640625 C10.49618038 14.90377815 -6.02795841 3.80397921 -23.24609375 5.7734375 C-26.44248112 6.25375949 -29.61987522 6.78475328 -32.796875 7.37890625 C-26.79672992 -5.77737517 -11.55246741 -4.33973579 0 0 Z " fill="#F1C743" transform="translate(345.796875,365.62109375)"/>
<path d="M0 0 C0.76957031 0.20447754 1.53914063 0.40895508 2.33203125 0.61962891 C7.87607418 2.24812997 12.36232162 4.61232162 16.5 8.75 C16.125 11.875 16.125 11.875 15.5 14.75 C12.07271365 15.92394406 10.09778693 15.54283109 6.6875 14.4375 C-4.39883844 11.20459971 -16.01963161 10.48567285 -27.5 9.75 C-26.69128775 11.91577801 -26.69128775 11.91577801 -24.59375 12.53125 C-17.96316179 14.36864191 -11.47922242 15.28039873 -4.65844727 15.97607422 C0.73256917 16.56161761 5.44294131 17.72717652 10.5 19.75 C10.5 20.74 10.5 21.73 10.5 22.75 C7.18836864 24.40581568 3.51172258 23.89245627 -0.125 23.875 C-1.29869141 23.88080078 -1.29869141 23.88080078 -2.49609375 23.88671875 C-6.32868698 23.88036287 -10.03767764 23.73227525 -13.8359375 23.203125 C-16.80879109 22.83547999 -18.66166124 22.72877108 -21.5 23.375 C-26.06111794 24.05603136 -29.50319008 22.97140294 -33.5 20.75 C-37.34681941 17.5870596 -39.80767348 14.450907 -41.5 9.75 C-41.5 5.35984572 -41.25811565 3.50811565 -38.125 0.375 C-27.97968088 -5.90543565 -10.94545026 -2.91690159 0 0 Z " fill="#F1C744" transform="translate(163.5,322.25)"/>
<path d="M0 0 C0.45246094 0.31710937 0.90492187 0.63421875 1.37109375 0.9609375 C36.00410659 24.66065517 67.79802837 30.47926856 108.75927734 23.96606445 C114.23961609 23.12306036 119.45388053 22.87737223 125 23 C125 23.66 125 24.32 125 25 C108.38868894 32.36938163 89.04239409 34.46107135 71 35 C69.41832031 35.05994141 69.41832031 35.05994141 67.8046875 35.12109375 C45.51783368 35.57757148 17.67519206 28.94221658 1 13 C-1.78816179 9.7048997 -2.04062937 8.60944055 -1.75 4.25 C-1 1 -1 1 0 0 Z " fill="#F2C644" transform="translate(63,336)"/>
<path d="M0 0 C5.08229277 1.73741906 9.11756281 4.20740656 12.90234375 7.9921875 C12.77734375 10.4921875 12.77734375 10.4921875 11.90234375 12.9921875 C10.56901042 13.65885417 9.23567708 14.32552083 7.90234375 14.9921875 C7.52924476 16.65040523 7.19533398 18.31795764 6.90234375 19.9921875 C-0.37584538 24.84431359 -11.39934763 21.79717973 -19.53515625 20.2421875 C-20.387146 20.08540527 -21.23913574 19.92862305 -22.11694336 19.76708984 C-28.34498356 18.48648937 -32.91381732 16.75838347 -36.97265625 11.6171875 C-38.33959595 8.42766153 -38.60942313 6.42833652 -38.09765625 2.9921875 C-30.35493508 -6.55716861 -10.69997668 -2.67181344 0 0 Z M-26.09765625 8.9921875 C-23.19494264 10.58343412 -20.57767662 11.43833743 -17.33203125 12.0625 C-15.99785156 12.32353516 -15.99785156 12.32353516 -14.63671875 12.58984375 C-13.25613281 12.85087891 -13.25613281 12.85087891 -11.84765625 13.1171875 C-10.91179687 13.29894531 -9.9759375 13.48070312 -9.01171875 13.66796875 C-6.7079874 14.11461054 -4.40335195 14.5558203 -2.09765625 14.9921875 C-1.76765625 14.0021875 -1.43765625 13.0121875 -1.09765625 11.9921875 C-9.5351821 8.65688316 -17.15940956 8.67041062 -26.09765625 8.9921875 Z " fill="#F1C643" transform="translate(484.09765625,345.0078125)"/>
<path d="M0 0 C0.99 0.33 1.98 0.66 3 1 C3.16709808 6.32619673 2.57508441 11.10323312 1.50390625 16.3125 C1.35090561 17.08505127 1.19790497 17.85760254 1.04026794 18.65356445 C0.55392502 21.10367219 0.05864661 23.55186054 -0.4375 26 C-0.92839582 28.44844248 -1.41737603 30.89725109 -1.90455627 33.34643555 C-2.20698939 34.86403158 -2.51180458 36.38115562 -2.81944275 37.89770508 C-4.21991606 44.87283447 -5.13932986 51.61372834 -5.125 58.75 C-5.12757813 60.04421875 -5.13015625 61.3384375 -5.1328125 62.671875 C-5.15453157 65.99998551 -5.15453157 65.99998551 -4 69 C-3.81076202 70.41380098 -3.65994486 71.8329657 -3.53515625 73.25390625 C-3.45821533 74.09953125 -3.38127441 74.94515625 -3.30200195 75.81640625 C-3.22296631 76.72261719 -3.14393066 77.62882812 -3.0625 78.5625 C-2.33109306 86.75908393 -2.33109306 86.75908393 -1.390625 94.93359375 C-0.2776241 103.64583079 0.75588409 112.27722099 -1 121 C-1.99 121.99 -1.99 121.99 -3 123 C-12.77124298 84.47567318 -18.9048926 40.77411992 -3 3 C-1.40625 1.27734375 -1.40625 1.27734375 0 0 Z " fill="#F1C643" transform="translate(284,113)"/>
<path d="M0 0 C9.48589425 4.06538325 14.99005814 9.90909329 20.24609375 18.7421875 C20.6352597 19.39398483 21.02442566 20.04578217 21.42538452 20.71733093 C26.20480551 28.86748043 30.14393662 37.41385521 34.13037109 45.97045898 C38.1427501 54.55297856 42.28428278 62.39287111 48 70 C48.84955714 71.23687369 49.69023333 72.47992134 50.51953125 73.73046875 C50.89722656 74.29838135 51.27492188 74.86629395 51.6640625 75.45141602 C52.04304688 76.02432373 52.42203125 76.59723145 52.8125 77.1875 C55.44894517 81.17040071 58.09260085 85.14597932 60.79296875 89.0859375 C61.24631592 89.75214111 61.69966309 90.41834473 62.16674805 91.10473633 C63.03113275 92.37400953 63.90078134 93.63972017 64.77661133 94.90112305 C67.20564074 98.48522236 68.83229769 101.8305412 70 106 C48.12086863 94.72893232 33.35401989 61.58410045 22 41 C21.33984396 39.8041991 20.6796877 38.60839833 20.01953125 37.41259766 C19.31503769 36.13577886 18.61061193 34.85892266 17.90625 33.58203125 C17.55207001 32.93998749 17.19789001 32.29794373 16.83297729 31.63644409 C15.08593771 28.46786238 13.34223892 25.29753742 11.60595703 22.12304688 C8.22574904 15.95511656 4.77519763 9.8616357 1.04443359 3.8972168 C0 2 0 2 0 0 Z " fill="#F2C643" transform="translate(321,394)"/>
<path d="M0 0 C4.16760752 0.87448853 8.02180646 2.04295049 11.125 5.0625 C12.08857421 7.17884337 12.66679034 9.277485 13.28125 11.51953125 C16.08853114 19.98036469 22.46838927 26.78469171 28.19482422 33.42553711 C34.01857516 40.20771687 37.64057817 45.01995917 38.125 54.0625 C34.125 54.0625 34.125 54.0625 32.23046875 52.69921875 C27.72941859 48.12483173 24.37707656 43.44543542 21.06640625 37.9609375 C17.63903574 32.84401815 13.38601073 28.49497997 9.125 24.0625 C9.640625 24.990625 10.15625 25.91875 10.6875 26.875 C12.125 30.0625 12.125 30.0625 11.125 33.0625 C2.52147729 29.61762873 -2.73636523 25.22767543 -6.96875 16.9140625 C-8.61407912 12.93785047 -9.6317592 9.31927051 -8.875 5.0625 C-6.13728439 1.0414802 -4.91802913 0.07932305 0 0 Z " fill="#F1C643" transform="translate(183.875,193.9375)"/>
<path d="M0 0 C13.57737451 6.50133541 30.49759599 18.94701421 37.75 32.4375 C39.76335878 38.17557252 39.76335878 38.17557252 39 41 C35.54089216 44.80501863 32.3020423 47.04385603 27.078125 47.3828125 C20.9149911 46.24749836 16.86969684 40.07515275 13.5 35.25 C11.64152827 32.42275045 11 31.44431805 11 28 C15.06225548 28.57823096 17.84762346 29.89117737 21.3125 32.0625 C22.19550781 32.61035156 23.07851563 33.15820312 23.98828125 33.72265625 C24.65214844 34.14417969 25.31601562 34.56570313 26 35 C22.63290492 30.7038361 19.15721945 27.30541244 14.75 24.0625 C13.89946045 23.42018433 13.89946045 23.42018433 13.03173828 22.76489258 C10.4531396 20.81800318 7.85766998 18.89497585 5.2578125 16.9765625 C-2.45904401 11.18259482 -2.45904401 11.18259482 -4 7 C-3.875 4.3125 -3.875 4.3125 -3 2 C-2.01 1.34 -1.02 0.68 0 0 Z " fill="#F2C744" transform="translate(402,435)"/>
<path d="M0 0 C3.22450364 2.75031193 4.91912687 4.85992207 5.375 9.18359375 C5.48590947 13.84872334 5.39401446 17.6323811 3.125 21.8125 C0.69921875 23.76171875 0.69921875 23.76171875 -2.1875 25.5 C-3.13238281 26.08136719 -4.07726562 26.66273438 -5.05078125 27.26171875 C-10.124211 30.04754394 -14.00688954 31.54601381 -19.875 30.8125 C-23.73729862 27.7058685 -25.5852703 25.37453831 -26.1484375 20.39453125 C-26.39975195 13.5413794 -25.55213722 8.97683901 -20.875 3.8125 C-14.57188365 -1.10393075 -7.61410731 -3.14495737 0 0 Z M-10.375 12.0625 C-12.44454228 14.3389965 -13.73249293 16.00816446 -14.875 18.8125 C-11.05563472 17.25646229 -8.61455562 14.85645069 -5.875 11.8125 C-5.875 11.1525 -5.875 10.4925 -5.875 9.8125 C-8.18780295 9.58951176 -8.18780295 9.58951176 -10.375 12.0625 Z " fill="#F1C643" transform="translate(434.875,212.1875)"/>
<path d="M0 0 C7.55027862 9.09417313 6.9135448 22.80412326 6 34 C3.45771301 56.73261908 -2.56512787 81.58678139 -13 102 C-13.66 102 -14.32 102 -15 102 C-14.48934291 93.82744397 -13.04482926 86.10201893 -11.25 78.125 C-6.25020372 54.9501867 -3.29522725 31.30303973 -1.359375 7.68359375 C-1.09193911 4.94237585 -0.70882087 2.62691332 0 0 Z " fill="#F2C643" transform="translate(349,148)"/>
<path d="M0 0 C0.99 0 1.98 0 3 0 C3.22171875 0.52464844 3.4434375 1.04929688 3.671875 1.58984375 C7.91709886 10.83397252 14.06639963 18.79436871 20 27 C38.04883693 51.96425211 38.04883693 51.96425211 36.58203125 67.80078125 C35.91096098 70.33643605 34.99050606 71.34213915 33 73 C28.90670302 68.51012061 26.46329029 64.20606474 24.125 58.625 C23.78186768 57.8319043 23.43873535 57.03880859 23.08520508 56.22167969 C22.04684599 53.81857216 21.02139832 51.41035867 20 49 C18.9023304 46.41382859 17.79991863 43.82986448 16.6875 41.25 C16.41671631 40.62198486 16.14593262 39.99396973 15.86694336 39.34692383 C12.75379415 32.25181919 9.24189571 25.35309858 5.73120117 18.44824219 C5.27720947 17.55395508 4.82321777 16.65966797 4.35546875 15.73828125 C3.74674927 14.54779175 3.74674927 14.54779175 3.12573242 13.33325195 C0.8584792 8.63402422 -0.2454174 5.27647421 0 0 Z " fill="#F1C743" transform="translate(240,221)"/>
<path d="M0 0 C0 3 0 3 -2.15234375 5.19140625 C-3.53099609 6.36509766 -3.53099609 6.36509766 -4.9375 7.5625 C-8.46330372 10.38925541 -8.46330372 10.38925541 -11 14 C-10.28714844 13.43410156 -9.57429687 12.86820312 -8.83984375 12.28515625 C0.67311072 5 0.67311072 5 7 5 C5.69497118 10.04761148 3.43121586 13.24957244 -0.125 16.9375 C-0.61492432 17.45602539 -1.10484863 17.97455078 -1.60961914 18.50878906 C-10.43594614 27.7456764 -10.43594614 27.7456764 -14 30 C-15.32 30 -16.64 30 -18 30 C-18 28.68 -18 27.36 -18 26 C-18.598125 25.9175 -19.19625 25.835 -19.8125 25.75 C-22.73024575 24.74963003 -23.53950675 23.70191251 -25 21 C-25.57442063 17.22523588 -25.20787218 15.39911459 -23.4375 12 C-16.96108654 4.02902959 -10.47129872 -0.5416189 0 0 Z " fill="#F1C643" transform="translate(209,425)"/>
<path d="M0 0 C0.69620549 3.98313926 1.38986976 7.96671235 2.08129883 11.95068359 C2.31629728 13.30268975 2.55196001 14.65458063 2.78833008 16.00634766 C6.14597633 35.21520761 6.14597633 35.21520761 6.125 43.375 C6.12757813 44.39335937 6.13015625 45.41171875 6.1328125 46.4609375 C6 49 6 49 5 51 C4.01 51 3.02 51 2 51 C0.69647582 47.06632817 -0.59057351 43.12744492 -1.875 39.1875 C-2.42220703 37.53717773 -2.42220703 37.53717773 -2.98046875 35.85351562 C-9.9151566 14.48206851 -9.9151566 14.48206851 -7.1875 5.25 C-5.25484272 1.58812305 -4.27283108 0 0 0 Z " fill="#F1C743" transform="translate(316,399)"/>
<path d="M0 0 C0 1.32 0 2.64 0 4 C-4.93800617 4.96961948 -9.87781252 5.92932706 -14.81933594 6.88085938 C-16.49138134 7.2041513 -18.16295414 7.52989964 -19.83398438 7.85839844 C-31.52051713 10.15346451 -43.14321967 11.86798143 -55 13 C-45.82231871 1.25599131 -13.65032987 -9.10021991 0 0 Z " fill="#F2C643" transform="translate(427,321)"/>
<path d="M0 0 C0.66 0.33 1.32 0.66 2 1 C1.05026701 8.1705974 -0.56803206 15.09652122 -2.25 22.125 C-2.53746094 23.36765625 -2.82492187 24.6103125 -3.12109375 25.890625 C-8.65111144 49.02493482 -8.65111144 49.02493482 -14 53 C-14.99 53 -15.98 53 -17 53 C-16.57516961 44.69194061 -14.58018012 37.08359312 -12.25 29.125 C-11.91484375 27.93519531 -11.5796875 26.74539062 -11.234375 25.51953125 C-5.1616658 4.47207323 -5.1616658 4.47207323 0 0 Z " fill="#F1C643" transform="translate(337,209)"/>
<path d="M0 0 C2.45552385 0.38743873 3.71075932 0.69594646 5.44921875 2.5234375 C5.85785156 3.13445312 6.26648438 3.74546875 6.6875 4.375 C7.10386719 4.98085937 7.52023437 5.58671875 7.94921875 6.2109375 C11.07434793 11.53178942 10.66953019 17.91320499 9.3984375 23.7734375 C8.27914674 27.62877235 7.24185537 30.63721694 5 34 C3.68 34 2.36 34 1 34 C0.66200308 29.97954457 0.33043881 25.95858312 0 21.9375 C-0.09539062 20.80376953 -0.19078125 19.67003906 -0.2890625 18.50195312 C-1.546875 3.09375 -1.546875 3.09375 0 0 Z " fill="#F1C743" transform="translate(303,151)"/>
<path d="M0 0 C5.17792742 0.58460471 7.60530009 2.46368154 10.875 6.4375 C13.46061983 10.84065848 14.875 14.29680099 14.875 19.4375 C11.63228494 18.8784112 9.94442576 18.0242822 7.875 15.4375 C7.875 14.7775 7.875 14.1175 7.875 13.4375 C3.04950868 11.37942296 -1.93522048 9.87174895 -6.9375 8.3125 C-7.82115234 8.03535156 -8.70480469 7.75820313 -9.61523438 7.47265625 C-11.78461653 6.79252563 -13.95454446 6.11419577 -16.125 5.4375 C-16.125 4.7775 -16.125 4.1175 -16.125 3.4375 C-15.27035156 3.30472656 -14.41570312 3.17195313 -13.53515625 3.03515625 C-12.43042969 2.85855469 -11.32570313 2.68195313 -10.1875 2.5 C-9.08535156 2.32597656 -7.98320312 2.15195312 -6.84765625 1.97265625 C-3.77542366 1.36878844 -3.20079631 0.44811148 0 0 Z " fill="#F2C644" transform="translate(298.125,367.5625)"/>
<path d="M0 0 C0.66 0 1.32 0 2 0 C2.17658825 7.24411844 0.76527396 13.7152915 -0.8125 20.75 C-1.07353516 21.98105469 -1.33457031 23.21210938 -1.60351562 24.48046875 C-1.86455078 25.65738281 -2.12558594 26.83429688 -2.39453125 28.046875 C-2.63018799 29.11776367 -2.86584473 30.18865234 -3.10864258 31.29199219 C-4.00899633 34.0273315 -4.78785132 35.21731608 -7 37 C-10.39914221 33.06748175 -10.56083408 30.34566146 -10.41796875 25.27734375 C-9.26871079 16.26587243 -6.14274155 6.80682172 0 0 Z " fill="#F1C644" transform="translate(284,438)"/>
<path d="M0 0 C5.600072 1.4359159 10.66024439 4.18101506 15 8 C15.83203125 10.03515625 15.83203125 10.03515625 16 12 C14.17697717 16.1524409 11.99197594 17.95006641 8 20 C4.75596283 17.64070024 4.35927801 14.84383251 3.5390625 11.0625 C2.78124071 8.16300792 1.36025743 5.65868497 0 3 C0 2.01 0 1.02 0 0 Z " fill="#F1C744" transform="translate(290,331)"/>
<path d="M0 0 C0.76441406 0.07605469 1.52882813 0.15210938 2.31640625 0.23046875 C4.79302133 0.91005558 5.80173561 1.87362271 7.4375 3.8125 C6.53319886 6.07325285 5.85622271 7.51693103 3.84375 8.9375 C0.47102504 10.16394544 -2.77680637 10.0243885 -6.3125 9.9375 C-7.00988281 9.92847656 -7.70726562 9.91945313 -8.42578125 9.91015625 C-10.13816958 9.88669888 -11.85038004 9.85083104 -13.5625 9.8125 C-13.5625 6.8125 -13.5625 6.8125 -11.3125 4.25 C-7.50737703 0.87727737 -5.11988015 -0.5977525 0 0 Z " fill="#F1C744" transform="translate(350.5625,338.1875)"/>
<path d="M0 0 C3.42504848 2.63681815 3.64414908 5.27180958 4.1875 9.4375 C5.01209966 15.98659315 5.21731329 22.4081634 5 29 C3.68 29 2.36 29 1 29 C-1.86723355 23.38500096 -2.30197739 18.45242094 -2.3125 12.25 C-2.31765625 11.50500244 -2.3228125 10.76000488 -2.328125 9.99243164 C-2.28013991 6.19432626 -2.12624126 3.21901068 0 0 Z " fill="#F1C744" transform="translate(296,150)"/>
<path d="M0 0 C1.32 0.33 2.64 0.66 4 1 C4.58179863 8.59570439 3.26889853 14.14115041 0 21 C-1.65 20.67 -3.3 20.34 -5 20 C-6.30597864 16.32914112 -5.69989738 13.72508777 -4.75 10 C-4.49734375 8.96875 -4.2446875 7.9375 -3.984375 6.875 C-3.01920265 4.05608394 -1.92378106 2.24801383 0 0 Z " fill="#F1C643" transform="translate(305,279)"/>
<path d="M0 0 C0.99 0 1.98 0 3 0 C5.36999255 7.70247578 6.33551259 16.1526777 4 24 C3.01 24 2.02 24 1 24 C-1.94209732 15.45390779 -3.48574705 8.71436763 0 0 Z " fill="#F2C744" transform="translate(284,243)"/>
<path d="M0 0 C1.32 0 2.64 0 4 0 C5.7363145 6.14388207 4.2189867 9.42746034 1.2265625 14.9609375 C0 17 0 17 -1 18 C-2.66617115 18.04063832 -4.33388095 18.042721 -6 18 C-4.35325016 4.6093237 -4.35325016 4.6093237 0 0 Z " fill="#F1C643" transform="translate(294,40)"/>
<path d="M0 0 C4.64610115 1.36414023 6.30367601 3.29747778 8.8125 7.375 C9.71935547 8.80972656 9.71935547 8.80972656 10.64453125 10.2734375 C12 13 12 13 12 17 C10.02 16.67 8.04 16.34 6 16 C6 15.34 6 14.68 6 14 C5.401875 13.773125 4.80375 13.54625 4.1875 13.3125 C1.31988887 11.59193332 0.37940051 10.03468112 -1 7 C-1.25 3.75 -1.25 3.75 -1 1 C-0.67 0.67 -0.34 0.34 0 0 Z " fill="#F2C643" transform="translate(278,298)"/>
<path d="M0 0 C0.66 0 1.32 0 2 0 C2.05455124 2.66694948 2.09393392 5.33275498 2.125 8 C2.14175781 8.74378906 2.15851563 9.48757813 2.17578125 10.25390625 C2.22144715 15.50548443 1.45712451 19.9516946 0 25 C-1.32 25 -2.64 25 -4 25 C-4.62774507 16.21156902 -2.30784711 8.39685444 0 0 Z " fill="#F2C643" transform="translate(287,455)"/>
<path d="M0 0 C0.45291114 3.89503578 0.28517401 5.57683856 -1.9375 8.875 C-6.0436741 11.72418203 -9.15564006 11.47493725 -14 11 C-12.34841658 4.76068486 -6.87134523 -1.2493355 0 0 Z " fill="#F2C643" transform="translate(530,366)"/>
<path d="M0 0 C1.32 0.33 2.64 0.66 4 1 C4.05382106 3.62527189 4.09358313 6.24944713 4.125 8.875 C4.14175781 9.62136719 4.15851563 10.36773437 4.17578125 11.13671875 C4.1933959 13.09194461 4.10320189 15.04742021 4 17 C3.34 17.66 2.68 18.32 2 19 C1.01 19 0.02 19 -1 19 C-2.06385483 15.80843552 -2.16677982 13.41502524 -2.1875 10.0625 C-2.20167969 9.02222656 -2.21585937 7.98195313 -2.23046875 6.91015625 C-2.00392282 4.04953387 -1.47733619 2.42329849 0 0 Z " fill="#F1C643" transform="translate(320,273)"/>
<path d="M0 0 C3.93521169 0.08554808 5.55562424 0.57841274 8.4375 3.3125 C10 6 10 6 9.75 8.3125 C9.5025 8.869375 9.255 9.42625 9 10 C2.375 10.125 2.375 10.125 -1 9 C-1.625 5.625 -1.625 5.625 -2 2 C-1.34 1.34 -0.68 0.68 0 0 Z " fill="#F2C743" transform="translate(353,320)"/>
<path d="M0 0 C0.66 0 1.32 0 2 0 C3.77818109 6.6681791 2.00021485 11.88267882 -1 18 C-2.640625 19.828125 -2.640625 19.828125 -4 21 C-4.66 20.67 -5.32 20.34 -6 20 C-5.38251126 17.22729571 -4.75637544 14.45704402 -4.125 11.6875 C-3.95097656 10.90181641 -3.77695312 10.11613281 -3.59765625 9.30664062 C-3.42363281 8.54931641 -3.24960937 7.79199219 -3.0703125 7.01171875 C-2.91320801 6.31522217 -2.75610352 5.61872559 -2.59423828 4.90112305 C-2 3 -2 3 0 0 Z " fill="#F1C744" transform="translate(289,71)"/>
<path d="M0 0 C2.1875 0.3125 2.1875 0.3125 4 1 C3.76284882 5.11062043 3.63415913 7.33060981 0.75 10.375 C-1.94257098 11.96606467 -3.91482939 12.64740907 -7 13 C-7.33 12.34 -7.66 11.68 -8 11 C-7.109375 9.16015625 -7.109375 9.16015625 -5.75 7.0625 C-5.31171875 6.37285156 -4.8734375 5.68320312 -4.421875 4.97265625 C-3.06216773 3.08624918 -1.78336368 1.49326986 0 0 Z " fill="#F1C744" transform="translate(105,516)"/>
<path d="M0 0 C1 1 1 1 1.3125 3.375 C1 6 1 6 -0.5 7.75 C-4.00311587 9.50155794 -7.10183211 9.67515268 -11 10 C-9.16276062 2.50971639 -8.19862521 -0.71292393 0 0 Z " fill="#F1C643" transform="translate(473,311)"/>
<path d="M0 0 C0.99 0 1.98 0 3 0 C3.41851968 3.41791075 3.62620097 5.98813876 1.76953125 8.98828125 C-0.73426731 11.97429286 -2.23759031 13.74586344 -6 15 C-5.01004182 9.13840554 -3.88832521 4.59529343 0 0 Z " fill="#F2C644" transform="translate(273,564)"/>
<path d="M0 0 C0.66 0.33 1.32 0.66 2 1 C2.02693575 3.12493141 2.04636628 5.24995912 2.0625 7.375 C2.07410156 8.55835938 2.08570313 9.74171875 2.09765625 10.9609375 C2 14 2 14 1 16 C-0.9375 15.3125 -0.9375 15.3125 -3 14 C-4.53563185 10.51923447 -3.8731184 8.18078852 -2.625 4.75 C-1.19496855 1.19496855 -1.19496855 1.19496855 0 0 Z " fill="#F2C644" transform="translate(284,493)"/>
<path d="M0 0 C-1 3 -1 3 -2.8203125 3.94921875 C-7.75517738 5.53004835 -11.81897177 6.33070393 -17 6 C-17 5.34 -17 4.68 -17 4 C-11.19619269 1.3825967 -6.45057424 -0.18430212 0 0 Z " fill="#F1C744" transform="translate(582,389)"/>
<path d="M0 0 C3 1 3 1 4 3 C4.46829268 10.37560976 4.46829268 10.37560976 2.5 13 C2.005 13.33 1.51 13.66 1 14 C-0.5883272 9.8306411 -1.30442659 6.46492339 -1 2 C-0.67 1.34 -0.34 0.68 0 0 Z " fill="#F1C643" transform="translate(320,463)"/>
<path d="M0 0 C-0.30595176 3.56943715 -1.02424641 5.03014419 -3.3125 7.875 C-6 10 -6 10 -8.3125 9.8125 C-8.869375 9.544375 -9.42625 9.27625 -10 9 C-8.5124715 4.98367305 -4.56813239 0 0 0 Z " fill="#F2C643" transform="translate(201,341)"/>
<path d="M0 0 C3.83658866 1.49389293 5.46185426 3.63623019 7.75 7 C8.36359375 7.886875 8.9771875 8.77375 9.609375 9.6875 C11 12 11 12 11 14 C6.48196373 12.15931856 3.23911848 9.00619182 0.6875 4.875 C0 3 0 3 0 0 Z " fill="#F2C643" transform="translate(201,235)"/>
<path d="M0 0 C1.32 0 2.64 0 4 0 C3.5 2.75 3.5 2.75 2 6 C-0.52425531 7.70000868 -3.17516841 8.88320612 -6 10 C-5.13683305 5.63673849 -3.10979873 3.18211963 0 0 Z " fill="#F1C643" transform="translate(89,538)"/>
<path d="M0 0 C0.66 0 1.32 0 2 0 C1.58894145 5.24099655 0.75960806 8.24039194 -3 12 C-3.66 12 -4.32 12 -5 12 C-5.34934248 9.06552319 -5.51495218 6.85632498 -3.95703125 4.265625 C-2.625 2.625 -2.625 2.625 0 0 Z " fill="#F1C743" transform="translate(286,549)"/>
<path d="M0 0 C-1.75 3.875 -1.75 3.875 -4 5 C-7.5 5.25 -7.5 5.25 -11 5 C-11.66 4.01 -12.32 3.02 -13 2 C-8.49646738 0.24252386 -4.82360189 -0.19294408 0 0 Z " fill="#F1C744" transform="translate(185,350)"/>
<path d="M0 0 C0.22732116 2.80362763 0.34081872 4.46186517 -1.1875 6.875 C-3 8 -3 8 -5.6875 7.6875 C-6.450625 7.460625 -7.21375 7.23375 -8 7 C-7.08529012 1.6946827 -5.46561428 0 0 0 Z " fill="#F1C743" transform="translate(115,529)"/>
<path d="M0 0 C0.66 0.33 1.32 0.66 2 1 C2.02698189 2.62490954 2.04638757 4.24994633 2.0625 5.875 C2.07410156 6.77992188 2.08570313 7.68484375 2.09765625 8.6171875 C2 11 2 11 1 13 C0.34 13 -0.32 13 -1 13 C-3.28964059 8.05919662 -3.28964059 8.05919662 -2.46484375 5.04296875 C-1.71434788 3.32904563 -0.86320768 1.66001476 0 0 Z " fill="#F2C644" transform="translate(255,579)"/>
<path d="M0 0 C0.66 0 1.32 0 2 0 C2.67756882 1.55780332 3.34159457 3.12150096 4 4.6875 C4.37125 5.55761719 4.7425 6.42773438 5.125 7.32421875 C6.01870488 10.0572002 6.16449676 12.14700934 6 15 C5.34 15 4.68 15 4 15 C1.0554321 10.00703705 0.36504064 5.66442374 0 0 Z " fill="#F1C744" transform="translate(292,277)"/>
<path d="M0 0 C-1.8662161 3.54581059 -3.1340672 5.6710856 -7 7 C-7.99 7 -8.98 7 -10 7 C-9.75 4.625 -9.75 4.625 -9 2 C-6.09557968 -0.17831524 -3.54875053 -0.19715281 0 0 Z " fill="#F2C643" transform="translate(306,260)"/>
<path d="M0 0 C3.81287042 1.44626119 5.32707177 3.30194812 7 7 C6.6875 9.3125 6.6875 9.3125 6 11 C3.5625 9.4375 3.5625 9.4375 1 7 C0.1875 3.25 0.1875 3.25 0 0 Z " fill="#F2C743" transform="translate(123,223)"/>
<path d="M0 0 C0.763125 0.20625 1.52625 0.4125 2.3125 0.625 C2.6425 2.275 2.9725 3.925 3.3125 5.625 C-0.0625 5.3125 -0.0625 5.3125 -3.6875 4.625 C-4.3475 3.635 -5.0075 2.645 -5.6875 1.625 C-2.6875 -0.375 -2.6875 -0.375 0 0 Z " fill="#F2C643" transform="translate(250.6875,366.375)"/>
<path d="M0 0 C0.66 0 1.32 0 2 0 C2.16682272 4.92127034 2.24828052 8.50343896 0 13 C-0.66 12.67 -1.32 12.34 -2 12 C-2.17835515 7.45194365 -1.99785435 4.1205746 0 0 Z " fill="#F1C643" transform="translate(276,492)"/>
<path d="M0 0 C0.66 0.33 1.32 0.66 2 1 C1.67 1.99 1.34 2.98 1 4 C-2.3 4 -5.6 4 -9 4 C-9.33 3.34 -9.66 2.68 -10 2 C-6.59659693 -0.09440189 -3.95562822 -0.25797575 0 0 Z " fill="#F2C643" transform="translate(600,387)"/>
<path d="M0 0 C-1.5588334 3.82622743 -3.95433582 6.25147379 -7 9 C-7.99 9.33 -8.98 9.66 -10 10 C-8.71596412 5.50587442 -5.23012555 0 0 0 Z " fill="#F1C743" transform="translate(128,499)"/>
<path d="M0 0 C4.28806873 0.47645208 6.26647487 1.65902484 9 5 C9 5.66 9 6.32 9 7 C5.36891547 6.69740962 4.21859619 6.2363202 1.6875 3.5 C0 1 0 1 0 0 Z " fill="#F1C744" transform="translate(270,349)"/>
<path d="M0 0 C-1.2419607 3.43927579 -2.55740284 6.25207819 -5 9 C-5.66 9 -6.32 9 -7 9 C-6.53149863 4.78348764 -4.94559315 0 0 0 Z " fill="#F1C743" transform="translate(156,175)"/>
<path d="M0 0 C0.99 0.33 1.98 0.66 3 1 C3 2.98 3 4.96 3 7 C2.01 7.495 2.01 7.495 1 8 C0.01 7.01 -0.98 6.02 -2 5 C-1.34 3.35 -0.68 1.7 0 0 Z " fill="#F1C643" transform="translate(77,323)"/>
<path d="M0 0 C3.16115776 1.36983503 3.9927092 1.9890638 6 5 C5.67 5.99 5.34 6.98 5 8 C3.0625 7.375 3.0625 7.375 1 6 C0.25 2.875 0.25 2.875 0 0 Z " fill="#F1C644" transform="translate(225,197)"/>
<path d="M0 0 C2.375 0.25 2.375 0.25 5 1 C6.3125 3.0625 6.3125 3.0625 7 5 C5.35 5 3.7 5 2 5 C1.34 3.35 0.68 1.7 0 0 Z " fill="#F1C643" transform="translate(397,447)"/>
<path d="M0 0 C1.9375 0.75 1.9375 0.75 4 2 C4.75 4.125 4.75 4.125 5 6 C3.35 5.67 1.7 5.34 0 5 C-0.33 4.01 -0.66 3.02 -1 2 C-0.67 1.34 -0.34 0.68 0 0 Z " fill="#F1C643" transform="translate(77,333)"/>
<path d="M0 0 C1 3 1 3 -0.3125 5.6875 C-0.869375 6.450625 -1.42625 7.21375 -2 8 C-2.66 8 -3.32 8 -4 8 C-3.50168276 4.31245243 -2.89932357 2.39509338 0 0 Z " fill="#F1C744" transform="translate(324,488)"/>
<path d="M0 0 C1.32 0.66 2.64 1.32 4 2 C4 3.32 4 4.64 4 6 C0.125 4.25 0.125 4.25 -1 2 C-0.67 1.34 -0.34 0.68 0 0 Z " fill="#F1C643" transform="translate(314,109)"/>
<path d="M0 0 C-0.66 1.65 -1.32 3.3 -2 5 C-2.99 4.67 -3.98 4.34 -5 4 C-5 3.01 -5 2.02 -5 1 C-3 0 -3 0 0 0 Z " fill="#F2C744" transform="translate(101,306)"/>
<path d="M0 0 C0.66 0 1.32 0 2 0 C0.125 4.75 0.125 4.75 -1 7 C-1.66 7 -2.32 7 -3 7 C-2.25 2.25 -2.25 2.25 0 0 Z " fill="#F2C644" transform="translate(340,192)"/>
<path d="M0 0 C0.99 0.33 1.98 0.66 3 1 C3 2.32 3 3.64 3 5 C1.68 4.67 0.36 4.34 -1 4 C-0.67 2.68 -0.34 1.36 0 0 Z " fill="#F2C744" transform="translate(565,355)"/>
<path d="M0 0 C0.99 0 1.98 0 3 0 C3.33 1.32 3.66 2.64 4 4 C2.68 4 1.36 4 0 4 C-0.33 3.01 -0.66 2.02 -1 1 C-0.67 0.67 -0.34 0.34 0 0 Z " fill="#F2C643" transform="translate(289,61)"/>
<path d="M0 0 C1.98 0 3.96 0 6 0 C6 0.99 6 1.98 6 3 C3.03 2.505 3.03 2.505 0 2 C0 1.34 0 0.68 0 0 Z " fill="#F0C644" transform="translate(435,320)"/>
<path d="" fill="#FFBF40" transform="translate(0,0)"/>
</svg>
