<?xml version="1.0" encoding="UTF-8"?>
<svg version="1.1" xmlns="http://www.w3.org/2000/svg" width="808" height="802">
<path d="M0 0 C3 1.5625 3 1.5625 6 4 C19.10446764 13.62598625 30.0579503 16.54667916 46.3203125 14.16015625 C48.58965121 13.80121681 50.85787977 13.43519496 53.125 13.0625 C55.39840448 12.69901217 57.67184108 12.33572515 59.9453125 11.97265625 C63.17056664 11.45694736 66.39308084 10.9332825 69.61328125 10.38671875 C82.45502761 8.92036017 95.63235438 9.5372407 108.375 11.5 C125.11634697 14.0484067 139.04723153 13.33553569 155.18896484 8.31982422 C177.94076293 1.28637789 197.62182302 2.33795384 218.75 13.25 C232.34102197 20.60944428 243.83770626 30.8480884 255.40625 40.98046875 C271.37662162 54.92321507 287.39462372 67.01228752 308.05078125 72.796875 C311 74 311 74 312.41796875 76.140625 C312.61003906 76.75421875 312.80210937 77.3678125 313 78 C314.79630859 77.96519531 314.79630859 77.96519531 316.62890625 77.9296875 C340.31138454 77.60439889 364.94168341 80.7172006 382.7800293 97.77563477 C384.19835989 99.17199748 385.59961977 100.58563594 387 102 C387.70769531 102.68578125 388.41539062 103.3715625 389.14453125 104.078125 C396.3859848 111.57030097 412 131.174701 412 142 C413.32 142.66 414.64 143.32 416 144 C415.52469419 149.96557297 412.89419883 154.42731545 410.0625 159.5625 C404.34954284 168.5522746 404.34954284 168.5522746 403.875 178.5625 C406.29786145 188.90880031 404.71680367 198.97604757 403 209.3125 C397.33247377 246.40836472 406.49128325 278.87188855 417.5625 314.0625 C422.44231721 329.57593588 426.94721788 345.00354743 430 361 C430.13970215 361.70898438 430.2794043 362.41796875 430.42333984 363.1484375 C435.60743247 390.43169381 429.85765577 415.97582361 422 442 C421.64491364 443.17677307 421.64491364 443.17677307 421.28265381 444.37731934 C395.76593462 528.76578665 364.68887702 608.86922118 301 686 C300.41766602 686.68674805 299.83533203 687.37349609 299.23535156 688.08105469 C297.51701224 690.10089053 295.79194195 692.11466544 294.0625 694.125 C293.55517334 694.71635742 293.04784668 695.30771484 292.52514648 695.91699219 C281.17954276 708.98219012 281.17954276 708.98219012 275 711 C270.23990352 710.92322425 267.19336871 710.23698954 263.0625 707.9375 C258.71222384 705.54182108 254.86447199 705.59462733 250 706 C249.88205078 706.9590625 249.88205078 706.9590625 249.76171875 707.9375 C249.51035156 708.618125 249.25898437 709.29875 249 710 C247.20703125 710.625 247.20703125 710.625 244.8125 711 C237.30884335 712.97464649 232.398171 718.24453494 226.81445312 723.35498047 C223.93180564 725.96844639 220.96459284 728.48040771 218 731 C214.52107819 733.97239544 211.04944447 736.95198585 207.60546875 739.96484375 C198.70744796 747.72333599 189.48497012 754.97275176 180 762 C179.2997168 762.52126465 178.59943359 763.0425293 177.87792969 763.57958984 C133.92347212 796.10180914 82.66193648 807.43440282 28.53125 800.03515625 C-33.14562383 790.7039345 -89.74547596 761.63859653 -143.12011719 730.70825195 C-168.51250178 716.00080019 -194.18150224 701.7942198 -220.48431396 688.77862549 C-259.3179904 669.55738701 -291.85365953 647.13361272 -314.375 609.1875 C-314.77976562 608.50671387 -315.18453125 607.82592773 -315.6015625 607.12451172 C-323 594.37762044 -323 594.37762044 -323 589 C-323.66 589 -324.32 589 -325 589 C-325.165 589.680625 -325.33 590.36125 -325.5 591.0625 C-328.28028737 596.50722943 -333.06880345 599.90686988 -338.3125 602.875 C-347.19713868 605.58556773 -355.19747568 605.84402937 -363.57421875 601.73828125 C-369.65919342 598.35379169 -373.38010681 595.21172228 -375.9375 588.5625 C-376.03027641 584.75866736 -375.20502618 582.04006569 -373 579 C-366.48522222 573.29640077 -358.49474933 569.25879931 -351 565 C-351.57459765 554.92566002 -352.69107347 544.99283516 -353.98452759 534.99151611 C-356.07260521 518.73105126 -357.82795037 502.45126454 -359.3125 486.125 C-359.39940094 485.20121552 -359.48630188 484.27743103 -359.57583618 483.32565308 C-361.02720335 467.79233136 -362.00560523 452.1820283 -360.12109375 436.640625 C-359.91141887 433.87556328 -359.91141887 433.87556328 -360.48046875 430.66796875 C-361.03651953 426.74216663 -361.06935718 423.00570812 -360.875 419.0625 C-360.8646875 418.41732422 -360.854375 417.77214844 -360.84375 417.10742188 C-360.12571055 402.45665545 -352.71773401 388.04447737 -347.00854492 374.77905273 C-340.25933839 359.04040925 -332.90196525 341.74433867 -338.4375 324.5 C-340.62297938 319.23923891 -343.65474832 314.5144874 -346.63696289 309.6809082 C-360.34503905 287.19353425 -360.12007609 260.63808395 -354.46240234 235.62304688 C-342.13632239 185.81690193 -316.41234998 138.90096014 -274.59765625 108.91015625 C-263.73747033 100.9242451 -253.61107229 91.81392614 -243.48828125 82.91796875 C-220.51224969 62.80952081 -197.33546857 49.1321125 -165.97387695 48.51660156 C-155.48139973 48.17328031 -147.25043543 44.32874031 -138.1875 39.3125 C-109.46413972 23.93005695 -83.41283828 19.66816625 -51.2199707 20.17138672 C-48.34843437 20.21376575 -45.47723241 20.23715584 -42.60546875 20.2578125 C-41.73037155 20.27643341 -40.85527435 20.29505432 -39.95365906 20.3142395 C-34.158493 20.33850586 -29.76408306 19.58111775 -25.34765625 15.45703125 C-24.92355469 14.91433594 -24.49945313 14.37164062 -24.0625 13.8125 C-23.57136719 13.20664063 -23.08023437 12.60078125 -22.57421875 11.9765625 C-22.05472656 11.32429687 -21.53523438 10.67203125 -21 10 C-19.80191603 8.55394658 -18.59347424 7.11641435 -17.375 5.6875 C-16.55128906 4.70330078 -16.55128906 4.70330078 -15.7109375 3.69921875 C-11.20621206 -0.7746524 -6.03414435 -0.76149745 0 0 Z M-15.4375 16 C-17.281023 19.53956415 -17.01681451 20.27168012 -16 24 C-15.31508697 25.87594653 -14.62732424 27.75085386 -13.9375 29.625 C-7.33384851 51.23253613 -15.57884171 73.2840245 -22.23242188 93.85571289 C-27.24825748 109.54001488 -29.95434026 125.44143774 -23 141 C-20.32596894 145.88739951 -17.27090586 150.52667303 -14.19238281 155.16552734 C-12.03609602 158.48295957 -10.10400055 161.93246414 -8.15625 165.375 C-7.7746875 165.91125 -7.393125 166.4475 -7 167 C-6.34 167 -5.68 167 -5 167 C-5.0721875 166.16726562 -5.144375 165.33453125 -5.21875 164.4765625 C-5.93140606 154.71713369 -6.16537646 144.95573074 -6.23217773 135.17279053 C-6.24387539 133.70565592 -6.26079335 132.23855175 -6.28344727 130.77154541 C-6.48945744 116.59050285 -4.73589933 103.38902395 0.375 90.0625 C0.99399729 88.36571533 1.60983259 86.66777414 2.22265625 84.96875 C2.52316895 84.13859375 2.82368164 83.3084375 3.13330078 82.453125 C9.67725735 63.93096285 12.87273888 45.67028153 10 26 C9.855625 24.741875 9.71125 23.48375 9.5625 22.1875 C8.63939841 16.95659098 6.85234972 14.52588179 2.6875 11.25 C1.92824219 10.63640625 1.16898437 10.0228125 0.38671875 9.390625 C-6.67918132 5.27366849 -11.14311654 10.71460498 -15.4375 16 Z M152.04296875 18.22265625 C135.43220873 23.07543326 117.77819694 21.9838424 100.87060547 19.06811523 C85.95339 16.58289476 71.81822399 18.6284733 57.0625 21 C55.20393787 21.29010119 53.34521435 21.57917035 51.48632812 21.8671875 C46.98894093 22.56627198 42.49395225 23.27917837 38 24 C41.19614285 26.46298053 44.39693029 28.29697198 48 30.125 C57.18271027 35.01007819 65.22074193 41.24120324 72.94140625 48.19140625 C75.40082578 50.35214864 77.94676543 52.38860806 80.5 54.4375 C85.31898802 58.35543071 89.69572135 62.53226773 94 67 C96.5159918 69.53235598 99.04697595 72.04570823 101.60546875 74.53515625 C102.45753906 75.36917969 103.30960937 76.20320313 104.1875 77.0625 C105.04730469 77.89910156 105.90710938 78.73570313 106.79296875 79.59765625 C108.7331661 81.70955248 109.91513978 83.3757292 111 86 C110.62230469 85.59910156 110.24460937 85.19820313 109.85546875 84.78515625 C105.45450027 80.23989372 100.73353204 76.26903387 95.8046875 72.30859375 C93.21819439 70.17960012 90.76366102 67.96947314 88.3125 65.6875 C68.42995682 47.76520756 44.35604036 33.59513706 18 28 C18.21352373 34.11745489 18.64488611 39.65624937 20.9375 45.375 C24.03179947 53.21687085 24.65459062 61.36006607 25.45703125 69.6953125 C27.23267939 88.10414755 31.34129138 101.92847782 42.71484375 116.9765625 C44 119 44 119 44 122 C37.19226689 115.91649381 32.62364494 108.77110507 28 101 C27.40574219 100.02933594 26.81148438 99.05867188 26.19921875 98.05859375 C19.9973812 86.99377688 19.33583697 74.3901943 18 62 C16.15321804 65.56189208 14.97578865 69.09030988 13.8125 72.9375 C11.49680554 80.52837676 8.99695797 88.04933166 6.41137695 95.55249023 C-2.04368291 120.4811249 0.62911352 146.32388597 4 172 C12.58343169 170.04552941 20.76342284 167.47089532 29 164.375 C30.17626953 163.93551025 31.35253906 163.49602051 32.56445312 163.04321289 C42.11474272 159.42809851 51.43944258 155.44626866 60.67333984 151.09130859 C62.98833965 150.00546923 65.31446457 148.94759398 67.64453125 147.89453125 C92.58785502 136.51219455 116.4575307 122.0318278 139.0625 106.5625 C157.56341236 93.98198415 176.15778978 87.54298047 198.5234375 86.03515625 C199.60774551 85.95726868 200.69205353 85.8793811 201.80921936 85.7991333 C205.33076093 85.54775442 208.85283882 85.30502823 212.375 85.0625 C214.82303059 84.88937551 217.27102835 84.71578632 219.71899414 84.54174805 C231.5932658 83.70200264 243.46978094 82.89638357 255.34765625 82.109375 C256.38325684 82.04072739 257.41885742 81.97207977 258.48583984 81.90135193 C263.35206622 81.57967748 268.21849868 81.26194636 273.08544922 80.95141602 C273.97042587 80.89411316 274.85540253 80.8368103 275.76719666 80.777771 C277.39041076 80.67270986 279.01374373 80.56945918 280.63722229 80.46856689 C285.45582317 80.15458174 290.21333995 79.63928061 295 79 C291.92715707 76.53440936 288.7703348 74.81819997 285.25 73.0625 C270.6130042 65.26813564 258.00418369 53.9764366 245.64453125 43.03125 C226.73070145 26.37751268 204.56843821 10.24321435 178.15429688 11.76464844 C169.32436329 12.72929667 160.50032006 15.58719027 152.04296875 18.22265625 Z M-111 36 C-115.43868757 42.70267579 -116.37621659 51.82772585 -117.875 59.5625 C-123.4906356 86.91780291 -135.06428748 110.80360294 -152 133 C-150.60028668 130.12867863 -149.07975349 127.3665687 -147.4609375 124.61328125 C-134.61749789 102.59625526 -122.44798821 80.24565149 -123 54 C-126.16825839 56.30418792 -128.69880174 58.75412626 -131.1875 61.75 C-133.83279931 64.85908555 -136.56887622 67.33656774 -139.8125 69.8125 C-150.54473357 78.19046146 -157.79275417 88.6370869 -165 100 C-161.11092305 91.95929239 -156.24094178 85.25747059 -150.671875 78.3515625 C-147.83279022 74.82560236 -145.23839409 71.16046036 -142.67578125 67.4296875 C-137.38204879 59.75439242 -131.77938313 52.31453178 -126 45 C-126.33 44.34 -126.66 43.68 -127 43 C-127.6297876 43.32274902 -128.2595752 43.64549805 -128.90844727 43.97802734 C-131.78989758 45.45011577 -134.67611454 46.91261345 -137.5625 48.375 C-138.55314453 48.88289063 -139.54378906 49.39078125 -140.56445312 49.9140625 C-150.40980505 54.88580168 -158.48657895 56.27251232 -169.4375 56.8125 C-199.31641966 58.68425191 -219.17135927 73.05668678 -241.12402344 92.35351562 C-253.59530403 103.29915804 -266.27938713 113.92403306 -279.75 123.625 C-316.90815152 150.60080312 -340.7823623 203.94843589 -348.80078125 248.171875 C-351.68123504 267.37490028 -350.37954026 289.4451901 -339 306 C-338.34 306 -337.68 306 -337 306 C-336.72849121 304.85112305 -336.45698242 303.70224609 -336.17724609 302.51855469 C-335.15211973 298.19848939 -334.10739953 293.88335075 -333.05712891 289.56933594 C-332.60787918 287.71252283 -332.1637352 285.85446582 -331.72509766 283.99511719 C-328.62760414 270.88545213 -325.56011662 258.88488813 -316.625 248.375 C-313.37927008 244.01627074 -312.0047209 241.1638675 -312.453125 235.72265625 C-313.10990836 232.4528134 -314.03301346 229.3167563 -315 226.125 C-321.09932829 205.91008337 -312.32587092 187.68479468 -303 170 C-288.73338336 143.40490594 -273.87568046 121.65561777 -249 104 C-248.27055176 103.47841309 -247.54110352 102.95682617 -246.78955078 102.41943359 C-244.39344603 100.71860734 -241.98099161 99.04380797 -239.5625 97.375 C-238.79292969 96.82932373 -238.02335937 96.28364746 -237.23046875 95.72143555 C-231.68988572 91.96270888 -231.68988572 91.96270888 -227.96484375 92.1640625 C-227.31644531 92.43992187 -226.66804688 92.71578125 -226 93 C-226.61804544 102.33581197 -228.61691105 111.37947705 -230.56689453 120.50561523 C-230.99126973 122.50112698 -231.40626091 124.49841862 -231.8203125 126.49609375 C-232.07055176 127.67357178 -232.32079102 128.8510498 -232.57861328 130.06420898 C-233.23119732 133.05275305 -233.23119732 133.05275305 -232 136 C-231.24976563 135.3709375 -230.49953125 134.741875 -229.7265625 134.09375 C-224.80941384 129.97860915 -219.88368567 125.87875829 -214.875 121.875 C-214.070625 121.22917969 -213.26625 120.58335938 -212.4375 119.91796875 C-210.79161219 118.62288716 -209.12399805 117.35501686 -207.4375 116.11328125 C-198.18932032 109.16304865 -191.08137664 100.31813342 -188 89 C-187.65921808 85.58019714 -187.65921808 85.58019714 -188 83 C-187.67 83.33 -187.34 83.66 -187 84 C-189.11134973 102.02564833 -198.37441466 117.11987972 -212.3125 128.5625 C-213.21871094 129.26890625 -214.12492188 129.9753125 -215.05859375 130.703125 C-218.40923576 133.31956258 -221.64271405 136.05240248 -224.875 138.8125 C-230.73992809 143.81247256 -230.73992809 143.81247256 -233.80078125 146.01953125 C-237.48221861 149.33478657 -237.42857395 153.27821636 -238 158 C-238.2784375 159.546875 -238.2784375 159.546875 -238.5625 161.125 C-237.63665697 165.85708657 -234.24472691 168.57666427 -231 172 C-222.38848859 181.54984833 -211.55251838 195.83085884 -212.09765625 209.4375 C-212.9945373 214.73171048 -214.68551909 217.65407603 -219 221 C-221.77763759 222.62372287 -224.54540811 224.24080215 -227.37890625 225.765625 C-233.32432951 230.83385466 -234.92050375 239.57829663 -237.1875 246.8125 C-243.78883635 267.04453926 -252.97485065 288.73354348 -267 305 C-266.39414062 304.02804687 -265.78828125 303.05609375 -265.1640625 302.0546875 C-255.6636188 286.53653027 -248.24768009 270.36841477 -242.4375 253.125 C-242.10282715 252.13298584 -241.7681543 251.14097168 -241.42333984 250.11889648 C-239.67320544 244.71873191 -238.4882325 239.65814649 -238 234 C-243.68618881 237.05369399 -248.6816561 240.63887436 -253.75 244.625 C-254.93698486 245.55324585 -254.93698486 245.55324585 -256.14794922 246.50024414 C-261.44608184 250.68021869 -266.52951133 254.99494417 -271.4453125 259.62109375 C-273.51903864 261.55213231 -275.62373646 263.40904269 -277.76953125 265.2578125 C-282.22023914 269.13680768 -286.40047875 273.25287954 -290.5625 277.4375 C-291.27857422 278.14970703 -291.99464844 278.86191406 -292.73242188 279.59570312 C-301.61935082 288.49880483 -309.56309091 298.13740157 -317.36328125 307.9921875 C-318.87495743 309.84660649 -320.44670265 311.61154493 -322.0625 313.375 C-328.941985 321.26289018 -329.6268063 327.25581839 -329.19018555 337.57958984 C-328.48139053 355.21440998 -336.07846772 370.747412 -342.92236328 386.64550781 C-348.30841497 399.21585457 -352.91934441 411.05660985 -352 425 C-350.63875 423.7625 -350.63875 423.7625 -349.25 422.5 C-346.06432611 419.75195404 -342.72346069 417.46420243 -339.1875 415.1875 C-324.57307125 405.55401888 -316.04575534 393.59496555 -308.125 378.1875 C-299.68758174 362.17728721 -290.01896018 348.67635596 -277 336 C-276.34257812 335.27490234 -276.34257812 335.27490234 -275.671875 334.53515625 C-267.13210954 325.37000392 -256.49063851 318.63459237 -245.5 312.8125 C-239.89748268 309.83183326 -235.64223851 307.27144359 -231.796875 302.11328125 C-227.89623474 297.52578911 -222.66189062 294.0980677 -217.88818359 290.45751953 C-215.43676302 288.56522824 -213.03468326 286.61583699 -210.63134766 284.66308594 C-196.64114118 273.31317883 -181.96158322 262.86643474 -167.20410156 252.54492188 C-164.91032017 250.93714067 -162.62275606 249.32079194 -160.3359375 247.703125 C-148.30115425 239.20812645 -136.08920564 231.00076618 -123.80664062 222.86914062 C-121.22945905 221.15281302 -118.66637831 219.41806966 -116.109375 217.671875 C-106.05805158 210.82633579 -95.77735184 204.63942415 -85 199 C-83.81519043 198.37472412 -83.81519043 198.37472412 -82.60644531 197.73681641 C-76.79432756 194.73983664 -70.9509232 192.31898241 -64.75 190.25 C-63.76362549 189.9185498 -62.77725098 189.58709961 -61.76098633 189.24560547 C-49.88672604 185.41657708 -37.72386837 182.70299409 -25.55957031 179.96972656 C-24.75113174 179.78628693 -23.94269318 179.60284729 -23.10975647 179.41384888 C-21.58132216 179.06817546 -20.05160846 178.72809576 -18.52049255 178.39450073 C-15.16338676 177.63604194 -12.90002334 176.93334889 -10 175 C-10.99 174.67 -11.98 174.34 -13 174 C-13.72298095 172.01966089 -14.38085256 170.01521733 -15 168 C-16.00900801 166.07516413 -17.0746108 164.17919974 -18.1875 162.3125 C-18.80625 161.2709375 -19.425 160.229375 -20.0625 159.15625 C-21.89194749 156.17602102 -23.77833616 153.24207899 -25.6875 150.3125 C-34.57363545 136.47409131 -36.18411486 121.91055289 -33.12890625 105.7890625 C-30.90125577 95.60854566 -27.69491096 85.72747755 -24.46240234 75.83105469 C-20.17423456 62.57412333 -16.90803577 48.91383905 -20 35 C-20.66 35 -21.32 35 -22 35 C-22.24008789 35.51159668 -22.48017578 36.02319336 -22.72753906 36.55029297 C-31.23003774 54.50312296 -41.58938249 70.51744746 -54 86 C-54.76054687 86.95390625 -55.52109375 87.9078125 -56.3046875 88.890625 C-59.80621011 93.22815128 -63.37810573 97.43055483 -67.1875 101.5 C-85.89661933 122.13218212 -99.76664295 146.84856814 -111.83984375 171.7734375 C-115.01166027 178.3189899 -118.64082684 184.17057318 -123 190 C-122.38125 188.9790625 -122.38125 188.9790625 -121.75 187.9375 C-115.87198261 178.07082796 -110.68295301 167.90370146 -105.9140625 157.45703125 C-97.47636633 139.03578675 -86.8974286 122.36410237 -75 106 C-70.29890458 99.47852033 -65.97993712 92.79531661 -61.76342773 85.95507812 C-59.30125554 81.99019146 -56.73847055 78.17584715 -53.9375 74.4375 C-46.85478759 64.88506423 -41.1543557 54.47227937 -35.5625 44 C-35.13727051 43.21109375 -34.71204102 42.4221875 -34.27392578 41.609375 C-31.91858816 37.12918569 -30.19756557 32.92114376 -29 28 C-29.94875 28.165 -30.8975 28.33 -31.875 28.5 C-38.34711673 29.40973528 -44.76519976 29.16755297 -51.25 28.5 C-69.72479236 26.71711794 -93.97057771 27.48615145 -111 36 Z M287.1015625 87.27734375 C285.04856351 87.409941 282.9955334 87.54205708 280.94247437 87.67372131 C275.59086082 88.01834003 270.23973325 88.37000907 264.88867188 88.7230835 C260.53307129 89.00923746 256.17714427 89.29022134 251.82119179 89.57096004 C246.58119916 89.90880154 241.34136202 90.24902185 236.1015625 90.58984375 C235.11995777 90.65361647 234.13835304 90.71738918 233.12700272 90.78309441 C223.07717416 91.43801865 213.0314772 92.09881385 203 93 C205.48063464 95.52206398 207.80209916 97.6908459 210.79296875 99.5859375 C211.50646484 100.04226562 212.21996094 100.49859375 212.95507812 100.96875 C214.06012695 101.66484375 214.06012695 101.66484375 215.1875 102.375 C216.63975221 103.29880464 218.09157365 104.22328682 219.54296875 105.1484375 C220.64717163 105.84731079 220.64717163 105.84731079 221.77368164 106.56030273 C223.24668362 107.51285155 224.70482069 108.48882855 226.14624023 109.48852539 C232.04037091 113.57569629 238.18714746 116.67534701 244.6875 119.6875 C246.69157188 120.62855361 248.69548297 121.56994972 250.69921875 122.51171875 C252.08633057 123.15826416 252.08633057 123.15826416 253.50146484 123.81787109 C255.55018971 124.7871818 257.56950112 125.79068874 259.58203125 126.83203125 C261.85260462 128.14498415 261.85260462 128.14498415 264 128 C264 128.66 264 129.32 264 130 C250.16454861 125.80127627 237.22817838 120.63769842 224.31103516 114.14746094 C222.2774324 113.13774903 220.23246924 112.17093235 218.16796875 111.2265625 C213.02241286 108.81550203 208.33280827 106.34525788 203.859375 102.83203125 C196.33027239 96.58065009 196.33027239 96.58065009 187.30078125 93.5 C183.64503416 93.95850355 180.48216781 94.80313032 177 96 C175.30810547 96.48339844 175.30810547 96.48339844 173.58203125 96.9765625 C156.82228491 102.24120598 140.49834754 112.89119044 127 124 C127.43570312 124.4125 127.87140625 124.825 128.3203125 125.25 C132.11631997 128.93097694 135.40872822 132.67753551 138.4453125 137.0078125 C140.43189918 139.55343865 142.69368044 141.75032443 145 144 C148.19215566 147.16198545 151.37691433 150.33139765 154.5625 153.5 C155.41263672 154.34175781 156.26277344 155.18351562 157.13867188 156.05078125 C157.96044922 156.86933594 158.78222656 157.68789062 159.62890625 158.53125 C160.37213135 159.26923828 161.11535645 160.00722656 161.88110352 160.76757812 C164.07229625 163.07616971 166.04694608 165.48833897 168 168 C159.27833471 162.96959069 152.19726205 156.94604872 145 150 C144.34 150.33 143.68 150.66 143 151 C143.1561377 151.53141602 143.31227539 152.06283203 143.47314453 152.61035156 C144.11011026 155.49942503 144.27014595 158.27961368 144.4296875 161.234375 C144.53990234 163.05582031 144.53990234 163.05582031 144.65234375 164.9140625 C144.79985165 167.455339 144.94056495 169.99701972 145.07421875 172.5390625 C145.49454489 179.27852903 146.16969086 184.84446428 149 191 C143.98794386 185.98794386 144.2228512 178.51823767 143.625 171.9375 C141.80961302 155.09984615 137.2227595 141.75670549 123.9375 130.25 C122.968125 129.5075 121.99875 128.765 121 128 C114.51576203 131.06088252 108.2590206 134.39235495 102.06860352 138.00317383 C74.6410749 153.9862722 46.04823797 166.80013941 16 177 C15.01 183.6 14.02 190.2 13 197 C13.0625 189.125 13.0625 189.125 13.09008789 186.64892578 C13.19150641 182.69633874 13.19150641 182.69633874 12 179 C6.57135231 179.59864217 1.34432311 180.50876622 -3.9609375 181.8203125 C-4.70077881 181.99965836 -5.44062012 182.17900421 -6.20288086 182.36378479 C-8.59490827 182.94560018 -10.98507545 183.53461023 -13.375 184.125 C-14.19413879 184.32630524 -15.01327759 184.52761047 -15.85723877 184.73501587 C-21.57545379 186.14098469 -27.28913765 187.56447348 -33 189 C-33.68529785 189.17202942 -34.3705957 189.34405884 -35.07666016 189.52130127 C-84.22883159 201.8908543 -124.33058411 230.77292778 -165 260 C-166.13381104 260.81138428 -166.13381104 260.81138428 -167.29052734 261.63916016 C-179.81755185 270.5895674 -179.81755185 270.5895674 -192 280 C-191.34 280.33 -190.68 280.66 -190 281 C-187.53050701 279.87130682 -187.53050701 279.87130682 -184.75 278.16796875 C-183.13798706 277.224375 -183.13798706 277.224375 -181.4934082 276.26171875 C-180.92337067 275.92317871 -180.35333313 275.58463867 -179.76602173 275.23583984 C-177.39892872 273.8306941 -175.02114255 272.44414336 -172.64387512 271.05630493 C-170.86354549 270.01643627 -169.08482044 268.97385979 -167.30615234 267.93115234 C-120.403768 240.53506165 -74.48212937 233.37157364 -21 243 C-20.12118164 243.15533203 -19.24236328 243.31066406 -18.33691406 243.47070312 C-2.87020732 246.35083957 12.11035944 251.70796335 27.05004883 256.54272461 C27.93030228 256.82709885 28.81055573 257.11147308 29.71748352 257.40446472 C31.38543184 257.944392 33.05254489 258.48690878 34.71867371 259.03242493 C48.44744726 263.48207166 59.77751029 262.99397875 73 257 C75.1638323 256.07666258 77.33041587 255.15974004 79.5 254.25 C80.4384375 253.84265625 81.376875 253.4353125 82.34375 253.015625 C97.29445818 247.29917776 114.35870863 252.77695901 129.1875 256.5625 C163.69683122 265.27446982 198.92986351 262.00043541 230.234375 244.41796875 C235.86866885 240.92795594 241.15584274 236.88821164 246.39355469 232.83544922 C255.93036104 225.51334183 264.04730453 223.73754594 276 225 C282.77449851 226.04375756 289.48272778 227.40975217 296.19140625 228.80859375 C313.56560887 232.42414618 332.01669671 232.80897965 348 224 C348.70125 223.61457031 349.4025 223.22914063 350.125 222.83203125 C364.23382808 214.24076272 373.74415351 200.29385043 383 187 C383.6069873 186.13068848 384.21397461 185.26137695 384.83935547 184.36572266 C391.10521996 175.332725 397.16165895 166.17935661 402.5 156.5625 C402.89227783 155.88300293 403.28455566 155.20350586 403.6887207 154.50341797 C405.29455153 151.4835882 406.08834607 149.54954251 405.5390625 146.1328125 C403.41146889 141.80202551 401.21366046 137.53347763 398.875 133.3125 C398.38435059 132.4241748 397.89370117 131.53584961 397.38818359 130.62060547 C393.68785049 124.01984824 389.71895961 117.92613533 385 112 C384.2575 110.96875 383.515 109.9375 382.75 108.875 C370.50729717 96.07581068 355.30241888 89.43284855 338 87 C336.63681641 86.80470703 336.63681641 86.80470703 335.24609375 86.60546875 C319.32932838 84.78293836 303.02219157 86.2169246 287.1015625 87.27734375 Z M-244.25 110.25 C-244.96438232 110.79213135 -245.67876465 111.3342627 -246.41479492 111.89282227 C-263.43292863 124.92241916 -276.59567043 138.11080579 -287 157 C-287.55155762 157.99918457 -288.10311523 158.99836914 -288.67138672 160.02783203 C-290.54120383 163.42972834 -292.3987551 166.8379629 -294.25 170.25 C-294.84079346 171.33885498 -295.43158691 172.42770996 -296.0402832 173.54956055 C-305.59615348 191.36185418 -312.98039496 207.65980123 -306.9375 227.875 C-304.83041587 235.07231606 -303.88818257 240.59867177 -307.20703125 247.515625 C-309.14178181 250.84400855 -311.24034616 253.99030935 -313.5546875 257.06640625 C-318.66886923 264.04872173 -320.80095752 271.75101657 -323 280 C-323.45221924 281.69189453 -323.45221924 281.69189453 -323.91357422 283.41796875 C-324.91711575 287.21209909 -325.90046452 291.01082041 -326.875 294.8125 C-327.19782959 296.05942627 -327.52065918 297.30635254 -327.85327148 298.59106445 C-328.14661377 299.7637085 -328.43995605 300.93635254 -328.7421875 302.14453125 C-329.0088623 303.20003174 -329.27553711 304.25553223 -329.55029297 305.34301758 C-330.2299811 308.09357476 -330.2299811 308.09357476 -329 311 C-328.33355469 310.14019531 -327.66710937 309.28039062 -326.98046875 308.39453125 C-316.27920794 294.64361717 -305.03381509 281.60472167 -293 269 C-292.17371094 268.13117188 -291.34742188 267.26234375 -290.49609375 266.3671875 C-285.83724237 261.58332222 -280.8807036 257.34206288 -275.66796875 253.171875 C-273.30230695 251.24609468 -271.05428037 249.254208 -268.8125 247.1875 C-258.14857275 237.63912542 -246.1954356 229.63027809 -234.25390625 221.7890625 C-233.56570801 221.33692383 -232.87750977 220.88478516 -232.16845703 220.41894531 C-230.61548647 219.40274796 -229.05872512 218.39233455 -227.49951172 217.38574219 C-226.68369629 216.85368164 -225.86788086 216.32162109 -225.02734375 215.7734375 C-224.280896 215.29052246 -223.53444824 214.80760742 -222.76538086 214.31005859 C-220.86458082 213.10562594 -220.86458082 213.10562594 -220 211 C-220 198.31864633 -227.70654061 187.07402027 -236 178 C-237.81911762 176.18088238 -239.64692766 174.39382591 -241.5546875 172.66796875 C-245.30605103 168.33869245 -245.26129605 163.66555289 -245.125 158.1875 C-245.11597656 157.49462891 -245.10695313 156.80175781 -245.09765625 156.08789062 C-245.07426157 154.39177605 -245.03839641 152.69584129 -245 151 C-247.23818616 153.8128993 -248.87449891 156.57258251 -250.3828125 159.83203125 C-250.82334961 160.78376221 -251.26388672 161.73549316 -251.71777344 162.71606445 C-252.1821582 163.73788818 -252.64654297 164.75971191 -253.125 165.8125 C-253.61000977 166.87621826 -254.09501953 167.93993652 -254.59472656 169.03588867 C-262.2492869 186.01552816 -268.64938383 203.50007055 -275 221 C-269.05580462 191.55549731 -258.86229717 162.21218409 -245.19140625 135.4609375 C-243.85475079 133.15567133 -243.85475079 133.15567133 -244 131 C-242.68 130.67 -241.36 130.34 -240 130 C-238.35 121.75 -236.7 113.5 -235 105 C-238.63962607 105 -241.43566789 108.1101637 -244.25 110.25 Z M395 182 C393.86314648 183.64454427 392.76792595 185.31784615 391.6875 187 C384.01290033 198.63568337 375.76038044 210.01652515 366 220 C365.41605469 220.62003906 364.83210937 221.24007812 364.23046875 221.87890625 C350.88009647 234.88024919 332.43334259 238.48098534 314.47485352 238.50366211 C300.87205373 238.18659856 287.56059653 235.20154831 274.28417969 232.43383789 C271.93133266 231.9869579 269.76749742 231.86677836 267.375 231.875 C266.61960937 231.87242187 265.86421875 231.86984375 265.0859375 231.8671875 C262.80450231 231.92332827 262.80450231 231.92332827 260 233 C260.72549187 237.75080161 263.70821619 241.47376304 266.29296875 245.3984375 C267.25216459 246.89739587 268.13291195 248.44594364 269 250 C268.67 250.66 268.34 251.32 268 252 C261.66641326 247.6693424 257.89103571 244.16474066 255 237 C253.35332211 238.04033108 251.70771339 239.08235447 250.0625 240.125 C249.04671875 240.76824219 248.0309375 241.41148437 246.984375 242.07421875 C244.54970495 243.64528201 242.18136891 245.27102827 239.8125 246.9375 C213.24976228 264.70934957 180.0311633 271.79677904 148.5 267.8125 C147.46842773 267.68447998 146.43685547 267.55645996 145.37402344 267.42456055 C136.93062913 266.29405064 128.87034185 264.37221083 120.703125 261.98828125 C116.99466588 260.82809803 116.99466588 260.82809803 113 261 C115.10774827 266.46408183 117.79091837 271.56450303 120.5 276.75 C121.02883789 277.76465332 121.55767578 278.77930664 122.10253906 279.82470703 C126.24028041 287.69780614 130.63973463 295.37875449 135.234375 302.9921875 C137 306 137 306 137 307 C136.46487793 306.16412354 135.92975586 305.32824707 135.37841797 304.46704102 C129.26741973 294.93419223 123.07170603 285.4588794 116.84960938 275.99829102 C115.60984045 274.11269009 114.37126955 272.22630648 113.1328125 270.33984375 C112.40980957 269.24019287 111.68680664 268.14054199 110.94189453 267.00756836 C109.70471417 265.09144755 108.51681682 263.14193205 107.39770508 261.15454102 C106.16890897 258.76545297 106.16890897 258.76545297 103.50390625 258.1875 C90.78292986 257.37660111 80.72733445 261.27935279 69.37109375 266.4765625 C64.17912457 268.82287534 59.87493804 269.24564257 54.25 269.3125 C53.48300781 269.34150391 52.71601563 269.37050781 51.92578125 269.40039062 C39.57747771 269.5304781 27.43757302 264.58370015 15.87814331 260.70950317 C-9.45944958 252.26204509 -35.21745927 246.75461491 -62 246 C-62.76489746 245.97808594 -63.52979492 245.95617187 -64.31787109 245.93359375 C-105.34888876 244.94983309 -137.22965257 258.41039929 -172 279 C-173.90583142 280.11920266 -175.81205436 281.23773902 -177.71875 282.35546875 C-182.17061837 284.97120806 -186.61113949 287.60556585 -191.04833984 290.24609375 C-194.38988795 292.23167535 -197.73567523 294.21003826 -201.08203125 296.1875 C-202.9139499 297.27064997 -204.74579493 298.35392431 -206.5776062 299.43725586 C-208.32370024 300.46966802 -210.07016968 301.50144521 -211.81665039 302.53320312 C-216.35096038 305.21769343 -220.87568653 307.90113984 -225.31640625 310.73828125 C-228.93801883 313.02298742 -232.69523261 314.86085614 -236.5625 316.6875 C-249.30663976 322.92326091 -260.42119934 330.64922373 -270.54394531 340.58349609 C-272.01505923 342.01465018 -273.5154957 343.40857423 -275.0234375 344.80078125 C-287.46837679 356.48239896 -295.39883404 370.43470857 -303.36376953 385.39941406 C-311.8911547 401.39049856 -320.76673636 412.32391127 -336.109375 422.15429688 C-345.33151671 428.22578728 -350.35035884 434.3516637 -352.6875 445.1875 C-353.71936687 457.7762758 -352.48721085 470.27259209 -351.375 482.8125 C-351.28929749 483.79612518 -351.20359497 484.77975037 -351.11529541 485.79318237 C-348.75262491 512.70101437 -345.82863956 539.71249117 -341.34863281 566.35986328 C-340.79220823 570.57357155 -340.8277147 574.75986723 -341 579 C-342.65 579 -344.3 579 -346 579 C-346.66 577.35 -347.32 575.7 -348 574 C-352.18589059 575.52643379 -355.94886801 577.57723707 -359.75 579.875 C-360.33910156 580.21402344 -360.92820312 580.55304688 -361.53515625 580.90234375 C-363.99600006 582.39016426 -365.74281878 583.46882186 -367.015625 586.09765625 C-367.19063301 588.29179885 -367.19063301 588.29179885 -365 590.5625 C-359.49827885 595.03264844 -354.48699762 596.60534892 -347.48828125 596.33984375 C-341.56888628 595.53138635 -337.49706253 592.99587089 -333.6875 588.4375 C-330.41700065 583.72334699 -329.16437878 578.55633382 -328 573 C-326.35 573 -324.7 573 -323 573 C-322.01 575.31 -321.02 577.62 -320 580 C-319.34 580 -318.68 580 -318 580 C-317.7525 580.61101562 -317.505 581.22203125 -317.25 581.8515625 C-315.35507346 585.10846748 -312.98174383 585.96897994 -309.58203125 587.375 C-303.74621309 588.78760349 -298.14909719 586.75718248 -293 584 C-298.64940314 590.50537332 -304.8576948 591.14291524 -313 592 C-307.92563685 609.16250574 -295.53739929 623.83352065 -283.38964844 636.54296875 C-282.0426042 637.95532996 -280.71239828 639.3836914 -279.3828125 640.8125 C-262.83791058 658.09382188 -241.60255292 668.95220976 -220.3125 679.3125 C-219.71111206 679.60743347 -219.10972412 679.90236694 -218.4901123 680.20623779 C-216.78567282 681.03870507 -215.07460975 681.85756948 -213.36328125 682.67578125 C-212.37626221 683.14927002 -211.38924316 683.62275879 -210.37231445 684.1105957 C-209.58945068 684.40409912 -208.80658691 684.69760254 -208 685 C-207.34 684.67 -206.68 684.34 -206 684 C-206.59949463 683.40574219 -207.19898926 682.81148437 -207.81665039 682.19921875 C-210.07574527 679.95733893 -212.33244873 677.71308469 -214.58764648 675.46728516 C-215.55742273 674.50248541 -216.5281007 673.53859105 -217.49975586 672.57568359 C-222.60804079 667.51218507 -227.58524633 662.42035712 -232.26342773 656.95703125 C-235.66005582 653.12919901 -239.35235872 649.58643924 -243 646 C-247.36255309 641.71064411 -251.68035898 637.44434564 -255.6640625 632.796875 C-266.20753116 620.54775596 -276.89308454 614.07127847 -293 612 C-293.33 610.02 -293.66 608.04 -294 606 C-279.37778032 605.08132651 -270.001546 609.57531142 -259 619 C-253.97059112 623.61906361 -249.17319502 628.47673695 -244.38012695 633.33862305 C-242.18115463 635.56893581 -239.97152402 637.78823231 -237.75976562 640.00585938 C-236.33270617 641.44208544 -234.90625252 642.87891377 -233.48046875 644.31640625 C-232.83240768 644.96871719 -232.18434662 645.62102814 -231.51664734 646.29310608 C-227.73486379 650.13335803 -224.14721462 654.0913334 -220.62171936 658.1672821 C-218.44772456 660.62413085 -216.1288238 662.89806422 -213.7578125 665.1640625 C-212.83742187 666.05867188 -211.91703125 666.95328125 -210.96875 667.875 C-209.53753216 669.25903483 -208.10612437 670.64294257 -206.66308594 672.01464844 C-205.24584342 673.36517476 -203.84532789 674.73318587 -202.4453125 676.1015625 C-201.61531738 676.89900879 -200.78532227 677.69645508 -199.93017578 678.51806641 C-197.65408114 681.44480282 -197.12429774 683.31416612 -197 687 C-197.66 687.99 -198.32 688.98 -199 690 C-198.48429443 690.26514404 -197.96858887 690.53028809 -197.43725586 690.8034668 C-184.08521892 697.68703368 -170.95215778 704.89539903 -157.90722656 712.34277344 C-152.15546187 715.62149184 -146.38707367 718.87087956 -140.62109375 722.12451172 C-135.84673087 724.82021288 -131.07791777 727.5248175 -126.3203125 730.25 C-113.29124967 737.69629665 -100.10284944 744.76981429 -86.73974609 751.59863281 C-84.38084273 752.80520074 -82.02746053 754.02163165 -79.67578125 755.2421875 C-18.4735118 786.75846026 53.98911918 806.02212471 121.61669922 784.75805664 C136.52708966 779.75567869 151.41981754 772.47417879 164 763 C160.20621683 761.73540561 158.24718404 762.45546174 154.375 763.375 C148.89741781 764.60534923 143.60296183 765.65737284 138 766 C137.22140625 766.06445312 136.4428125 766.12890625 135.640625 766.1953125 C114.32463114 767.16422131 92.28137633 756.65647857 72.77661133 749.32788086 C60.16694401 744.62350832 47.43430108 740.27746763 34.71182251 735.88967896 C21.55291248 731.34592974 8.50424258 726.66131428 -4.390625 721.40625 C-7.66498493 719.87898995 -7.66498493 719.87898995 -10 720 C-10 719.34 -10 718.68 -10 718 C-8.87021729 718.39678955 -7.74043457 718.7935791 -6.57641602 719.20239258 C40.63536752 736.08935822 40.63536752 736.08935822 88.72753906 750.16308594 C92.28899457 751.07390879 95.84387656 752.00795751 99.3984375 752.9453125 C101.84883284 753.58901956 104.29935062 754.23226075 106.75 754.875 C107.88743652 755.17374023 109.02487305 755.47248047 110.19677734 755.78027344 C111.26105957 756.05645508 112.3253418 756.33263672 113.421875 756.6171875 C114.35612305 756.86065918 115.29037109 757.10413086 116.25292969 757.35498047 C132.92269805 761.26908712 148.8237224 758.8309376 165 754 C165.93875977 753.72655762 166.87751953 753.45311523 167.84472656 753.17138672 C180.48382749 749.38736582 189.95024917 744.86492557 199.35253906 735.58642578 C202.23552663 732.81024718 205.31645626 730.26654353 208.375 727.6875 C209.53237557 726.69792951 210.68866942 725.70709212 211.84375 724.71484375 C212.38128906 724.25319824 212.91882813 723.79155273 213.47265625 723.31591797 C216.66630534 720.56435649 219.83849975 717.78840395 223 715 C220.54658279 713.77329139 219.37154993 714.02108164 216.66015625 714.3046875 C215.77215332 714.39314941 214.88415039 714.48161133 213.96923828 714.57275391 C213.01001465 714.67249512 212.05079102 714.77223633 211.0625 714.875 C192.68139632 716.65015934 174.46720208 717.27087354 156 717 C155.20674316 716.99274902 154.41348633 716.98549805 153.59619141 716.97802734 C94.41939937 716.21453932 32.73074054 700.0607437 -21 676 C-21.76183594 675.66581055 -22.52367187 675.33162109 -23.30859375 674.98730469 C-41.64424335 666.92256041 -58.7500975 656.67602613 -75 645 C-67.38005712 648.76267524 -59.78746464 652.55698022 -52.30102539 656.58007812 C-2.40420911 683.3046541 51.19085733 699.55276753 107 708 C108.12647949 708.17797119 109.25295898 708.35594238 110.41357422 708.53930664 C114.59570289 709.07652085 118.74753054 709.33198356 122.95703125 709.53515625 C123.80849731 709.57835999 124.65996338 709.62156372 125.53723145 709.66607666 C156.99061361 711.23339048 187.65366294 711.20662564 219 708 C219.69518738 707.93076324 220.39037476 707.86152649 221.10662842 707.79019165 C228.66894531 707.01227238 235.08910195 706.18230066 241.75 702.4375 C242.87921875 701.81746094 244.0084375 701.19742188 245.171875 700.55859375 C246.10515625 700.04425781 247.0384375 699.52992188 248 699 C248.99 698.67 249.98 698.34 251 698 C251.75623195 685.28409983 249.61660814 671.87127807 245 660 C244.28199219 660.2165625 243.56398438 660.433125 242.82421875 660.65625 C214.91632285 668.16323072 191.13101169 657.4599491 165.56201172 647.00292969 C126.43153636 631.059197 85.17548442 619.93813302 44.4375 609 C-29.66936423 589.09772528 -95.71504197 563.47508611 -157.82568359 517.60498047 C-160.16662923 515.87700196 -162.51455851 514.15879677 -164.86328125 512.44140625 C-173.36563736 506.21416336 -181.78974493 499.90332739 -190.12353516 493.45214844 C-208.56376052 479.18172683 -227.22357642 465.37663595 -247 453 C-240.21814647 456.58887296 -233.87655834 460.64733957 -227.5625 465 C-226.60166504 465.65935547 -225.64083008 466.31871094 -224.65087891 466.99804688 C-210.51345148 476.73638398 -196.7269963 486.91732258 -183.01171875 497.23828125 C-175.05362321 503.22112717 -167.03363925 509.11916604 -159 515 C-158.24477051 515.55429687 -157.48954102 516.10859375 -156.71142578 516.6796875 C-145.6773579 524.76833094 -134.49244861 532.57513003 -123 540 C-122.18692383 540.5259375 -121.37384766 541.051875 -120.53613281 541.59375 C-87.67757127 562.71257827 -52.42361159 578.11229119 -15.20703125 589.7734375 C-14.52738752 589.98659985 -13.8477438 590.19976219 -13.14750481 590.419384 C2.20491956 595.21159253 17.72736436 599.22654743 33.33239746 603.10089111 C36.13773096 603.799337 38.94104373 604.5056926 41.74430084 605.21241856 C55.92102738 608.78640794 70.11604376 612.28018862 84.32890892 615.70750999 C96.30143184 618.59505144 108.26163103 621.49981147 120.125 624.8125 C120.85395477 625.01488281 121.58290955 625.21726562 122.33395386 625.42578125 C140.71278017 630.55596832 158.52160325 637.04186011 176.3671875 643.77734375 C198.06428461 651.95145454 216.83870403 658.8663125 240 653 C240.66 652.67 241.32 652.34 242 652 C239.4607676 643.1126866 235.25018377 635.16355259 231 627 C230.48050781 625.99195313 229.96101562 624.98390625 229.42578125 623.9453125 C216.34087191 598.47183643 216.34087191 598.47183643 197.0625 579.0625 C195 578 195 578 192.75 575.0625 C190.34477551 572.03423543 188.09005009 571.19584315 184.3984375 570.015625 C181.30874605 568.7072866 178.84725368 566.89861978 176.125 564.9375 C133.91908602 534.79041859 80.20954595 524.7746263 30.56396484 513.69238281 C-8.711583 504.9057506 -8.711583 504.9057506 -26.875 498.3125 C-28.99726706 497.55823133 -31.11966039 496.80431783 -33.2421875 496.05078125 C-34.23162354 495.69508057 -35.22105957 495.33937988 -36.24047852 494.97290039 C-38.63474737 494.12877393 -41.03706837 493.34415839 -43.45703125 492.578125 C-49.41203402 490.60898086 -55.09448555 488.00076186 -60.8125 485.4375 C-62.00593018 484.90302246 -63.19936035 484.36854492 -64.42895508 483.81787109 C-82.69229299 475.58191998 -100.01219498 466.30569434 -117.22302246 456.05639648 C-119.79156972 454.52941922 -122.36430632 453.00955977 -124.93688965 451.48939514 C-137.33685007 444.16188832 -149.73079518 436.82754065 -161.9934082 429.27172852 C-170.83684235 423.84126057 -179.7832749 418.58202477 -188.7109375 413.29174805 C-201.16908942 405.90829271 -213.59172749 398.46700006 -226 391 C-219.13071152 394.31954712 -212.53640047 397.94463927 -206 401.875 C-197.78527581 406.7708855 -189.53789043 411.60397764 -181.25 416.375 C-179.61998047 417.31351807 -179.61998047 417.31351807 -177.95703125 418.27099609 C-175.74301518 419.54522884 -173.52882194 420.81915379 -171.31445312 422.09277344 C-166.95450106 424.60160855 -162.59742814 427.11541513 -158.24072266 429.62988281 C-156.07926401 430.87719133 -153.91747972 432.12393569 -151.75537109 433.37011719 C-146.30774838 436.51042473 -140.86464357 439.65812689 -135.4296875 442.8203125 C-121.95530616 450.648897 -108.37980605 458.24117115 -94.63378906 465.58251953 C-92.16888081 466.90910994 -89.71890139 468.25906986 -87.2734375 469.62109375 C-86.57307373 470.00724854 -85.87270996 470.39340332 -85.15112305 470.79125977 C-83.34116654 471.79019013 -81.53560585 472.79707425 -79.73046875 473.8046875 C-76.98847127 475.36845244 -76.98847127 475.36845244 -74 474 C-74.79921875 473.33355469 -75.5984375 472.66710937 -76.421875 471.98046875 C-99.93075738 452.29349402 -117.87108651 430.57669719 -135.66601562 405.66796875 C-153.69554132 380.45629357 -172.01150716 357.63339466 -197 339 C-187.520751 343.38690826 -179.5000796 350.87266532 -172 358 C-170.56140625 359.35931641 -170.56140625 359.35931641 -169.09375 360.74609375 C-162.19873918 367.38064129 -156.20633898 374.46434666 -150.44482422 382.09326172 C-148.93606111 384.08438031 -147.40950526 386.06078246 -145.87890625 388.03515625 C-140.29422411 395.25827069 -134.85731084 402.56186002 -129.5625 410 C-121.06280538 421.89905623 -111.77153109 433.16648274 -101.87890625 443.93359375 C-100.17253508 445.81024728 -98.5502845 447.73065481 -96.9375 449.6875 C-93.63956722 453.55002453 -89.8747344 456.73169026 -86 460 C-85.06285156 460.825 -84.12570312 461.65 -83.16015625 462.5 C-60.15468169 482.63069769 -36.934804 491.14805499 -7.4375 497.8125 C-5.13472924 498.33732409 -2.83199524 498.8623095 -0.52929688 499.38745117 C6.31000581 500.94208316 13.15376684 502.47620018 20 504 C21.02067566 504.22719727 22.04135132 504.45439453 23.09295654 504.68847656 C28.5724144 505.90500745 34.05478929 507.10665373 39.54269409 508.28451538 C41.17144906 508.63447489 42.799654 508.98700488 44.42727661 509.3421936 C46.65800575 509.82720782 48.8908984 510.30033294 51.125 510.76953125 C52.36507813 511.03354736 53.60515625 511.29756348 54.8828125 511.56958008 C57.72207543 511.96162429 59.34768365 511.97441286 62 511 C60.33324219 509.948125 60.33324219 509.948125 58.6328125 508.875 C34.02421007 493.23361056 17.83512186 475.55045604 5.671875 449.11328125 C0.57728022 438.29575834 -7.47437628 430.22647903 -16 422 C-16.33 421.67 -16.66 421.34 -17 421 C-1.0448567 432.63877603 9.7045819 447.30540891 19.8125 463.9921875 C23.90829182 470.68577321 28.50036007 476.40231138 34 482 C34.76441406 482.78890625 35.52882813 483.5778125 36.31640625 484.390625 C48.89639362 496.59655954 64.69487501 505.13224361 80.10473633 513.21826172 C80.99185303 513.68635254 81.87896973 514.15444336 82.79296875 514.63671875 C83.5821167 515.04623779 84.37126465 515.45575684 85.18432617 515.87768555 C87 517 87 517 88 519 C90.35930849 519.87594148 90.35930849 519.87594148 93.2734375 520.59375 C94.39524414 520.89667969 95.51705078 521.19960938 96.67285156 521.51171875 C97.89456055 521.83785156 99.11626953 522.16398437 100.375 522.5 C120.64016311 528.10980589 140.50823971 534.87954286 159 545 C161.09332167 546.13658696 163.18755954 547.27136337 165.28417969 548.40185547 C166.60029527 549.11440818 167.91243523 549.8343725 169.21972656 550.56298828 C172.03953563 552.10679871 173.72968763 553 177 553 C175.92685547 551.77990234 175.92685547 551.77990234 174.83203125 550.53515625 C153.74230605 526.36201224 136.62846229 499.88722058 120.53952026 472.20730591 C113.7475646 460.529265 106.80956694 449.03492819 99 438 C98.45279297 437.2251123 97.90558594 436.45022461 97.34179688 435.65185547 C89.46321965 424.56899783 81.11360523 414.08735575 72 404 C71.54012695 403.48373047 71.08025391 402.96746094 70.60644531 402.43554688 C63.75127456 394.74147399 56.52227792 387.42377303 49.25 380.125 C48.36248047 379.23280762 47.47496094 378.34061523 46.56054688 377.42138672 C41.53425609 372.40733222 36.41126413 367.59495936 31 363 C29.88263495 362.03796659 28.76544072 361.07573474 27.6484375 360.11328125 C26.55773498 359.17916962 25.4665788 358.24558748 24.375 357.3125 C20.7337043 354.19976359 17.09411282 351.08564545 13.4765625 347.9453125 C7.23541137 342.53818381 0.91414723 337.28311727 -5.60717773 332.21679688 C-10.14620969 328.68805134 -14.61146008 325.07640729 -19.0625 321.4375 C-24.11890468 317.3201856 -29.18270219 313.21320468 -34.3125 309.1875 C-35.33988281 308.37667969 -36.36726563 307.56585938 -37.42578125 306.73046875 C-39.89799085 304.72105354 -39.89799085 304.72105354 -43 305 C-42.67 303.02 -42.34 301.04 -42 299 C-38.75680974 297.91485024 -37.05208972 298.0547467 -33.90234375 299.3359375 C-33.11110107 299.65328857 -32.3198584 299.97063965 -31.50463867 300.29760742 C-30.65748291 300.65314697 -29.81032715 301.00868652 -28.9375 301.375 C-28.04844971 301.74149658 -27.15939941 302.10799316 -26.2434082 302.4855957 C5.49379003 315.7269805 35.41029307 333.13014619 62 355 C63.66565108 356.31378861 65.3322587 357.62636576 67 358.9375 C76.96379513 366.93475662 86.57052363 375.38290928 96 384 C96.47727539 384.4321582 96.95455078 384.86431641 97.44628906 385.30957031 C108.51103826 395.32927619 119.63272471 405.57165081 129.2734375 416.9921875 C131.1118079 419.13002095 133.01869328 421.19736594 134.93701172 423.26342773 C139.7766684 428.47694584 144.36666349 433.81809593 148.828125 439.36328125 C150.93756349 441.92420028 153.12887648 444.37123455 155.375 446.8125 C159.33230282 451.15938185 162.96171412 455.69087587 166.55981445 460.33300781 C170.304652 465.15231623 174.16436868 469.86661648 178.0625 474.5625 C183.27565693 480.842794 188.30865956 487.2254076 193.20703125 493.75390625 C193.79871094 494.49511719 194.39039063 495.23632812 195 496 C195.33 496 195.66 496 196 496 C195.4276802 489.59001821 194.36804144 483.33110374 193.10424805 477.02539062 C191.31783268 467.92926676 190.8335614 458.94201661 190.5625 449.6875 C189.79926564 428.03244568 188.85231278 407.30042088 178 388 C177.67 387.34 177.34 386.68 177 386 C188.85916879 402.24495606 191.99797338 420.8013986 193.65795898 440.43725586 C195.33830301 460.27816837 199.26855054 479.55916564 204.7644043 498.68823242 C205.20006714 500.21540894 205.20006714 500.21540894 205.64453125 501.7734375 C205.90596924 502.66466309 206.16740723 503.55588867 206.43676758 504.47412109 C207 507 207 507 206.9831543 509.66455078 C207.00877812 513.2169787 208.77998086 514.78339763 211 517.5 C211.91533245 518.64221263 212.82929457 519.78552419 213.7421875 520.9296875 C214.25491211 521.56616211 214.76763672 522.20263672 215.29589844 522.85839844 C218.64024373 527.06134928 221.87429759 531.34950884 225.125 535.625 C225.8166626 536.53145264 226.5083252 537.43790527 227.22094727 538.37182617 C231.47926948 543.96179742 235.6638873 549.58946661 239.71484375 555.33203125 C240.13894531 555.88246094 240.56304688 556.43289063 241 557 C241.33 557 241.66 557 242 557 C245.77741946 517.54806851 242.75859661 480.79312605 230.65429688 442.90625 C224.65748062 424.10119262 221.63265034 405.43002619 219.14819336 385.86181641 C216.84079723 367.83350581 213.5506753 350.7348468 206.9375 333.75 C202.42804976 321.71669328 198.53876407 309.95727595 198 297 C198.11214844 297.79277344 198.22429688 298.58554687 198.33984375 299.40234375 C200.37085056 311.41581543 204.62595012 322.46650105 208.84667969 333.859375 C210.58530637 338.59385714 212.25105255 343.35009645 213.875 348.125 C214.14860352 348.90375488 214.42220703 349.68250977 214.70410156 350.48486328 C219.41498609 364.44530982 220.94151918 379.17991581 222.72680664 393.73339844 C224.50915915 408.15384238 227.01661588 422.29569367 232 436 C240.76855724 427.23144276 243.29980795 409.81703729 245 398 C245.32138988 396.33098909 245.64969046 394.66318132 246 393 C245.51121531 404.39373964 243.85861578 414.43587429 239.64282227 425.02832031 C234.51420712 437.97878985 235.83018808 445.82933193 240 459 C247.49074801 482.71377164 251.07989234 506.55074948 251.25 531.4375 C251.25966797 532.84999023 251.25966797 532.84999023 251.26953125 534.29101562 C251.23514866 539.34181812 250.88946365 544.1887324 250.125 549.18359375 C248.04406921 562.05248429 248.04406921 562.05248429 252.54223633 573.85400391 C254.67814398 576.66563987 256.92769402 579.34628183 259.27001953 581.98779297 C262.1254116 585.30900966 264.57318363 588.90122072 267.0625 592.5 C267.55967529 593.20471436 268.05685059 593.90942871 268.5690918 594.63549805 C277.60817146 607.46131852 285.79762243 620.83900147 294.02734375 634.19140625 C297.29896444 639.4949737 300.62589858 644.7609407 304 650 C317.94808267 637.2826305 321.42436421 618.38889843 324.4375 600.5 C324.72540934 598.84576793 325.01341702 597.19155297 325.30151367 595.53735352 C327.73159892 581.37739046 329.80281321 567.16232475 331.8125 552.9375 C331.95952362 551.90302734 332.10654724 550.86855469 332.25802612 549.80273438 C334.96256103 530.64365891 337.11122916 511.47928851 337.625 492.125 C337.67865723 490.22584839 337.67865723 490.22584839 337.73339844 488.28833008 C337.832682 484.5257195 337.91769833 480.76301512 338 477 C338.02868164 475.9186377 338.05736328 474.83727539 338.08691406 473.72314453 C339.4408858 419.41859467 324.49433425 349.9886685 300 301 C300.66 301 301.32 301 302 301 C302.19323853 301.81694336 302.19323853 301.81694336 302.39038086 302.65039062 C304.80223871 312.13881874 308.21349918 321.27574881 311.49371338 330.48858643 C325.53557199 370.05293238 335.46753505 409.52542386 342 451 C367.93125067 412.10312399 366.54190169 365.59377233 362 321 C365.99075386 339.27765269 367.50542035 357.30977386 368 376 C368.04302246 377.46808105 368.04302246 377.46808105 368.08691406 378.96582031 C368.35158051 389.08009891 368.31138703 399.0384363 366.8125 409.0625 C366.71163086 409.7627832 366.61076172 410.46306641 366.50683594 411.18457031 C364.3623132 423.61817788 358.72379701 435.15528279 353.3125 446.4375 C352.15635477 448.84994919 351.00805292 451.26567718 349.86328125 453.68359375 C349.36094971 454.73087646 348.85861816 455.77815918 348.34106445 456.85717773 C346.06252655 462.1969954 344.77419054 467.34412954 344.375 473.125 C344.30023437 474.11757813 344.22546875 475.11015625 344.1484375 476.1328125 C344.02360744 479.38496414 344.00102267 482.60226831 344.01953125 485.85546875 C344.10225706 522.19278065 339.34640414 558.26740135 333.94198608 594.12936401 C333.65275796 596.04875795 333.3665255 597.96860628 333.08364868 599.88894653 C330.87200629 614.78437209 328.4032374 629.97878022 320.8203125 643.21484375 C320.54960938 643.80394531 320.27890625 644.39304687 320 645 C320.33 645.66 320.66 646.32 321 647 C357.42199227 593.36626429 383.26228058 536.6601826 403 475 C403.27624207 474.13862427 403.55248413 473.27724854 403.83709717 472.38977051 C423.04680401 414.32758643 423.04680401 414.32758643 420 354 C419.7848877 353.10474609 419.56977539 352.20949219 419.34814453 351.28710938 C415.78645481 336.78888022 411.32668545 322.59285576 406.78274536 308.38180542 C403.53453146 298.19575864 400.53270114 287.99875237 397.9375 277.625 C397.66292969 276.53396973 397.38835938 275.44293945 397.10546875 274.31884766 C391.71813478 252.12014565 390.74696715 230.48810711 395.125 208.0625 C396.69303349 199.4995671 396.15418077 190.66838557 396 182 C395.67 182 395.34 182 395 182 Z M-194 281 C-194.33 281.66 -194.66 282.32 -195 283 C-194.01 282.67 -193.02 282.34 -192 282 C-192.66 281.67 -193.32 281.34 -194 281 Z M-6 321 C-1.93755007 325.23700833 2.44586056 328.92805023 7 332.625 C8.52523241 333.8730959 10.0499672 335.12180015 11.57421875 336.37109375 C12.70029541 337.29317627 12.70029541 337.29317627 13.84912109 338.23388672 C22.21396315 345.10236202 30.35896114 352.1581149 38.296875 359.515625 C40.51844089 361.55741099 42.76819018 363.54144283 45.0625 365.5 C49.04008025 368.92490594 52.6902625 372.6586723 56.32055664 376.4453125 C57.51082371 377.66658167 58.75182516 378.83797864 60 380 C60.66 380 61.32 380 62 380 C62.23589844 380.56589844 62.47179687 381.13179688 62.71484375 381.71484375 C64.29414316 384.52302052 66.22686006 386.34382481 68.5625 388.5625 C73.01624994 392.92012584 76.96718841 397.48587285 80.8515625 402.3515625 C82.83062583 404.79120785 84.8820189 407.1186037 87 409.4375 C100.82387713 424.91158555 112.40856139 443.0112173 122.79980469 460.93261719 C140.36500005 491.4657029 140.36500005 491.4657029 160.61962891 520.22705078 C161.92179139 521.89954882 163.20468132 523.5846793 164.48046875 525.27734375 C170.81797918 533.64120336 177.47763334 541.72624822 184.17675781 549.80175781 C189.47098521 556.18488897 194.74454628 562.58491395 200 569 C200.51804199 569.63115723 201.03608398 570.26231445 201.56982422 570.91259766 C227.86488131 603.03598414 255.47004603 642.3631428 257.4921875 685.34130859 C257.56735465 693.07609406 257.56735465 693.07609406 261.38671875 699.359375 C264.33923276 700.76270609 266.76679041 701.55280642 270 702 C270.83402344 702.12503906 271.66804688 702.25007813 272.52734375 702.37890625 C276.22909006 701.81165603 277.69147392 699.86198267 280.25 697.1875 C280.72743652 696.69121094 281.20487305 696.19492187 281.69677734 695.68359375 C285.60926807 691.55887807 289.2579303 687.2342681 292.77734375 682.76953125 C294.33825761 680.82456126 295.96210454 678.9292477 297.62890625 677.07421875 C298.47324219 676.12160156 299.31757812 675.16898438 300.1875 674.1875 C300.96480469 673.33542969 301.74210937 672.48335937 302.54296875 671.60546875 C304.29367845 669.09948319 304.29367845 669.09948319 303.59765625 666.33203125 C301.3330418 661.60900894 298.84770427 657.04750695 296.25 652.5 C295.67507813 651.48969727 295.10015625 650.47939453 294.5078125 649.43847656 C284.53086985 632.07060617 273.4555499 615.41998074 262 599 C261.50290527 598.28537598 261.00581055 597.57075195 260.49365234 596.83447266 C249.2465333 580.68827903 237.50870815 564.91893599 225.55322266 549.29199219 C221.57019024 544.08093137 217.66241574 538.83196348 213.83203125 533.5078125 C210.45456802 528.88450462 206.92695653 524.37532003 203.42431641 519.84667969 C200.77115898 516.40676149 198.13703611 512.95228097 195.5 509.5 C194.38547821 508.04292167 193.27089566 506.58588982 192.15625 505.12890625 C190.23609785 502.61851503 188.31915399 500.10576084 186.40625 497.58984375 C180.75242654 490.18296789 174.92668182 482.93397645 169.03125 475.71875 C166.62150201 472.76888609 164.24029419 469.79819922 161.875 466.8125 C157.51570491 461.34970134 152.99388159 456.02746302 148.45751953 450.71191406 C147.00661629 449.00777109 145.5633079 447.29743663 144.12109375 445.5859375 C138.25738226 438.653867 132.22567409 431.9186536 125.9831543 425.32470703 C123.18296372 422.36338702 120.44737398 419.37375814 117.796875 416.27734375 C113.45333844 411.2809203 108.77318002 406.62316348 104.0847168 401.9543457 C102.56508332 400.4400742 101.05087483 398.9205257 99.53710938 397.40039062 C94.1962379 392.05586521 88.74774588 386.90836597 83 382 C81.37152983 380.52465464 79.74598483 379.0460657 78.125 377.5625 C73.23600359 373.16166359 68.18815737 369.04144874 63 365 C61.8463482 364.08073665 60.69270282 363.16146525 59.5390625 362.2421875 C29.06859257 337.06088782 29.06859257 337.06088782 -6 321 Z M318 648 C319 650 319 650 319 650 Z M315 652 C316 654 316 654 316 654 Z M312 656 C311.01 656.66 310.02 657.32 309 658 C309.33 658.99 309.66 659.98 310 661 C310.99 660.01 311.98 659.02 313 658 C312.67 657.34 312.34 656.68 312 656 Z " fill="#F1C643" transform="translate(376,0)"/>
<path d="M0 0 C19.97375033 5.56645501 36.99208151 22.80728829 52 36.5625 C67.97515914 51.00508289 85.80128369 63.18901275 104.58496094 73.64990234 C106.95484693 74.97475774 109.31006107 76.3229466 111.6640625 77.67578125 C125.70035891 85.66112548 140.30423072 92.33039719 155 99 C158.45499794 100.57356813 161.90921387 102.14881373 165.36230469 103.7265625 C167.44871133 104.67903865 169.53653892 105.62841019 171.62597656 106.57421875 C173.01961426 107.2084375 173.01961426 107.2084375 174.44140625 107.85546875 C175.25295166 108.22309326 176.06449707 108.59071777 176.90063477 108.96948242 C179 110 179 110 182 112 C181.67 112.99 181.34 113.98 181 115 C133.10128582 96.05399049 84.84563752 72.52461034 47 37 C45.10047692 35.29842321 43.18297913 33.62109105 41.25390625 31.953125 C39.50100741 30.43414853 37.76144048 28.89978156 36.02734375 27.359375 C29.44501334 21.55895035 22.67318352 16.14256096 15.5625 11 C14.81758301 10.46036621 14.07266602 9.92073242 13.30517578 9.36474609 C8.99856591 6.29301336 4.63901348 3.542595 0 1 C0 0.67 0 0.34 0 0 Z " fill="#F2C643" transform="translate(91,520)"/>
<path d="M0 0 C6.2831743 0.4729271 10.92492709 2.67067021 16.5 5.5 C46.32873318 20.10816804 78.96624791 30.84090241 112 35 C112 35.66 112 36.32 112 37 C76.18428644 34.0477286 41.83722088 25.36956026 9.375 9.6875 C8.53372559 9.29143555 7.69245117 8.89537109 6.82568359 8.48730469 C1.2447112 5.66781874 1.2447112 5.66781874 -0.0234375 2.20703125 C-0.01570313 1.47871094 -0.00796875 0.75039063 0 0 Z " fill="#F1C643" transform="translate(363,737)"/>
<path d="M0 0 C20.61374952 1.82988365 40.99669848 8.07645931 60.75 14 C61.57146515 14.2448111 62.3929303 14.48962219 63.23928833 14.74185181 C72.42534653 17.4918871 81.50877614 20.45743692 90.515625 23.75 C91.32239685 24.04382568 92.1291687 24.33765137 92.96038818 24.64038086 C93.70854797 24.91889893 94.45670776 25.19741699 95.22753906 25.484375 C95.88530334 25.72897461 96.54306763 25.97357422 97.22076416 26.22558594 C99 27 99 27 102 29 C102 29.99 102 30.98 102 32 C97.05353378 31.42057035 92.65547797 30.36255048 87.953125 28.734375 C86.55759942 28.25762624 85.16200693 27.78107332 83.76635742 27.3046875 C83.03226654 27.05170898 82.29817566 26.79873047 81.5418396 26.53808594 C66.51987129 21.37254033 51.39613134 16.58424883 36.1875 12 C35.2862439 11.727323 34.38498779 11.454646 33.4564209 11.17370605 C22.49345985 7.83854393 22.49345985 7.83854393 11.44384766 4.80859375 C10.74117264 4.62772217 10.03849762 4.44685059 9.31452942 4.26049805 C7.43510845 3.78405281 5.55225975 3.32118612 3.66918945 2.859375 C2.78835693 2.57578125 1.90752441 2.2921875 1 2 C0.67 1.34 0.34 0.68 0 0 Z " fill="#F1C643" transform="translate(94,571)"/>
<path d="M0 0 C2.475 0.99 2.475 0.99 5 2 C4.01 2.495 4.01 2.495 3 3 C2.01 2.01 1.02 1.02 0 0 Z " fill="#F2C542" transform="translate(121,448)"/>
<path d="M0 0 C2.475 0.99 2.475 0.99 5 2 C4.01 2.495 4.01 2.495 3 3 C2.01 2.01 1.02 1.02 0 0 Z " fill="#F2C645" transform="translate(144,387)"/>
<path d="M0 0 C2.475 0.99 2.475 0.99 5 2 C4.01 2.495 4.01 2.495 3 3 C2.01 2.01 1.02 1.02 0 0 Z " fill="#F0C943" transform="translate(139,384)"/>
<path d="M0 0 C0.99 0.33 1.98 0.66 3 1 C2.01 1 1.02 1 0 1 C0 0.67 0 0.34 0 0 Z " fill="#F0C546" transform="translate(352,416)"/>
<path d="M0 0 C0.99 0.33 1.98 0.66 3 1 C2.01 1 1.02 1 0 1 C0 0.67 0 0.34 0 0 Z " fill="#F0C741" transform="translate(134,381)"/>
<path d="M0 0 C0.99 0.495 0.99 0.495 2 1 C1.67 1.66 1.34 2.32 1 3 C0.67 2.01 0.34 1.02 0 0 Z " fill="#F0C445" transform="translate(516,312)"/>
<path d="M0 0 C0 3 0 3 0 3 Z " fill="#EFC845" transform="translate(104,311)"/>
<path d="M0 0 C0.33 0.99 0.66 1.98 1 3 C0.34 2.67 -0.32 2.34 -1 2 C-0.67 1.34 -0.34 0.68 0 0 Z " fill="#EDC645" transform="translate(208,104)"/>
<path d="M0 0 C0.66 0.66 1.32 1.32 2 2 C1.34 2 0.68 2 0 2 C0 1.34 0 0.68 0 0 Z " fill="#F2C645" transform="translate(85,517)"/>
<path d="M0 0 C0.33 0.66 0.66 1.32 1 2 C0.34 1.67 -0.32 1.34 -1 1 C-0.67 0.67 -0.34 0.34 0 0 Z " fill="#ECC743" transform="translate(107,307)"/>
<path d="" fill="#EBCA49" transform="translate(0,0)"/>
<path d="M0 0 C2 1 2 1 2 1 Z " fill="#E8D146" transform="translate(347,413)"/>
<path d="M0 0 C2 1 2 1 2 1 Z " fill="#F6C93E" transform="translate(341,410)"/>
<path d="M0 0 C2 1 2 1 2 1 Z " fill="#F2C546" transform="translate(137,383)"/>
<path d="M0 0 C2 1 2 1 2 1 Z " fill="#EDCA46" transform="translate(132,380)"/>
<path d="M0 0 C2 1 2 1 2 1 Z " fill="#EEC946" transform="translate(100,316)"/>
<path d="" fill="#F2C943" transform="translate(0,0)"/>
<path d="M0 0 C2 1 2 1 2 1 Z " fill="#F3C644" transform="translate(217,141)"/>
<path d="" fill="#EFC748" transform="translate(0,0)"/>
<path d="" fill="#F3C249" transform="translate(0,0)"/>
<path d="" fill="#F4C843" transform="translate(0,0)"/>
<path d="" fill="#EFC748" transform="translate(0,0)"/>
<path d="" fill="#F1C845" transform="translate(0,0)"/>
<path d="" fill="#EECC44" transform="translate(0,0)"/>
<path d="" fill="#EABF40" transform="translate(0,0)"/>
<path d="" fill="#E8D146" transform="translate(0,0)"/>
<path d="" fill="#F5C445" transform="translate(0,0)"/>
<path d="" fill="#F4C843" transform="translate(0,0)"/>
<path d="" fill="#EBC43B" transform="translate(0,0)"/>
<path d="" fill="#FFC639" transform="translate(0,0)"/>
<path d="" fill="#EECC44" transform="translate(0,0)"/>
<path d="" fill="#FFBF40" transform="translate(0,0)"/>
<path d="" fill="#EFC542" transform="translate(0,0)"/>
<path d="" fill="#EABF40" transform="translate(0,0)"/>
<path d="" fill="#E6CC4D" transform="translate(0,0)"/>
<path d="" fill="#FFC639" transform="translate(0,0)"/>
</svg>
