<?xml version="1.0" encoding="UTF-8"?>
<svg version="1.1" xmlns="http://www.w3.org/2000/svg" width="807" height="700">
<path d="M0 0 C0.680625 -0.00257812 1.36125 -0.00515625 2.0625 -0.0078125 C4 0.125 4 0.125 7 1.125 C10.51761395 1.31946269 14.03340798 1.44237668 17.5546875 1.55078125 C21.53865898 2.2147765 23.17413771 3.28897274 26 6.125 C27.51088357 8.45136046 28.12013907 10.43653604 29 13.125 C28.67 14.115 28.34 15.105 28 16.125 C27.01 16.125 26.02 16.125 25 16.125 C24.5153125 17.10162598 24.030625 18.07825195 23.53125 19.08447266 C20.4141769 25.34955778 17.29042011 31.6078893 14.03338623 37.801651 C5.37850257 54.26467396 -2.19466151 70.89794954 -8.75 88.3125 C-9.08193359 89.19419861 -9.41386719 90.07589722 -9.75585938 90.98431396 C-24.09475883 126.46410352 -24.09475883 126.46410352 -24.0703125 163.84765625 C-22.62488401 166.88142282 -20.98938778 169.41787231 -19 172.125 C-18.24858212 173.2551486 -17.50141563 174.38813178 -16.7578125 175.5234375 C-10.43976512 184.95742806 -3.00498136 193.31249579 5.15234375 201.1875 C10.54076881 206.4010623 14.94971656 211.29041756 18.6171875 217.90234375 C22.22206169 223.69661893 28.26980787 227.33253694 33.6652832 231.33032227 C34.35323975 231.84006592 35.04119629 232.34980957 35.75 232.875 C36.44246826 233.38667725 37.13493652 233.89835449 37.84838867 234.42553711 C45.22698504 239.93473988 51.95711345 246.01680026 58.41796875 252.58203125 C61.37435766 255.49369415 64.46479216 258.18891073 67.625 260.875 C68.54152344 261.65943481 68.54152344 261.65943481 69.4765625 262.4597168 C74.07025313 266.37691471 78.74593671 270.17299108 83.5 273.89453125 C89.62849412 279.3622971 93.670827 285.49055677 97.4375 292.75 C97.90978027 293.65500244 98.38206055 294.56000488 98.86865234 295.49243164 C105.93665412 309.46818217 111.11850707 324.12083734 111.203125 339.86328125 C111.20882507 340.70231491 111.21452515 341.54134857 111.22039795 342.4058075 C111.22981743 344.18173985 111.23636976 345.95768945 111.24023438 347.73364258 C111.24983249 350.39111957 111.28083907 353.04778582 111.3125 355.70507812 C111.41056855 371.49650863 109.77811013 385.69522854 103 400.125 C102.25275956 401.84733586 101.50965299 403.57146812 100.76953125 405.296875 C92.89568478 423.45314859 82.69603098 440.62332964 67 453.125 C75.43142975 456.3678576 84.07842191 456.36669175 93 456.125 C93.66789551 456.10711426 94.33579102 456.08922852 95.02392578 456.07080078 C103.85532083 455.80211299 112.52811395 455.16383489 121.25390625 453.7578125 C128.40807872 452.64563153 135.56634214 451.6329217 142.75 450.73046875 C144.11177116 450.55876411 144.11177116 450.55876411 145.50105286 450.3835907 C147.37246282 450.14782534 149.24389768 449.91225757 151.11535645 449.67687988 C166.87511054 447.68615304 182.58611302 445.52156085 198.25 442.875 C199.35794922 442.68809097 199.35794922 442.68809097 200.48828125 442.49740601 C204.99699023 441.73256293 209.49968948 440.93804376 214 440.125 C215.50457764 439.8607019 215.50457764 439.8607019 217.03955078 439.59106445 C217.9211084 439.42823975 218.80266602 439.26541504 219.7109375 439.09765625 C220.44618652 438.96367432 221.18143555 438.82969238 221.93896484 438.69165039 C224.31376828 438.03873416 226.23811353 437.02778969 228.375 435.8125 C233.4121354 433.07370778 238.51928423 431.94392861 244.0625 430.6875 C251.44640983 428.95473353 257.24502968 427.27189798 263 422.125 C264.45792969 420.89910156 264.45792969 420.89910156 265.9453125 419.6484375 C275.7156559 411.24476557 281.83161863 402.05390032 287.2265625 390.421875 C289.89732305 385.45684877 292.84792997 381.34680949 298 378.75 C301.13603537 376.93133265 302.64939471 375.4319672 304.375 372.25 C307.80412086 366.07056036 314.54282128 361.80141613 321 359.125 C322.32 359.125 323.64 359.125 325 359.125 C325.32421875 361.41015625 325.32421875 361.41015625 325 364.125 C322.76953125 365.93359375 322.76953125 365.93359375 319.8125 367.5625 C313.98267218 371.01998454 310.50113669 373.84979269 307.625 380.125 C306.06751222 383.00036205 305.0963176 384.02933726 302.625 386 C297.33623924 390.29781401 294.56460837 395.38987914 292.3125 401.75 C289.33761897 409.64628915 283.72597933 417.23249645 277.90234375 423.31640625 C274.9116769 427.73178503 273.89994482 432.62900427 272.5625 437.75 C272.25812012 438.86721436 271.95374023 439.98442871 271.64013672 441.13549805 C270.27555597 446.17220521 268.9623931 451.21651901 267.75390625 456.29296875 C263.61413236 473.51942441 255.80885561 488.75190611 247.75 504.4375 C247.15968994 505.58863281 246.56937988 506.73976563 245.96118164 507.92578125 C242.97810233 513.64816497 239.93182962 519.00327457 236 524.125 C236.68578125 524.06441406 237.3715625 524.00382813 238.078125 523.94140625 C246.71156433 523.25030581 255.34561779 522.87846638 264 522.5625 C265.74265137 522.49687866 265.74265137 522.49687866 267.52050781 522.42993164 C271.0134582 522.30812443 274.50594643 522.20921465 278 522.125 C279.13904785 522.09656006 280.2780957 522.06812012 281.45166016 522.03881836 C290.20532272 521.92092599 298.70127391 522.66579671 307.375 523.8125 C308.39580154 523.94596329 308.39580154 523.94596329 309.43722534 524.0821228 C318.96506877 525.34528651 327.88852805 527.01007096 336.92236328 530.38476562 C339.44691057 531.2842283 341.99668489 532.07268436 344.55859375 532.859375 C346.03187134 533.31316528 346.03187134 533.31316528 347.53491211 533.77612305 C349.45302961 534.36569346 351.37177292 534.95323328 353.29125977 535.53833008 C368.15309874 540.20408294 368.15309874 540.20408294 372.125 545.4375 C372.61355469 546.0459375 373.10210938 546.654375 373.60546875 547.28125 C374.47863923 548.43569388 375.33788358 549.6009556 376.17578125 550.78125 C380.36421852 556.27938438 385.98760594 559.61051477 391.70703125 563.3125 C412.89448689 577.06636565 412.89448689 577.06636565 420.4921875 585.63671875 C424.80413697 589.89281395 429.87034404 589.56860814 435.57617188 589.55883789 C444.4342189 589.31865007 452.20375172 586.91168668 458.609375 580.66015625 C463.54453168 576.19515425 468.86887467 575.02232671 475.25 573.625 C476.32507813 573.36203125 477.40015625 573.0990625 478.5078125 572.828125 C487.10342888 570.81319248 487.10342888 570.81319248 491 572.125 C490.41015625 573.9921875 490.41015625 573.9921875 489 576.125 C486.05859375 577.3203125 486.05859375 577.3203125 482.4375 578.25 C481.17679688 578.58773437 479.91609375 578.92546875 478.6171875 579.2734375 C475.75343706 579.94762497 472.96592685 580.44300223 470.0625 580.875 C465.47645254 581.81918624 463.68170482 584.4427309 460.88671875 588.01953125 C456.46769729 592.95090302 450.51045173 596.11715427 444 597.125 C444 598.115 444 599.105 444 600.125 C439.35442467 601.35379615 434.83323153 602.34264092 430.06713867 603.00976562 C420.18886755 604.45644759 411.85505138 607.59821125 403 612.125 C402.17999512 612.54378418 401.35999023 612.96256836 400.51513672 613.39404297 C390.63118684 618.50872382 381.36697668 623.71720054 373 631.125 C371.17177564 632.63122269 369.3382081 634.13097788 367.5 635.625 C364.8398288 637.79406267 362.18713435 639.96558925 359.57421875 642.19140625 C353.4010249 647.35425741 346.80390742 651.28772171 339.77490234 655.12939453 C338.09208831 656.07334441 336.44493687 657.08006319 334.80078125 658.08984375 C318.98453047 667.72459242 300.43996271 674.81960597 282.125 677.75 C277.00212002 678.53980995 277.00212002 678.53980995 271.95703125 679.6953125 C246.12709227 685.36655659 210.39485248 677.39240169 188 664.125 C186.40865234 663.19880859 186.40865234 663.19880859 184.78515625 662.25390625 C166.34524589 651.21578021 151.07039598 639.02902871 140.8125 619.9375 C139.56794282 617.65046094 138.32225971 615.36459566 137.05932617 613.08764648 C136.19911724 611.49391069 135.41880286 609.8572425 134.6640625 608.2109375 C132.21915373 605.14619271 129.22317152 604.75551785 125.5625 603.9375 C109.69933096 599.81916074 95.40513364 591.37571958 82 582.125 C80.50533203 581.12339844 80.50533203 581.12339844 78.98046875 580.1015625 C68.28446789 572.69776437 61.88592337 563.67953103 54.9909668 552.83056641 C51.67184518 547.62156879 48.20132964 542.6435276 44.4375 537.75 C34.49020974 524.51753455 25.12067765 510.10032279 25 493.125 C24.97164063 492.01640625 24.94328125 490.9078125 24.9140625 489.765625 C24.88164283 487.210955 24.92063803 484.67771043 25 482.125 C24.48203857 482.41221924 23.96407715 482.69943848 23.43041992 482.99536133 C4.39843007 493.47763473 4.39843007 493.47763473 -5 495.125 C-4.319375 495.785 -3.63875 496.445 -2.9375 497.125 C2.06536799 502.15597399 6.53809068 507.40256765 10.5625 513.25 C14.44083494 518.71148338 18.93965262 523.26285259 23.81274414 527.82666016 C33.13533566 536.73564839 38.0092671 547.05717969 42.625 558.875 C43.17596141 560.25305325 43.72804054 561.63066017 44.28125 563.0078125 C48.78546016 574.2808891 53.09638252 585.61547748 56.375 597.3125 C58.11921844 603.14277597 60.43432892 607.82842744 63.9140625 612.8125 C67.37311935 618.3055341 70.0648223 624.20295055 72.82861328 630.07080078 C75.52331927 635.65148832 78.51214282 640.41389438 82.48510742 645.1784668 C86.50389072 650.34232808 87.14945646 655.8855467 87.9375 662.25 C88.77979621 668.52042736 89.67661952 672.48499862 94.8046875 676.55859375 C97.14157778 678.206401 99.53819689 679.67029816 102 681.125 C102.96164062 681.71667969 103.92328125 682.30835938 104.9140625 682.91796875 C112.74798491 687.4764174 120.25342738 689.84594639 129.0234375 691.703125 C130.99034306 692.12293883 132.94832573 692.5714945 134.90625 693.03125 C137.93471933 693.74228193 140.96574712 694.43917572 144 695.125 C142.984375 697.58984375 142.984375 697.58984375 141 700.125 C138.17862889 700.63423851 136.06298461 700.79214602 133.25 700.6875 C132.49138672 700.66945313 131.73277344 700.65140625 130.95117188 700.6328125 C119.24191096 700.14451972 109.36217041 696.51000931 99.04345703 691.33007812 C92.68350048 688.23043465 86.13845842 686.16642813 79.375 684.125 C70.62142013 681.47962247 62.90303164 678.4355097 55.0859375 673.69140625 C48.74035651 670.47042147 44.1901944 671.06029222 37.68261719 673.17358398 C36.79735352 673.46692627 35.91208984 673.76026855 35 674.0625 C16.57590795 679.58051239 4.8957102 676.35678915 -12.64697266 669.43676758 C-16.3092371 668.00402061 -19.99037557 666.62557657 -23.67578125 665.25390625 C-31.64970822 662.27526763 -39.58794128 659.2110028 -47.50146484 656.07543945 C-49.00607729 655.48127273 -50.51228434 654.89112896 -52.02001953 654.30493164 C-78.15335793 644.13946297 -94.17499147 629.35635065 -108 605.125 C-108.38075684 604.4645166 -108.76151367 603.8040332 -109.15380859 603.12353516 C-110.37293838 600.98894342 -111.5650557 598.84123446 -112.75 596.6875 C-113.29732788 595.72312012 -113.29732788 595.72312012 -113.85571289 594.73925781 C-121.3580331 580.76882778 -121.41991705 567.66871028 -120.91796875 552.30102539 C-120.56080454 540.25965696 -120.46462572 527.19574857 -126 516.125 C-125.60916032 522.42986107 -125.21048512 528.70528151 -124.3828125 534.96875 C-124.27888184 535.79270264 -124.17495117 536.61665527 -124.06787109 537.46557617 C-123.86094374 539.07474623 -123.638108 540.68197646 -123.39697266 542.28637695 C-122.65396874 548.2171629 -123.71951037 552.62686674 -126 558.125 C-128.31377205 554.65434193 -128.88984473 551.45459845 -129.625 547.4375 C-129.7590625 546.73560547 -129.893125 546.03371094 -130.03125 545.31054688 C-130.3602717 543.58318294 -130.68095312 541.85423409 -131 540.125 C-131.99 540.125 -132.98 540.125 -134 540.125 C-134.12117187 538.87203125 -134.24234375 537.6190625 -134.3671875 536.328125 C-134.53604833 534.67704135 -134.70534183 533.02600191 -134.875 531.375 C-134.95363281 530.55 -135.03226563 529.725 -135.11328125 528.875 C-135.19707031 528.07578125 -135.28085938 527.2765625 -135.3671875 526.453125 C-135.44050293 525.7199707 -135.51381836 524.98681641 -135.58935547 524.23144531 C-136.03889753 521.92547095 -136.8637373 520.17108159 -138 518.125 C-137.7834375 519.86136719 -137.7834375 519.86136719 -137.5625 521.6328125 C-137.37481224 523.17185211 -137.18732273 524.71091591 -137 526.25 C-136.90460938 527.01054688 -136.80921875 527.77109375 -136.7109375 528.5546875 C-136.20348533 532.75929122 -135.74134218 536.88301176 -136 541.125 C-137.5 543 -137.5 543 -139 544.125 C-139 543.465 -139 542.805 -139 542.125 C-140.98 542.455 -142.96 542.785 -145 543.125 C-144.938125 542.17625 -144.87625 541.2275 -144.8125 540.25 C-144.80051044 534.35113661 -146.91418999 528.77920224 -149.125 523.375 C-150.18136792 520.65862535 -150.59827469 518.00403136 -151 515.125 C-151.31394455 521.73406192 -151.31394455 521.73406192 -149.9375 528.125 C-148.21572486 533.63468046 -148.87377056 538.71068779 -151.3046875 543.921875 C-153.5760561 547.83179309 -155.19786981 550.59024654 -159 553.125 C-158.7834375 552.29097656 -158.566875 551.45695313 -158.34375 550.59765625 C-155.33841662 538.45110052 -155.85585762 530.23369118 -159 518.125 C-159.33773437 519.10082031 -159.67546875 520.07664062 -160.0234375 521.08203125 C-160.47373825 522.36726463 -160.92427126 523.65241665 -161.375 524.9375 C-161.59671875 525.58009766 -161.8184375 526.22269531 -162.046875 526.88476562 C-163.1239885 529.94186717 -164.19061861 532.41092791 -166 535.125 C-166.66 535.125 -167.32 535.125 -168 535.125 C-170.20415049 526.30839804 -167.10260768 517.95725102 -163 510.125 C-162.63079809 508.13130969 -162.2929331 506.13131536 -162 504.125 C-165.34502977 506.10589615 -168.67352498 508.11312659 -172 510.125 C-172.93457031 510.67800781 -173.86914062 511.23101562 -174.83203125 511.80078125 C-182.05683904 516.19629368 -188.2703596 521.0305394 -193 528.125 C-194.32 528.125 -195.64 528.125 -197 528.125 C-197 524.08786738 -196.76144624 522.05064818 -194.15234375 518.87890625 C-192.14993218 516.89768422 -190.11764085 514.98215655 -188 513.125 C-197.49244044 516.08105979 -205.93626338 520.30094977 -213.3125 527.0625 C-216.4813625 529.49441773 -218.09896463 529.58940897 -222 529.125 C-216.04421259 516.14081893 -200.78464219 510.09453167 -188.21484375 505.25390625 C-185.80572773 504.40793477 -183.48995082 503.66521377 -181 503.125 C-182.08539063 503.06441406 -183.17078125 503.00382812 -184.2890625 502.94140625 C-185.73438486 502.85693936 -187.17969682 502.77229449 -188.625 502.6875 C-189.69427734 502.62852539 -189.69427734 502.62852539 -190.78515625 502.56835938 C-194.91803682 502.32190319 -198.92269024 501.89029947 -203 501.125 C-202 498.125 -202 498.125 -200.20800781 496.96337891 C-197.90784356 496.09000827 -196.12233885 495.81595738 -193.671875 495.7109375 C-192.87265625 495.67226563 -192.0734375 495.63359375 -191.25 495.59375 C-190.0125 495.54734375 -190.0125 495.54734375 -188.75 495.5 C-187.90953125 495.46132813 -187.0690625 495.42265625 -186.203125 495.3828125 C-184.13576618 495.28884164 -182.06791373 495.20584436 -180 495.125 C-181.06476563 495.08761719 -182.12953125 495.05023438 -183.2265625 495.01171875 C-202.66648891 494.19158277 -219.58320425 490.22139095 -235.36181641 478.35302734 C-237.01168854 477.11623795 -238.68135684 475.91073958 -240.35546875 474.70703125 C-251.35042187 466.67818089 -266.63238856 454.05240104 -269.4140625 440.0390625 C-270.08753543 432.73063407 -270.09512835 425.46045287 -270 418.125 C-271.25683594 417.76921875 -271.25683594 417.76921875 -272.5390625 417.40625 C-288.9760196 411.32123654 -298.87250011 398.28230918 -306.17626953 382.95947266 C-308.33467035 378.15264878 -309.7047747 373.21991114 -311 368.125 C-311.21285645 367.34318359 -311.42571289 366.56136719 -311.64501953 365.75585938 C-319.05421817 338.50813235 -314.86850566 316.85124851 -300.9375 292.5 C-298.97277375 289.31205576 -296.80294334 286.91531066 -294.125 284.3125 C-290.9254166 280.84046299 -290.62753949 278.55633129 -290.75 273.875 C-290.80542969 272.75480469 -290.86085938 271.63460938 -290.91796875 270.48046875 C-291.26438484 256.31040106 -282.68685029 244.79472082 -273.5 234.8125 C-271.68013555 232.90327137 -269.83923211 231.0156981 -268 229.125 C-267.34128906 228.36960938 -266.68257813 227.61421875 -266.00390625 226.8359375 C-261.04968775 221.35340194 -255.25438507 217.36393601 -249.125 213.3125 C-248.2987915 212.76086182 -247.47258301 212.20922363 -246.62133789 211.64086914 C-236.92901792 205.41735946 -226.36402258 202.57066047 -215.375 199.4375 C-205.24891779 196.49518081 -195.32264153 193.20845057 -185.43286133 189.55419922 C-178.84775207 187.12682056 -172.22965396 184.86257476 -165.55419922 182.69604492 C-153.67589323 178.83987273 -142.22474463 174.60812943 -131 169.125 C-130.14148438 168.72152344 -129.28296875 168.31804687 -128.3984375 167.90234375 C-117.29928303 162.27204539 -107.38373264 153.17809253 -99 144.125 C-98.36449219 143.45855469 -97.72898438 142.79210937 -97.07421875 142.10546875 C-93.44850764 138.16920423 -90.79198268 134.23095013 -88.32421875 129.4921875 C-86.34563354 125.95524757 -83.95254352 122.74352912 -81.55078125 119.484375 C-78.7019042 115.15006331 -77.70215224 110.92873111 -76.75 105.875 C-75.22046755 98.99210399 -72.52060173 93.43801908 -67.34375 88.56640625 C-65.54863681 86.64083425 -65.57471474 84.86063507 -65.29223633 82.31567383 C-64.01876669 72.76943905 -60.59820921 64.42097998 -56.3125 55.875 C-55.77866699 54.79105957 -55.24483398 53.70711914 -54.69482422 52.59033203 C-53.62859823 50.42864638 -52.55775699 48.26922998 -51.48193359 46.11230469 C-50.17814862 43.48411474 -48.90319689 40.84530947 -47.64453125 38.1953125 C-46.97167419 36.79672099 -46.29852401 35.39827044 -45.625 34 C-45.06039063 32.82179687 -44.49578125 31.64359375 -43.9140625 30.4296875 C-39.63880614 23.04832652 -34.67181937 18.86778574 -27.3125 14.6875 C-20.94492175 10.94841764 -14.93075208 7.08285371 -9.06640625 2.5859375 C-6.06572717 0.46447441 -3.58391238 -0.01357543 0 0 Z M-7 9.125 C-3.7 8.465 -0.4 7.805 3 7.125 C3 6.795 3 6.465 3 6.125 C-2.65698843 5.64066613 -2.65698843 5.64066613 -7 9.125 Z M19 8.125 C19.66 9.445 20.32 10.765 21 12.125 C21.66 11.795 22.32 11.465 23 11.125 C23 10.465 23 9.805 23 9.125 C21.68 8.795 20.36 8.465 19 8.125 Z M-0.3125 15.875 C-1.44300781 16.19984375 -2.57351563 16.5246875 -3.73828125 16.859375 C-7.11932746 18.17130191 -9.22995885 19.82995742 -12 22.125 C-15.30877682 22.8340236 -18.13114678 23.21188532 -21.5 22.875 C-25.35458703 23.2604587 -28.22338591 25.48441599 -31 28.125 C-31 28.785 -31 29.445 -31 30.125 C-29.54096742 29.81578116 -28.08279278 29.50251201 -26.625 29.1875 C-25.81289063 29.01347656 -25.00078125 28.83945312 -24.1640625 28.66015625 C-21.970537 28.20169307 -21.970537 28.20169307 -20 27.125 C-18.58229837 27.15618944 -17.16524555 27.22344543 -15.75 27.3125 C-11.00282383 27.38064128 -8.85916588 25.91673702 -5 23.125 C-3.03125 22.58984375 -3.03125 22.58984375 -0.9375 22.1875 C3.21734775 21.30230211 5.32237492 19.47203135 8 16.125 C8 15.465 8 14.805 8 14.125 C5.05245768 14.125 2.5107039 15.04370553 -0.3125 15.875 Z M-24 36.125 C-25.9924325 36.50093066 -27.9918674 36.84479545 -30 37.125 C-29.01 39.765 -28.02 42.405 -27 45.125 C-25.68 45.125 -24.36 45.125 -23 45.125 C-21.26833775 43.21867783 -21.26833775 43.21867783 -19.875 40.75 C-18.34250876 38.24878373 -17.07896656 36.20396656 -15 34.125 C-18.9223528 34.125 -20.48748517 34.70326781 -24 36.125 Z M-36 36.125 C-35.85892253 37.58380109 -35.71197585 39.04203551 -35.5625 40.5 C-35.48128906 41.31210937 -35.40007812 42.12421875 -35.31640625 42.9609375 C-35.10909886 45.16772805 -35.10909886 45.16772805 -34 47.125 C-33.01 46.795 -32.02 46.465 -31 46.125 C-32.32 42.825 -33.64 39.525 -35 36.125 C-35.33 36.125 -35.66 36.125 -36 36.125 Z M-11 38.8125 C-14.0899908 39.83588061 -14.0899908 39.83588061 -15.375 42.25 C-15.58125 42.86875 -15.7875 43.4875 -16 44.125 C-12.40608886 42.79011872 -9.24509304 41.16477277 -6 39.125 C-8.09554529 37.81234933 -8.09554529 37.81234933 -11 38.8125 Z M-10 48.125 C-9.01 48.62 -9.01 48.62 -8 49.125 C-4.33039824 47.32193207 -4.33039824 47.32193207 -2 44.125 C-5.28158484 44.125 -7.37881108 46.30156423 -10 48.125 Z M-40 45.125 C-39 47.125 -39 47.125 -39 47.125 Z M-39 48.125 C-38 50.125 -38 50.125 -38 50.125 Z M-38 50.125 C-37.66132538 54.61184201 -37.66132538 54.61184201 -34.9375 58 C-34.298125 58.37125 -33.65875 58.7425 -33 59.125 C-33 56.815 -33 54.505 -33 52.125 C-35.475 51.135 -35.475 51.135 -38 50.125 Z M-28 51.125 C-27.67 53.435 -27.34 55.745 -27 58.125 C-26.34 58.125 -25.68 58.125 -25 58.125 C-24.34 55.815 -23.68 53.505 -23 51.125 C-24.65 51.125 -26.3 51.125 -28 51.125 Z M-19 56.125 C-18 58.125 -18 58.125 -18 58.125 Z M-20 58.125 C-20.33 59.445 -20.66 60.765 -21 62.125 C-20.34 61.795 -19.68 61.465 -19 61.125 C-19.33 60.135 -19.66 59.145 -20 58.125 Z M-41 61.125 C-43.42666239 64.85564477 -44.93137404 68.44132759 -46.25 72.6875 C-46.78367187 74.36005859 -46.78367187 74.36005859 -47.328125 76.06640625 C-47.96911319 78.9843932 -48.04574877 80.38326124 -47 83.125 C-45.68 81.475 -44.36 79.825 -43 78.125 C-44.04925039 84.03783456 -45.36140433 89.59956771 -47.51171875 95.21484375 C-48.23443964 97.32389349 -48.23443964 97.32389349 -47 100.125 C-43.48547267 91.79932361 -40.61876561 84.27462538 -41 75.125 C-39.68 74.795 -38.36 74.465 -37 74.125 C-37.33 73.465 -37.66 72.805 -38 72.125 C-38.27175818 69.53251328 -38.44572568 66.94051489 -38.62109375 64.33984375 C-38.74613281 63.60894531 -38.87117188 62.87804688 -39 62.125 C-39.66 61.795 -40.32 61.465 -41 61.125 Z M-32 62.125 C-32 65.095 -32 68.065 -32 71.125 C-27.87407007 70.09351752 -27.02929503 69.50213898 -24.25 66.5625 C-23.63640625 65.92183594 -23.0228125 65.28117187 -22.390625 64.62109375 C-21.93171875 64.12738281 -21.4728125 63.63367187 -21 63.125 C-22.99712092 61.86732198 -22.99712092 61.86732198 -25.375 62.625 C-28 63.125 -28 63.125 -32 62.125 Z M-50 63.125 C-49 65.125 -49 65.125 -49 65.125 Z M-51 65.125 C-50 68.125 -50 68.125 -50 68.125 Z M-52 68.125 C-54.03993514 73.05484325 -55.40652968 76.70460425 -55 82.125 C-52.77393975 78.78590963 -51.88966922 76.02585737 -51 72.125 C-51.39878558 69.95936519 -51.39878558 69.95936519 -52 68.125 Z M-49 83.125 C-48 86.125 -48 86.125 -48 86.125 Z M-50 86.125 C-49 89.125 -49 89.125 -49 89.125 Z M-61.4375 96.3125 C-62.05496094 96.90417969 -62.67242187 97.49585937 -63.30859375 98.10546875 C-66.58929168 102.02260692 -67.26369067 105.93938757 -67.625 110.9375 C-67.69976562 111.91332031 -67.77453125 112.88914062 -67.8515625 113.89453125 C-67.90054688 114.63058594 -67.94953125 115.36664063 -68 116.125 C-61.82323848 108.80439375 -58.31261885 102.68556717 -57 93.125 C-58.90049221 93.125 -60.15563942 95.06261931 -61.4375 96.3125 Z M-24 99.125 C-23 101.125 -23 101.125 -23 101.125 Z M-49 100.125 C-48 102.125 -48 102.125 -48 102.125 Z M-44 116.125 C-43 118.125 -43 118.125 -43 118.125 Z M-45 118.125 C-44 120.125 -44 120.125 -44 120.125 Z M-48 124.125 C-49.73233682 126.93555853 -51.46026033 129.74880663 -53.1875 132.5625 C-53.67025391 133.34560547 -54.15300781 134.12871094 -54.65039062 134.93554688 C-57.11993651 138.96306131 -59.55777194 143.00954333 -61.92578125 147.09765625 C-62.34899658 147.823479 -62.77221191 148.54930176 -63.20825195 149.29711914 C-63.46952881 149.90031982 -63.73080566 150.50352051 -64 151.125 C-63.67 151.785 -63.34 152.445 -63 153.125 C-61.08077439 150.10578548 -59.16509237 147.08433762 -57.25 144.0625 C-56.71117187 143.21494141 -56.17234375 142.36738281 -55.6171875 141.49414062 C-54.06633032 139.04492106 -52.53039251 136.58704713 -51 134.125 C-50.56494141 133.43937988 -50.12988281 132.75375977 -49.68164062 132.04736328 C-48.70696705 130.45324355 -47.8415534 128.79323085 -47 127.125 C-47.33 126.135 -47.66 125.145 -48 124.125 Z M-68 128.125 C-68 131.125 -68 131.125 -68 131.125 Z M-70 131.125 C-70.66 132.445 -71.32 133.765 -72 135.125 C-71.01 134.465 -70.02 133.805 -69 133.125 C-69.33 132.465 -69.66 131.805 -70 131.125 Z M-73 135.125 C-73.66 136.445 -74.32 137.765 -75 139.125 C-74.01 138.465 -73.02 137.805 -72 137.125 C-72.33 136.465 -72.66 135.805 -73 135.125 Z M-13 58.125 C-13.391875 59.15625 -13.78375 60.1875 -14.1875 61.25 C-16.41061328 67.06040972 -21.17703699 71.37935565 -26 75.125 C-29.93322122 76.63625446 -32.97738591 76.46587136 -37 75.125 C-37.33 78.755 -37.66 82.385 -38 86.125 C-36.68 85.465 -35.36 84.805 -34 84.125 C-36.68955298 100.54757347 -36.68955298 100.54757347 -40.328125 108.20703125 C-41.28135405 110.30108347 -41.28135405 110.30108347 -40 113.125 C-39.34 112.795 -38.68 112.465 -38 112.125 C-38.34933594 112.970625 -38.69867188 113.81625 -39.05859375 114.6875 C-42.10343459 121.94951766 -42.10343459 121.94951766 -43.5625 129.625 C-44.09146064 133.8566851 -45.35617422 134.82359574 -48 138.125 C-49.81197747 141.1731381 -51.45948926 144.30746797 -53.125 147.4375 C-56.6660006 154.00397846 -60.34385294 160.4101112 -64.375 166.6875 C-68.96924496 173.91361508 -72.83936306 181.01025587 -75.23046875 189.28515625 C-75.44276123 190.0121875 -75.65505371 190.73921875 -75.8737793 191.48828125 C-76.28327703 192.92639258 -76.67239301 194.3705047 -77.03833008 195.8203125 C-77.59375 197.81640625 -77.59375 197.81640625 -79 201.125 C-81.475 202.115 -81.475 202.115 -84 203.125 C-83.01 198.175 -82.02 193.225 -81 188.125 C-81.99 187.795 -82.98 187.465 -84 187.125 C-81.80260182 177.29130195 -78.5557712 168.00686947 -75.03222656 158.57958984 C-74.34335962 156.72985455 -73.66370472 154.87669664 -72.984375 153.0234375 C-72.57928711 151.93724121 -72.17419922 150.85104492 -71.75683594 149.73193359 C-70.69376329 147.17176408 -70.69376329 147.17176408 -72 145.125 C-73.23279027 147.24796886 -74.46175903 149.37296285 -75.6875 151.5 C-76.05327148 152.13252686 -76.41904297 152.76505371 -76.79589844 153.41674805 C-79.39200766 157.94733671 -81.70369535 162.54427333 -83.796875 167.33203125 C-85.32814683 169.61402401 -86.38724011 169.59840494 -89 170.125 C-87.02250254 163.35810761 -84.21672896 157.40772086 -80.8125 151.25 C-79.89668274 149.58904631 -78.98625759 147.92510466 -78.08203125 146.2578125 C-77.68218018 145.53480957 -77.2823291 144.81180664 -76.87036133 144.06689453 C-75.79550005 142.02340334 -75.79550005 142.02340334 -76 139.125 C-77.98475596 141.39115424 -79.96288088 143.66254153 -81.9375 145.9375 C-82.50146484 146.58009766 -83.06542969 147.22269531 -83.64648438 147.88476562 C-84.18466797 148.50673828 -84.72285156 149.12871094 -85.27734375 149.76953125 C-86.02359009 150.62575073 -86.02359009 150.62575073 -86.78491211 151.49926758 C-88.20855593 153.22624687 -88.20855593 153.22624687 -89 156.125 C-90.9375 157.25 -90.9375 157.25 -93 158.125 C-93.99 158.62 -93.99 158.62 -95 159.125 C-95.33 157.805 -95.66 156.485 -96 155.125 C-96.76441406 155.87523437 -97.52882812 156.62546875 -98.31640625 157.3984375 C-118.38483502 176.73571807 -141.79405074 185.82268439 -168.0625 194.125 C-170.23574903 194.82135192 -172.40859779 195.51895418 -174.58105469 196.21777344 C-178.81656309 197.57965101 -183.05348454 198.93697414 -187.29150391 200.29101562 C-195.46988696 202.91045184 -203.61007622 205.63949571 -211.74633789 208.38671875 C-217.82788169 210.43104208 -223.93732135 212.32068097 -230.10009766 214.10717773 C-233.77101427 215.39561445 -236.64803834 217.22212917 -239.76953125 219.5078125 C-242.20303283 221.27220769 -244.731273 222.77333754 -247.3125 224.3125 C-262.37966249 233.9083465 -275.69767188 248.27799991 -282 265.125 C-282.4732123 268.08583292 -282.41826871 270.13736633 -282 273.125 C-276.61007107 269.22522789 -271.4946794 265.05012543 -266.44018555 260.72900391 C-263.60668185 258.34218527 -260.83002998 256.36068227 -257.5625 254.625 C-252.77632706 251.85721314 -250.85511406 247.16413193 -249 242.125 C-249 241.465 -249 240.805 -249 240.125 C-248.31035156 239.87234375 -247.62070313 239.6196875 -246.91015625 239.359375 C-244.22088768 238.21869195 -241.7669717 236.87432378 -239.24389648 235.40991211 C-231.86377004 231.18172506 -224.5611329 228.61158891 -216.37963867 226.35791016 C-208.69892948 224.1871942 -201.9595716 221.01959471 -195 217.125 C-195.59375 221.69230769 -195.59375 221.69230769 -197.3203125 223.53125 C-205.04499207 228.21287398 -213.75937934 230.65088742 -222.40234375 233.08203125 C-231.68917172 235.72737013 -242.23644355 238.95591376 -248 247.125 C-239.32884144 245.62739503 -230.91948788 243.2702651 -222.5 240.75 C-221.78056213 240.53490784 -221.06112427 240.31981567 -220.31988525 240.09820557 C-205.87419223 235.73166382 -192.48429037 229.92062466 -179 223.125 C-177.57784134 222.44058807 -176.15478107 221.75804364 -174.73046875 221.078125 C-164.69859114 216.15888368 -156.05701263 209.45273296 -147.16943359 202.74902344 C-144.19306072 200.52093067 -141.18363534 198.36433341 -138.125 196.25 C-137.24070313 195.63382813 -136.35640625 195.01765625 -135.4453125 194.3828125 C-132.7243187 192.98319588 -131.01687934 192.85467031 -128 193.125 C-129.25591333 201.68804543 -141.7381628 208.33587169 -148.25 213.1875 C-155.88213874 218.77404807 -163.54906641 223.8442779 -172 228.125 C-172.77037598 228.5163916 -173.54075195 228.9077832 -174.33447266 229.31103516 C-188.90047175 236.63200361 -203.62468372 242.59107278 -219.21484375 247.34375 C-220.1672142 247.63450661 -220.1672142 247.63450661 -221.13882446 247.93113708 C-224.28765199 248.89024903 -227.43915919 249.8336166 -230.59960938 250.75415039 C-241.24729775 253.93777409 -251.2126427 258.02004452 -259.8125 265.1875 C-260.38452148 265.6515625 -260.95654297 266.115625 -261.54589844 266.59375 C-263.3763298 268.08984241 -265.18919842 269.60522865 -267 271.125 C-267.63405762 271.65077637 -268.26811523 272.17655273 -268.92138672 272.71826172 C-281.88346975 283.49889727 -292.14464249 293.74614544 -299.14794922 309.25048828 C-299.91553891 310.93918561 -300.72299556 312.60962447 -301.53515625 314.27734375 C-305.84685077 323.24013732 -307.39047546 331.5113564 -307.375 341.4375 C-307.37556396 342.35595703 -307.37612793 343.27441406 -307.37670898 344.22070312 C-307.27505707 350.5175668 -306.40748924 355.88545602 -303.97265625 361.75 C-302.96922826 364.20013742 -302.44185668 366.52037117 -302 369.125 C-301.67 369.125 -301.34 369.125 -301 369.125 C-300.90203125 367.84367187 -300.8040625 366.56234375 -300.703125 365.2421875 C-299.11248628 346.13227611 -294.96568096 324.63279156 -280 311.125 C-277.32375053 308.88850983 -274.61321731 306.70419044 -271.87890625 304.5390625 C-268.94142658 302.07588416 -266.3359823 299.45689976 -263.6875 296.6875 C-258.57347223 291.44064034 -253.01295149 287.33232038 -246.96875 283.21875 C-244.0854882 281.32457981 -244.0854882 281.32457981 -242.29296875 279.35546875 C-241 278.125 -241 278.125 -237.8125 277.9375 C-236.884375 277.999375 -235.95625 278.06125 -235 278.125 C-237.95996946 284.72150337 -243.95942485 288.13249328 -249.875 291.875 C-254.99701194 295.21571818 -258.60061608 298.82575607 -262.51171875 303.48046875 C-265.48518378 306.64065058 -268.72925167 309.14742857 -272.1875 311.75 C-286.18444279 322.4498606 -293.45477573 338.83084888 -296 356.125 C-297.07456538 365.85487205 -295.76898409 374.64315168 -292.875 383.91796875 C-292 387.125 -292 387.125 -292.0390625 389.7890625 C-291.95852079 394.60545656 -288.24253754 397.8722658 -285 401.125 C-278.00020972 407.49385803 -278.00020972 407.49385803 -270 411.125 C-269.96261719 409.99964844 -269.92523438 408.87429688 -269.88671875 407.71484375 C-268.77516986 379.77913972 -260.10537634 359.14877034 -242 338.125 C-241.01114311 336.95100545 -240.02289648 335.7764967 -239.03515625 334.6015625 C-227.32971585 320.76917112 -215.31863479 308.99548136 -200.55078125 298.4453125 C-196.56657167 295.5830312 -192.81685635 292.53937985 -189.125 289.3125 C-182.22395425 283.30573242 -174.78494187 278.29082812 -167.16015625 273.24609375 C-160.47913744 268.65469058 -155.27672272 263.38614012 -149.921875 257.37109375 C-147.28216813 254.40621824 -144.51863417 251.5964486 -141.6875 248.8125 C-137.57603858 244.74701339 -133.74946727 240.52273965 -130 236.125 C-128.68932757 234.62340284 -127.37686003 233.12337043 -126.0625 231.625 C-125.18271484 230.61953125 -125.18271484 230.61953125 -124.28515625 229.59375 C-123.86105469 229.1090625 -123.43695313 228.624375 -123 228.125 C-122.01 228.455 -121.02 228.785 -120 229.125 C-123.34222228 240.49186487 -132.32869385 248.92448799 -140.31542969 257.32128906 C-142.08219705 259.2130104 -143.79688978 261.14363105 -145.5078125 263.0859375 C-152.92403648 271.41152943 -160.49318972 278.00375273 -169.74609375 284.203125 C-174.0339933 287.08971827 -178.02226651 290.26614435 -182 293.5625 C-187.53841713 298.14198802 -193.15130097 302.59135422 -198.875 306.9375 C-210.75089679 315.97339221 -221.30606417 324.63128333 -230.6796875 336.30859375 C-232.86940666 338.96648519 -235.15092903 341.48313824 -237.5 344 C-251.8175859 359.81419766 -262.13914389 378.71287187 -262.16796875 400.328125 C-262.17129715 401.20595642 -262.17462555 402.08378784 -262.17805481 402.98822021 C-262.18310133 404.84061156 -262.18546384 406.69301194 -262.18530273 408.54541016 C-262.18748217 411.35204393 -262.20564278 414.15827975 -262.22460938 416.96484375 C-262.22754534 418.77343617 -262.22952877 420.58203044 -262.23046875 422.390625 C-262.23765427 423.21701477 -262.24483978 424.04340454 -262.25224304 424.89483643 C-262.2015125 438.09806209 -258.55904497 445.37556268 -250 455.125 C-248.86884766 456.42630859 -248.86884766 456.42630859 -247.71484375 457.75390625 C-240.671847 465.28012748 -231.93777224 471.95148735 -223 477.125 C-222.34 477.125 -221.68 477.125 -221 477.125 C-222.65306623 473.67345894 -224.64088208 470.58284205 -226.78125 467.41796875 C-230.49038534 460.43956348 -230.60808901 452.86587523 -231.125 445.125 C-231.2070166 443.91473145 -231.2890332 442.70446289 -231.37353516 441.45751953 C-231.59681406 438.01403179 -231.80277547 434.57006728 -232 431.125 C-232.04962891 430.31772461 -232.09925781 429.51044922 -232.15039062 428.67871094 C-233.29521984 408.19791036 -226.12116987 389.22400037 -212.5625 373.9375 C-211.38285861 372.65936863 -210.1983527 371.38560479 -209 370.125 C-210.55614621 375.86328916 -212.61077346 380.26743534 -215.875 385.25 C-225.53577513 400.46927258 -227.59234443 417.11838733 -226.51611328 434.80688477 C-226.3750647 437.18640853 -226.26644899 439.56596526 -226.16015625 441.94726562 C-225.60220683 452.70687827 -224.50159091 462.90228916 -217.125 471.375 C-216.42375 472.18582031 -215.7225 472.99664062 -215 473.83203125 C-214.34 474.58871094 -213.68 475.34539062 -213 476.125 C-212.505 476.80949219 -212.01 477.49398438 -211.5 478.19921875 C-207.58473765 483.50484415 -203.33057253 484.79965525 -197 486.125 C-193.11335609 486.55762883 -189.28314946 486.63531174 -185.375 486.625 C-184.39015625 486.65335937 -183.4053125 486.68171875 -182.390625 486.7109375 C-175.58507773 486.72908563 -171.33614431 485.37847633 -166 481.125 C-167.37583813 477.49540799 -169.03048629 474.16187252 -170.875 470.75 C-174.35910452 463.76483667 -176.45718878 456.75821761 -178 449.125 C-178.15098145 448.3815332 -178.30196289 447.63806641 -178.45751953 446.87207031 C-180.85399758 434.35454417 -181.28760983 421.89157621 -181.3125 409.1875 C-181.31787781 408.08432434 -181.31787781 408.08432434 -181.32336426 406.9588623 C-181.36705257 390.30989763 -178.74740367 374.78983667 -174.4375 358.75 C-174.21657684 357.92006531 -173.99565369 357.09013062 -173.76803589 356.23504639 C-165.83615639 326.55320265 -155.61195932 296.85124885 -136.97265625 272.08984375 C-121.83901875 251.89647287 -109.99911007 228.12233022 -102 204.125 C-100.0625 203 -100.0625 203 -98 202.125 C-97.34 201.795 -96.68 201.465 -96 201.125 C-103.44936711 227.49158943 -113.25887072 250.97035481 -129.5 273.0625 C-150.32784876 301.45046454 -162.35402669 336.9646524 -170 371.125 C-170.25604004 372.14319824 -170.51208008 373.16139648 -170.77587891 374.21044922 C-173.16290831 384.5335397 -173.46130914 394.55080639 -173.39111328 405.12158203 C-173.37506105 407.98909347 -173.39102999 410.85518785 -173.41015625 413.72265625 C-173.43347228 433.6003215 -171.67150156 459.19171449 -157.6875 474.6875 C-157.130625 475.161875 -156.57375 475.63625 -156 476.125 C-158.40132804 468.6332676 -161.20309332 461.33089907 -164.12695312 454.02929688 C-167.54277617 445.26696821 -169.73307963 437.48362998 -168 428.125 C-167.34 428.125 -166.68 428.125 -166 428.125 C-165.85304687 429.03378906 -165.70609375 429.94257813 -165.5546875 430.87890625 C-163.82765832 440.55622493 -160.94124276 449.13284418 -157 458.125 C-155.37062898 453.47450355 -156.73358782 449.2194893 -157.625 444.51171875 C-158.03202421 440.83578137 -157.57906875 437.76281579 -157 434.125 C-155.62933129 438.76528068 -154.26017613 443.40600447 -152.89233398 448.04711914 C-152.4282168 449.62113068 -151.96370864 451.19502699 -151.4987793 452.76879883 C-148.91028617 461.53178149 -146.361856 470.29746511 -144 479.125 C-145.98 476.155 -147.96 473.185 -150 470.125 C-150.33 471.115 -150.66 472.105 -151 473.125 C-149.81142353 475.40437826 -149.81142353 475.40437826 -148 477.75 C-147.35417969 478.62785156 -146.70835937 479.50570313 -146.04296875 480.41015625 C-145.36878906 481.30605469 -144.69460937 482.20195312 -144 483.125 C-143.37738281 483.98996094 -142.75476563 484.85492188 -142.11328125 485.74609375 C-141.51902344 486.55175781 -140.92476562 487.35742188 -140.3125 488.1875 C-139.77238281 488.92097656 -139.23226562 489.65445312 -138.67578125 490.41015625 C-136.76411577 492.3663827 -135.61719863 492.58254572 -133 493.125 C-133.21221191 492.1649707 -133.21221191 492.1649707 -133.42871094 491.18554688 C-135.19043235 482.17568868 -135.30538117 473.36920516 -135.26074219 464.22851562 C-135.25013329 461.65730566 -135.26063082 459.08681225 -135.2734375 456.515625 C-135.2946583 437.64288525 -132.93814132 419.57004625 -129.34420776 401.06710815 C-124.78215363 377.51926127 -121.15107851 353.89857677 -118 330.125 C-117.34 330.125 -116.68 330.125 -116 330.125 C-114.76221847 334.38167462 -115.21482438 338.24958754 -115.6796875 342.6015625 C-115.81170815 343.88528748 -115.81170815 343.88528748 -115.94639587 345.19494629 C-116.24599382 348.0477872 -116.55975808 350.89884791 -116.875 353.75 C-117.0345668 355.24173737 -117.0345668 355.24173737 -117.19735718 356.76361084 C-118.44853115 368.33143213 -119.98677624 379.75753322 -122.33984375 391.15625 C-127.17816039 414.72294729 -129.86461876 437.28667113 -129.8125 461.3125 C-129.81408112 462.60923645 -129.81566223 463.9059729 -129.81729126 465.24200439 C-129.81009948 468.92671801 -129.76774323 472.60878142 -129.70703125 476.29296875 C-129.69905518 477.38859634 -129.6910791 478.48422394 -129.68286133 479.61305237 C-129.50186072 486.13109883 -128.82725132 491.29774868 -124 496.125 C-110.95984647 497.19750605 -110.95984647 497.19750605 -99 493.125 C-89.75898413 484.47188176 -85.5702088 470.59320503 -81 459.125 C-80.71463379 458.41794922 -80.42926758 457.71089844 -80.13525391 456.98242188 C-71.40074977 434.89569949 -70.52481857 409.70871027 -67.953125 386.33203125 C-67.85646545 385.46316284 -67.75980591 384.59429443 -67.66021729 383.69909668 C-67.57286316 382.89194214 -67.48550903 382.0847876 -67.39550781 381.25317383 C-67.31874817 380.54977371 -67.24198853 379.8463736 -67.16290283 379.12165833 C-67.00029837 377.12865706 -67 375.12462353 -67 373.125 C-65.68 373.125 -64.36 373.125 -63 373.125 C-63.12117187 374.23230469 -63.24234375 375.33960938 -63.3671875 376.48046875 C-64.32783298 385.54352813 -65.11323773 394.5886636 -65.65185547 403.6875 C-67.3277505 431.38194041 -72.42627401 455.2387619 -84.24731445 480.30419922 C-85.03938139 482.22026644 -85.54577309 484.1045407 -86 486.125 C-85.5359375 485.79886719 -85.071875 485.47273438 -84.59375 485.13671875 C-74.98124182 479.057166 -63.1265092 478.11843832 -52 477.125 C-51.59523438 476.11695313 -51.19046875 475.10890625 -50.7734375 474.0703125 C-48.8144127 469.49772354 -46.19791749 465.41903862 -43.4921875 461.2578125 C-19.32787631 422.528711 -23.15369034 360.84105053 -33 318.125 C-33.92947894 314.43770148 -34.96021931 310.78256881 -36 307.125 C-36.40777773 305.67486812 -36.81531061 304.22466738 -37.22265625 302.77441406 C-43.64814578 279.93249415 -43.64814578 279.93249415 -50.97143555 257.36791992 C-53.60668435 249.05934885 -54.34543181 240.79917645 -54 232.125 C-53.34 232.125 -52.68 232.125 -52 232.125 C-49.940296 236.68412009 -48.42088335 240.99263733 -47.25 245.875 C-45.82122239 251.54788057 -43.99572646 256.92707319 -41.875 262.375 C-25.29238328 305.78378891 -19.12427111 350.80867196 -20 397.125 C-19.98195313 398.3934375 -19.96390625 399.661875 -19.9453125 400.96875 C-19.98303048 411.46691985 -22.22633213 421.36589622 -24.75 431.5 C-24.91822266 432.18368652 -25.08644531 432.86737305 -25.25976562 433.57177734 C-28.18294932 445.32376586 -31.7581388 456.56739226 -38.6875 466.625 C-42.13152686 471.70608978 -42.13152686 471.70608978 -45 477.125 C-41.11844661 478.95161336 -38.26688615 479.86349953 -34 479.125 C-16.91171934 470.0879285 -5.18406065 443.50299323 1 426.125 C4.51545798 414.34078875 6.67638017 402.1880476 9 390.125 C14.56013399 406.80540197 5.07046234 429.81894066 -2.2578125 444.80859375 C-16.32273578 472.74215949 -16.32273578 472.74215949 -28 481.125 C-24.71903481 484.52636759 -21.45809138 487.40803237 -17 489.125 C-8.20696612 489.17995646 -1.54743158 484.80005523 4.5 478.875 C7.83746138 475.42497668 11.0093927 471.86411785 14.12109375 468.2109375 C16.30501983 465.78637092 18.64180544 463.56754578 21 461.3125 C33.50618307 448.882227 38.84463528 433.08466531 42 416.125 C42.18095215 415.18930176 42.3619043 414.25360352 42.54833984 413.28955078 C44.49147131 401.81902983 44.3054113 390.35062414 44.25 378.75 C44.24822754 377.68716797 44.24645508 376.62433594 44.24462891 375.52929688 C44.2147424 360.31016728 43.85720152 345.24792665 42 330.125 C54.2556041 365.77766648 54.95009547 413.10045049 38.375 447.625 C34.42945214 455.31444285 29.07274202 461.03510334 23 467.125 C21.24580717 469.02057927 19.53060488 470.94618414 17.8125 472.875 C17.07644531 473.69484375 16.34039062 474.5146875 15.58203125 475.359375 C15.05996094 475.94203125 14.53789062 476.5246875 14 477.125 C17.79952223 477.125 18.9458824 476.3978317 22 474.125 C22.87972123 472.91399135 23.73108885 471.6821714 24.5625 470.4375 C27.21023324 466.69226075 30.08270388 464.53303018 33.9375 462.0625 C44.76532493 455.11130375 49.11582329 447.87017187 54 436.125 C54.60279785 434.69365723 54.60279785 434.69365723 55.21777344 433.23339844 C60.3420385 421.00338363 64.9270192 409.0345321 68 396.125 C68.69802976 393.70533714 69.40637947 391.28862765 70.125 388.875 C76.7448954 365.47080289 75.35044065 342.25764255 65 320.125 C63.97317507 317.73172847 62.95255357 315.33578779 61.9375 312.9375 C61.42960937 311.76703125 60.92171875 310.5965625 60.3984375 309.390625 C59.56080568 307.43459092 58.74552294 305.46841034 57.9765625 303.484375 C55.28387245 296.71812821 51.12613961 292.56491384 45.4375 288.125 C43 286.125 43 286.125 40.625 283 C36.10448523 277.54501189 29.76562385 274.15017395 23.87451172 270.35498047 C19.45858482 267.45742385 15.21258816 264.30877125 11 261.125 C10.16597656 260.50367188 9.33195312 259.88234375 8.47265625 259.2421875 C0.70601631 252.59207874 -7.87849368 240.93936663 -9.36328125 230.59375 C-9.375 228.375 -9.375 228.375 -9 225.125 C-5.6935634 227.36170711 -3.50167113 229.68016746 -1.375 233 C7.38113963 246.59565125 16.6219857 255.78480818 30.3203125 264.3984375 C37.85248457 269.25152796 44.08889513 275.04120371 50.32348633 281.42724609 C53.1168522 284.28305434 55.88711393 286.93712295 59.0625 289.375 C61.51924227 291.40753001 62.67621659 293.21385987 63.90234375 296.1484375 C64.41172485 297.34726562 64.41172485 297.34726562 64.93139648 298.5703125 C65.28403564 299.41335938 65.6366748 300.25640625 66 301.125 C66.73791496 302.82103936 67.47752582 304.51634177 68.21875 306.2109375 C79.03103792 331.20224172 79.03103792 331.20224172 80.60546875 343.1796875 C80.94546364 346.0410208 80.94546364 346.0410208 81.52734375 348.484375 C84.23049506 363.58627817 80.84688334 378.56249619 77 393.125 C76.75894531 394.04764648 76.51789063 394.97029297 76.26953125 395.92089844 C72.58298477 409.69668389 67.49287341 422.74924606 61.82397461 435.80712891 C61.06032593 437.58289307 61.06032593 437.58289307 60.28125 439.39453125 C59.81783203 440.45260986 59.35441406 441.51068848 58.87695312 442.60083008 C58.58755859 443.43380615 58.29816406 444.26678223 58 445.125 C58.33 445.785 58.66 446.445 59 447.125 C65.6906758 442.64024184 70.90534989 437.34205152 76 431.125 C76.69738281 430.28324219 77.39476562 429.44148438 78.11328125 428.57421875 C95.40636744 405.71699514 103.16903374 378.42716443 103.24023438 350.15161133 C103.24993561 347.82792283 103.28103849 345.50512253 103.3125 343.18164062 C103.39050358 332.17373434 102.47451498 322.07185819 97.0859375 312.2265625 C95.78679872 309.71240184 94.78537559 307.13360638 93.75 304.5 C88.77337893 292.53493232 83.34220475 283.20386511 73 275.125 C72.17242187 274.46242188 71.34484375 273.79984375 70.4921875 273.1171875 C68.83881964 271.79552981 67.18129174 270.47905852 65.51953125 269.16796875 C60.30564352 264.94027374 55.29804875 260.44899446 50.578125 255.67578125 C47.84935224 252.97595002 44.99915698 250.46724366 42.0625 248 C41.50401367 247.52844482 40.94552734 247.05688965 40.37011719 246.57104492 C36.23306509 243.10146329 32.01058908 239.75348079 27.75 236.4375 C25.49599911 234.67170138 23.24646405 232.90037456 21 231.125 C20.12988281 230.43792969 19.25976562 229.75085938 18.36328125 229.04296875 C14.31835726 225.67105419 11.45398407 222.46737499 8.796875 217.90625 C5.26244296 212.22784342 1.09875887 208.10516062 -3.8125 203.625 C-11.82383933 196.00480533 -18.10597956 187.83205768 -24.125 178.625 C-24.51821442 178.02469971 -24.91142883 177.42439941 -25.31655884 176.8059082 C-30.35927803 169.06082676 -33.17688909 163.82344818 -33.125 154.375 C-33.12306641 153.53477295 -33.12113281 152.6945459 -33.11914062 151.82885742 C-33.06743298 144.23142503 -32.63367308 136.69513017 -32 129.125 C-45.57854962 142.70354962 -55.71877791 192.06425087 -56.04858398 210.8996582 C-56.03255127 211.634021 -56.01651855 212.36838379 -56 213.125 C-57.32 213.125 -58.64 213.125 -60 213.125 C-59.42655063 210.25775314 -59.1385485 209.2635485 -57 207.125 C-57.66 206.795 -58.32 206.465 -59 206.125 C-57.06615634 193.96589647 -55.01380403 181.96866071 -51.48754883 170.1550293 C-50.32626199 166.12394206 -49.69507552 163.17586985 -51 159.125 C-51.66 159.125 -52.32 159.125 -53 159.125 C-52.34 156.815 -51.68 154.505 -51 152.125 C-49.68 152.455 -48.36 152.785 -47 153.125 C-44.93966573 149.00433146 -45.10868087 146.58159563 -46 142.125 C-45 140.125 -45 140.125 -42 139.125 C-40.1619887 135.08137513 -39.74544074 132.39050147 -41 128.125 C-40.07078735 128.03472534 -40.07078735 128.03472534 -39.12280273 127.94262695 C-36.79093449 127.31633258 -36.79093449 127.31633258 -35.89086914 124.94213867 C-35.60848389 123.9854126 -35.32609863 123.02868652 -35.03515625 122.04296875 C-34.71256836 120.97481934 -34.38998047 119.90666992 -34.05761719 118.80615234 C-33.72922852 117.65324707 -33.40083984 116.5003418 -33.0625 115.3125 C-32.54091309 113.55607178 -32.54091309 113.55607178 -32.00878906 111.76416016 C-29.66824348 103.77870544 -27.52379767 95.74713435 -25.72290039 87.62182617 C-24.4983096 82.30989761 -22.59185189 77.92754909 -20 73.125 C-20.09087891 73.73496826 -20.18175781 74.34493652 -20.27539062 74.97338867 C-20.68731465 77.7525556 -21.09370704 80.53250451 -21.5 83.3125 C-21.64308594 84.27220703 -21.78617187 85.23191406 -21.93359375 86.22070312 C-22.06894531 87.15205078 -22.20429688 88.08339844 -22.34375 89.04296875 C-22.53227539 90.32337036 -22.53227539 90.32337036 -22.72460938 91.62963867 C-23.00272556 94.14969675 -23.047608 96.59185782 -23 99.125 C-20.68582149 95.65373224 -19.30041881 92.03704915 -17.8125 88.16796875 C-17.35774292 86.99709465 -17.35774292 86.99709465 -16.89379883 85.80256653 C-16.25334319 84.15150774 -15.61463197 82.49977138 -14.97753906 80.84741211 C-14.00713374 78.33099892 -13.03139857 75.81670588 -12.0546875 73.30273438 C-11.43197577 71.69543485 -10.80957 70.08801675 -10.1875 68.48046875 C-9.89786377 67.73339157 -9.60822754 66.98631439 -9.30981445 66.21659851 C-7.76903742 62.21602675 -6.31888118 58.20589179 -5 54.125 C-9.0464757 54.125 -10.12817324 55.32496891 -13 58.125 Z M-65 153.125 C-64 155.125 -64 155.125 -64 155.125 Z M-301 369.125 C-300 373.125 -300 373.125 -300 373.125 Z M-295 385.125 C-294 387.125 -294 387.125 -294 387.125 Z M-293 388.125 C-292 390.125 -292 390.125 -292 390.125 Z M263.5 432.98046875 C258.70621676 436.28127288 253.02271155 436.86704842 247.40234375 437.92773438 C241.83366558 439.10461997 237.36755562 440.89111348 232.359375 443.62109375 C224.58625559 447.7810141 216.91905132 448.8679295 208.25 449.875 C206.11535159 450.14695772 203.98171969 450.42612869 201.8480072 450.70532227 C200.41301346 450.89201733 198.97758851 451.07542625 197.54176331 451.25561523 C192.39149398 451.90908941 187.283054 452.72423662 182.16796875 453.609375 C172.50376579 455.27118993 162.79757087 456.46358362 153.0625 457.625 C149.69871042 458.02716045 146.33543639 458.43323313 142.97265625 458.84375 C142.1426561 458.94404007 141.31265594 459.04433014 140.45750427 459.1476593 C135.54838326 459.75642823 130.6842526 460.5029193 125.81158447 461.35322571 C116.22310121 463.0084998 106.92238969 463.56434493 97.19799805 463.46118164 C94.77424924 463.43712027 92.35157622 463.44071798 89.92773438 463.44726562 C88.35416021 463.44169985 86.78059056 463.43459697 85.20703125 463.42578125 C84.49859573 463.42669266 83.79016022 463.42760406 83.06025696 463.42854309 C78.09074919 463.35876289 73.79805226 462.41640321 69 461.125 C66.16576508 460.95487987 66.16576508 460.95487987 64 461.125 C62.523096 466.60215624 62.523096 466.60215624 64 471.84765625 C68.57261723 476.1344849 74.45968919 478.25341516 80.20703125 480.53515625 C83.18580911 481.72240568 85.96554589 483.15260158 88.796875 484.65625 C93.90835359 487.23632967 98.83255909 488.51334498 104.4375 489.5625 C105.93192627 489.8577356 105.93192627 489.8577356 107.45654297 490.15893555 C110.96679859 490.83941998 114.48186546 491.48648216 118 492.125 C119.06948883 492.31926575 119.06948883 492.31926575 120.1605835 492.51745605 C125.64525807 493.51086315 131.13388112 494.4804068 136.625 495.4375 C137.39488251 495.57259979 138.16476501 495.70769958 138.95797729 495.84689331 C141.17154501 496.23322227 143.38626277 496.61202562 145.6015625 496.98828125 C146.88369629 497.20782471 148.16583008 497.42736816 149.48681641 497.65356445 C152.71299819 498.08648711 155.75081978 498.21596704 159 498.125 C159 498.785 159 499.445 159 500.125 C144.11707285 500.60394998 129.71257046 499.38280129 115 497.125 C114.03545898 496.97998047 113.07091797 496.83496094 112.07714844 496.68554688 C94.88231732 493.94906325 76.60513152 487.86175434 62 478.125 C61.505 480.6 61.505 480.6 61 483.125 C71.97171198 491.73846291 81.98741124 498.40992719 95.09375 503.39306641 C96.88256079 504.07990744 98.66050476 504.79486272 100.4375 505.51171875 C106.69917385 508.0178935 112.85290425 509.99206023 119.44140625 511.44921875 C121.85449857 512.08656985 123.82288312 512.92118243 126 514.125 C115.4071332 514.70209323 106.85098627 514.27301321 96.95166016 509.95507812 C94.75260243 509.01977711 92.52796674 508.17382418 90.29296875 507.328125 C77.72285389 502.46710322 67.30704907 496.96745883 60 485.125 C58.33153266 486.81995956 58.33153266 486.81995956 57 489.125 C57.93224464 498.94222993 68.34276604 506.7492645 74.9375 513.25 C76.22043945 514.53197266 76.22043945 514.53197266 77.52929688 515.83984375 C83.95935182 522.22575644 90.42954291 528.56668824 97.9375 533.6875 C98.78441406 534.27273438 99.63132812 534.85796875 100.50390625 535.4609375 C102.05525619 536.49517079 103.62328366 537.50534594 105.21484375 538.4765625 C110.8294751 541.94890232 115.23631827 546.12779796 119.75146484 550.89916992 C122.59923992 553.87865339 125.21553002 556.42446202 129 558.125 C131.1035169 558.30939442 131.1035169 558.30939442 133 557.125 C134.53612476 555.38192106 136.00540359 553.57950904 137.4375 551.75 C154.11122065 532.2088242 183.06052459 528.71576862 207 526.125 C209.67348699 526.0220694 212.32319357 526.04475322 215 526.0625 C220.7133284 525.67263268 224.0366818 523.7566296 227.96533203 519.57250977 C234.19508094 512.06916899 238.17691582 502.94866982 242.42773438 494.24853516 C243.97183185 491.18096014 245.60982801 488.19020835 247.296875 485.19921875 C255.94319175 469.69914521 261.35206181 453.99395464 266.17480469 437.00634766 C266.7399568 435.03299698 267.35088446 433.07234661 268 431.125 C265.74878032 430.92634085 265.74878032 430.92634085 263.5 432.98046875 Z M-156 458.125 C-155 460.125 -155 460.125 -155 460.125 Z M-155 461.125 C-154 463.125 -154 463.125 -154 463.125 Z M45.125 464.75 C44.25359375 465.47445313 43.3821875 466.19890625 42.484375 466.9453125 C39.50875991 469.55599366 36.72584101 472.25569367 34 475.125 C34.33 476.115 34.66 477.105 35 478.125 C35.66 478.125 36.32 478.125 37 478.125 C37.33 478.455 37.66 478.785 38 479.125 C39.66617115 479.16563832 41.33388095 479.167721 43 479.125 C43.15855469 478.38894531 43.31710937 477.65289062 43.48046875 476.89453125 C44.92901941 470.83622822 46.04108709 467.01171553 51 463.125 C51 465.105 51 467.085 51 469.125 C52.60414215 467.93976003 52.60414215 467.93976003 54 466.125 C54.25069913 463.49929296 54.25069913 463.49929296 54 461.125 C49.33451616 461.125 48.5995486 461.8599549 45.125 464.75 Z M-154 463.125 C-153 465.125 -153 465.125 -153 465.125 Z M-153 466.125 C-152 468.125 -152 468.125 -152 468.125 Z M-152 468.125 C-151 470.125 -151 470.125 -151 470.125 Z M50 472.125 C49.79503906 472.75148438 49.59007812 473.37796875 49.37890625 474.0234375 C49.10949219 474.84070313 48.84007812 475.65796875 48.5625 476.5 C48.29566406 477.31210937 48.02882813 478.12421875 47.75390625 478.9609375 C47 481.125 47 481.125 46 483.125 C47.65 483.125 49.3 483.125 51 483.125 C52.1577506 479.65174819 52.06866652 476.76432552 52 473.125 C51.34 472.795 50.68 472.465 50 472.125 Z M35 483.125 C35 483.785 35 484.445 35 485.125 C36.65 485.125 38.3 485.125 40 485.125 C37.32357511 482.94009993 37.32357511 482.94009993 35 483.125 Z M-56 485.125 C-55.61328125 485.68703125 -55.2265625 486.2490625 -54.828125 486.828125 C-54 489.125 -54 489.125 -55.046875 491.421875 C-55.60890625 492.23140625 -56.1709375 493.0409375 -56.75 493.875 C-61.92721881 501.97179197 -62.33150576 508.65340683 -62 518.125 C-62.00515625 519.218125 -62.0103125 520.31125 -62.015625 521.4375 C-61.81932985 530.70263108 -59.97694123 539.27658746 -57.6875 548.25 C-57.39157959 549.42433594 -57.09565918 550.59867188 -56.79077148 551.80859375 C-55.2405801 557.61584594 -53.79467204 562.41726118 -50 567.125 C-52.64 567.125 -55.28 567.125 -58 567.125 C-59.52196384 561.11366798 -59.52196384 561.11366798 -60.21777344 558.27148438 C-61.20662357 554.23669971 -62.24484006 550.22704164 -63.37890625 546.23046875 C-66.02612064 536.57844702 -67.46579482 527.46894678 -67.5 517.4375 C-67.50612305 516.45845703 -67.51224609 515.47941406 -67.51855469 514.47070312 C-67.33433574 503.9015928 -64.6549275 493.7799275 -57 486.125 C-59.8992956 486.19273981 -59.8992956 486.19273981 -63 487.125 C-65.70850161 490.75993898 -67.25466923 494.95474063 -69 499.125 C-69.34417969 499.83914063 -69.68835938 500.55328125 -70.04296875 501.2890625 C-75.8847234 515.05695374 -71.24074699 531.2649938 -67 544.75 C-66.51596578 546.35348517 -66.03418469 547.95765226 -65.5546875 549.5625 C-64.39546096 553.42497561 -63.20668119 557.27709908 -62 561.125 C-63.98 561.62 -63.98 561.62 -66 562.125 C-66.16798096 561.41029541 -66.33596191 560.69559082 -66.5090332 559.95922852 C-67.83894571 554.45569703 -69.29532974 549.03892471 -71.04296875 543.65234375 C-71.39423828 542.56759766 -71.74550781 541.48285156 -72.10742188 540.36523438 C-72.82976676 538.15640039 -73.56161063 535.95065108 -74.30273438 533.74804688 C-78.1558239 521.7312686 -78.4505976 509.33773704 -72.828125 497.69921875 C-70.53401868 493.93943339 -67.83962708 490.49048395 -65 487.125 C-72.22958807 487.38789411 -76.35394078 489.71643321 -82 494.125 C-82.7321875 494.6921875 -83.464375 495.259375 -84.21875 495.84375 C-99.4547123 508.50462008 -109.1236603 525.10502099 -111.1875 544.6875 C-113.98344289 575.05313427 -105.57459508 596.98971882 -86.5625 620.8125 C-85.05309584 622.59308524 -83.53261269 624.36435152 -82 626.125 C-81.33742187 626.9190625 -80.67484375 627.713125 -79.9921875 628.53125 C-69.51721905 640.16125299 -53.25386762 644.75314141 -38.96435547 650.02148438 C-33.51985772 652.04826166 -28.1062132 654.1554898 -22.6875 656.25 C-14.16609058 659.53441656 -5.63391708 662.78546759 2.92578125 665.96875 C4.84989404 666.69243156 6.76184565 667.45038327 8.65234375 668.2578125 C15.48071427 670.78010577 22.31876331 668.89957097 29.125 667.125 C38.9440644 664.58358219 49.01611248 663.78145388 59 666.125 C54.28663001 658.11227101 49.33469639 650.93035678 41.68359375 645.47265625 C37.85105991 642.11988647 35.13440539 638.1310154 32.1875 634 C30.93244711 632.26847386 29.67595135 630.53799257 28.41796875 628.80859375 C27.82161621 627.9872998 27.22526367 627.16600586 26.61083984 626.31982422 C24.22841509 623.07368925 21.71895714 619.94464656 19.17578125 616.82421875 C16.13027819 613.04604529 13.16193089 609.20923971 10.1875 605.375 C6.34008616 600.41779462 2.48946238 595.46362194 -1.39379883 590.53442383 C-2.73648457 588.8296601 -4.07550315 587.1220672 -5.4140625 585.4140625 C-7.1252242 583.23165537 -8.85078182 581.06179965 -10.5859375 578.8984375 C-16.33807736 571.66425243 -21.2165395 564.151786 -25.83056641 556.14892578 C-27.49747622 553.2640234 -29.19134923 550.39522351 -30.8840332 547.52539062 C-31.74832055 546.05809329 -32.61016639 544.58935491 -33.46948242 543.11914062 C-35.68699616 539.32690867 -37.96508126 535.58873683 -40.3125 531.875 C-46.49214486 521.59893334 -50.9604823 509.22707693 -50 497.125 C-48.85827634 493.02952675 -47.36067354 489.66601031 -45 486.125 C-47.75078884 485.20807039 -49.35948913 485.01613917 -52.1875 485.0625 C-53.445625 485.083125 -54.70375 485.10375 -56 485.125 Z M-40.85546875 494.41796875 C-43.04927708 497.68996274 -42.46878529 501.39627101 -42 505.125 C-39.85243023 515.33608645 -35.17660375 524.17919375 -30 533.125 C-29.49694336 533.99463379 -28.99388672 534.86426758 -28.47558594 535.76025391 C-24.70544744 542.24852978 -20.86874708 548.69513971 -17 555.125 C-16.33871094 556.23359375 -15.67742187 557.3421875 -14.99609375 558.484375 C-8.93531922 568.35686556 -1.46475065 577.23296982 6 586.0625 C9.6633757 590.41348092 13.05666791 594.88211097 16.375 599.5 C20.5051585 605.24662592 24.91691214 610.61761888 29.59375 615.92529297 C32.98746531 619.81995399 35.97517222 623.85413888 38.875 628.125 C42.96892064 634.11778155 47.71335663 639.059506 52.95727539 644.05957031 C56.63744512 647.60908014 59.51646294 651.09444027 62.3125 655.375 C64.88112022 659.16942596 66.48396853 660.79726812 71 661.8125 C73.20439074 662.09419486 73.20439074 662.09419486 75 662.125 C75 663.79166667 75 665.45833333 75 667.125 C70.05 668.115 70.05 668.115 65 669.125 C68.85808633 672.62139074 72.90710277 674.98495815 78 676.125 C78.99 675.795 79.98 675.465 81 675.125 C79.50440313 663.65007775 78.06010921 654.16552304 70.70703125 644.91015625 C66.1080091 638.87469867 63.01194682 631.80238428 59.60571289 625.05566406 C57.32321829 620.55165353 55.08448786 616.14183575 52.28125 611.9375 C49.63786894 607.83093227 48.47118685 603.63162768 47.25 598.9375 C44.91671735 590.59443589 41.9087557 582.77785178 38.39208984 574.8671875 C36.17539684 569.88032708 34.11764368 564.88325038 32.23388672 559.76123047 C27.78328896 547.7200737 21.74671452 539.66005985 12.54345703 530.79907227 C7.95126374 526.29949769 4.10333312 521.49630212 0.3125 516.3125 C-4.81509987 509.35350398 -9.91366196 504.16175104 -17 499.125 C-17.73476563 498.50882812 -18.46953125 497.89265625 -19.2265625 497.2578125 C-24.70718139 492.93310596 -29.27974046 492.49875426 -36.1796875 492.62109375 C-38.97928605 492.91829996 -38.97928605 492.91829996 -40.85546875 494.41796875 Z M38.75 493.0625 C37.67234375 493.25714844 36.5946875 493.45179688 35.484375 493.65234375 C34.66453125 493.80832031 33.8446875 493.96429688 33 494.125 C33 511.79913679 48.24910414 529.70359115 58.54882812 543.14648438 C62.62908275 548.50865807 66.21899617 554.06087977 69.671875 559.84375 C75.00571791 567.87218591 82.47303318 573.14029582 90.5625 578.125 C91.52760498 578.72803955 92.49270996 579.3310791 93.48706055 579.95239258 C110.59402553 591.36692966 110.59402553 591.36692966 130 596.125 C129.77183594 595.444375 129.54367187 594.76375 129.30859375 594.0625 C127.6184457 588.36298731 126.87097156 583.76834665 127.65673828 577.91186523 C128.11195735 574.50801411 128.29345974 571.57127079 128 568.125 C125.24475075 564.68958462 121.85754727 563.12983794 118 561.125 C116.52302747 559.96524665 115.08173077 558.75801282 113.6875 557.5 C113.04039062 556.92121094 112.39328125 556.34242188 111.7265625 555.74609375 C110.29216173 554.39931475 108.91857415 552.98811641 107.5625 551.5625 C105.40332769 549.50865317 103.47569531 548.04602799 101 546.4375 C90.56842758 539.63279878 81.59046832 532.00706343 72.93359375 523.0859375 C70.65358302 520.74690444 68.2881913 518.62320977 65.75 516.5625 C59.40734804 511.16049557 54.15550077 503.99910168 50.6875 496.4375 C49.42368831 493.09870264 49.42368831 493.09870264 47.28515625 492.359375 C44.28798877 492.05197321 41.70915789 492.51569909 38.75 493.0625 Z M-136 504.125 C-135 507.125 -135 507.125 -135 507.125 Z M-110.6875 504.0625 C-111.68136719 504.25714844 -112.67523438 504.45179688 -113.69921875 504.65234375 C-114.83810547 504.88630859 -114.83810547 504.88630859 -116 505.125 C-115.88490339 506.54250563 -115.75746342 507.95901169 -115.625 509.375 C-115.55539063 510.16390625 -115.48578125 510.9528125 -115.4140625 511.765625 C-114.98492887 514.210877 -114.21399362 515.97336903 -113 518.125 C-109.27380342 513.50451624 -105.63769327 508.81517194 -102 504.125 C-105.47512718 502.96662427 -107.13670286 503.35234057 -110.6875 504.0625 Z M-128 513.125 C-127 515.125 -127 515.125 -127 515.125 Z M278.50708008 530.38452148 C277.59795364 530.44135605 276.68882721 530.49819061 275.75215149 530.55674744 C274.76788681 530.61923172 273.78362213 530.681716 272.76953125 530.74609375 C271.74631271 530.81031021 270.72309418 530.87452667 269.66886902 530.94068909 C266.38335691 531.14708362 263.09792784 531.35476872 259.8125 531.5625 C257.64909396 531.69865389 255.48568256 531.83472253 253.32226562 531.97070312 C251.73851639 532.07035873 251.73851639 532.07035873 250.12277222 532.17202759 C248.01774491 532.30439461 245.91270345 532.4365369 243.80764771 532.56845093 C239.27015099 532.85330426 234.73296667 533.14077722 230.19677734 533.44580078 C219.15062268 534.18057566 219.15062268 534.18057566 214.15625 534.109375 C193.66552558 533.85712176 172.71392341 539.01809478 155 549.125 C154.09121094 549.63160156 153.18242187 550.13820313 152.24609375 550.66015625 C145.59153738 554.7024333 140.81907061 560.17049867 137.5625 567.25 C136.42568785 573.06037322 136.36334591 576.59590508 139.625 581.625 C140.73480436 583.13627737 141.85935793 584.63686 143 586.125 C143.61488281 587.03958984 143.61488281 587.03958984 144.2421875 587.97265625 C152.78709742 599.62239369 170.39677915 604.99062259 184 607.125 C188.61820866 607.60647888 193.24063843 607.90785587 197.875 608.1875 C199.81270264 608.3110083 199.81270264 608.3110083 201.78955078 608.43701172 C215.18214191 609.2702577 228.5875705 609.74035817 242 610.125 C242 610.785 242 611.445 242 612.125 C235.87610511 613.71811991 230.19526835 614.44769036 223.875 614.375 C223.00045166 614.36895752 222.12590332 614.36291504 221.22485352 614.35668945 C213.46770676 614.24719085 205.7211816 613.88327808 197.97735596 613.43127441 C195.98961171 613.3155343 194.00139785 613.20795 192.01318359 613.10058594 C172.55942384 611.84518198 153.42832281 605.83560297 140 591.125 C139.00460822 590.12041292 138.00598786 589.11897607 137 588.125 C137.93962804 591.81020784 138.94418234 595.47137982 140 599.125 C140.20496094 599.8571875 140.40992188 600.589375 140.62109375 601.34375 C141.26780675 603.44793369 141.26780675 603.44793369 143 606.125 C145.31543043 606.85140955 147.65269935 607.50931458 150 608.125 C151.671875 609.54296875 151.671875 609.54296875 153.4375 611.3125 C166.8783033 623.46722269 186.85757781 625.11000953 204 628.125 C184.54709361 628.63574684 166.66674034 627.23616023 150 616.125 C151.2921388 619.61377476 152.80236855 622.60003087 154.875 625.6875 C155.36742187 626.43128906 155.85984375 627.17507813 156.3671875 627.94140625 C160.09814726 632.9308955 163.64976615 635.09793017 169.5 637.125 C170.21776611 637.37991211 170.93553223 637.63482422 171.67504883 637.89746094 C173.12120447 638.4092545 174.56886337 638.91682216 176.01806641 639.41992188 C177.68776839 640.01392278 179.33709731 640.6647457 180.98046875 641.328125 C225.8693997 658.68776929 283.87644016 640.96142919 325.46728516 622.59375 C327.21017822 621.8203125 327.21017822 621.8203125 328.98828125 621.03125 C330.12910156 620.5254541 331.26992188 620.0196582 332.4453125 619.49853516 C334.65520978 618.51504114 336.86235249 617.5253293 339.06640625 616.52880859 C340.0615625 616.08359863 341.05671875 615.63838867 342.08203125 615.1796875 C342.96093018 614.78249512 343.8398291 614.38530273 344.74536133 613.97607422 C347 613.125 347 613.125 350 613.125 C350.33 614.115 350.66 615.105 351 616.125 C350.34580078 616.37934814 349.69160156 616.63369629 349.01757812 616.89575195 C345.21311641 618.44554684 341.47004726 620.11938487 337.71875 621.79296875 C301.66418697 637.79212168 301.66418697 637.79212168 286 642.125 C284.98993896 642.41455566 284.98993896 642.41455566 283.95947266 642.70996094 C279.01591958 644.10105098 274.04568376 645.17553807 269 646.125 C268.05463379 646.30691895 267.10926758 646.48883789 266.13525391 646.67626953 C251.32604036 649.42181092 236.83792446 650.50228663 221.8125 650.5 C220.66606018 650.50271912 220.66606018 650.50271912 219.49645996 650.50549316 C211.21283833 650.50326291 203.02396233 650.16326027 194.7890625 649.23828125 C194.10088943 649.16286102 193.41271637 649.0874408 192.70368958 649.00973511 C187.46852147 648.35802367 182.83100575 646.91763302 178.00390625 644.83203125 C177.34261719 644.59871094 176.68132812 644.36539063 176 644.125 C175.01 644.62 175.01 644.62 174 645.125 C177.89763006 647.58327683 181.80085223 650.03117821 185.71875 652.45703125 C188.18368173 653.98358376 190.61481029 655.53302487 193.03125 657.13671875 C201.96329734 662.84758235 211.81723606 665.50645475 222 668.125 C223.02178345 668.39582397 223.02178345 668.39582397 224.06420898 668.67211914 C230.80792918 670.32680984 237.68423575 671.03658743 244.58178711 671.72241211 C245.97767541 671.86499502 247.37261332 672.01723544 248.76635742 672.17944336 C258.73590328 673.33896664 267.2198959 672.69378352 277 670.125 C278.60360186 669.80157805 280.21016096 669.49217985 281.8203125 669.203125 C300.21955127 665.7185157 316.80906971 659.50592184 333 650.125 C334.13953125 649.47660156 335.2790625 648.82820312 336.453125 648.16015625 C346.75331964 642.07707028 355.94208415 634.67935979 364.94335938 626.84106445 C374.63924918 618.4361081 385.33718889 612.38559998 396.625 606.375 C397.48351562 605.91480469 398.34203125 605.45460938 399.2265625 604.98046875 C405.31345327 601.79784141 411.49566177 599.3247451 418 597.125 C416.77822771 593.45968314 414.76132055 591.67543211 412 589.125 C411.01966797 588.20654297 411.01966797 588.20654297 410.01953125 587.26953125 C405.50926003 583.14243352 400.8625266 579.48720562 395.8125 576.046875 C392.44436651 573.74531712 389.12800377 571.37645589 385.8125 569 C384.67320321 568.18485931 383.53388086 567.36975435 382.39453125 566.5546875 C381.56429443 565.95563599 381.56429443 565.95563599 380.71728516 565.34448242 C379.53097831 564.50205952 378.33170708 563.67770433 377.12255859 562.8684082 C372.6835754 559.85570025 370.36096561 557.01649111 367.75 552.30859375 C362.11770202 545.28079337 351.10222078 542.94865461 342.875 540.125 C342.09875275 539.85731812 341.32250549 539.58963623 340.5227356 539.31384277 C320.98882137 532.69602669 299.18832595 529.08115018 278.50708008 530.38452148 Z " fill="#F1C643" transform="translate(316,-0.125)"/>
<path d="M0 0 C1.32 0.33 2.64 0.66 4 1 C2.85704647 9.41450273 0.53352992 17.44199765 -1.87939453 25.5612793 C-9.28042413 50.64100342 -4.33634573 74.92963334 7.890625 97.48999023 C14.81441133 109.86934927 23.2421711 119.94916623 34.109375 129.03515625 C36.08374951 131.08703719 36.62854111 132.22024932 37 135 C25.79203183 133.16596884 18.75756703 125.66639613 12.22851562 116.75341797 C-0.19253861 99.02527577 -11.10229323 79.1060293 -12 57 C-12.07734375 55.47052734 -12.07734375 55.47052734 -12.15625 53.91015625 C-12.67270849 34.77967297 -6.23724944 17.82183033 0 0 Z " fill="#F1C644" transform="translate(230,503)"/>
<path d="M0 0 C10.08811177 -0.72779965 18.1661399 1.85000755 27.55078125 5.30859375 C43.87448596 11.32071231 59.79492461 12.21691372 77.04077148 12.29516602 C78.79638747 12.30666392 80.5519691 12.32708102 82.30737305 12.35668945 C94.24586592 12.55698847 104.55089511 11.49571924 116 8 C120.90543314 6.51086799 124.85472877 5.78998893 130 6 C129.4375 8.3125 129.4375 8.3125 128 11 C117.05362008 17.21953405 103.42138519 19.12349959 91.00390625 19.203125 C90.26169327 19.21032059 89.51948029 19.21751617 88.754776 19.22492981 C63.06063177 19.41676827 40.43505125 18.49089305 16.56835938 8.03442383 C13.13855529 6.65304741 9.6439884 5.65734611 6.07250977 4.71166992 C3.32352366 3.7677078 1.74212006 2.29643098 0 0 Z " fill="#F2C744" transform="translate(516,545)"/>
<path d="M0 0 C3.458275 5.18741249 2.70738057 11.05768141 1.62939453 17.06542969 C-1.52763645 31.7106369 -7.08869659 45.65522886 -12.37207031 59.62890625 C-20.50123614 81.16048102 -26.3275853 100.91591819 -28 124 C-29.485 124.495 -29.485 124.495 -31 125 C-39.572315 106.68953517 -27.32068893 79.60748396 -21.22314453 62.35839844 C-18.97776909 56.19325183 -16.54200024 50.10582775 -14.10595703 44.01416016 C-9.37229283 32.0740847 -6.01408933 19.90825435 -3.3425293 7.35400391 C-2.21197241 2.21197241 -2.21197241 2.21197241 0 0 Z " fill="#F1C743" transform="translate(202,276)"/>
<path d="M0 0 C2.3046875 0.02734375 2.3046875 0.02734375 5 1 C6.35209598 3.59515196 7.25917282 5.80434641 8.125 8.5625 C8.37725342 9.32175781 8.62950684 10.08101563 8.8894043 10.86328125 C11.3199292 18.45739462 12.82371622 26.12592126 14 34 C14.13148438 34.81597656 14.26296875 35.63195312 14.3984375 36.47265625 C17.04035513 55.57300671 14.0904274 76.51561113 9 95 C6.525 95.495 6.525 95.495 4 96 C4.41519436 88.66967207 5.17797921 81.43703552 6.14477539 74.16162109 C9.10761377 51.73686539 7.76013073 31.26515412 0.89404297 9.61328125 C0.63510254 8.78828125 0.37616211 7.96328125 0.109375 7.11328125 C-0.12813477 6.38923096 -0.36564453 5.66518066 -0.61035156 4.91918945 C-1 3 -1 3 0 0 Z " fill="#F1C644" transform="translate(402,299)"/>
<path d="M0 0 C2.23821373 3.59069938 2.25780083 6.57802689 2.265625 10.7578125 C2.26849014 11.41370865 2.27135529 12.0696048 2.27430725 12.74537659 C2.27868161 14.87214562 2.26613107 16.9982932 2.25 19.125 C2.24656586 19.85063141 2.24313171 20.57626282 2.23959351 21.32388306 C2.11689984 43.33780662 -0.28615811 64.56079507 -9 85 C-9.99 85 -10.98 85 -12 85 C-11.19866345 76.40384429 -9.51375426 68.05139265 -7.81640625 59.59375 C-7.59855469 58.4903125 -7.38070313 57.386875 -7.15625 56.25 C-6.95837891 55.26515625 -6.76050781 54.2803125 -6.55664062 53.265625 C-5.341966 46.13953386 -4.86300513 39.13564649 -4.82421875 31.9140625 C-4.80105926 30.22524742 -4.77694363 28.53644523 -4.75195312 26.84765625 C-4.71664156 24.22077212 -4.6873453 21.59437971 -4.67407227 18.96728516 C-4.6586564 16.40730247 -4.61854908 13.84868591 -4.57421875 11.2890625 C-4.57612717 10.50157623 -4.57803558 9.71408997 -4.58000183 8.90274048 C-4.45714832 3.45314643 -4.45714832 3.45314643 -1.96411133 0.98193359 C-1.31595459 0.65789551 -0.66779785 0.33385742 0 0 Z " fill="#F1C744" transform="translate(280,347)"/>
<path d="M0 0 C0.52054519 7.49886846 -0.92772651 12.23355948 -4.3125 18.875 C-4.98321533 20.23431641 -4.98321533 20.23431641 -5.66748047 21.62109375 C-11.49224397 33.25040291 -18.11645534 44.4097805 -25 55.4375 C-30.38211123 64.07130343 -35.15551366 73.05726042 -40 82 C-42.17953472 75.46139585 -38.33384001 66.75594885 -35.40625 60.70703125 C-33.74888374 57.82419713 -32.04388792 54.98284968 -30.30126953 52.15136719 C-27.6071234 47.69718037 -25.06306193 43.15543088 -22.5 38.625 C-21.93877441 37.63491943 -21.37754883 36.64483887 -20.79931641 35.62475586 C-15.86634063 26.86984138 -11.29329875 17.9790799 -7.00439453 8.89013672 C-6.6639209 8.18260254 -6.32344727 7.47506836 -5.97265625 6.74609375 C-5.667229 6.10212646 -5.36180176 5.45815918 -5.04711914 4.79467773 C-2.2496259 0 -2.2496259 0 0 0 Z " fill="#F2C643" transform="translate(140,319)"/>
<path d="M0 0 C0.99 0.66 1.98 1.32 3 2 C2.41595332 5.27985268 1.45053368 6.93309546 -0.88671875 9.28515625 C-1.4885498 9.89294922 -2.09038086 10.50074219 -2.71044922 11.12695312 C-3.68908936 12.08504883 -3.68908936 12.08504883 -4.6875 13.0625 C-5.35797363 13.72572266 -6.02844727 14.38894531 -6.71923828 15.07226562 C-13.08342879 21.26477377 -19.89221221 26.69554946 -27 32 C-31.69469649 35.52809269 -36.07140262 38.98753405 -40.125 43.25 C-43.56032355 46.77428612 -46.25871156 48.63232064 -51 50 C-53.203125 49.55859375 -53.203125 49.55859375 -55 49 C-44.72854871 39.21719249 -34.3463923 29.69387848 -23.27734375 20.81640625 C-15.13250692 14.27894517 -7.57195734 7.18365184 0 0 Z " fill="#F2C743" transform="translate(135,258)"/>
<path d="M0 0 C0.4125 0.37511719 0.825 0.75023437 1.25 1.13671875 C9.67405795 8.60178796 17.64895565 12.62215489 28.625 14.875 C39.37063973 17.1963351 48.50855313 19.70076201 57 27 C56.34 28.32 55.68 29.64 55 31 C51.17355421 29.78021597 47.57836986 28.37339298 43.9375 26.6875 C37.37313298 23.88242587 30.63653839 22.37115198 23.65014648 20.96362305 C14.5785058 19.01842199 5.29999045 14.94998568 0 7 C-0.07905064 4.66800612 -0.08798769 2.33167378 0 0 Z " fill="#F1C744" transform="translate(309,628)"/>
<path d="M0 0 C-1.2065625 1.546875 -1.2065625 1.546875 -2.4375 3.125 C-17.81117511 23.74466852 -24.42696105 44.33462764 -26 70 C-27.32 70 -28.64 70 -30 70 C-31.44409281 46.09224119 -25.40835414 22.70203181 -10 4 C-6.46730379 0.46730379 -4.88050394 -0.17835729 0 0 Z " fill="#F2C643" transform="translate(87,362)"/>
<path d="M0 0 C1.32 0.33 2.64 0.66 4 1 C2.58270146 5.50958625 0.36847536 7.74790361 -3 11 C-3.91322021 11.9079834 -4.82644043 12.8159668 -5.76733398 13.75146484 C-6.24810898 14.22901215 -6.72888397 14.70655945 -7.22422791 15.19857788 C-9.39429928 17.35509406 -11.56155847 19.51442813 -13.72875977 21.67382812 C-14.86523078 22.80526547 -16.00259703 23.93580433 -17.14086914 25.06542969 C-18.80337481 26.71568101 -20.46313662 28.36861697 -22.12109375 30.0234375 C-22.91318741 30.81315948 -22.91318741 30.81315948 -23.72128296 31.61883545 C-26.49258655 34.40498777 -29.11530948 37.24341691 -31.59765625 40.2890625 C-32.39042969 41.18367188 -33.18320313 42.07828125 -34 43 C-34.99 43 -35.98 43 -37 43 C-35.39837629 29.81015766 -15.8941446 15.03468819 -6 7 C-4.94232422 6.23623047 -4.94232422 6.23623047 -3.86328125 5.45703125 C-1.78002343 3.82798478 -1.00105099 2.41920656 0 0 Z " fill="#F2C644" transform="translate(215,178)"/>
<path d="M0 0 C0.66 1.32 1.32 2.64 2 4 C2.99 4 3.98 4 5 4 C5.93085055 6.54813838 6.85839067 9.09739065 7.78125 11.6484375 C8.62538806 13.96981716 9.48029374 16.28729892 10.34375 18.6015625 C11.00890625 20.40753906 11.00890625 20.40753906 11.6875 22.25 C12.10386719 23.36890625 12.52023437 24.4878125 12.94921875 25.640625 C16.14140406 35.84612452 15.27164602 46.53162827 14 57 C11.44286349 54.44286349 11.47011631 52.8988646 10.921875 49.34765625 C10.73334961 48.18685547 10.54482422 47.02605469 10.35058594 45.83007812 C10.15239258 44.58677734 9.95419922 43.34347656 9.75 42.0625 C7.77529681 30.27457717 4.90513025 19.27050251 1 8 C0.14320394 5.07152615 0 3.17196881 0 0 Z " fill="#F1C744" transform="translate(304,507)"/>
<path d="M0 0 C3.09595933 2.99921061 5.9486181 6.09738318 8.75 9.375 C12.17212882 13.27765545 15.80744137 16.37524559 20.01953125 19.39453125 C22.09000887 21.07296577 23.49490436 22.81120161 25 25 C23.68 25.99 22.36 26.98 21 28 C20.443125 27.43152344 19.88625 26.86304688 19.3125 26.27734375 C15.59506086 22.5159484 11.8995841 18.85978867 7.8125 15.5 C3.66416825 11.95022513 0.58424118 7.80629703 -2 3 C-2 2.34 -2 1.68 -2 1 C-1.34 0.67 -0.68 0.34 0 0 Z " fill="#F1C643" transform="translate(298,193)"/>
<path d="M0 0 C2.0625 0.4375 2.0625 0.4375 4 1 C4.84683016 6.16227665 5.19220685 11.14628301 5.1875 16.375 C5.18814453 17.1187085 5.18878906 17.86241699 5.18945312 18.62866211 C5.13777329 24.00395268 4.50764178 28.81748138 3 34 C1.33761069 31.04708274 0.67265869 28.66310032 0.3671875 25.296875 C0.28339844 24.39839844 0.19960938 23.49992187 0.11328125 22.57421875 C0.03464844 21.64222656 -0.04398437 20.71023438 -0.125 19.75 C-0.21136719 18.83347656 -0.29773438 17.91695313 -0.38671875 16.97265625 C-0.86686671 11.63005755 -1.18538908 6.36392403 -1 1 C-0.67 0.67 -0.34 0.34 0 0 Z " fill="#F2C744" transform="translate(268,338)"/>
<path d="M0 0 C2.475 0.495 2.475 0.495 5 1 C5.27714844 2.04800781 5.55429687 3.09601562 5.83984375 4.17578125 C6.20567952 5.55470067 6.57156767 6.9336062 6.9375 8.3125 C7.11990234 9.00279297 7.30230469 9.69308594 7.49023438 10.40429688 C8.2593261 13.29887844 9.05261576 16.15784729 10 19 C8.35 19.33 6.7 19.66 5 20 C4.15960114 17.41877492 3.32749444 14.83536099 2.5 12.25 C2.26152344 11.52039063 2.02304687 10.79078125 1.77734375 10.0390625 C1.55175781 9.33007812 1.32617188 8.62109375 1.09375 7.890625 C0.88427734 7.24125977 0.67480469 6.59189453 0.45898438 5.92285156 C0 4 0 4 0 0 Z " fill="#F2C744" transform="translate(330,557)"/>
<path d="M0 0 C0.99 0 1.98 0 3 0 C3.67220351 1.93558599 4.33758077 3.87354372 5 5.8125 C5.556875 7.43091797 5.556875 7.43091797 6.125 9.08203125 C7 12 7 12 7 15 C5.35 15.33 3.7 15.66 2 16 C1.46530198 14.27507022 0.94780825 12.544802 0.4375 10.8125 C0.14746094 9.84957031 -0.14257812 8.88664063 -0.44140625 7.89453125 C-1.02461026 4.87247412 -0.81178385 2.94070045 0 0 Z " fill="#F2C744" transform="translate(334,540)"/>
<path d="M0 0 C1.32 0 2.64 0 4 0 C3.85890014 2.10448938 3.71195825 4.2085877 3.5625 6.3125 C3.48128906 7.48425781 3.40007812 8.65601563 3.31640625 9.86328125 C3 13 3 13 2 16 C0.68 15.67 -0.64 15.34 -2 15 C-1.85930804 12.87465341 -1.71229079 10.74972471 -1.5625 8.625 C-1.48128906 7.44164062 -1.40007812 6.25828125 -1.31640625 5.0390625 C-1 2 -1 2 0 0 Z " fill="#F1C643" transform="translate(240,405)"/>
<path d="M0 0 C1.32 0.33 2.64 0.66 4 1 C3.49701212 5.40114397 1.91227269 7.71195019 -1 11 C-2.32 10.67 -3.64 10.34 -5 10 C-3.66511872 6.40608886 -2.03977277 3.24509304 0 0 Z " fill="#F2C644" transform="translate(119,324)"/>
<path d="M0 0 C1.32 0.66 2.64 1.32 4 2 C3.34 3.65 2.68 5.3 2 7 C0.68 6.67 -0.64 6.34 -2 6 C-1.125 1.125 -1.125 1.125 0 0 Z " fill="#F2C743" transform="translate(257,169)"/>
<path d="M0 0 C1.32 0.33 2.64 0.66 4 1 C3.34 2.65 2.68 4.3 2 6 C0.68 5.67 -0.64 5.34 -2 5 C-1.34 3.35 -0.68 1.7 0 0 Z " fill="#F2C644" transform="translate(251,181)"/>
<path d="M0 0 C2.475 0.99 2.475 0.99 5 2 C4.67 2.99 4.34 3.98 4 5 C2.35 4.67 0.7 4.34 -1 4 C-0.67 2.68 -0.34 1.36 0 0 Z " fill="#F3C544" transform="translate(278,585)"/>
<path d="M0 0 C0.99 0.33 1.98 0.66 3 1 C2.67 2.65 2.34 4.3 2 6 C0.68 5.34 -0.64 4.68 -2 4 C-1.34 2.68 -0.68 1.36 0 0 Z " fill="#F1C743" transform="translate(237,429)"/>
</svg>
