<?xml version="1.0" encoding="UTF-8"?>
<svg version="1.1" xmlns="http://www.w3.org/2000/svg" width="796" height="562">
<path d="M0 0 C0.54914063 0.29438965 1.09828125 0.5887793 1.6640625 0.89208984 C1.60289964 2.26825428 1.51381807 3.64318363 1.4140625 5.01708984 C1.36765625 5.78279297 1.32125 6.54849609 1.2734375 7.33740234 C-0.41418801 14.41244774 -6.58119801 19.38515753 -11.57421875 24.29052734 C-12.37321091 25.08431793 -13.17220306 25.87810852 -13.9954071 26.69595337 C-16.54168804 29.22448938 -19.09455962 31.74622898 -21.6484375 34.26708984 C-24.19075183 36.78164174 -26.73153656 39.29769113 -29.26933289 41.81680298 C-30.84480843 43.38017889 -32.42294811 44.9408764 -34.00422668 46.49838257 C-38.12346081 50.58062877 -42.05240217 54.75614507 -45.83537292 59.15200806 C-47.59418681 61.19156041 -49.41751881 63.15948551 -51.2734375 65.11083984 C-51.94117188 65.81595703 -52.60890625 66.52107422 -53.296875 67.24755859 C-55.3359375 69.39208984 -55.3359375 69.39208984 -57.375 71.53662109 C-61.2721893 75.65199281 -65.07298017 79.82812935 -68.78613281 84.11035156 C-70.72618591 86.34074027 -72.71644053 88.52286998 -74.7109375 90.70458984 C-81.50446729 98.24403084 -87.800739 106.17900001 -94.0859375 114.14208984 C-94.53372559 114.70831055 -94.98151367 115.27453125 -95.44287109 115.85791016 C-98.52867657 119.78821569 -101.45504563 123.80909921 -104.3359375 127.89208984 C-103.80452148 127.53083008 -103.27310547 127.16957031 -102.72558594 126.79736328 C-89.8412775 118.06251949 -76.82946014 109.6573364 -63.3359375 101.89208984 C-62.24635742 101.25980469 -62.24635742 101.25980469 -61.13476562 100.61474609 C-49.9975337 94.21262746 -38.57091034 89.75620097 -26.3359375 85.89208984 C-24.67304687 85.34875 -24.67304687 85.34875 -22.9765625 84.79443359 C-17.4184286 83.1065822 -11.08449026 81.40099766 -5.3359375 82.89208984 C-0.18399005 86.91393269 2.51915418 92.44580775 5.5390625 98.14208984 C6.04953125 99.04572266 6.56 99.94935547 7.0859375 100.88037109 C10.2822231 106.88420486 11.61360742 111.25363945 9.6640625 117.89208984 C8.16188497 121.90520647 7.06666666 122.69574151 3.171875 124.59521484 C1.71633014 125.12587168 0.25486622 125.64046551 -1.2109375 126.14208984 C-2.85272111 126.74440985 -4.49330294 127.35001339 -6.1328125 127.95849609 C-7.41768555 128.43053467 -7.41768555 128.43053467 -8.72851562 128.91210938 C-38.00869844 139.91685224 -66.83677065 154.342128 -91.3359375 173.89208984 C-92.38322021 174.72522705 -92.38322021 174.72522705 -93.45166016 175.57519531 C-98.11889042 179.30072643 -102.74247716 183.07606856 -107.3359375 186.89208984 C-108.11453125 187.53662109 -108.893125 188.18115234 -109.6953125 188.84521484 C-119.5927186 197.27027954 -128.31513374 206.68884902 -136.3359375 216.89208984 C-137.55990234 218.37322266 -137.55990234 218.37322266 -138.80859375 219.88427734 C-145.41114309 227.94062167 -151.06675769 236.48330545 -156.68432617 245.2487793 C-162.17859728 253.77763177 -168.10166043 261.89317568 -174.3359375 269.89208984 C-164.52859252 267.89854075 -155.20868479 264.97273141 -145.8359375 261.51708984 C-145.12450592 261.25642731 -144.41307434 260.99576477 -143.68008423 260.72720337 C-111.60616494 248.93139922 -80.76816051 233.91110965 -52.3359375 214.89208984 C-51.55992187 214.37437012 -50.78390625 213.85665039 -49.984375 213.32324219 C-38.23979659 205.45447029 -26.71140312 197.28445032 -15.3359375 188.89208984 C-14.72443848 188.44720215 -14.11293945 188.00231445 -13.48291016 187.54394531 C-0.23566785 177.86227449 11.36694368 166.12810117 22.0715332 153.7253418 C24.33508301 151.11963959 26.68648437 148.60525555 29.0390625 146.07958984 C32.52896639 142.31347647 35.84653029 138.48046686 39.0390625 134.45458984 C41.97148358 130.7759254 45.04798585 127.51871753 48.46655273 124.30859375 C56.17320473 117.02645603 60.96918115 109.32607576 65.6640625 99.89208984 C66.26492676 98.72186279 66.86579102 97.55163574 67.48486328 96.34594727 C72.08894567 87.34436118 76.26958951 78.26429468 79.9140625 68.82958984 C80.31727722 67.79513229 80.31727722 67.79513229 80.7286377 66.73977661 C87.90746512 48.11592066 92.4739731 28.69776245 97.05310059 9.30285645 C97.25181763 8.47048462 97.45053467 7.63811279 97.65527344 6.78051758 C97.91289459 5.68525002 97.91289459 5.68525002 98.17572021 4.56785583 C98.6640625 2.89208984 98.6640625 2.89208984 99.6640625 1.89208984 C105.22413948 1.52141804 107.99103847 1.69475761 112.6640625 4.89208984 C117.43987692 6.96853089 120.58418785 6.90806477 125.6640625 5.89208984 C127.33072917 5.55875651 128.99739583 5.22542318 130.6640625 4.89208984 C133.27035864 35.58846665 116.34260177 71.5693463 103.6640625 98.89208984 C104.12296875 98.42738281 104.581875 97.96267578 105.0546875 97.48388672 C108.17323068 94.34241308 111.28028399 91.25079927 114.6640625 88.39208984 C117.22022697 86.19271315 119.634792 83.94269461 121.9765625 81.51708984 C125.64601406 77.7895248 129.64677076 74.54670158 133.72265625 71.27490234 C135.67511451 69.69322965 137.60539396 68.08375857 139.51171875 66.44677734 C147.16516705 59.87490653 155.18272891 54.32622661 163.6640625 48.89208984 C164.48729004 48.36067383 165.31051758 47.82925781 166.15869141 47.28173828 C172.63132271 43.10500071 179.13652892 38.9824323 185.6640625 34.89208984 C186.52225586 34.35229492 187.38044922 33.8125 188.26464844 33.25634766 C209.47388121 19.98103044 235.88152282 3.74406991 261.6640625 3.39208984 C262.79714844 3.33021484 262.79714844 3.33021484 263.953125 3.26708984 C270.49235479 3.17720352 273.92603141 5.58157684 278.6640625 9.89208984 C279.32905762 10.48699219 279.99405273 11.08189453 280.67919922 11.69482422 C282.69702559 13.55351601 284.65300412 15.46108604 286.6015625 17.39208984 C287.27251953 18.03017578 287.94347656 18.66826172 288.63476562 19.32568359 C291.57399495 22.23222179 293.43435204 24.17467323 294.7109375 28.16162109 C294.64376896 32.07418866 293.11377175 33.91271373 290.6640625 36.89208984 C287.37817302 39.80953863 283.75418965 41.05690267 279.6640625 42.45458984 C239.76915019 56.92096756 200.60776157 85.35861793 167.6640625 111.89208984 C167.1278125 112.32392578 166.5915625 112.75576172 166.0390625 113.20068359 C155.19495106 122.024312 145.43157974 131.90781309 135.6640625 141.89208984 C144.99906074 139.76139888 154.33349606 137.62826811 163.66717529 135.49180603 C168.48027239 134.39045516 173.29442511 133.29390423 178.109375 132.20068359 C180.29442705 131.70267057 182.47933045 131.20400477 184.6640625 130.70458984 C185.70973389 130.46562988 186.75540527 130.22666992 187.83276367 129.98046875 C193.40352666 128.69289719 198.93350101 127.30990022 204.44799805 125.79980469 C221.30241872 121.18773671 237.25928095 120.49345914 254.6640625 120.89208984 C255.41187988 120.9061084 256.15969727 120.92012695 256.93017578 120.93457031 C267.9098745 121.19618436 267.9098745 121.19618436 272.6640625 125.89208984 C274.70405392 131.55749213 273.93293993 138.21523723 273.9765625 144.14208984 C274.00556641 145.44017578 274.03457031 146.73826172 274.06445312 148.07568359 C274.11115744 155.12444309 274.11113848 161.14264972 269.6640625 166.89208984 C269.17679688 167.59914062 268.68953125 168.30619141 268.1875 169.03466797 C264.17193209 171.99039946 259.93099971 171.70033464 255.05859375 171.93896484 C252.87550821 172.08350971 250.69273035 172.232763 248.51025391 172.38623047 C246.8142807 172.50333374 246.8142807 172.50333374 245.08404541 172.62280273 C235.13618948 173.40609009 225.24040323 174.8269856 215.3515625 176.14208984 C214.18952301 176.29582062 213.02748352 176.44955139 211.83023071 176.60794067 C195.96868843 178.72294919 180.34697279 181.0667457 164.83935547 185.08544922 C161.91155487 185.82921772 158.97565754 186.52393548 156.03167725 187.20046997 C105.71248359 198.76988467 56.81652369 218.42248735 18.7265625 254.07958984 C18.02869629 254.73266113 17.33083008 255.38573242 16.61181641 256.05859375 C12.61640446 259.8606021 8.89715494 263.80353596 5.30541992 267.98803711 C2.87001568 270.81322195 0.33067172 273.53770438 -2.2109375 276.26708984 C-5.83441643 280.17055973 -9.42385183 284.09723275 -12.9609375 288.07958984 C-16.74600363 292.31036122 -20.71326737 296.316495 -24.78125 300.27490234 C-26.7751704 302.31760367 -28.63053671 304.37607544 -30.484375 306.54052734 C-35.84822056 312.72712858 -41.77051886 318.37002932 -47.59765625 324.11474609 C-52.11635348 328.5943204 -56.47745236 333.11255828 -60.61572266 337.94482422 C-63.83491552 341.58891764 -67.31609146 344.97586503 -70.7734375 348.39208984 C-71.87075195 349.48263672 -71.87075195 349.48263672 -72.99023438 350.59521484 C-74.76983574 352.36318483 -76.55174668 354.12875362 -78.3359375 355.89208984 C-77.25401123 355.87637939 -76.17208496 355.86066895 -75.05737305 355.84448242 C-70.94400844 355.78912322 -66.83067461 355.75536539 -62.71704102 355.72729492 C-60.95526549 355.71244446 -59.19352526 355.69215875 -57.43188477 355.66577148 C-47.86905068 355.52638751 -38.51560064 355.73521318 -29.04296875 357.15380859 C-27.90428596 357.31669121 -27.90428596 357.31669121 -26.74259949 357.48286438 C-18.91252253 358.7980945 -12.5446294 361.76421702 -7.3359375 367.89208984 C-5.31696802 371.1160586 -5.21580145 373.06262943 -5.74609375 376.79443359 C-6.62301001 384.55018485 -6.02872623 392.181486 -5.56445312 399.95263672 C-5.21753274 406.98275891 -5.66510094 413.06866885 -7.3359375 419.89208984 C-7.68043864 421.89019647 -8.01970973 423.88931399 -8.3359375 425.89208984 C-7.61148437 426.29298828 -6.88703125 426.69388672 -6.140625 427.10693359 C0.84781953 431.21613897 6.81021676 435.64993344 9.21533203 443.74829102 C11.6997534 455.61755328 10.74179515 469.84648344 4.1015625 480.07958984 C3.58078125 480.80404297 3.06 481.52849609 2.5234375 482.27490234 C1.06607132 484.3262371 -0.29480964 486.38143535 -1.6328125 488.50927734 C-12.23843558 505.26226869 -27.28514838 516.20103547 -46.7109375 521.14208984 C-61.08726041 523.55643415 -75.78243644 521.72606032 -90.1484375 520.14208984 C-90.88697968 520.06367859 -91.62552185 519.98526733 -92.38644409 519.90447998 C-107.59506078 518.26216464 -123.23007828 516.44355452 -134.3359375 504.89208984 C-137.98016048 509.28583386 -140.79572125 513.64749124 -143.2109375 518.82958984 C-152.29340543 537.08603671 -171.66016845 544.34786822 -190.1953125 550.58740234 C-223.04501843 561.11163789 -257.74002631 548.59235255 -287.2109375 533.89208984 C-288.20626999 533.39921982 -288.20626999 533.39921982 -289.22171021 532.89639282 C-301.45523803 526.7945504 -314.6998326 519.77201656 -323.3359375 508.89208984 C-323.3359375 508.23208984 -323.3359375 507.57208984 -323.3359375 506.89208984 C-324.45613281 507.21564453 -325.57632813 507.53919922 -326.73046875 507.87255859 C-344.29958045 512.24069782 -361.51188338 507.42429506 -377.62304688 500.49755859 C-378.44869141 500.14822266 -379.27433594 499.79888672 -380.125 499.43896484 C-381.23415771 498.9570166 -381.23415771 498.9570166 -382.36572266 498.46533203 C-384.51756257 497.63670384 -384.51756257 497.63670384 -387.3359375 498.89208984 C-399.28992432 500.08748853 -406.84153549 495.62570829 -416.3359375 488.89208984 C-417.3259375 489.55208984 -418.3159375 490.21208984 -419.3359375 490.89208984 C-422.03253011 491.14443692 -424.57619257 491.27297389 -427.2734375 491.26708984 C-428.03398437 491.26547852 -428.79453125 491.26386719 -429.578125 491.26220703 C-438.09938426 491.07899277 -445.11347991 488.46841534 -452.7109375 484.76708984 C-456.55032487 482.9554007 -460.06143692 482.47145884 -464.2734375 482.01708984 C-474.36625825 480.74598109 -481.1116379 476.20466924 -487.52734375 468.40771484 C-497.10525127 455.08552814 -501.50886649 436.85540556 -501.5234375 420.57958984 C-501.53568359 419.87125 -501.54792969 419.16291016 -501.56054688 418.43310547 C-501.58495348 409.45960934 -499.72302965 402.58257594 -494.7109375 395.14208984 C-493.80530314 393.75060929 -492.90036462 392.35867562 -491.99609375 390.96630859 C-491.32151123 389.94029541 -491.32151123 389.94029541 -490.63330078 388.89355469 C-488.73000578 385.95730847 -486.9466647 382.95632722 -485.1484375 379.95458984 C-480.55747117 372.50579306 -475.90352874 365.92870809 -469.078125 360.40771484 C-467.180076 358.75649732 -465.59464662 356.99185766 -463.9609375 355.07958984 C-454.87837507 344.54620234 -444.74185679 336.75100229 -433.3359375 328.89208984 C-432.66062988 328.42013184 -431.98532227 327.94817383 -431.28955078 327.46191406 C-420.1206723 319.69992113 -408.23246453 313.53897709 -396.125 307.37646484 C-390.02491415 304.26715609 -384.01480325 301.01737354 -378.0234375 297.70458984 C-361.79776734 288.80786373 -345.38205998 280.82890453 -328.3359375 273.64208984 C-288.43105823 256.81874711 -288.43105823 256.81874711 -253.3359375 231.89208984 C-252.6553125 231.28236328 -251.9746875 230.67263672 -251.2734375 230.04443359 C-245.39946804 224.46653114 -240.55449395 218.03804488 -235.65576172 211.61328125 C-234.48269262 210.08347416 -233.28776654 208.57048298 -232.08984375 207.06005859 C-224.67529905 197.55039485 -218.48047547 187.25137437 -212.3359375 176.89208984 C-211.94519043 176.23370117 -211.55444336 175.5753125 -211.15185547 174.89697266 C-198.39567109 153.05493057 -190.62460999 128.696304 -182.96240234 104.73028564 C-181.56678164 100.37366917 -180.15536188 96.02214786 -178.74563694 91.67007923 C-177.65350285 88.29791179 -176.56377634 84.92504241 -175.48216248 81.54948425 C-175.09738235 80.35245377 -174.71260223 79.15542328 -174.31616211 77.92211914 C-173.98071884 76.8746904 -173.64527557 75.82726166 -173.29966736 74.74809265 C-172.40115334 72.08535626 -171.38010738 69.49997286 -170.3359375 66.89208984 C-169.88632987 64.8003308 -169.88632987 64.8003308 -169.66015625 62.69677734 C-169.55711182 61.90706543 -169.45406738 61.11735352 -169.34790039 60.30371094 C-169.24082764 59.46662598 -169.13375488 58.62954102 -169.0234375 57.76708984 C-168.00471215 50.50202272 -166.69134827 43.38246859 -164.8984375 36.26708984 C-164.60876099 35.05061768 -164.60876099 35.05061768 -164.31323242 33.80957031 C-162.87943881 28.37273726 -162.87943881 28.37273726 -160.61328125 26.36865234 C-158.3359375 25.89208984 -158.3359375 25.89208984 -155.09765625 25.95068359 C-150.55881216 25.87998509 -147.298684 24.65755484 -143.1484375 22.95458984 C-131.34031593 18.25532817 -131.34031593 18.25532817 -124.3359375 18.89208984 C-120.28822222 23.09067718 -120.76194951 27.35625608 -120.7734375 32.89208984 C-120.77162476 34.42434204 -120.77162476 34.42434204 -120.76977539 35.98754883 C-121.04539694 49.89372379 -123.76053969 63.58540654 -126.3079834 77.22340393 C-127.09368373 81.43698242 -127.75651389 85.64653248 -128.3359375 89.89208984 C-127.90925781 89.07869141 -127.48257812 88.26529297 -127.04296875 87.42724609 C-121.80214391 77.82086819 -115.58706635 69.32651713 -108.80126953 60.75683594 C-106.37578462 57.67022251 -104.04283342 54.51277864 -101.703125 51.36083984 C-100.3359375 49.89208984 -100.3359375 49.89208984 -97.3359375 48.89208984 C-96.65420121 47.23153034 -95.99182041 45.56302965 -95.3359375 43.89208984 C-93.66384848 41.20335265 -91.81100387 38.64806888 -89.9609375 36.07958984 C-89.43072998 35.33692871 -88.90052246 34.59426758 -88.35424805 33.82910156 C-83.24367684 26.70189399 -78.04171425 19.64421621 -72.70703125 12.68310547 C-71.82750694 11.53421117 -70.95212193 10.38212929 -70.08203125 9.22607422 C-52.52154415 -14.04302008 -24.83535749 -11.77914426 0 0 Z M-61.22265625 14.41552734 C-64.75223478 18.55185413 -68.10231711 22.81861238 -71.41796875 27.12646484 C-73.34104707 29.62329711 -75.29394221 32.08987848 -77.28515625 34.53271484 C-84.74900182 43.69066499 -91.65689758 53.14857622 -98.3359375 62.89208984 C-98.78743164 63.54741699 -99.23892578 64.20274414 -99.70410156 64.87792969 C-105.71757176 73.63263961 -111.24402456 82.56419784 -116.3359375 91.89208984 C-117.11807617 93.32319092 -117.11807617 93.32319092 -117.91601562 94.78320312 C-130.88441431 118.45993891 -130.88441431 118.45993891 -142.3359375 142.89208984 C-145.35363047 138.73859528 -145.63825886 136.06346222 -145.2890625 130.98974609 C-145.21958908 129.95509216 -145.21958908 129.95509216 -145.14871216 128.89953613 C-144.98264798 126.58235266 -144.78640677 124.26903725 -144.5859375 121.95458984 C-144.52158508 121.14939911 -144.45723267 120.34420837 -144.39093018 119.51461792 C-142.88100249 101.00709654 -139.72988964 82.75607748 -136.47363281 64.48803711 C-134.48540299 53.27776302 -132.64664883 42.29145787 -132.3359375 30.89208984 C-136.17307292 29.78700316 -139.00489501 30.11519119 -142.9609375 30.76708984 C-144.68183594 31.04166016 -144.68183594 31.04166016 -146.4375 31.32177734 C-149.26124568 31.74386123 -149.26124568 31.74386123 -151.3359375 32.89208984 C-152.05211783 35.55515139 -152.64589215 38.16817828 -153.18359375 40.86865234 C-153.53978884 42.57292165 -153.89641561 44.27710078 -154.25341797 45.98120117 C-154.53255035 47.33442978 -154.53255035 47.33442978 -154.81732178 48.71499634 C-158.621648 67.0591529 -163.19367426 84.93592234 -168.7097168 102.84405518 C-169.61696477 105.81118049 -170.50355217 108.78437426 -171.39093018 111.75749207 C-185.97514538 160.61611614 -204.90449374 207.89756349 -241.3359375 244.89208984 C-242.03589844 245.60494141 -242.73585938 246.31779297 -243.45703125 247.05224609 C-253.95966305 257.03868049 -267.38179174 263.77132717 -280.36328125 269.94628906 C-282.2403479 270.84625889 -284.10130985 271.77313566 -285.9609375 272.70849609 C-296.22031417 277.78788679 -306.84291492 281.8998196 -317.50164795 286.04730225 C-327.04449166 289.76400571 -336.52235974 293.57943854 -345.8984375 297.70458984 C-347.29352539 298.31524292 -347.29352539 298.31524292 -348.71679688 298.93823242 C-354.83474613 301.66185038 -360.82792647 304.61149188 -366.80619812 307.62609863 C-372.25284845 310.36723963 -377.73627164 313.02541115 -383.234375 315.66162109 C-384.96886147 316.49667605 -386.7032354 317.33196482 -388.4375 318.16748047 C-391.06938573 319.43536239 -393.70239227 320.70051959 -396.33984375 321.95678711 C-408.8243833 327.90950301 -420.68274406 334.44199801 -432.3359375 341.89208984 C-433.31820312 342.51156494 -434.30046875 343.13104004 -435.3125 343.76928711 C-451.59161001 354.16324249 -463.65689603 364.24137588 -471.5234375 382.10498047 C-473.21612062 385.82806955 -475.29156453 389.35375201 -477.3359375 392.89208984 C-476.71847656 393.23240234 -476.10101563 393.57271484 -475.46484375 393.92333984 C-458.02036717 403.90678458 -451.13464663 416.96176147 -445.86694336 435.84057617 C-442.52590827 448.74849244 -443.53793596 461.57579125 -448.3359375 473.89208984 C-440.95476482 476.35248074 -432.93032892 476.20650374 -425.3359375 474.89208984 C-423.66061186 470.80592974 -425.13625587 467.89121157 -426.5859375 463.89208984 C-427.05764521 462.53764755 -427.52636861 461.18216244 -427.9921875 459.82568359 C-428.22292969 459.15649902 -428.45367187 458.48731445 -428.69140625 457.79785156 C-434.98363203 439.19288396 -434.99167719 420.69151533 -426.3359375 402.89208984 C-426.03300781 402.26318848 -425.73007812 401.63428711 -425.41796875 400.98632812 C-417.1459354 384.01312925 -406.53307595 369.35279454 -393.3359375 355.89208984 C-392.62824219 355.14572266 -391.92054688 354.39935547 -391.19140625 353.63037109 C-373.18324218 334.96202993 -350.85226071 322.06101491 -327.0859375 312.26708984 C-326.04066895 311.83581787 -324.99540039 311.4045459 -323.91845703 310.96020508 C-303.89137342 302.91569482 -283.33273758 297.40546704 -262.39453125 292.34417725 C-259.58457706 291.66246904 -256.77698465 290.97132175 -253.96941185 290.27988243 C-251.18726243 289.59547252 -248.40403156 288.91554605 -245.62047195 288.23689651 C-244.24500975 287.90131139 -242.86978124 287.56476693 -241.49479294 287.22724533 C-234.0970755 285.41525116 -226.70516982 283.72942268 -219.21533203 282.34179688 C-217.92985977 282.09579239 -216.64438751 281.8497879 -215.31996155 281.59632874 C-212.90366762 281.14266759 -210.48191006 280.71685867 -208.05491638 280.32444763 C-202.23786751 279.34296951 -202.23786751 279.34296951 -197.56134033 276.04515076 C-196.30562096 274.03947266 -195.32610884 272.03743633 -194.3359375 269.89208984 C-193.50348157 268.71312757 -192.644741 267.55185288 -191.75 266.41943359 C-191.30188965 265.84185303 -190.8537793 265.26427246 -190.39208984 264.66918945 C-189.91980957 264.06212158 -189.4475293 263.45505371 -188.9609375 262.82958984 C-181.77856278 253.42983007 -175.44634558 243.49575284 -169.04882812 233.55371094 C-160.74261012 220.64687104 -151.95153416 208.71743186 -141.578125 197.35693359 C-140.0875053 195.71829068 -138.61330292 194.0645567 -137.15625 192.39599609 C-127.65348142 181.55742909 -116.76593185 172.58975381 -105.3359375 163.89208984 C-104.44648437 163.20928955 -104.44648437 163.20928955 -103.5390625 162.51269531 C-86.61985774 149.57042319 -68.33431399 139.45034215 -49.3359375 129.89208984 C-48.53075684 129.48216797 -47.72557617 129.07224609 -46.89599609 128.64990234 C-32.83255845 121.52705651 -18.16998957 116.17392402 -3.3359375 110.89208984 C-4.07027341 106.75726066 -5.32149689 103.74737858 -7.3984375 100.07958984 C-7.94628906 99.10376953 -8.49414062 98.12794922 -9.05859375 97.12255859 C-9.48011719 96.38650391 -9.90164063 95.65044922 -10.3359375 94.89208984 C-49.35150443 99.02147466 -89.40506469 122.44922156 -120.3984375 145.39208984 C-121.0478833 145.87250732 -121.6973291 146.3529248 -122.36645508 146.84790039 C-125.9250623 149.56598209 -128.5458359 152.36251811 -131.3359375 155.89208984 C-132.3259375 156.22208984 -133.3159375 156.55208984 -134.3359375 156.89208984 C-133.46065102 153.75564664 -132.71555265 151.34454311 -130.60546875 148.82958984 C-127.4205319 144.70726194 -125.19023308 140.18237447 -122.7734375 135.57958984 C-117.56688636 125.85524837 -111.8541552 116.78056852 -105.3359375 107.89208984 C-104.93777832 107.34375488 -104.53961914 106.79541992 -104.12939453 106.23046875 C-92.52542476 90.28656563 -79.5746176 75.3313318 -66.140625 60.91162109 C-63.65529211 58.24371635 -61.20714944 55.54478092 -58.7734375 52.82958984 C-54.15151129 47.67564335 -49.47760493 42.57065429 -44.79052734 37.47607422 C-43.30882772 35.86256849 -41.8318886 34.24480188 -40.35546875 32.62646484 C-22.2857371 12.86698965 -22.2857371 12.86698965 -18.3359375 10.89208984 C-18.3359375 10.23208984 -18.3359375 9.57208984 -18.3359375 8.89208984 C-34.902729 4.02616065 -48.1413012 0.41664238 -61.22265625 14.41552734 Z M109.6640625 13.89208984 C109.54925537 14.50914795 109.43444824 15.12620605 109.31616211 15.76196289 C103.67499746 45.58269695 92.86752344 72.66918122 79.4765625 99.82958984 C78.9189624 100.97177979 78.3613623 102.11396973 77.78686523 103.29077148 C72.9357883 112.94813306 66.86750974 121.41252579 59.9765625 129.70458984 C59.22503906 130.61080078 58.47351563 131.51701172 57.69921875 132.45068359 C57.02761719 133.25634766 56.35601563 134.06201172 55.6640625 134.89208984 C54.91962891 135.80667969 54.91962891 135.80667969 54.16015625 136.73974609 C52.32516269 138.98890748 50.45235885 141.10053093 48.3828125 143.13818359 C45.3951456 146.16448412 42.65520399 149.33203484 39.9140625 152.57958984 C36.32620376 156.80244832 32.71076133 160.98444033 28.9765625 165.07958984 C26.0255431 168.31992487 23.25496386 171.64045963 20.5390625 175.07958984 C10.38769816 187.53169592 -1.2392177 197.76205392 -14.14453125 207.25634766 C-17.11420651 209.47301702 -20.01550494 211.77151461 -22.92138672 214.07080078 C-37.66599081 225.71519103 -52.93262854 236.6972949 -69.3359375 245.89208984 C-70.19638672 246.37500488 -71.05683594 246.85791992 -71.94335938 247.35546875 C-93.21357428 259.22051142 -114.67114357 269.80930035 -137.65234375 277.94140625 C-139.98064107 278.76622337 -142.29937973 279.61264182 -144.6171875 280.46630859 C-166.96743677 288.49830236 -190.58107434 293.61626953 -213.90766907 297.80033875 C-260.51584834 306.11925513 -260.51584834 306.11925513 -306.3359375 317.89208984 C-307.40038086 318.19002441 -308.46482422 318.48795898 -309.56152344 318.79492188 C-310.63950195 319.11702637 -311.71748047 319.43913086 -312.828125 319.77099609 C-313.80894043 320.056604 -314.78975586 320.34221191 -315.80029297 320.63647461 C-318.9805795 322.21130743 -319.68629003 323.80040066 -321.3359375 326.89208984 C-322.60609799 328.32760552 -323.92573774 329.7204838 -325.28515625 331.07177734 C-326.05150391 331.83619141 -326.81785156 332.60060547 -327.60742188 333.38818359 C-328.40470703 334.17322266 -329.20199219 334.95826172 -330.0234375 335.76708984 C-330.80138672 336.54439453 -331.57933594 337.32169922 -332.38085938 338.12255859 C-336.65582965 342.36543985 -341.02917426 346.42732939 -345.5871582 350.36328125 C-363.06733463 365.6447087 -375.04375225 388.83122983 -381.3359375 410.89208984 C-381.60277344 411.67841797 -381.86960937 412.46474609 -382.14453125 413.27490234 C-383.98809354 420.79206331 -378.78111537 427.70430555 -375.29150391 434.05810547 C-374.09729266 436.35011233 -373.21608602 438.71464826 -372.3359375 441.14208984 C-370.62226627 445.02739617 -368.62330625 446.55214234 -364.70703125 448.11865234 C-363.92457031 448.37388672 -363.14210938 448.62912109 -362.3359375 448.89208984 C-361.48128906 449.18857422 -360.62664062 449.48505859 -359.74609375 449.79052734 C-350.99554373 452.4072899 -342.35660727 452.45880291 -333.3359375 451.89208984 C-332.20865234 451.82755615 -332.20865234 451.82755615 -331.05859375 451.76171875 C-320.08385603 450.98082395 -313.19254594 448.14434989 -304.71875 441.27490234 C-299.7373154 437.29215535 -294.35014446 433.96320464 -288.92285156 430.63143921 C-287.26422685 429.61233236 -285.61245455 428.58209902 -283.9609375 427.55151367 C-271.05641575 419.63507074 -258.97305008 413.45627663 -243.6484375 413.64208984 C-242.85332764 413.64595703 -242.05821777 413.64982422 -241.23901367 413.65380859 C-231.23180748 413.79297206 -221.2804825 414.82937877 -211.3359375 415.89208984 C-211.37074219 415.16505859 -211.40554688 414.43802734 -211.44140625 413.68896484 C-211.72807676 403.04120299 -210.20979318 393.93790429 -204.32421875 384.92724609 C-186.9826681 367.17685732 -155.1233553 361.92943294 -131.58984375 360.22021484 C-130.80909485 360.161492 -130.02834595 360.10276917 -129.22393799 360.04226685 C-125.25279644 359.74492553 -121.28286746 359.47310648 -117.30712891 359.24511719 C-115.82057836 359.14131317 -114.33408457 359.03669215 -112.84765625 358.93115234 C-112.16498184 358.90087952 -111.48230743 358.87060669 -110.77894592 358.8394165 C-107.03178179 358.5472109 -105.405422 357.95129124 -102.51000977 355.484375 C-101.79256592 354.6289209 -101.07512207 353.7734668 -100.3359375 352.89208984 C-99.57796875 352.06193359 -98.82 351.23177734 -98.0390625 350.37646484 C-97.22953125 349.47412109 -96.42 348.57177734 -95.5859375 347.64208984 C-90.08061335 341.56012877 -84.28864742 335.78081478 -78.43847656 330.03173828 C-77.74979492 329.35143555 -77.06111328 328.67113281 -76.3515625 327.97021484 C-75.44325684 327.07931152 -75.44325684 327.07931152 -74.51660156 326.17041016 C-72.64663646 324.21670278 -70.8822369 322.22240497 -69.11816406 320.17431641 C-65.20834935 315.6789582 -61.03920431 311.48608147 -56.8046875 307.29833984 C-55.61256653 306.1118988 -55.61256653 306.1118988 -54.3963623 304.90148926 C-51.03058202 301.55190412 -47.65882702 298.20835714 -44.28759766 294.86425781 C-41.81203523 292.40688045 -39.33955667 289.94642927 -36.8671875 287.48583984 C-36.11594604 286.74289673 -35.36470459 285.99995361 -34.59069824 285.23449707 C-30.48872387 281.15140353 -26.56682891 276.97807851 -22.80224609 272.58105469 C-20.27888886 269.67453032 -17.50243503 267.03869192 -14.7421875 264.36083984 C-12.81080551 262.37929209 -11.00580196 260.37379002 -9.203125 258.27880859 C21.64144758 222.78359478 58.77083229 201.80015935 102.6640625 185.89208984 C103.61764648 185.54049805 104.57123047 185.18890625 105.55371094 184.82666016 C154.99888177 166.74118465 207.63945889 161.22905919 259.6640625 155.89208984 C259.6640625 149.29208984 259.6640625 142.69208984 259.6640625 135.89208984 C235.73713398 132.4739572 214.65342344 135.21915418 191.08349609 139.91870117 C183.06578809 141.49533458 175.02379515 142.77530328 166.94165039 143.96652222 C134.67657315 148.74946541 103.06405982 157.04312621 72.6640625 168.89208984 C81.06831982 159.51106654 96.52204147 155.99467555 108.09448242 152.17651367 C117.17794858 149.07100083 121.14543125 145.27883506 125.7890625 136.89208984 C130.28424903 129.10975031 135.60658623 122.50667707 141.6640625 115.89208984 C142.39238281 115.09287109 143.12070312 114.29365234 143.87109375 113.47021484 C156.15180402 100.61989835 171.62788128 90.35960072 186.4765625 80.76708984 C187.95926636 79.8054895 187.95926636 79.8054895 189.47192383 78.82446289 C192.53305371 76.84244509 195.59789278 74.8663005 198.6640625 72.89208984 C200.0886377 71.97339111 200.0886377 71.97339111 201.54199219 71.03613281 C225.91959257 55.33811374 250.59499173 39.58836044 277.6640625 28.89208984 C275.45620535 23.66721324 271.48879268 20.68936627 266.6640625 17.89208984 C255.4149782 14.68110359 238.65153345 23.1856191 228.5390625 27.45458984 C227.60562012 27.84517578 227.60562012 27.84517578 226.65332031 28.24365234 C214.96462287 33.14517229 203.71993882 38.69380418 192.6640625 44.89208984 C191.80409668 45.37145996 190.94413086 45.85083008 190.05810547 46.34472656 C183.88833646 49.79538292 177.76675797 53.32437776 171.6640625 56.89208984 C170.35743652 57.65271729 170.35743652 57.65271729 169.02441406 58.42871094 C158.18172992 64.75863536 147.69046737 71.33013912 137.6640625 78.89208984 C136.61347656 79.67970703 135.56289063 80.46732422 134.48046875 81.27880859 C122.58985191 90.27735934 111.04992077 99.75477476 99.73632812 109.46606445 C97.43975682 111.43065096 95.18406678 113.21208699 92.6640625 114.89208984 C90.4765625 114.51708984 90.4765625 114.51708984 88.6640625 113.89208984 C88.00761815 107.91749493 90.27650657 104.24403294 92.9765625 99.14208984 C104.23546707 76.64666825 110.74922515 51.45767668 115.6640625 26.89208984 C115.88304199 25.87228027 116.10202148 24.8524707 116.32763672 23.80175781 C116.53018066 22.80934082 116.73272461 21.81692383 116.94140625 20.79443359 C117.22165649 19.45433228 117.22165649 19.45433228 117.50756836 18.0871582 C117.58503296 17.00059937 117.58503296 17.00059937 117.6640625 15.89208984 C115.76651106 13.54235167 115.76651106 13.54235167 112.5390625 13.76708984 C111.1159375 13.82896484 111.1159375 13.82896484 109.6640625 13.89208984 Z M-339.51806641 329.68969727 C-340.77756104 330.33708862 -340.77756104 330.33708862 -342.0625 330.99755859 C-343.00367676 331.48039307 -343.94485352 331.96322754 -344.91455078 332.46069336 C-345.9198584 332.9949292 -346.92516602 333.52916504 -347.9609375 334.07958984 C-348.99331543 334.62478271 -350.02569336 335.16997559 -351.08935547 335.73168945 C-375.19820125 348.72701821 -396.25781211 366.7258619 -412.3359375 388.89208984 C-413.05394531 389.87306641 -413.77195312 390.85404297 -414.51171875 391.86474609 C-417.93852528 396.00127395 -417.93852528 396.00127395 -419.3359375 400.89208984 C-418.66949219 400.84568359 -418.00304687 400.79927734 -417.31640625 400.75146484 C-404.7275604 400.25847508 -395.88537238 405.02784935 -386.3359375 412.89208984 C-385.23728002 409.14870033 -384.20291013 405.40858028 -383.29296875 401.61474609 C-376.73349841 374.58660198 -363.45214245 347.4224544 -339.08203125 332.51318359 C-337.51856218 331.60668738 -335.93057434 330.74256282 -334.3359375 329.89208984 C-337.2082735 328.58870276 -337.2082735 328.58870276 -339.51806641 329.68969727 Z M-125.3359375 372.89208984 C-126.25955078 372.97217285 -127.18316406 373.05225586 -128.13476562 373.13476562 C-148.11768921 374.9079301 -166.35731194 379.43795414 -184.5234375 387.95458984 C-185.88782959 388.58989624 -185.88782959 388.58989624 -187.27978516 389.23803711 C-193.50150178 392.1417052 -193.50150178 392.1417052 -198.3359375 396.89208984 C-198.18799748 400.59059025 -197.97788177 402.25014558 -195.3359375 404.89208984 C-193.35364501 404.75875678 -193.35364501 404.75875678 -191.09375 404.14208984 C-163.91334482 398.07390636 -135.30703209 397.27200419 -107.5859375 396.39208984 C-82.33210358 395.54994449 -58.42741272 391.96704251 -34.3984375 383.76708984 C-33.4396167 383.44272949 -32.4807959 383.11836914 -31.49291992 382.78417969 C-26.93113221 381.14865743 -23.41324252 379.83735269 -20.3359375 375.89208984 C-30.27409212 371.84321204 -39.51534914 370.58611824 -50.21875 370.62646484 C-51.33956467 370.62373566 -52.46037933 370.62100647 -53.61515808 370.61819458 C-57.23054104 370.61416772 -60.84558843 370.62672128 -64.4609375 370.64208984 C-65.69258636 370.64452698 -66.92423523 370.64696411 -68.19320679 370.6494751 C-87.31421922 370.69399144 -106.28746704 371.15179124 -125.3359375 372.89208984 Z M-21.2109375 392.24755859 C-31.0853529 395.8023087 -40.90323771 398.6931221 -51.2109375 400.70458984 C-52.17515625 400.89883545 -53.139375 401.09308105 -54.1328125 401.29321289 C-69.62446094 404.15640149 -85.2866339 405.09853182 -101.015625 404.84130859 C-102.17718109 404.82336746 -103.33873718 404.80542633 -104.53549194 404.78694153 C-109.29726324 404.70512775 -114.05789303 404.61337898 -118.81835938 404.47387695 C-132.19844815 404.10412572 -143.65614461 403.94083851 -155.7590332 410.14599609 C-168.15793458 416.19861657 -182.80181994 416.82839498 -196.3359375 417.89208984 C-196.3359375 418.55208984 -196.3359375 419.21208984 -196.3359375 419.89208984 C-192.44892775 421.92226479 -188.55295323 423.93369282 -184.64770508 425.9284668 C-183.32120845 426.6092905 -181.99727073 427.29512452 -180.67602539 427.98608398 C-178.77364167 428.97984517 -176.86270847 429.95507809 -174.94921875 430.92724609 C-173.22892456 431.81488647 -173.22892456 431.81488647 -171.47387695 432.72045898 C-168.01662792 434.01131234 -166.76333169 434.09935005 -163.3359375 432.89208984 C-161.46769459 432.03197764 -159.62620942 431.11239798 -157.80859375 430.14990234 C-125.53042017 413.6235564 -86.54763733 406.31992968 -50.3984375 411.07958984 C-49.41077393 411.20760986 -48.42311035 411.33562988 -47.40551758 411.4675293 C-39.03290911 412.63447377 -30.99527918 414.57248151 -22.87890625 416.90380859 C-19.62789864 417.98165131 -19.62789864 417.98165131 -17.3359375 417.89208984 C-15.43166642 408.76179011 -15.10770502 400.17354392 -15.3359375 390.89208984 C-17.62524496 390.89208984 -19.06503149 391.45045866 -21.2109375 392.24755859 Z M-491.3359375 410.89208984 C-495.29136743 425.86621744 -490.90131842 441.72981341 -483.39453125 454.80615234 C-478.62205002 461.96034621 -473.43318514 468.55019468 -465.3359375 471.89208984 C-461.7776539 471.82092417 -459.96962961 471.34975637 -457.0859375 469.26708984 C-451.64599172 461.88430629 -452.18159058 450.65577142 -453.3359375 441.89208984 C-456.43262804 428.2484802 -461.57028244 414.98677841 -473.67578125 407.15380859 C-480.53973131 403.89821994 -486.84705053 404.37596359 -491.3359375 410.89208984 Z M-419.7734375 415.51708984 C-425.45188235 424.14832601 -424.94806116 435.59552065 -423.1875 445.40771484 C-419.82790192 459.15432719 -414.13555712 475.46379011 -402.3359375 483.89208984 C-400.79366002 480.80753488 -402.15775336 478.78635395 -403.2109375 475.57958984 C-405.74365045 467.81319385 -406.5300412 461.20874265 -406.5234375 453.07958984 C-406.52263184 452.05945801 -406.52182617 451.03932617 -406.52099609 449.98828125 C-406.43977772 439.85190978 -406.30198502 429.34701326 -402.3359375 419.89208984 C-402.2405844 417.6885895 -402.2405844 417.6885895 -403.3359375 415.89208984 C-408.10119871 412.91380159 -415.06441651 412.37774251 -419.7734375 415.51708984 Z M-267.5859375 430.51708984 C-268.39716064 430.95005371 -269.20838379 431.38301758 -270.04418945 431.82910156 C-277.39181896 435.80668961 -284.41509547 440.2179812 -291.3359375 444.89208984 C-288.01067292 446.00051137 -286.11001915 445.57041055 -282.7409668 444.91162109 C-258.9178499 440.3844792 -233.58820105 441.19999651 -210.3359375 447.89208984 C-208.57608167 448.35646009 -206.81566278 448.8187017 -205.0546875 449.27880859 C-194.85481192 452.03943958 -185.62369578 455.75451841 -176.35400391 460.80371094 C-174.2005104 461.96512807 -172.02747636 463.08170931 -169.84765625 464.19287109 C-150.29378239 474.21586129 -150.29378239 474.21586129 -145.3359375 482.89208984 C-144.20471553 479.49842394 -144.36678414 479.18096425 -145.8125 476.12646484 C-146.15410156 475.40072266 -146.49570312 474.67498047 -146.84765625 473.92724609 C-147.21503906 473.17314453 -147.58242188 472.41904297 -147.9609375 471.64208984 C-148.30511719 470.90345703 -148.64929688 470.16482422 -149.00390625 469.40380859 C-153.74745697 459.39103996 -153.74745697 459.39103996 -162.5234375 453.20458984 C-168.08556883 450.64532696 -173.02546986 447.58426548 -178.0859375 444.14208984 C-179.63136639 443.09500223 -181.17693997 442.04812816 -182.72265625 441.00146484 C-183.87193604 440.22319336 -183.87193604 440.22319336 -185.04443359 439.42919922 C-200.04371497 429.3678871 -211.3817801 422.70111651 -229.76025391 422.65185547 C-231.93301628 422.64221375 -234.10480565 422.61119758 -236.27734375 422.57958984 C-248.18534701 422.4849814 -257.13062162 424.84175499 -267.5859375 430.51708984 Z M-81.86083984 425.04150391 C-106.95896962 426.57374626 -132.54047743 431.96131607 -155.3359375 442.89208984 C-153.27281436 446.5562486 -150.97721574 449.59757112 -148.1484375 452.70458984 C-147.43300781 453.49478516 -146.71757812 454.28498047 -145.98046875 455.09912109 C-145.43777344 455.69080078 -144.89507812 456.28248047 -144.3359375 456.89208984 C-143.49933594 456.38419922 -142.66273438 455.87630859 -141.80078125 455.35302734 C-120.64237408 442.74042638 -98.16239511 436.82448805 -73.5234375 436.64208984 C-72.66403564 436.63274414 -71.80463379 436.62339844 -70.91918945 436.61376953 C-56.56279609 436.685517 -44.05561659 441.16847896 -33.25 450.73974609 C-29.40825426 454.68341571 -27.25632375 458.01918539 -27.07421875 463.60693359 C-28.07205013 472.31934187 -34.07337819 480.49568259 -40.77734375 485.83740234 C-59.90973037 498.70372348 -81.39858972 500.27480339 -103.5234375 496.14208984 C-104.37139893 495.98530762 -105.21936035 495.82852539 -106.09301758 495.66699219 C-113.33595054 494.17565292 -120.76057221 491.91602516 -126.2734375 486.76708984 C-126.81871094 486.26951172 -127.36398437 485.77193359 -127.92578125 485.25927734 C-129.07269991 484.14730634 -130.20635751 483.02166984 -131.3359375 481.89208984 C-132.33629718 489.82232157 -132.33629718 489.82232157 -129.94140625 497.17333984 C-118.77927936 507.53979577 -101.68501495 508.11061778 -87.28588867 508.95239258 C-85.16814576 509.07841703 -83.05208039 509.22192646 -80.93554688 509.36669922 C-58.15665063 510.81830607 -37.45936469 507.3006967 -19.04296875 492.52880859 C-10.38352436 484.22604613 -6.99877168 472.10470974 -6.30078125 460.39208984 C-6.41718143 452.11474369 -9.93731578 446.3014825 -15.5234375 440.39208984 C-22.97100034 433.29092527 -28.87824884 430.31265614 -39.12988281 429.18115234 C-41.77612251 428.83441177 -44.38956944 428.36814326 -47.015625 427.89208984 C-58.8518508 425.74719503 -69.81793507 424.32885087 -81.86083984 425.04150391 Z M-390.3359375 430.89208984 C-395.03448357 444.98772804 -393.64601668 463.03871856 -387.1796875 476.25537109 C-386.29244885 477.83655711 -385.32529904 479.3727132 -384.3359375 480.89208984 C-378.04091571 473.22858505 -379.47837483 461.28257902 -380.3359375 451.89208984 C-381.2772345 447.24963864 -383.18079696 443.09247707 -385.3359375 438.89208984 C-385.73941406 438.04646484 -386.14289063 437.20083984 -386.55859375 436.32958984 C-387.44581549 434.49790626 -388.38367079 432.69081586 -389.3359375 430.89208984 C-389.6659375 430.89208984 -389.9959375 430.89208984 -390.3359375 430.89208984 Z M-141.3359375 457.89208984 C-141.6659375 458.55208984 -141.9959375 459.21208984 -142.3359375 459.89208984 C-141.25919048 462.17467617 -140.14047634 464.32773324 -138.8984375 466.51708984 C-138.39086914 467.43361328 -138.39086914 467.43361328 -137.87304688 468.36865234 C-137.03447558 469.88044284 -136.18611173 471.38679383 -135.3359375 472.89208984 C-135.04460937 472.28365234 -134.75328125 471.67521484 -134.453125 471.04833984 C-131.70796667 465.7499923 -128.45876318 463.69237897 -122.9609375 461.70458984 C-106.38706901 456.70001097 -87.29807425 456.08090239 -70.3359375 459.89208984 C-69.8409375 460.88208984 -69.8409375 460.88208984 -69.3359375 461.89208984 C-70.64820313 462.00939453 -71.96046875 462.12669922 -73.3125 462.24755859 C-80.08000321 462.92764383 -86.80386033 463.8862668 -93.53027344 464.8840332 C-94.9797794 465.09710993 -96.4299863 465.30547349 -97.88085938 465.5090332 C-106.89521514 466.77451007 -115.97977906 468.07848339 -124.3359375 471.89208984 C-124.6659375 472.55208984 -124.9959375 473.21208984 -125.3359375 473.89208984 C-120.24892223 481.35304557 -113.4896265 483.43526891 -104.8359375 485.07958984 C-102.67331655 485.38102934 -100.50583922 485.64852945 -98.3359375 485.89208984 C-97.3454541 486.01076416 -97.3454541 486.01076416 -96.33496094 486.13183594 C-77.83504323 488.2208097 -60.88714909 484.69874107 -45.5078125 473.90771484 C-41.89142707 470.97366628 -39.6826468 468.63884833 -37.7109375 464.39208984 C-38.73857201 458.63733656 -42.70838007 456.13411016 -47.3359375 452.89208984 C-72.6938817 436.48151391 -116.20232047 443.92896927 -141.3359375 457.89208984 Z M-369.3359375 450.89208984 C-369.31273437 451.66810547 -369.28953125 452.44412109 -369.265625 453.24365234 C-369.04942564 466.18472842 -370.23274794 477.3508019 -376.3359375 488.89208984 C-377.00441024 490.22451861 -377.67173199 491.55752877 -378.3359375 492.89208984 C-373.85646117 497.37156617 -359.85080786 496.11750896 -353.6484375 496.14208984 C-342.17054739 496.18635797 -342.17054739 496.18635797 -331.3359375 492.89208984 C-330.96097733 490.61257006 -330.68760009 488.31609607 -330.4609375 486.01708984 C-329.31955143 476.04004677 -325.86313867 467.78490508 -321.3359375 458.89208984 C-322.36980591 458.92351074 -322.36980591 458.92351074 -323.42456055 458.95556641 C-348.39141104 459.61450942 -348.39141104 459.61450942 -359.3359375 454.89208984 C-360.32335937 454.51052734 -361.31078125 454.12896484 -362.328125 453.73583984 C-364.68121215 452.82328527 -367.01287413 451.87794969 -369.3359375 450.89208984 Z M-310.2109375 469.45458984 C-314.44923417 473.72359881 -316.77973416 477.53282456 -316.8984375 483.64208984 C-316.60247302 492.93326064 -314.69988954 503.54901795 -307.88671875 510.32958984 C-305.18408509 512.06158471 -302.46697294 513.51377865 -299.55078125 514.85205078 C-296.97626846 516.06098205 -294.47437289 517.38119301 -291.9609375 518.71240234 C-254.48463398 538.70496739 -254.48463398 538.70496739 -213.4453125 539.90380859 C-203.99564129 536.82910402 -195.72193039 532.26893116 -190.5234375 523.57958984 C-186.9285552 516.49660392 -184.87385206 508.67705764 -187.3359375 500.89208984 C-191.49939048 495.27950896 -197.13406258 491.91471554 -203.2734375 488.82958984 C-204.10029053 488.40548828 -204.92714355 487.98138672 -205.77905273 487.54443359 C-223.89994378 478.43626041 -243.00294342 472.03784865 -263.33203125 477.76318359 C-268.77935277 479.81035644 -276.16344741 482.71959975 -280.3359375 486.89208984 C-280.39805357 492.7931169 -279.4964389 497.53807675 -275.3359375 501.89208984 C-261.05264373 510.7084043 -247.14875448 512.0491852 -230.75976562 511.85302734 C-224.21222447 511.8054377 -217.83460763 512.07577014 -211.3359375 512.89208984 C-212.53266794 516.48228117 -213.2445957 516.79279691 -216.484375 518.54443359 C-223.19826743 521.72011664 -229.6503401 521.60739106 -236.9609375 521.45458984 C-237.62379761 521.44688568 -238.28665771 521.43918152 -238.96960449 521.4312439 C-253.94367817 521.24792203 -269.51725367 519.58498425 -281.2734375 509.32958984 C-281.9540625 508.52521484 -282.6346875 507.72083984 -283.3359375 506.89208984 C-283.8721875 506.31458984 -284.4084375 505.73708984 -284.9609375 505.14208984 C-289.15725988 498.27538049 -290.65500329 490.65093806 -288.85546875 482.79443359 C-286.63109501 476.93428145 -282.23925817 474.27993886 -276.85546875 471.43505859 C-259.90624413 464.00448842 -239.6108657 463.14157002 -222.21533203 469.69042969 C-187.43755187 483.61210563 -187.43755187 483.61210563 -181.3359375 496.89208984 C-178.02055918 505.6326327 -181.43247687 515.9560389 -185.0234375 524.07958984 C-189.37781008 532.06806284 -195.60971198 536.53285078 -203.91796875 539.88427734 C-206.52733922 540.88109724 -206.52733922 540.88109724 -209.3359375 542.89208984 C-195.92596504 542.5450082 -184.11940439 536.97393579 -172.2109375 531.32958984 C-171.21489502 530.85859863 -170.21885254 530.38760742 -169.19262695 529.90234375 C-160.75258884 525.80928853 -156.07234781 522.50659138 -152.3359375 513.89208984 C-151.94921875 513.09158203 -151.5625 512.29107422 -151.1640625 511.46630859 C-148.53056029 505.66719243 -147.42892045 501.08428638 -149.3359375 494.89208984 C-154.17508826 483.80753939 -164.37678652 478.37012163 -174.8359375 473.45458984 C-176.01704102 472.89400879 -177.19814453 472.33342773 -178.41503906 471.75585938 C-213.63051357 455.29318253 -278.23098832 438.99749539 -310.2109375 469.45458984 Z " fill="#F1C643" transform="translate(501.3359375,8.10791015625)"/>
<path d="M0 0 C-1.3292892 3.9878676 -2.62199956 6.45076364 -6 9 C-9.13857867 9.75549739 -12.28379637 9.9313666 -15.5 10.125 C-17.19803067 10.25107811 -18.89594212 10.37876898 -20.59375 10.5078125 C-21.58511963 10.57846924 -22.57648926 10.64912598 -23.59790039 10.72192383 C-26.72342001 10.97739328 -29.83571283 11.30256162 -32.95277405 11.64414978 C-49.72958785 13.45119531 -66.58667669 14.34397909 -83.42364502 15.39685059 C-86.93789329 15.61745125 -90.45191629 15.84152349 -93.96593571 16.06573582 C-98.23892056 16.33819496 -102.51203322 16.60862446 -106.78515625 16.87890625 C-107.56791491 16.92857607 -108.35067356 16.97824589 -109.15715218 17.02942085 C-120.76767917 17.7642408 -132.38136353 18.40736215 -144 19 C-144 18.34 -144 17.68 -144 17 C-126.03176146 13.88904926 -108.02688426 11.61797471 -89.89519882 9.71902084 C-87.78279213 9.49687586 -85.67072961 9.27169601 -83.55874634 9.04556274 C-62.86488452 6.83081162 -42.16000873 4.83351052 -21.4074707 3.2421875 C-20.51702057 3.17107254 -19.62657043 3.09995758 -18.70913696 3.02668762 C-17.07563917 2.89653785 -15.4415932 2.77300676 -13.80697632 2.65776062 C-8.78717572 2.2523002 -4.9100145 0 0 0 Z " fill="#F1C644" transform="translate(457,385)"/>
<path d="M0 0 C0.66 0 1.32 0 2 0 C1.67 0.66 1.34 1.32 1 2 C0.67 1.34 0.34 0.68 0 0 Z " fill="#EEC946" transform="translate(467,439)"/>
<path d="" fill="#EECC44" transform="translate(0,0)"/>
</svg>
