<?xml version="1.0" encoding="UTF-8"?>
<svg version="1.1" xmlns="http://www.w3.org/2000/svg" width="768" height="540">
<path d="M0 0 C1.99406545 -0.08818499 1.99406545 -0.08818499 4.13232422 -0.42260742 C8.73115487 -1.00055023 13.25110324 -1.19323718 17.8828125 -1.23828125 C18.70014862 -1.246353 19.51748474 -1.25442474 20.35958862 -1.26274109 C22.07889761 -1.27647123 23.79823258 -1.28724202 25.51757812 -1.29516602 C27.24520073 -1.30665115 28.97278883 -1.32704776 30.70019531 -1.35668945 C42.21641677 -1.55346338 52.02483542 -0.61813907 63 3 C64.42516633 3.43820284 65.85082836 3.87480274 67.27734375 4.30859375 C68.48519531 4.68113281 69.69304687 5.05367188 70.9375 5.4375 C91.51588749 11.31047949 113.1224284 13.20126078 134.38549805 14.77050781 C254.2954579 23.69692322 254.2954579 23.69692322 279.0390625 39.78515625 C280.96142125 40.97609962 282.89702122 41.96565141 284.9375 42.9375 C288.71546028 44.77502932 292.11275314 46.98987564 295.57421875 49.36328125 C299.058242 51.71401513 302.6430582 53.89845007 306.2265625 56.09375 C313.12817775 60.83739541 317.86161035 66.03296085 322.5 73 C323.34582642 74.26021973 323.34582642 74.26021973 324.20874023 75.54589844 C333.48877032 89.59236173 342.00177557 105.57470772 340 123 C339.67 123.66 339.34 124.32 339 125 C338.88425603 126.33015975 338.82153844 127.66520903 338.7890625 129 C338.2407328 145.84713283 338.2407328 145.84713283 335 154 C334.41605469 155.68416016 334.41605469 155.68416016 333.8203125 157.40234375 C328.21607914 173.07694072 314.42774807 197.28612596 299 205 C299.73971936 208.38083607 299.73971936 208.38083607 303.5 209.8125 C311.39790306 214.53701138 316.62893962 224.36475655 319 233.0625 C320.24025502 239.33036597 320.74368565 245.62320969 321 252 C321.07927734 253.44826172 321.07927734 253.44826172 321.16015625 254.92578125 C321.87425581 277.87011059 312.56586063 300.75349775 298.2578125 318.34570312 C296.18148383 321.0765267 294.57381108 324.0203393 292.875 327 C289.30849377 332.89404543 285.63513875 336.17160771 280 340 C277.23239651 342.01822383 274.49245999 344.07281272 271.75 346.125 C271.06421875 346.62845947 270.3784375 347.13191895 269.671875 347.65063477 C266.70474511 349.84954169 264.00512792 351.99485673 261.390625 354.6171875 C256.77169995 359.22101803 252.03779783 361.48404144 245.96899414 363.53564453 C232.80588132 367.99905733 220.47880842 373.93191447 208.0625 380.125 C207.18619934 380.5578833 206.30989868 380.9907666 205.40704346 381.43676758 C188.69284277 389.71621388 177.47445104 397.99651055 167.14453125 413.73828125 C159.81385611 424.88785091 151.90635933 434.79423571 142.58642578 444.36669922 C141.21947319 445.77404192 139.8715182 447.19979187 138.52734375 448.62890625 C127.77969402 459.84469317 114.96563219 467.129072 101.51123047 474.59375 C99.32524995 475.81786509 97.16043804 477.06875661 95.00390625 478.34375 C78.93248948 487.78832321 61.77545305 496.34746326 43.68359375 501.03515625 C41.00478866 501.7368157 38.55827562 502.51117344 35.97265625 503.453125 C30.1431225 505.43342188 24.12937132 506.30807125 18.07327271 507.33111572 C-3.69161683 511.0723816 -23.64269835 515.61052906 -41.22216797 529.62402344 C-43.85732567 531.66353852 -46.61434212 533.4171068 -49.4375 535.1875 C-50.28183594 535.71730469 -51.12617188 536.24710938 -51.99609375 536.79296875 C-58.06199266 540.44669734 -65.2663264 539.65777013 -72.08203125 538.45703125 C-94.74249256 532.26103862 -112.47203921 517.47533725 -127.359375 499.9140625 C-128.52839235 498.55020893 -129.73026711 497.21423259 -130.953125 495.8984375 C-136.10072956 490.33823868 -140.26384575 484.59273872 -144 478 C-144.35690918 477.38624512 -144.71381836 476.77249023 -145.08154297 476.14013672 C-156.4713934 456.16250591 -152.12977507 436.80800408 -146.28710938 415.38623047 C-144.7585447 410.16573996 -142.96196703 405.07190624 -141 400 C-140.73461426 399.30052246 -140.46922852 398.60104492 -140.19580078 397.88037109 C-136.4212435 388.09088869 -131.73582332 380.13296711 -125 372 C-124.26652344 371.07703125 -123.53304688 370.1540625 -122.77734375 369.203125 C-114.98879474 359.47774105 -107.1609968 350.28978451 -97 343 C-96.22785156 342.4121875 -95.45570313 341.824375 -94.66015625 341.21875 C-79.1630462 329.5660694 -62.54975295 319.85981246 -44.70117188 312.31567383 C-38.45817338 309.67502642 -32.9087596 306.84031662 -27.4765625 302.734375 C-24.66325983 300.76417565 -21.75710985 299.28846795 -18.6875 297.75 C-11.18130648 293.81987038 -5.2625574 288.62216308 1 283 C2.45730587 281.74880228 3.91547629 280.49860988 5.375 279.25 C13.51541391 272.0652741 20.54428789 264.04480139 27.375 255.625 C31.07624934 251.07397402 34.91694941 246.68718967 38.8671875 242.3515625 C40.85917559 240.15526793 42.81007312 237.92975315 44.75 235.6875 C50.00159228 229.69253164 55.65159695 224.79933738 62 220 C60.79988281 219.91363281 59.59976562 219.82726562 58.36328125 219.73828125 C45.54616016 218.69744173 33.42041884 216.29529002 21 213 C20.71382813 214.04285156 20.42765625 215.08570313 20.1328125 216.16015625 C18.56039013 221.64711171 16.31314414 226.78803073 14 232 C13.72945801 232.63180176 13.45891602 233.26360352 13.18017578 233.91455078 C8.51466735 244.69348406 2.89083772 252.34607353 -6 260 C-6.91007812 260.78761719 -7.82015625 261.57523437 -8.7578125 262.38671875 C-11.4644786 264.64753461 -14.22095519 266.82899304 -17 269 C-17.86753906 269.70769531 -18.73507812 270.41539062 -19.62890625 271.14453125 C-30.54196232 279.86012841 -42.34312537 287.36954539 -54.00634766 295.02978516 C-56.33884625 296.56487435 -58.66312767 298.1102041 -60.98046875 299.66796875 C-68.31664549 304.52533795 -75.9233796 308.7522365 -83.625 313 C-92.32816021 317.81683137 -100.3220253 322.65640435 -108 329 C-109.34792434 330.0433895 -110.6983893 331.0835015 -112.05078125 332.12109375 C-121.56277173 339.44613807 -121.56277173 339.44613807 -128.73828125 348.95703125 C-132.33831128 354.78618204 -138.03257408 359.0780295 -143.3125 363.3125 C-150.0423365 368.72073908 -156.65264338 374.66258015 -161.94140625 381.515625 C-164 384 -164 384 -166.94140625 386.4296875 C-170.11748649 389.09873066 -172.43495134 391.82342041 -174.9375 395.125 C-175.36716064 395.68904541 -175.79682129 396.25309082 -176.23950195 396.83422852 C-179.51781499 401.19735401 -182.42065931 405.72821179 -185.13671875 410.46484375 C-190.30943868 417.50277925 -197.40567782 421.06994855 -205.125 424.8125 C-206.17381348 425.32876953 -207.22262695 425.84503906 -208.30322266 426.37695312 C-223.14570709 433.60716231 -238.48155094 440.59360801 -254.1875 445.75 C-267.44495951 450.58617185 -278.28950205 457.98437727 -289 467 C-289.54897949 467.45810059 -290.09795898 467.91620117 -290.66357422 468.38818359 C-295.03069764 472.03458258 -299.36074682 475.72366344 -303.66894531 479.43945312 C-328.51584855 500.86864536 -328.51584855 500.86864536 -343.9375 500.38671875 C-362.94115899 498.88667893 -388.67966636 494.08987457 -402.11328125 479.5390625 C-405.80722242 474.56792014 -408.35606677 469.10226882 -410.87890625 463.47705078 C-411.66494616 461.74029971 -412.47146349 460.01273979 -413.29296875 458.29248047 C-419.55412162 445.16244822 -422.98848331 433.82019983 -423.640625 419.28515625 C-423.87128396 414.58589775 -424.79215197 410.48842817 -426.125 406 C-431.4893439 386.35934233 -429.30675749 363.74447276 -422 345 C-421.7220459 344.2570166 -421.4440918 343.5140332 -421.15771484 342.74853516 C-415.65794107 328.24678836 -406.85159621 317.56286806 -396.33203125 306.42919922 C-394.64750451 304.62179095 -393.03828917 302.75669688 -391.4375 300.875 C-382.58508007 290.75493044 -372.9847588 282.65857514 -362.21728516 274.67041016 C-360.03576772 273.02694591 -357.89506355 271.34210676 -355.76171875 269.63671875 C-347.29130708 262.90312054 -338.7069243 257.36763226 -329.16796875 252.26953125 C-310.8827357 242.46067638 -296.62342109 229.18597815 -285.11645508 212.06665039 C-268.80165925 187.80916293 -248.94131405 169.56329329 -222.32617188 157.11767578 C-219.61264089 155.81388224 -216.94034491 154.44024005 -214.265625 153.05859375 C-213.24170654 152.53338135 -212.21778809 152.00816895 -211.1628418 151.46704102 C-209.17641667 150.44700178 -207.19318332 149.42070808 -205.21411133 148.38647461 C-190.98014967 141.15250397 -176.19396036 137.01959751 -160.625 133.8125 C-158.99641054 133.4685253 -157.3679118 133.12412087 -155.73950195 132.77929688 C-144.88061569 130.50020328 -134.00471854 128.44521611 -123 127 C-123.40089844 126.4121875 -123.80179687 125.824375 -124.21484375 125.21875 C-133.46201607 110.62457328 -139.20571491 94.10745396 -141.10595703 76.97998047 C-141.71485687 71.5252969 -142.82426279 67.00994909 -145.13671875 61.9921875 C-147.21378261 57.19896321 -147.38207094 53.22664881 -145.8125 48.1875 C-143.48025398 44.0859639 -141.60632581 42.50986091 -137.10253906 41.08032227 C-136.00135742 40.82822998 -134.90017578 40.5761377 -133.765625 40.31640625 C-132.55132812 40.02830078 -131.33703125 39.74019531 -130.0859375 39.44335938 C-127.54434023 38.85972375 -125.00267439 38.27638665 -122.4609375 37.69335938 C-111.82536382 35.1693781 -104.33710038 31.51091449 -95.5625 25.125 C-92.71552174 23.0730765 -89.86001126 21.03370704 -87 19 C-86.28086426 18.475271 -85.56172852 17.95054199 -84.82080078 17.40991211 C-79.3891134 13.57947707 -74.07829612 11.28245251 -67.75 9.3125 C-66.89792969 9.03083984 -66.04585938 8.74917969 -65.16796875 8.45898438 C-53.0697935 4.55547477 -41.15227455 2.47956365 -28.5 1.375 C-25.86421008 1.13665729 -23.22899227 0.89283497 -20.59375 0.6484375 C-19.44583984 0.54708496 -18.29792969 0.44573242 -17.11523438 0.34130859 C-3.46325351 -1.15441784 -3.46325351 -1.15441784 0 0 Z M-8.64526367 12.15087891 C-16.17010112 13.47251683 -23.48366954 14.36315564 -31.125 14.5 C-41.8295379 14.73818174 -51.74936983 17.00894805 -62 20 C-63.82144531 20.52207031 -63.82144531 20.52207031 -65.6796875 21.0546875 C-73.64510288 23.72280952 -79.70769912 28.16820086 -86.296875 33.2109375 C-99.82182679 43.52741533 -113.69853114 48.15473508 -130 52 C-129.34 53.65 -128.68 55.3 -128 57 C-127.1028125 56.6596875 -127.1028125 56.6596875 -126.1875 56.3125 C-125.1046875 56.1578125 -125.1046875 56.1578125 -124 56 C-122.25 57.4375 -122.25 57.4375 -121 59 C-121.474375 59.928125 -121.94875 60.85625 -122.4375 61.8125 C-123.34008255 64.83553333 -123.0491098 65.89553271 -121.6796875 68.80859375 C-117.57896927 75.93760181 -117.57896927 75.93760181 -111.21484375 80.66796875 C-108.33041724 81.10037837 -105.47676485 81.1967233 -102.5625 81.3125 C-97.60490292 81.61249818 -93.6259799 82.35140296 -89 84.125 C-62.99756112 92.55316146 -31.60651168 77.8616906 -7.51464844 68.92626953 C11.91733553 61.76850767 33.36281671 59.36443294 54 59 C54.76715332 58.98485352 55.53430664 58.96970703 56.32470703 58.95410156 C91.23966543 58.37111916 91.23966543 58.37111916 102.625 65.0625 C116.46527119 73.00784087 135.33277963 72.44549637 150.80273438 72.28125 C153.73320546 72.25017807 156.66313032 72.24025978 159.59375 72.234375 C172.74795314 72.17994381 185.86521701 71.69892219 199 71 C197.70462193 68.45711981 197.70462193 68.45711981 196 66 C193.08365871 65.7497843 193.08365871 65.7497843 190 66 C187.125 65 187.125 65 185 64 C187.06655495 58.83361262 190.69801199 57.16200317 195.5078125 54.9453125 C201.10288761 52.82304263 205.54292859 54.25373715 211 56 C210.76008945 63.0773613 210.76008945 63.0773613 208.703125 65.57421875 C206.27073821 67.57913163 203.62090102 69.25273265 201 71 C209.88356585 71.31307721 218.50364727 69.97238845 227.26904297 68.70898438 C249.64086093 65.51067925 249.64086093 65.51067925 258 68 C256.14223387 70.45261941 255.05772147 70.98697492 252.00415039 71.67602539 C250.79750732 71.81516357 249.59086426 71.95430176 248.34765625 72.09765625 C247.69228378 72.17745224 247.03691132 72.25724823 246.36167908 72.33946228 C244.2631876 72.59266226 242.16318147 72.82823312 240.0625 73.0625 C237.99450757 73.30383464 235.92700907 73.5489149 233.85972595 73.79624939 C231.96070481 74.02173322 230.06057807 74.23784876 228.16040039 74.45336914 C225.91923402 74.71870954 223.73447255 75.05286632 221.5199585 75.49377441 C211.89808493 77.36844048 202.39586748 77.32797683 192.6328125 77.3359375 C190.74884955 77.3423884 188.86488754 77.34911832 186.98092651 77.35610962 C183.03560071 77.36803734 179.09036207 77.37179598 175.14501953 77.37060547 C171.16371233 77.37044421 167.18287155 77.38413041 163.20166016 77.41162109 C99.89933835 77.84208716 99.89933835 77.84208716 90 70 C80.00715249 68.18265368 69.30698488 68.92986326 59.1875 69.25 C58.42908813 69.27266937 57.67067627 69.29533875 56.88928223 69.31869507 C31.38898885 70.11403432 9.02622304 73.72352054 -14.7043457 83.13256836 C-26.23056478 87.63078816 -38.02742639 90.92222556 -50 94 C-49.67 94.66 -49.34 95.32 -49 96 C-47.14805243 96.63459337 -47.14805243 96.63459337 -44.87646484 97.03857422 C-44.00236969 97.2208255 -43.12827454 97.40307678 -42.22769165 97.59085083 C-40.79627335 97.88232498 -40.79627335 97.88232498 -39.3359375 98.1796875 C-27.48599381 100.73261051 -16.10993231 104.28258493 -4.625 108.125 C-2.72164645 108.75218978 -0.81800089 109.3784941 1.0859375 110.00390625 C14.84330271 114.5413164 14.84330271 114.5413164 20.24560547 116.60351562 C30.52198817 120.49842759 41.42172538 122.06621837 52.25 123.625 C53.000466 123.7346106 53.75093201 123.84422119 54.5241394 123.95715332 C69.62908213 126.12873893 84.5475932 126.72372452 99.79345703 126.90039062 C102.58224787 126.98702278 105.26279219 127.22532305 108.02734375 127.578125 C113.03272721 128.1446289 117.8013611 127.69772974 122.80859375 127.27978516 C158.842745 124.59347124 212.34082735 121.29703541 244 142 C243.67 143.65 243.34 145.3 243 147 C238.32708238 148.48560965 234.88031384 147.27145972 230.4375 145.6875 C217.28377882 141.03799735 203.36340756 140.17045103 189.5625 138.875 C188.61579437 138.78562164 187.66908875 138.69624329 186.69369507 138.60415649 C166.19417117 136.70042406 145.93498436 136.2198176 125.3828125 137.7734375 C112.46399074 138.63867037 112.46399074 138.63867037 106.29077148 137.50048828 C102.64324048 136.945741 99.16996642 136.87300363 95.48046875 136.859375 C93.98460271 136.84522965 92.48875217 136.82936674 90.99291992 136.81201172 C89.81879044 136.79844635 89.81879044 136.79844635 88.62094116 136.78460693 C62.20753721 136.40897142 36.93796876 133.14060947 11.73608398 124.88696289 C8.7373473 123.91485525 5.72409298 122.99951464 2.70703125 122.0859375 C-3.03602999 120.32634871 -8.71174847 118.40398108 -14.39013672 116.44726562 C-29.17327352 111.37606593 -43.97291341 107.22882121 -59.19824219 103.66015625 C-62.80834359 102.80953633 -66.40441941 101.90983061 -70 101 C-69.23503676 108.26715081 -65.40492418 112.41087531 -61 118 C-60.3503125 118.94488281 -59.700625 119.88976562 -59.03125 120.86328125 C-55.87315798 125.05989968 -53.68188937 127.62972644 -48.43359375 128.78515625 C-46.41388124 128.9931381 -44.39964381 129.12720682 -42.37280273 129.24536133 C-33.901233 129.86306969 -27.21560468 133.77623141 -20 138 C-19.15953125 138.474375 -18.3190625 138.94875 -17.453125 139.4375 C-12.55951255 142.43796311 -8.36186638 146.21684558 -4.125 150.0625 C-3.56466064 150.56942383 -3.00432129 151.07634766 -2.42700195 151.59863281 C0.07290961 153.93102257 1.91195042 155.84780001 3.640625 158.8359375 C4.08921875 159.55007812 4.5378125 160.26421875 5 161 C7.00175862 161.29057786 9.00890827 161.571249 11.02734375 161.703125 C14.06052405 162.15960362 15.70058366 164.03708361 18 166 C26.02793826 170.81357678 35.55561968 172.05638167 44.625 173.6875 C45.88957031 173.91919891 45.88957031 173.91919891 47.1796875 174.15557861 C64.31123036 177.2371181 81.20338034 177.92621429 98.57455444 177.93019104 C105.74372599 177.9512104 112.85541834 178.42174201 120 179 C120.33 180.32 120.66 181.64 121 183 C64.68522628 184.37247921 64.68522628 184.37247921 40.1875 179.875 C39.38908691 179.73319305 38.59067383 179.59138611 37.76806641 179.44528198 C27.73227055 177.61168852 19.07920772 174.76873681 10 170 C12.24103883 176.89386229 14.67401666 183.68568879 17.3125 190.4375 C17.67794922 191.42943359 18.04339844 192.42136719 18.41992188 193.44335938 C20.47215894 199.041133 20.47215894 199.041133 24.97265625 202.59375 C25.97167969 202.7278125 26.97070312 202.861875 28 203 C28.86882812 203.19722656 29.73765625 203.39445313 30.6328125 203.59765625 C31.45523438 203.75105469 32.27765625 203.90445313 33.125 204.0625 C36.11162038 204.62539886 39.05841404 205.23410319 42 206 C41.67 204.68 41.34 203.36 41 202 C38.03 201.34 35.06 200.68 32 200 C32.66 197.03 33.32 194.06 34 191 C40.95708517 189.84048581 47.96744152 189.45843308 55 189 C55.4021875 189.9590625 55.4021875 189.9590625 55.8125 190.9375 C56.88667752 193.33131686 56.88667752 193.33131686 60 194 C60 195.32 60 196.64 60 198 C57.525 198.99 57.525 198.99 55 200 C55.99 200.33 56.98 200.66 58 201 C56.9375 203 56.9375 203 55 205 C51.4375 205.125 51.4375 205.125 48 205 C47.34 205.66 46.68 206.32 46 207 C53.37631916 207.97777295 60.62604321 208.18325302 68.0625 208.1875 C69.19494141 208.19974609 70.32738281 208.21199219 71.49414062 208.22460938 C80.72239414 208.24073329 87.60018052 206.90616337 96 202.875 C96.64026123 202.57078125 97.28052246 202.2665625 97.94018555 201.953125 C101.28406775 200.35371798 104.59818556 198.70288626 107.89453125 197.0078125 C134.71825784 183.23736115 134.71825784 183.23736115 146.19995117 182.70117188 C147.019095 182.66173462 147.83823883 182.62229736 148.6822052 182.58166504 C149.56438217 182.54440308 150.44655914 182.50714111 151.35546875 182.46875 C152.28489792 182.42794312 153.21432709 182.38713623 154.17192078 182.34509277 C182.04786505 181.17286354 209.40288341 181.07569751 237.0625 185.1875 C238.06334625 185.33348633 239.0641925 185.47947266 240.09536743 185.62988281 C254.79525446 187.82107224 268.28899937 191.16441726 281.8515625 197.3984375 C284.673944 198.18870432 286.21729477 197.91620463 289 197 C297.43891914 191.54257303 304.02485702 183.98640199 310 176 C310.55437744 175.26692627 311.10875488 174.53385254 311.67993164 173.77856445 C316.02397818 167.83577741 319.2096139 161.88933148 321.9375 155.0625 C322.33517578 154.16982422 322.73285156 153.27714844 323.14257812 152.35742188 C326.88530947 143.04890761 326.37703601 133.85256326 326 124 C325.36932114 123.98969254 324.73864227 123.97938507 324.08885193 123.96876526 C317.45246344 123.8595625 310.81618024 123.74507562 304.17993164 123.62768555 C301.71185536 123.58469668 299.24375617 123.54300088 296.77563477 123.50268555 C270.47339801 123.07132673 270.47339801 123.07132673 258 122 C257.67 120.68 257.34 119.36 257 118 C272.78962734 117.19862086 288.56838884 116.73226478 304.375 116.4375 C306.58724466 116.39413858 308.7994843 116.35051993 311.01171875 116.30664062 C316.34109186 116.20147809 321.67051697 116.09942812 327 116 C324.42207766 102.85173022 324.42207766 102.85173022 318.9375 90.75 C318.55247314 90.10216553 318.16744629 89.45433105 317.77075195 88.78686523 C308.42349298 73.5586458 296.18561795 63.50366722 280.53515625 54.97265625 C278.21287428 53.70302402 276.03871376 52.37757598 273.80859375 50.93359375 C245.75381429 33.14193457 205.16574148 33.39406899 173.0390625 30.69897461 C171.87404709 30.6001297 170.70903168 30.50128479 169.50871277 30.39944458 C167.32397767 30.21531745 165.13886594 30.03557872 162.95332336 29.86129761 C156.78829019 29.34396127 150.75957322 28.50191804 144.6658783 27.43736267 C141.52921498 26.92276324 138.43204538 26.65790757 135.2578125 26.5078125 C133.52144531 26.41306641 133.52144531 26.41306641 131.75 26.31640625 C130.55375 26.25324219 129.3575 26.19007812 128.125 26.125 C116.25185568 25.40872647 104.85495432 23.81382228 93.21533203 21.42871094 C90.30400486 20.86531106 87.37918779 20.49318059 84.4375 20.125 C73.94923198 18.59114262 63.75022915 15.04931638 53.62890625 11.9765625 C47.06215854 10.05133313 40.83599726 9.25318508 34 9 C33.24831543 8.96213379 32.49663086 8.92426758 31.72216797 8.88525391 C17.93490921 8.24891889 4.89297678 9.74764096 -8.64526367 12.15087891 Z M-128 80 C-126.70357348 86.41795309 -124.9406383 92.38152466 -122.625 98.5 C-122.33367187 99.29019531 -122.04234375 100.08039063 -121.7421875 100.89453125 C-118.67363174 109.11772235 -115.84539838 116.38547026 -110 123 C-109.30218703 124.3173 -108.62834841 125.64818622 -108 127 C-106.7310791 126.99214478 -106.7310791 126.99214478 -105.43652344 126.98413086 C-102.23828391 126.96688673 -99.0400684 126.95445296 -95.84179688 126.94506836 C-94.46874197 126.94010049 -93.09569218 126.9333239 -91.72265625 126.92456055 C-83.08981994 126.87092085 -74.58897059 127.10202535 -66 128 C-66.40927734 127.54512207 -66.81855469 127.09024414 -67.24023438 126.62158203 C-74.27906465 118.73495742 -78.75554287 110.84083242 -80.66015625 100.37109375 C-81.66776783 96.75592004 -81.66776783 96.75592004 -84.984375 95.4765625 C-86.22703125 95.19554688 -87.4696875 94.91453125 -88.75 94.625 C-89.41523682 94.469104 -90.08047363 94.31320801 -90.76586914 94.15258789 C-96.44006916 92.90752238 -102.10400336 92.55601845 -107.8984375 92.26171875 C-114.86079902 91.67421469 -119.3485414 89.29749451 -124 84 C-124.763125 83.236875 -125.52625 82.47375 -126.3125 81.6875 C-126.869375 81.130625 -127.42625 80.57375 -128 80 Z M-108 143 C-108.60954529 143.2041452 -109.21909058 143.40829041 -109.84710693 143.61862183 C-114.04575297 145.03656134 -118.21113239 146.53725354 -122.36972046 148.06817627 C-132.54830377 151.81334189 -142.55019114 155.40079659 -153.1875 157.625 C-162.65438939 159.6903071 -169.42662017 164.11492547 -177 170 C-178.08175457 170.80680861 -179.1650568 171.61154687 -180.25 172.4140625 C-182.95747342 174.45130353 -185.62758703 176.52030813 -188.27832031 178.62988281 C-189.47003818 179.578255 -190.66491932 180.52266075 -191.86230469 181.46386719 C-213.15930549 198.11106019 -213.15930549 198.11106019 -230 219 C-230.57403564 219.91410645 -230.57403564 219.91410645 -231.15966797 220.84667969 C-238.06539589 230.74735118 -238.06539589 230.74735118 -241 242 C-238.03 242 -235.06 242 -232 242 C-231.67 240.55625 -231.34 239.1125 -231 237.625 C-226.38824286 222.3458607 -209.09717486 208.87193031 -195.89453125 200.83203125 C-192.80609583 199.47566683 -190.32280688 199.65387428 -187 200 C-189.50260504 205.21376051 -191.88810168 207.92751871 -196.59375 211.2109375 C-201.74658242 215.04210187 -206.33172471 219.60189407 -211 224 C-211.78246094 224.71671875 -212.56492188 225.4334375 -213.37109375 226.171875 C-218.07056967 230.61372369 -221.19574171 235.17577124 -224 241 C-221.42566077 245.95315903 -216.77327608 246.84262401 -211.8125 248.5 C-206.20363492 250.41778525 -200.94103718 252.37078344 -195.7956543 255.34570312 C-193.42723276 256.20870377 -192.3166036 255.95282233 -190 255 C-188.44787918 253.63164174 -188.44787918 253.63164174 -187.1171875 251.8671875 C-186.59471436 251.22885986 -186.07224121 250.59053223 -185.53393555 249.93286133 C-184.98648682 249.25376709 -184.43903809 248.57467285 -183.875 247.875 C-178.81396899 241.82127485 -173.90973904 236.95351048 -167 233 C-166.29101562 232.56042969 -165.58203125 232.12085938 -164.8515625 231.66796875 C-161.30044056 229.63389699 -159.37440505 228.99386221 -155.1875 229.0625 C-151.99374481 230.00183976 -151.13408095 230.6352076 -149 233 C-150.0621875 233.50789063 -151.124375 234.01578125 -152.21875 234.5390625 C-163.45620678 239.9817281 -172.01633209 245.2335713 -180 255 C-180.97895945 256.16684055 -181.95810276 257.33352689 -182.9375 258.5 C-183.618125 259.325 -184.29875 260.15 -185 261 C-184.443125 261.40089844 -183.88625 261.80179687 -183.3125 262.21484375 C-182.549375 262.78332031 -181.78625 263.35179687 -181 263.9375 C-179.88625 264.75541016 -179.88625 264.75541016 -178.75 265.58984375 C-170.89897483 272.4706428 -166.3927968 279.35224555 -162.625 289.0625 C-161.98884766 290.61807617 -161.98884766 290.61807617 -161.33984375 292.20507812 C-159.11231314 297.745797 -157.27472612 303.1656766 -156 309 C-143.83985918 308.70159164 -136.0273378 307.18085932 -125.625 300.625 C-117.84510238 295.72957904 -109.68629843 291.61974437 -101.51074219 287.4296875 C-94.06535114 283.61011886 -86.69526865 279.6791026 -79.375 275.625 C-73.11590604 272.15970327 -66.83857905 268.92996705 -60.3125 266 C-46.18486679 259.59738703 -33.06561782 250.70261848 -21 241 C-20.13117188 240.34257812 -19.26234375 239.68515625 -18.3671875 239.0078125 C-6.88091495 229.69936533 1.08652517 213.62317356 3.47265625 199.12890625 C3.82729673 192.57260405 2.34341822 186.43785079 0.75 180.125 C0.44376709 178.91130737 0.44376709 178.91130737 0.13134766 177.6730957 C-3.6305906 163.99241686 -16.25202956 152.12115346 -28.375 145.1875 C-37.15123824 140.35095995 -45.7198951 139.69048141 -55.578125 139.69921875 C-57.21077301 139.69279106 -57.21077301 139.69279106 -58.87640381 139.68623352 C-61.16906034 139.68051717 -63.46173501 139.67996996 -65.75439453 139.68432617 C-69.22590779 139.68747813 -72.69656103 139.6640196 -76.16796875 139.63867188 C-92.31663095 139.53301714 -92.31663095 139.53301714 -108 143 Z M-205 162 C-207.69537563 163.17293269 -210.2686384 164.40299542 -212.875 165.75 C-213.59558594 166.1109375 -214.31617188 166.471875 -215.05859375 166.84375 C-218.60884661 168.64829842 -221.91496368 170.44798042 -225 173 C-224.34 173 -223.68 173 -223 173 C-223 173.99 -223 174.98 -223 176 C-218.03657693 174.40013936 -214.29801238 171.47460168 -210.1875 168.375 C-209.49462891 167.859375 -208.80175781 167.34375 -208.08789062 166.8125 C-206.38826337 165.54657074 -204.69362565 164.27394735 -203 163 C-203.66 162.67 -204.32 162.34 -205 162 Z M-267.6875 209.93359375 C-268.450625 210.94550781 -269.21375 211.95742187 -270 213 C-270.598125 213.75410156 -271.19625 214.50820312 -271.8125 215.28515625 C-273.18976912 216.92639692 -273.18976912 216.92639692 -273 219 C-268.545 218.505 -268.545 218.505 -264 218 C-263.01 221.3 -262.02 224.6 -261 228 C-256.66964508 225.83482254 -254.99724694 223.57676137 -252.4375 219.6875 C-251.85838867 218.83381836 -251.85838867 218.83381836 -251.26757812 217.96289062 C-250.16064773 216.32040957 -249.07978951 214.6604498 -248 213 C-247.39671875 212.08734375 -246.7934375 211.1746875 -246.171875 210.234375 C-245.78515625 209.49703125 -245.3984375 208.7596875 -245 208 C-245.78130071 205.50447516 -245.78130071 205.50447516 -247 203 C-247.04080783 201.00041636 -247.04254356 198.99954746 -247 197 C-247.185625 196.29875 -247.37125 195.5975 -247.5625 194.875 C-248.09000994 192.6142431 -247.70227228 191.18484708 -247 189 C-244.36 188.67 -241.72 188.34 -239 188 C-238.34 189.32 -237.68 190.64 -237 192 C-233.25381144 190.75127048 -232.27820612 189.15296987 -229.875 186.0625 C-229.17117187 185.16660156 -228.46734375 184.27070313 -227.7421875 183.34765625 C-225.99581286 181.13653205 -225.99581286 181.13653205 -225 179 C-241.94528789 173.74111755 -258.64415399 198.0973749 -267.6875 209.93359375 Z M113.75854492 206.09277344 C109.56168678 208.26368846 105.33229339 210.12398804 100.9375 211.875 C94.32598253 214.64539803 88.72919488 218.28237741 82.875 222.3515625 C79.55966899 224.65161576 76.15938606 226.77017815 72.70874023 228.86010742 C62.50597854 235.0534886 54.76901652 241.74776178 47.31640625 251.14453125 C44.97364746 254.03248517 42.521844 256.76767753 40 259.5 C36.69062063 263.09026805 33.5475093 266.74774804 30.5 270.5625 C22.9745454 279.84389401 14.42234932 287.68015838 5 295 C4.14607666 295.66781494 4.14607666 295.66781494 3.27490234 296.34912109 C-2.30328294 300.63336077 -8.17058502 304.3884238 -14.125 308.125 C-16.04462952 309.33536881 -17.96391026 310.546291 -19.8828125 311.7578125 C-20.77645508 312.32016602 -21.67009766 312.88251953 -22.59082031 313.46191406 C-24.54414269 314.70896828 -26.46087951 315.98793419 -28.3671875 317.3046875 C-30.89411683 318.93182004 -33.18672172 319.97075185 -36 321 C-69.62615585 334.55146706 -110.97322449 362.31505786 -126.125 396.6875 C-129.11233339 404.01642459 -131.65433707 411.44361443 -134 419 C-134.2990625 419.95648438 -134.598125 420.91296875 -134.90625 421.8984375 C-137.03709055 429.16460379 -138.23752945 436.4716066 -139 444 C-139.13277344 445.20914063 -139.26554687 446.41828125 -139.40234375 447.6640625 C-140.29261201 462.50186683 -132.32854589 474.94655317 -123 486 C-120.77178165 488.35929002 -118.49045224 490.63653913 -116.15234375 492.88671875 C-114.15276775 494.8500048 -112.31893965 496.8702023 -110.5 499 C-102.8292709 507.82659239 -95.26274311 514.25495297 -85 520 C-84.25492187 520.4228125 -83.50984375 520.845625 -82.7421875 521.28125 C-77.73316756 523.95813515 -72.46798698 525.52095434 -67 527 C-66.44957031 526.24460937 -65.89914062 525.48921875 -65.33203125 524.7109375 C-62.93669774 521.92641245 -60.84553428 520.45639187 -57.6875 518.625 C-47.68195706 512.45646953 -41.04732252 505.03681663 -38.19140625 493.47265625 C-37.63710061 491.00512355 -37.09458214 488.53492006 -36.5625 486.0625 C-31.52606746 463.87528221 -24.06012347 445.6949348 -11 427 C-10.401875 426.12601563 -9.80375 425.25203125 -9.1875 424.3515625 C-3.33892673 415.86590932 2.90727295 407.94626812 9.88671875 400.359375 C11.3283879 398.74982201 12.71666553 397.0912245 14.0546875 395.39453125 C15.75419172 393.30257124 17.37890195 391.65681908 19.4375 389.9375 C22.5348455 387.29817232 25.53048102 384.57717441 28.49194336 381.78613281 C33.43624571 377.1352806 38.46296781 372.78525784 43.875 368.6875 C54.06604818 360.91709433 63.05438598 351.63215312 71.34765625 341.8828125 C81.6954413 330.09171937 93.87985774 320.87432633 106.7890625 312.10546875 C112.32133621 308.24202141 116.77732832 304.29471965 121.125 299.140625 C123.44535734 296.49155037 125.98851587 294.2791598 128.671875 292.0078125 C131.66091571 289.43001564 134.54543464 286.74804862 137.4375 284.0625 C138.56749043 283.01929517 139.69769569 281.97632299 140.828125 280.93359375 C142.72270773 279.18487812 144.60741075 277.42792604 146.484375 275.66015625 C150.05743041 272.35951463 153.38069753 269.7097578 157.6875 267.4375 C163.3644601 264.2173387 167.24901976 259.68276534 171.54125977 254.86401367 C175.45603072 250.51209769 179.52570073 246.85327267 184.125 243.25 C192.00521068 236.9119995 196.63787823 228.83643872 201.66894531 220.19140625 C202.87157545 218.21143411 204.1400371 216.35623591 205.5234375 214.5 C209.9420998 208.54643395 211.89071498 204.68605135 211.18359375 197.1796875 C211 195 211 195 212 193 C205.28837062 192.11978631 198.76594019 191.88618045 192 192 C191.67 192.99 191.34 193.98 191 195 C188.56530921 196.14720385 186.21282108 197.09310158 183.6875 198 C182.05183183 198.61521715 180.41643373 199.23115266 178.78125 199.84765625 C177.86988281 200.18684082 176.95851563 200.52602539 176.01953125 200.87548828 C153.0147707 208.95134299 153.0147707 208.95134299 132 221 C130.51451324 222.04974855 129.02881782 223.09920185 127.54296875 224.1484375 C115.65518011 232.6448329 104.47053586 241.78792541 93.9140625 251.890625 C93.23827148 252.53451172 92.56248047 253.17839844 91.86621094 253.84179688 C90.57082586 255.0831811 89.28445083 256.33405962 88.00878906 257.59570312 C84.81642434 260.66983212 82.64595718 262.75455321 78 263 C77.20703125 260.8515625 77.20703125 260.8515625 77 258 C78.49621734 255.83776458 79.85486174 254.21127746 81.6875 252.375 C82.18789795 251.85429932 82.6882959 251.33359863 83.20385742 250.79711914 C84.7814898 249.175316 86.38374297 247.58326214 88 246 C88.48758789 245.52191895 88.97517578 245.04383789 89.47753906 244.55126953 C114.48504567 220.33427894 143.7948327 200.64110176 178 193 C178 192.67 178 192.34 178 192 C153.99432831 191.26262442 135.02529763 195.09048137 113.75854492 206.09277344 Z M218 195 C218.515625 196.155 219.03125 197.31 219.5625 198.5 C221.19119553 202.89747793 221.48663182 206.5238572 220 211 C218.72350027 213.38569124 217.39891947 215.68679516 216 218 C215.47607666 218.87487061 214.95215332 219.74974121 214.41235352 220.65112305 C212.5636207 223.71617448 210.69004701 226.7650242 208.8125 229.8125 C207.87954102 231.35647461 207.87954102 231.35647461 206.92773438 232.93164062 C200.78485097 242.87217149 193.86468463 250.74787795 184.578125 257.8125 C181.69283189 260.26062749 179.31864159 263.00517864 176.875 265.875 C172.21483173 271.26956425 167.11945606 274.64149372 160.99169922 278.20385742 C155.03603085 281.75328826 150.5502205 285.98351296 145.84375 291.04296875 C143.7491401 293.29244044 141.53763766 295.30552396 139.203125 297.3046875 C135.42916895 300.55482913 131.96846506 304.03260221 128.50610352 307.60961914 C121.96853568 314.35517799 115.77092972 320.38715388 107.73046875 325.2890625 C92.80663151 334.64047983 80.43806785 348.43386508 68.16796875 360.92797852 C61.09703765 368.11909273 54.02687611 374.86280299 46 381 C43.57712535 382.98963945 41.19074285 385.01982264 38.8125 387.0625 C38.21445557 387.57562744 37.61641113 388.08875488 37.00024414 388.61743164 C32.80962865 392.23969241 28.82818736 395.99557896 25 400 C24.20722656 400.79148437 23.41445313 401.58296875 22.59765625 402.3984375 C12.84770563 412.1630497 4.87452788 422.70659403 -3 434 C-3.7130127 435.00716064 -3.7130127 435.00716064 -4.44042969 436.03466797 C-14.78016547 450.66350674 -20.70331251 465.05517384 -25.29150391 482.35009766 C-25.98992801 484.96232895 -26.71420644 487.56581618 -27.44921875 490.16796875 C-30.00902454 499.01458119 -30.00902454 499.01458119 -32 508 C-31.09121094 507.68546875 -30.18242187 507.3709375 -29.24609375 507.046875 C-27.97698957 506.61333115 -26.70742051 506.18114681 -25.4375 505.75 C-24.76581787 505.52183594 -24.09413574 505.29367187 -23.40209961 505.05859375 C-18.66079466 503.4779748 -13.91599166 502.19140037 -9.0625 501 C-4.15556351 499.72257438 -0.36159227 498.40075823 3.73828125 495.45703125 C6.23618152 493.84784852 8.84652714 492.6440446 11.54296875 491.40576172 C28.77540783 483.39170762 40.54250851 469.81869235 52.04882812 455.04711914 C56.61653024 449.18367783 61.12592183 443.51316196 66.8125 438.6875 C75.25749853 431.50026721 82.22712992 422.73546311 89 414 C89.804375 412.96746094 90.60875 411.93492187 91.4375 410.87109375 C96.14304569 404.80668883 100.73983343 398.67801972 105.2109375 392.4375 C111.35896572 384.06114714 111.35896572 384.06114714 117 382 C119.72338333 381.7738707 122.25861408 381.85820418 125 382 C124.15795188 386.21024059 122.70181716 388.48463692 119.625 391.3125 C115.54521755 395.17175367 112.47383294 399.39382502 109.3125 404 C98.73384372 419.33694765 86.75133897 433.42370985 73.44726562 446.46386719 C66.8967091 452.89287376 61.03837818 459.47976777 55.484375 466.78125 C49.36065575 474.81329106 42.20592579 481.94739178 35 489 C43.81091752 491.93697251 56.60560536 484.38765554 64.32324219 480.55395508 C68.78919148 478.28300467 73.23980645 475.98290166 77.68994141 473.68115234 C82.84204267 471.06444123 88.07875325 468.63536832 93.3125 466.1875 C105.91562457 460.21249598 116.95234037 453.8312485 127 444 C127.48887695 443.53013672 127.97775391 443.06027344 128.48144531 442.57617188 C134.25512238 437.02330628 139.71303424 431.45691754 144.4921875 425.00390625 C145.9134382 423.11504197 147.41666202 421.37827739 149 419.625 C151.33566814 416.9417259 153.20384832 414.15729661 155.0625 411.125 C166.15726723 393.36353228 177.38689281 382.43107141 196 373 C197.20333317 372.37930966 198.40646233 371.75822363 199.609375 371.13671875 C208.07739811 366.79985213 216.6866802 362.76178262 225.3125 358.75 C226.94022339 357.98864746 226.94022339 357.98864746 228.60083008 357.21191406 C233.66995667 354.87130567 238.68784098 352.71424698 243.9765625 350.91796875 C248.19037142 349.42913267 250.93015288 347.83848208 254.0625 344.5625 C259.51068974 339.24046227 265.44272902 334.94619205 271.71899414 330.64282227 C277.04509966 326.92562633 281.87231018 323.38306947 284 317 C280.77608051 317.99787984 277.9504051 319.02789713 275 320.6875 C271.47543411 322.22949758 269.66414408 321.95965678 266 321 C266.54723683 317.62537285 267.0549 315.91765 269 313 C267.68 313 266.36 313 265 313 C266.32 310.03 267.64 307.06 269 304 C265.01143545 305.38919483 262.12862376 307.27892084 258.8125 309.875 C251.71385168 315.12971948 244.98251878 318.78108859 236 318 C236.125 316.125 236.125 316.125 237 314 C238.99335389 313.31371673 240.99455111 312.65009169 243 312 C255.14372379 305.33756187 265.86905289 296.35413327 276 287 C277.74969339 285.45798535 279.49969152 283.91631643 281.25 282.375 C287.25692657 276.94999444 291.88829944 271.32323491 296.28125 264.546875 C299.07233557 260.41099365 302.12029922 256.47036133 305.14453125 252.50390625 C309.10558349 247.15857048 307.77608883 242.38026711 307 236 C306.37474227 231.9394182 305.53276415 229.51944505 302.5 226.5625 C300.20868708 224.82333369 300.20868708 224.82333369 298 225 C297.773125 224.4225 297.54625 223.845 297.3125 223.25 C295.67197539 220.4376721 293.56221186 218.97029539 291 217 C290.97421875 218.27875 290.9484375 219.5575 290.921875 220.875 C290.86555525 222.58336565 290.80820882 224.29169767 290.75 226 C290.73582031 226.83917969 290.72164062 227.67835938 290.70703125 228.54296875 C290.38750882 236.78664751 287.74875664 242.62223388 282.0625 248.625 C281.28132813 249.45902344 280.50015625 250.29304688 279.6953125 251.15234375 C278.80585937 252.09207031 277.91640625 253.03179687 277 254 C275.93278046 255.16603617 274.86778917 256.33411451 273.8046875 257.50390625 C268.75900541 263.03788015 263.76830742 268.50693182 258.00390625 273.30859375 C255.52956933 275.39706916 253.18237061 277.6063039 250.8125 279.8125 C246.33282934 283.90802186 241.68212167 287.60932072 236.8371582 291.24926758 C233.21377629 293.99643134 229.83332318 296.89923425 226.5 300 C222.07616361 304.11384494 217.46882363 307.8064382 212.65356445 311.43896484 C208.25332638 314.76725622 204.07441997 318.28255338 200 322 C197.32551748 319.32551748 197.14451871 317.75748654 197 314 C201.18225113 305.45366074 210.2997766 299.96637101 217.6472168 294.26342773 C222.42469903 290.52522163 226.90380056 286.53297613 231.34765625 282.40234375 C234.03124051 279.9717041 236.79844914 277.69952475 239.625 275.4375 C244.00173669 271.90747197 247.96232975 268.14621572 251.8828125 264.12109375 C253.87430728 262.12592462 255.92379263 260.27246099 258.0625 258.4375 C265.99116262 251.59001865 275.27029895 243.45940211 280 234 C280.08400529 232.40552536 280.10727467 230.80759455 280.09765625 229.2109375 C280.09282227 227.79941406 280.09282227 227.79941406 280.08789062 226.359375 C280.07951172 225.37453125 280.07113281 224.3896875 280.0625 223.375 C280.05573242 221.88613281 280.05573242 221.88613281 280.04882812 220.3671875 C280.03702145 217.9113984 280.020554 215.45572896 280 213 C279.43845215 212.81751709 278.8769043 212.63503418 278.29833984 212.44702148 C277.20320068 212.06912476 277.20320068 212.06912476 276.0859375 211.68359375 C274.99611572 211.31705688 274.99611572 211.31705688 273.88427734 210.94311523 C272 210 272 210 270.625 207.0625 C268.47064186 203.00236351 266.54608574 202.53170996 262.35205078 200.95678711 C255.10501953 198.88824265 247.58781576 198.16954093 240.125 197.25 C238.42172471 197.02849638 236.71859779 196.80584866 235.015625 196.58203125 C226.5361715 195.42378579 226.5361715 195.42378579 218 195 Z M-276 222 C-277.90883976 224.14368125 -279.7748615 226.30650246 -281.625 228.5 C-282.72651856 229.79170414 -283.82808079 231.08337103 -284.9296875 232.375 C-286.65559127 234.4071968 -288.36972379 236.44645891 -290.0703125 238.5 C-293.91812927 243.08158648 -298.06517527 246.61612019 -303 250 C-301.02 250.99 -301.02 250.99 -299 252 C-299 252.99 -299 253.98 -299 255 C-298.34 255.33 -297.68 255.66 -297 256 C-295.09326434 255.38965147 -295.09326434 255.38965147 -293 254.33984375 C-292.19925049 253.96077881 -291.39850098 253.58171387 -290.57348633 253.19116211 C-289.72423584 252.77745361 -288.87498535 252.36374512 -288 251.9375 C-287.14237061 251.5257251 -286.28474121 251.1139502 -285.40112305 250.68969727 C-279.40107211 247.77408748 -273.5844171 244.66073615 -268 241 C-268.66 238.36 -269.32 235.72 -270 233 C-270.99 233.33 -271.98 233.66 -273 234 C-273.66 230.04 -274.32 226.08 -275 222 C-275.33 222 -275.66 222 -276 222 Z M-19.6875 255.1875 C-23.29475441 258.43205058 -27.00400121 261.25275083 -31 264 C-30.01 264.33 -29.02 264.66 -28 265 C-25.64593791 263.30116174 -23.53612848 261.60561949 -21.375 259.6875 C-20.776875 259.17509766 -20.17875 258.66269531 -19.5625 258.13476562 C-16.33863962 255.43284163 -16.33863962 255.43284163 -14 252 C-16.83427211 252 -17.62520709 253.28727333 -19.6875 255.1875 Z M-252.59765625 255.6796875 C-253.08105469 256.40414063 -253.56445312 257.12859375 -254.0625 257.875 C-261.02902095 267.34347579 -270.14922758 274.25781055 -279.63378906 281.01074219 C-284.14849873 284.26347525 -288.01674244 287.80507956 -291.859375 291.83984375 C-295.41577541 295.42869307 -299.37852732 298.49715844 -303.32177734 301.64697266 C-305.94372598 303.76085676 -308.53208146 305.91499102 -311.12548828 308.0637207 C-317.23219163 313.12128178 -323.37411177 318.12152675 -329.625 323 C-338.41894757 329.78381285 -338.41894757 329.78381285 -346.203125 337.65625 C-349.95931962 341.98660227 -353.86666433 346.15534004 -357.8125 350.3125 C-359.22186618 351.80680893 -360.63072073 353.30160056 -362.0390625 354.796875 C-365.77069038 358.75762235 -365.77069038 358.75762235 -367.62792969 360.72070312 C-376.61839972 370.24710874 -384.60304688 380.10584203 -385.10546875 393.89453125 C-385.07066406 394.58933594 -385.03585937 395.28414062 -385 396 C-386.32 396 -387.64 396 -389 396 C-389.99 393.525 -389.99 393.525 -391 391 C-391.66 391 -392.32 391 -393 391 C-397.23528508 406.14537944 -392.94726729 426.03165299 -385.609375 439.41796875 C-380.8117926 447.85731721 -376.43837405 454.87228555 -368 460 C-367.35071533 460.44102051 -366.70143066 460.88204102 -366.0324707 461.33642578 C-359.66617248 465.37381304 -354.23265743 465.73228715 -346.8125 465.5625 C-345.23178711 465.57893555 -345.23178711 465.57893555 -343.61914062 465.59570312 C-337.52901756 465.53814053 -333.76060096 465.12308234 -329 461 C-328.47188721 460.56308838 -327.94377441 460.12617676 -327.3996582 459.67602539 C-325.65776111 458.22791207 -323.95320648 456.74335514 -322.25 455.25 C-320.99679841 454.16975489 -319.74289078 453.09032834 -318.48828125 452.01171875 C-316.51910797 450.31477172 -314.55767046 448.6110675 -312.60546875 446.89453125 C-297.94070806 434.50214789 -280.76648682 425.93373447 -263.07763672 418.82568359 C-246.72589793 412.25164336 -233.69996148 405.40477712 -220.359375 393.8671875 C-212.91502681 387.45944949 -205.10582968 381.47106437 -197.125 375.75 C-184.04361159 366.28320576 -171.92808714 354.64405566 -168.55078125 338.3046875 C-165.59314685 318.32226205 -167.26510813 298.18161233 -179.109375 281.31640625 C-191.98382939 265.54253961 -214.4077002 256.73085143 -234 253 C-243.99306621 251.91406507 -243.99306621 251.91406507 -252.59765625 255.6796875 Z M-274.79296875 259.38671875 C-275.45782791 259.64499954 -276.12268707 259.90328033 -276.80769348 260.16938782 C-278.21735583 260.71910816 -279.62525486 261.27336838 -281.03149414 261.83178711 C-283.15845784 262.67597325 -285.29044019 263.50618734 -287.42382812 264.33398438 C-312.46121528 274.10942799 -330.71128989 290.70132134 -347.4375 311.5 C-350.35444451 315.12225061 -353.36627504 318.3755668 -356.75 321.5625 C-367.19198903 331.77571306 -380.01590016 346.9104691 -381 362 C-377.82929683 358.93157758 -374.86330267 355.74099719 -371.9375 352.4375 C-367.883029 347.89568023 -363.64008802 343.59795826 -359.3046875 339.32861328 C-356.5391733 336.59050667 -353.92069287 333.80781418 -351.4375 330.8125 C-347.65887631 326.40109244 -343.22866491 322.92337096 -338.68066406 319.33496094 C-335.40699204 316.7346648 -332.17741662 314.07963345 -328.9375 311.4375 C-324.62630558 307.92933192 -320.30253901 304.44110575 -315.9375 301 C-311.64629272 297.57430741 -307.47111958 294.02193816 -303.3125 290.4375 C-302.69431396 289.90705078 -302.07612793 289.37660156 -301.43920898 288.83007812 C-298.32231742 286.12618824 -295.34413227 283.36284852 -292.46875 280.40234375 C-289.29494839 277.1858632 -285.92820147 274.63962383 -282.1875 272.125 C-275.99788736 267.84627449 -270.45217242 263.20092023 -265 258 C-268.91391008 256.69536331 -271.14252629 257.92599393 -274.79296875 259.38671875 Z M-316 259 C-328.79488675 265.69992297 -340.48614049 273.28336252 -352 282 C-350.68 284.31 -349.36 286.62 -348 289 C-343.98921789 286.44610112 -340.61534834 283.82263167 -337.1875 280.5 C-330.04257392 273.86966694 -322.04521307 268.47306903 -314 263 C-314.66 261.68 -315.32 260.36 -316 259 Z M307 263 C306.13113549 264.05504977 305.30709033 265.14697654 304.5 266.25 C303.95472656 266.9821875 303.40945313 267.714375 302.84765625 268.46875 C301.56526135 270.2256039 300.30357854 271.9976903 299.05859375 273.78125 C290.75415718 285.40440248 280.29381377 294.33206167 269 303 C271.91032625 304.05882477 271.91032625 304.05882477 274.6875 304.4375 C278.52901706 305.08983309 282.22810631 306.02451025 286 307 C286.33 308.65 286.66 310.3 287 312 C298.03785372 301.63488229 302.58910598 288.05621285 307 274 C307.33 273.01 307.66 272.02 308 271 C308.06665376 269.60560336 308.08538199 268.20830125 308.0625 266.8125 C308.041875 265.554375 308.02125 264.29625 308 263 C307.67 263 307.34 263 307 263 Z M-55.0703125 275.9375 C-55.86654022 276.33702881 -56.66276794 276.73655762 -57.48312378 277.14819336 C-60.03231217 278.42839672 -62.57866696 279.71412819 -65.125 281 C-66.850077 281.86755232 -68.57533515 282.73474451 -70.30078125 283.6015625 C-74.53596963 285.73019787 -78.76862444 287.86379608 -83 290 C-83 290.33 -83 290.66 -83 291 C-81.27327966 291.36590746 -79.54346345 291.71722195 -77.8125 292.0625 C-76.84957031 292.25972656 -75.88664062 292.45695312 -74.89453125 292.66015625 C-68.65420353 293.39282631 -65.12423984 291.01636737 -60.25 287.375 C-59.63817871 286.92785645 -59.02635742 286.48071289 -58.39599609 286.02001953 C-53.52424014 282.44210358 -48.72244316 278.77295723 -44 275 C-44.495 273.515 -44.495 273.515 -45 272 C-48.64185626 272 -51.86740924 274.31477648 -55.0703125 275.9375 Z M-355 284 C-354 286 -354 286 -354 286 Z M-370.9140625 297.78125 C-371.50727295 298.37244629 -372.1004834 298.96364258 -372.71166992 299.57275391 C-373.34306885 300.20874512 -373.97446777 300.84473633 -374.625 301.5 C-375.26219971 302.1398584 -375.89939941 302.7797168 -376.5559082 303.43896484 C-382.07821419 309.01706597 -387.32641079 314.68582932 -392 321 C-390.68 322.32 -389.36 323.64 -388 325 C-382.80694279 322.7132824 -379.28838855 318.69604452 -375.3125 314.75 C-374.52810547 313.99847656 -373.74371094 313.24695313 -372.93554688 312.47265625 C-368.50959026 308.15038565 -368.50959026 308.15038565 -365.953125 302.6328125 C-366.00073298 299.95883087 -366.31591127 297.58433522 -367 295 C-368.76738354 295 -369.7160916 296.5857966 -370.9140625 297.78125 Z M-90 294 C-93.3 296.31 -96.6 298.62 -100 301 C-99.67 302.32 -99.34 303.64 -99 305 C-98.66666667 306.33333333 -98.33333333 307.66666667 -98 309 C-93.46152802 307.65072455 -89.68067754 305.80840652 -85.625 303.375 C-84.56539063 302.74335938 -83.50578125 302.11171875 -82.4140625 301.4609375 C-81.61742187 300.97882813 -80.82078125 300.49671875 -80 300 C-80.33 299.34 -80.66 298.68 -81 298 C-82.89533342 297.53476937 -82.89533342 297.53476937 -85.0625 297.375 C-86.361875 297.25125 -87.66125 297.1275 -89 297 C-89.33 296.01 -89.66 295.02 -90 294 Z M-103 309 C-103 309.33 -103 309.66 -103 310 C-101.35 310 -99.7 310 -98 310 C-98 309.67 -98 309.34 -98 309 C-99.65 309 -101.3 309 -103 309 Z M-128 318 C-141.41808025 329.77195127 -141.41808025 329.77195127 -152 344 C-151.67 344.66 -151.34 345.32 -151 346 C-144.90837943 340.13729211 -139.33845695 334.18974739 -134.10546875 327.54296875 C-131.88208221 324.85757981 -129.49865248 322.42888208 -127 320 C-127.33 319.34 -127.66 318.68 -128 318 Z M-116 319 C-117.5636757 320.51234366 -117.5636757 320.51234366 -118.75 322.5 C-119.17796875 323.1496875 -119.6059375 323.799375 -120.046875 324.46875 C-120.36140625 324.9740625 -120.6759375 325.479375 -121 326 C-117.18315774 324.44499019 -114.80804268 321.96404505 -112 319 C-113.32 319 -114.64 319 -116 319 Z M-400 330 C-404.51879594 335.89869671 -407.19980086 342.65621586 -409.75 349.5625 C-410.04342285 350.35309814 -410.3368457 351.14369629 -410.63916016 351.95825195 C-413.96825254 361.24643892 -415.43819788 370.08096526 -415.875 379.9375 C-415.92325928 381.02474365 -415.97151855 382.1119873 -416.02124023 383.23217773 C-416.29105073 392.97183572 -414.76714671 401.70096191 -412 411 C-411.67 411 -411.34 411 -411 411 C-411.0628418 410.08750488 -411.12568359 409.17500977 -411.19042969 408.23486328 C-412.39180223 387.91544629 -411.12568183 371.16225322 -403.26855469 352.23291016 C-402.71943381 350.90449534 -402.17154241 349.57557149 -401.625 348.24609375 C-401.36680481 347.62075745 -401.10860962 346.99542114 -400.84259033 346.35113525 C-398.68447735 340.82947185 -398.33823231 335.84638054 -399 330 C-399.33 330 -399.66 330 -400 330 Z M-153 346 C-158.48553873 352.59624698 -164.16097323 359.80924462 -167 368 C-166.67 368.66 -166.34 369.32 -166 370 C-164.85546208 368.85546208 -163.7128391 367.70896563 -162.578125 366.5546875 C-161.4519232 365.44521146 -160.29122918 364.37030692 -159.109375 363.3203125 C-155.09515409 359.84309343 -155.09515409 359.84309343 -153.6875 354.9375 C-153.790625 353.968125 -153.89375 352.99875 -154 352 C-153 348.625 -153 348.625 -152 346 C-152.33 346 -152.66 346 -153 346 Z M-194.23828125 390.62109375 C-197.22912432 392.96204187 -200.56601187 394.40141932 -204 396 C-204 399.31242304 -203.8133998 402.45930211 -203.5 405.75 C-203.4071875 406.73484375 -203.314375 407.7196875 -203.21875 408.734375 C-203.1465625 409.48203125 -203.074375 410.2296875 -203 411 C-196.8199455 408.06294439 -193.9633921 404.82863549 -190.5 399 C-190.04625 398.2884375 -189.5925 397.576875 -189.125 396.84375 C-186.5754916 393.08794938 -186.5754916 393.08794938 -186.38476562 388.765625 C-186.58779297 388.18296875 -186.79082031 387.6003125 -187 387 C-190.68777573 387 -191.57837615 388.26938924 -194.23828125 390.62109375 Z M-223.25 412.4375 C-228.35500963 416.84248894 -233.68576489 420.55723874 -239.45410156 424.04272461 C-242.41700182 425.85709914 -244.03533989 427.05300983 -246 430 C-239.20908367 427.89247424 -232.74344099 425.2446359 -226.234375 422.40234375 C-223 421 -223 421 -220.16015625 420.02734375 C-217.59945796 419.11234739 -217.59945796 419.11234739 -216.6875 415.625 C-215.87577757 411.95994532 -215.87577757 411.95994532 -216 408 C-219.26121935 408 -220.8532047 410.33229343 -223.25 412.4375 Z M-411 415 C-410 417 -410 417 -410 417 Z M-410 420 C-409 424 -409 424 -409 424 Z M-409 424 C-409.21298469 436.82823191 -406.43438917 447.0732636 -400.8125 458.5 C-400.14480591 459.87877319 -400.14480591 459.87877319 -399.46362305 461.28540039 C-394.81377557 470.31640827 -388.71950705 477.47066161 -379 481 C-374.68037763 482.3732243 -370.32454243 483.55048562 -365.9375 484.6875 C-364.79216797 484.99494141 -363.64683594 485.30238281 -362.46679688 485.61914062 C-355.08945405 487.56908029 -348.09507225 489.11624328 -340.4375 489.25 C-339.54933594 489.27578125 -338.66117187 489.3015625 -337.74609375 489.328125 C-331.78675942 488.6160566 -327.41970952 484.98064223 -322.8125 481.375 C-322.25731689 480.94203613 -321.70213379 480.50907227 -321.13012695 480.06298828 C-315.68270731 475.79588164 -310.32536045 471.41823492 -305 467 C-305.99 462.545 -305.99 462.545 -307 458 C-310.96135424 460.8809849 -313.96314268 464.15050788 -317.05859375 467.90234375 C-323.38157943 474.73422164 -323.38157943 474.73422164 -328.84301758 475.63110352 C-330.27662003 475.65709648 -331.71093073 475.6550056 -333.14453125 475.62890625 C-333.91375412 475.63131821 -334.68297699 475.63373016 -335.47550964 475.63621521 C-337.09676281 475.63523975 -338.71805053 475.6219178 -340.33911133 475.59692383 C-342.79561137 475.56273505 -345.24848251 475.57624738 -347.70507812 475.59570312 C-355.93891712 475.58857666 -362.78623787 475.39814281 -370 471 C-371.06347656 470.48179687 -372.12695312 469.96359375 -373.22265625 469.4296875 C-380.67044026 465.3523587 -385.27791467 460.96013761 -390 454 C-390.53979492 453.22156738 -391.07958984 452.44313477 -391.63574219 451.64111328 C-393.52164844 448.9161856 -395.38946949 446.1798121 -397.25 443.4375 C-397.85312012 442.5511084 -398.45624023 441.6647168 -399.07763672 440.75146484 C-402.6618032 435.36571733 -405.60594273 430.01355656 -408 424 C-408.33 424 -408.66 424 -409 424 Z M-277.75 438.1875 C-278.4409375 438.47947266 -279.131875 438.77144531 -279.84375 439.07226562 C-284.71211059 441.19988562 -288.7653246 443.79073684 -293 447 C-292.34 447.66 -291.68 448.32 -291 449 C-290.375 451.625 -290.375 451.625 -290 454 C-289.23429688 453.48953125 -289.23429688 453.48953125 -288.453125 452.96875 C-287.72609375 452.4840625 -286.9990625 451.999375 -286.25 451.5 C-285.43917969 450.95472656 -284.62835938 450.40945313 -283.79296875 449.84765625 C-281.81265704 448.53760389 -279.81304234 447.25652103 -277.80078125 445.99609375 C-276.73214844 445.31675781 -275.66351563 444.63742187 -274.5625 443.9375 C-273.55316406 443.30714844 -272.54382813 442.67679687 -271.50390625 442.02734375 C-268.78177285 439.82330751 -267.9613364 438.32150362 -267 435 C-271.02706618 435 -274.13097327 436.59261869 -277.75 438.1875 Z " fill="#F1C643" transform="translate(428,1)"/>
<path d="M0 0 C0.94875 0.04125 1.8975 0.0825 2.875 0.125 C3.625 2.25 3.625 2.25 3.875 5.125 C0.9034275 10.79005666 -3.31340537 13.84031944 -8.5 17.4375 C-9.30655029 18.00581543 -10.11310059 18.57413086 -10.9440918 19.15966797 C-13.32808917 20.82924498 -15.72393038 22.48009967 -18.125 24.125 C-18.7422998 24.55248535 -19.35959961 24.9799707 -19.99560547 25.42041016 C-28.11666665 31.00907216 -36.62002078 35.53847803 -45.37280273 40.03735352 C-52.35343574 43.65055291 -58.93136467 47.58886118 -65.44042969 51.99365234 C-67.22099098 53.18946698 -69.0183822 54.35619455 -70.8203125 55.51953125 C-82.47113795 63.08395142 -93.43002146 71.39375961 -103.63671875 80.83203125 C-105.40536308 82.46184949 -107.20300945 84.0604387 -109.01953125 85.63671875 C-116.77330005 92.4067164 -123.03012242 99.84945516 -129.125 108.125 C-129.7953125 109.01316406 -130.465625 109.90132813 -131.15625 110.81640625 C-137.94201408 120.08730762 -142.78067407 128.50132613 -142.82421875 140.21484375 C-143.16890017 143.54974843 -144.22404724 145.40147137 -146.125 148.125 C-150.875 147.375 -150.875 147.375 -153.125 145.125 C-155.12104589 135.34437515 -154.44207238 128.08496155 -150.125 119.125 C-149.54105469 117.87976563 -149.54105469 117.87976563 -148.9453125 116.609375 C-138.39269684 95.75390973 -120.65240849 79.14883329 -103.125 64.125 C-102.09150549 63.21330681 -101.05889336 62.30061195 -100.02734375 61.38671875 C-92.15260192 54.54949231 -83.9405977 48.68427141 -75.125 43.125 C-74.07868408 42.45984375 -74.07868408 42.45984375 -73.01123047 41.78125 C-64.00996338 36.08132463 -54.87085403 30.88835501 -45.38525391 26.04174805 C-38.36163682 22.38759803 -31.8085752 18.14020987 -25.22363281 13.75512695 C-19.45921436 9.93222051 -13.62602752 6.52462194 -7.4609375 3.39453125 C-1.3115285 0.05246114 -1.3115285 0.05246114 0 0 Z " fill="#F1C643" transform="translate(484.125,290.875)"/>
<path d="M0 0 C1.28515625 1.79296875 1.28515625 1.79296875 2 4 C-1.37073493 13.93269821 -10.7800154 23.60281844 -17 32 C-17.71414062 32.97710937 -18.42828125 33.95421875 -19.1640625 34.9609375 C-27.65256114 46.12241019 -41.77900541 60.78920968 -55 66 C-57.33203812 66.0777346 -59.66839059 66.08967728 -62 66 C-60.83091548 60.02139056 -58.73195799 57.22432934 -53.875 53.5 C-52.69359403 52.54999674 -51.51260348 51.59947665 -50.33203125 50.6484375 C-49.47279053 49.9692627 -49.47279053 49.9692627 -48.59619141 49.27636719 C-46.52759566 47.62224994 -44.54143737 45.88490935 -42.5625 44.125 C-40.45005949 42.25272094 -38.32462477 40.46517583 -36.109375 38.7109375 C-32.82560299 35.97778397 -30.27271483 32.885773 -27.6875 29.5 C-27.21675049 28.89196533 -26.74600098 28.28393066 -26.26098633 27.6574707 C-19.82216066 19.26518369 -13.8956138 10.51508935 -8.19140625 1.609375 C-5.78784549 -1.63740216 -3.58777743 -1.16602767 0 0 Z " fill="#F1C744" transform="translate(210,325)"/>
<path d="M0 0 C-0.51648683 3.87448028 -1.30673576 5.79559911 -4.1328125 8.48828125 C-4.77476562 9.11283203 -5.41671875 9.73738281 -6.078125 10.38085938 C-7.09132813 11.33702148 -7.09132813 11.33702148 -8.125 12.3125 C-12.70587676 16.70778788 -17.08735089 21.14655312 -21.22705078 25.9621582 C-24.34444042 29.54531041 -27.61411463 32.98530621 -30.875 36.4375 C-31.57536377 37.18032227 -32.27572754 37.92314453 -32.99731445 38.68847656 C-37.34350775 43.28482134 -41.71710411 47.84054367 -46.24609375 52.2578125 C-47.35835427 53.36264144 -48.43913627 54.50087161 -49.47265625 55.6796875 C-50.75 57.125 -50.75 57.125 -53 59 C-55.8125 58.8125 -55.8125 58.8125 -58 58 C-58.63598633 56.19165039 -58.63598633 56.19165039 -59 54 C-57.3093564 51.61731557 -55.64838543 49.57776138 -53.6875 47.4375 C-53.14005127 46.82052246 -52.59260254 46.20354492 -52.02856445 45.56787109 C-50.3652104 43.69988183 -48.68504522 41.84842222 -47 40 C-46.07256557 38.97297319 -45.1454558 37.94565306 -44.21875 36.91796875 C-42.55995383 35.08766124 -40.89606219 33.26195592 -39.2265625 31.44140625 C-37.30866793 29.33845167 -35.42623955 27.21330844 -33.5625 25.0625 C-28.81628978 19.60940741 -23.92260663 14.29343815 -19 9 C-18.32324219 8.2678125 -17.64648438 7.535625 -16.94921875 6.78125 C-11.83652074 1.43048845 -7.71255819 -2.01995572 0 0 Z " fill="#F2C643" transform="translate(135,337)"/>
<path d="M0 0 C-1.2631951 5.03842591 -2.78242092 7.13754815 -7 10.125 C-7.77863403 10.68078735 -7.77863403 10.68078735 -8.57299805 11.24780273 C-10.36944943 12.5175513 -12.18348152 13.75914848 -14 15 C-14.68787598 15.47808105 -15.37575195 15.95616211 -16.08447266 16.44873047 C-50.53690291 40.3537128 -50.53690291 40.3537128 -62.8671875 38.58984375 C-63.57101562 38.39519531 -64.27484375 38.20054687 -65 38 C-65.6875 35.6875 -65.6875 35.6875 -66 33 C-63.53398212 29.28635252 -59.12874498 28.50234663 -55.125 27.125 C-39.0144192 21.22553648 -24.89605081 10.890186 -11 1 C-6.8204355 -1.78637633 -4.85331323 -0.79562512 0 0 Z " fill="#F2C743" transform="translate(408,207)"/>
<path d="M0 0 C2.3125 2.125 2.3125 2.125 4 4 C0.77313021 7.68322 -2.86149167 7.9514544 -7.5 8.75 C-23.93779397 11.93328686 -38.00620432 17.90579525 -52 27 C-55.65642053 29.3419869 -57.61165371 30.37614397 -62 30 C-62.8125 27.8125 -62.8125 27.8125 -63 25 C-50.89016582 10.94889469 -30.02760038 3.73028174 -12.5625 -0.625 C-11.87099854 -0.80208496 -11.17949707 -0.97916992 -10.46704102 -1.16162109 C-6.31960161 -2.0910684 -3.72950222 -2.0928142 0 0 Z " fill="#F1C743" transform="translate(330,155)"/>
<path d="M0 0 C1.21236328 0.01353516 1.21236328 0.01353516 2.44921875 0.02734375 C3.37154297 0.04474609 3.37154297 0.04474609 4.3125 0.0625 C-0.60685302 11.54406978 -21.3693872 20.55259109 -32.3125 25.125 C-40.16897373 27.87733328 -48.47074738 28.92820082 -56.6875 30.0625 C-57.0175 28.4125 -57.3475 26.7625 -57.6875 25.0625 C-53.09381129 22.63235664 -48.79516337 20.68746124 -43.80102539 19.2878418 C-31.3931348 15.76341036 -20.83676682 9.12447253 -9.94555664 2.3659668 C-6.5135007 0.38480703 -3.88911579 -0.056364 0 0 Z " fill="#F1C744" transform="translate(335.6875,272.9375)"/>
<path d="M0 0 C1.8876709 0.21934204 1.8876709 0.21934204 3.81347656 0.44311523 C8.58406422 0.99568198 13.35560392 1.53964092 18.12744141 2.08129883 C20.17359945 2.31471123 22.21950971 2.55030854 24.26513672 2.78833008 C35.63451194 4.10963585 46.95139021 5.26226862 58.39385986 5.68711853 C63.31711808 5.87363946 68.11818354 6.32543812 73 7 C73.495 8.98 73.495 8.98 74 11 C68.10801401 13.02865361 62.77014371 13.34795713 56.5625 13.3125 C55.56331543 13.30903564 54.56413086 13.30557129 53.53466797 13.30200195 C42.23759682 13.14262784 31.15243104 11.72059345 20 10 C19.12891602 9.86658203 18.25783203 9.73316406 17.36035156 9.59570312 C14.98748503 9.22439431 12.61820441 8.83739075 10.25 8.4375 C9.22253662 8.26577271 9.22253662 8.26577271 8.17431641 8.09057617 C4.81680558 7.48460946 1.95192321 6.73686391 -1 5 C-0.67 3.35 -0.34 1.7 0 0 Z " fill="#F1C643" transform="translate(530,101)"/>
<path d="M0 0 C2.5 0.5 2.5 0.5 4.375 1.6875 C5.5 3.5 5.5 3.5 5.40625 5.6171875 C4.09338692 9.79345023 1.68901402 12.92318986 -0.875 16.4375 C-1.40722168 17.1787915 -1.93944336 17.92008301 -2.48779297 18.68383789 C-15.04969945 36.04969945 -15.04969945 36.04969945 -20.5 41.5 C-25.05555556 40.94444444 -25.05555556 40.94444444 -26.5 39.5 C-26.53849366 32.26319204 -22.59653198 27.98432472 -18.25 22.5 C-16.91088497 20.77127732 -15.57233239 19.04211879 -14.234375 17.3125 C-13.595 16.49273682 -12.955625 15.67297363 -12.296875 14.82836914 C-9.25842848 10.89118647 -6.26741315 7.00285076 -4 2.5625 C-2.5 0.5 -2.5 0.5 0 0 Z " fill="#F1C644" transform="translate(184.5,263.5)"/>
<path d="M0 0 C0.495 1.98 0.495 1.98 1 4 C-3.66476636 8.29470139 -8.30908713 12.55465102 -13.375 16.375 C-17.03086709 19.1683914 -20.48222965 22.14537682 -23.875 25.25 C-24.37966797 25.71180664 -24.88433594 26.17361328 -25.40429688 26.64941406 C-28.01524875 29.06911787 -30.54544212 31.53861324 -33 34.1171875 C-33.72533936 34.87273926 -33.72533936 34.87273926 -34.46533203 35.64355469 C-35.79899332 37.04512322 -37.11491915 38.46350599 -38.4296875 39.8828125 C-41.35915244 42.29583681 -43.26142839 42.72750936 -47 43 C-47.32421875 40.875 -47.32421875 40.875 -47 38 C-45.33005586 35.80070404 -43.73649774 33.94622621 -41.8125 32 C-41.32974609 31.49210937 -40.84699219 30.98421875 -40.34960938 30.4609375 C-38.91463512 28.95854835 -37.46176832 27.47629583 -36 26 C-35.15566406 25.14664062 -34.31132813 24.29328125 -33.44140625 23.4140625 C-26.69695144 16.74514558 -19.70108477 10.57517263 -12.125 4.875 C-11.49480957 4.38950684 -10.86461914 3.90401367 -10.21533203 3.40380859 C-6.72950223 0.83750224 -4.38574665 -0.65035787 0 0 Z " fill="#F1C643" transform="translate(616,321)"/>
<path d="M0 0 C-1.21892945 5.66031608 -2.81702332 8.42002208 -7.125 12.5 C-7.61782471 12.97284424 -8.11064941 13.44568848 -8.6184082 13.93286133 C-12.01614091 17.16719373 -15.5273713 20.2659935 -19.08984375 23.31640625 C-24.16683983 27.79122283 -28.93491013 32.57988018 -33 38 C-34.65 37.67 -36.3 37.34 -38 37 C-38.98015498 34.1995572 -39.48077023 32.06542548 -38.22265625 29.27734375 C-31.02120594 18.96766869 -13.28763564 0 0 0 Z " fill="#F1C643" transform="translate(146,392)"/>
<path d="M0 0 C0.495 2.475 0.495 2.475 1 5 C0.00742187 5.59425781 -0.98515625 6.18851562 -2.0078125 6.80078125 C-11.56057692 12.59872922 -20.36432453 18.92010607 -29 26 C-35.14898987 31.00740525 -41.30891142 35.73321888 -48 40 C-48.66 39.67 -49.32 39.34 -50 39 C-50.30078125 36.796875 -50.30078125 36.796875 -50 34 C-47.98046875 31.640625 -47.98046875 31.640625 -45.1875 29.25 C-44.69338623 28.82170898 -44.19927246 28.39341797 -43.69018555 27.95214844 C-42.1402201 26.6179264 -40.57293843 25.30702058 -39 24 C-38.04351563 23.195625 -37.08703125 22.39125 -36.1015625 21.5625 C-33.42498202 19.3432624 -30.72151011 17.16378924 -28 15 C-27.35933594 14.47921875 -26.71867188 13.9584375 -26.05859375 13.421875 C-21.69318603 9.98989139 -17.03080268 7.04185154 -12.3125 4.125 C-11.67022461 3.71894531 -11.02794922 3.31289063 -10.36621094 2.89453125 C-6.78150981 0.72469656 -4.22254804 -0.53286457 0 0 Z " fill="#F1C644" transform="translate(654,324)"/>
<path d="M0 0 C0 1.32 0 2.64 0 4 C1.0828125 3.9690625 1.0828125 3.9690625 2.1875 3.9375 C5 4 5 4 7.3125 4.5625 C9.89325603 4.98262308 11.62903974 4.86483459 14.1875 4.5 C18 4 18 4 20 5 C19.84375 7.83203125 19.84375 7.83203125 19 11 C16.59375 12.57421875 16.59375 12.57421875 13.5 13.6875 C12.41589844 14.08710937 11.33179688 14.48671875 10.21484375 14.8984375 C8.62349609 15.44371094 8.62349609 15.44371094 7 16 C6.13503906 16.32226562 5.27007812 16.64453125 4.37890625 16.9765625 C-3.16184675 19.69784605 -3.16184675 19.69784605 -7 19 C-7.66 18.01 -8.32 17.02 -9 16 C-11.55183404 14.79549696 -11.55183404 14.79549696 -14 14 C-13.18161272 6.3338824 -13.18161272 6.3338824 -10.484375 3.2890625 C-7.05533799 0.70983032 -4.40806865 -0.66788919 0 0 Z " fill="#F1C744" transform="translate(348,56)"/>
<path d="M0 0 C-0.55728913 3.34373475 -1.35173889 6.03312999 -3 9 C-2.01 9 -1.02 9 0 9 C0.33 9.99 0.66 10.98 1 12 C2.65 11.67 4.3 11.34 6 11 C6.88713709 13.95886311 7.24715292 15.44901624 5.9609375 18.31640625 C-1.14561527 28.38110537 -1.14561527 28.38110537 -6.08984375 29.453125 C-8.05089614 29.71505818 -10.02606332 29.86617378 -12 30 C-12.16947579 28.58366664 -12.33545507 27.16691467 -12.5 25.75 C-12.5928125 24.96109375 -12.685625 24.1721875 -12.78125 23.359375 C-13.42064233 16.46307198 -12.86726747 8.32020223 -9 2.375 C-5.8698395 -1.34206559 -4.53269287 -1.07353252 0 0 Z " fill="#F1C743" transform="translate(483,406)"/>
<path d="M0 0 C0.33 1.65 0.66 3.3 1 5 C1.94875 4.79375 2.8975 4.5875 3.875 4.375 C5.421875 4.189375 5.421875 4.189375 7 4 C9 6 9 6 9.125 8.625 C9.08375 9.40875 9.0425 10.1925 9 11 C7.10545176 11.96087136 5.20930419 12.91858969 3.3125 13.875 C2.25675781 14.40867188 1.20101562 14.94234375 0.11328125 15.4921875 C-8.25475573 19.54496325 -8.25475573 19.54496325 -13 18 C-18.62526917 15.74775751 -18.62526917 15.74775751 -21 14 C-21.83984375 12.015625 -21.83984375 12.015625 -22 10 C-17.43365529 3.40416876 -7.89202491 -0.50775896 0 0 Z " fill="#F2C643" transform="translate(663,158)"/>
<path d="M0 0 C3.5 0.25 3.5 0.25 5.5 2.25 C5.5 3.57 5.5 4.89 5.5 6.25 C6.16 6.25 6.82 6.25 7.5 6.25 C7.83 7.57 8.16 8.89 8.5 10.25 C9.056875 9.899375 9.61375 9.54875 10.1875 9.1875 C13.03886783 8.03154007 14.58517222 8.44032562 17.5 9.25 C16.7876111 14.52730197 14.6451022 17.53549723 11.1015625 21.4140625 C6.95883234 24.33761081 3.18160875 24.01876148 -1.7421875 23.76171875 C-4.5 23.25 -4.5 23.25 -6.5 21.25 C-6.85791891 15.88121629 -6.20165092 12.35495276 -4.5 7.25 C-4.80404678 5.57774271 -5.13128912 3.90919896 -5.5 2.25 C-3.5 0.25 -3.5 0.25 0 0 Z " fill="#F1C643" transform="translate(645.5,240.75)"/>
<path d="M0 0 C5.67857143 2.35714286 5.67857143 2.35714286 7 5 C7.375 8.375 7.375 8.375 7 12 C4.75 14.3125 4.75 14.3125 2 16 C1.34 16.4125 0.68 16.825 0 17.25 C-2.42773701 18.16040138 -4.42833863 18.14287008 -7 18 C-7 17.34 -7 16.68 -7 16 C-7.51949219 16.28875 -8.03898438 16.5775 -8.57421875 16.875 C-15.67532148 20.65525432 -15.67532148 20.65525432 -20 20 C-21 19 -21 19 -21.35546875 16.26171875 C-20.88919773 11.98329789 -19.41136668 10.73041096 -16.3125 7.8125 C-15.44238281 6.97332031 -14.57226562 6.13414062 -13.67578125 5.26953125 C-9.16017997 1.43951031 -6.04021338 -0.73961796 0 0 Z " fill="#F1C743" transform="translate(570,156)"/>
<path d="M0 0 C1.9375 0.3125 1.9375 0.3125 4 1 C4.33 1.99 4.66 2.98 5 4 C7.01508358 4.73323796 7.01508358 4.73323796 9 5 C9 5.99 9 6.98 9 8 C10.11375 7.79375 11.2275 7.5875 12.375 7.375 C14.169375 7.189375 14.169375 7.189375 16 7 C18 9 18 9 18.01953125 11.203125 C16.52157211 15.31246884 13.79344126 17.74860182 10.6875 20.75 C10.10548828 21.33910156 9.52347656 21.92820312 8.92382812 22.53515625 C3.76608845 27.61696091 3.76608845 27.61696091 0 28 C-0.99 27.34 -1.98 26.68 -3 26 C-3.38818359 23.92456055 -3.38818359 23.92456055 -3.3984375 21.38671875 C-3.40230469 20.46826172 -3.40617187 19.54980469 -3.41015625 18.60351562 C-3.39855469 17.64123047 -3.38695312 16.67894531 -3.375 15.6875 C-3.38660156 14.73681641 -3.39820313 13.78613281 -3.41015625 12.80664062 C-3.3889029 7.7377155 -3.3176904 4.11639365 0 0 Z " fill="#F1C744" transform="translate(427,459)"/>
<path d="M0 0 C0 0.66 0 1.32 0 2 C0.78375 2.061875 1.5675 2.12375 2.375 2.1875 C3.24125 2.455625 4.1075 2.72375 5 3 C6.1875 5.5 6.1875 5.5 7 8 C7.66 8.33 8.32 8.66 9 9 C9.125 11.375 9.125 11.375 9 14 C5.40567372 17.59432628 -0.12929531 17.07612718 -5 17.1875 C-9.35801174 17.15418187 -12.89483094 16.42788489 -17 15 C-17.4189555 11.57520502 -17.60465743 8.40901688 -17 5 C-12.33673881 -0.59089917 -6.8358166 -1.16079905 0 0 Z " fill="#F1C644" transform="translate(673,83)"/>
<path d="M0 0 C2.46591565 4.24685473 1.95618695 7.36568643 0.75390625 11.91015625 C-0.31053184 14.86080068 -1.35884868 16.28682077 -4 18 C-7.75 18.75 -7.75 18.75 -11 19 C-11.33 18.01 -11.66 17.02 -12 16 C-13.299375 16.020625 -14.59875 16.04125 -15.9375 16.0625 C-17.29165633 16.08399454 -18.64756083 16.07148199 -20 16 C-21 15 -21 15 -21.0625 12.4375 C-21.041875 11.633125 -21.02125 10.82875 -21 10 C-21.804375 9.855625 -22.60875 9.71125 -23.4375 9.5625 C-26 9 -26 9 -27 8 C-27.04080783 6.00041636 -27.04254356 3.99954746 -27 2 C-26.49597656 2.17144531 -25.99195313 2.34289062 -25.47265625 2.51953125 C-22.09209908 3.17641677 -18.84691033 2.92750671 -15.4375 2.6875 C-14.42913086 2.63432617 -14.42913086 2.63432617 -13.40039062 2.58007812 C-8.30804546 2.24126271 -5.09515688 -0.27541389 0 0 Z " fill="#F2C643" transform="translate(478,151)"/>
<path d="M0 0 C1.13598633 0.00483398 1.13598633 0.00483398 2.29492188 0.00976562 C3.47344727 0.02233398 3.47344727 0.02233398 4.67578125 0.03515625 C5.47306641 0.03966797 6.27035156 0.04417969 7.09179688 0.04882812 C9.05732382 0.06059775 11.0228121 0.07853277 12.98828125 0.09765625 C11.53559389 6.55829213 11.53559389 6.55829213 9.10546875 8.953125 C8.36554688 9.39269531 7.625625 9.83226562 6.86328125 10.28515625 C6.06019531 10.76597656 5.25710938 11.24679687 4.4296875 11.7421875 C3.62402344 12.18949219 2.81835938 12.63679688 1.98828125 13.09765625 C1.27542969 13.51402344 0.56257813 13.93039062 -0.171875 14.359375 C-4.10250674 16.51781439 -7.49575678 18.30191277 -12.01171875 17.09765625 C-15.18865368 13.44550114 -17.68420356 8.74395941 -19.01171875 4.09765625 C-18.68171875 3.10765625 -18.35171875 2.11765625 -18.01171875 1.09765625 C-17.35171875 1.42765625 -16.69171875 1.75765625 -16.01171875 2.09765625 C-13.89496231 2.03648181 -13.89496231 2.03648181 -11.57421875 1.72265625 C-10.79175781 1.63242187 -10.00929688 1.5421875 -9.203125 1.44921875 C-0.16206589 -0.00121854 -0.16206589 -0.00121854 0 0 Z " fill="#F2C643" transform="translate(385.01171875,443.90234375)"/>
<path d="M0 0 C1.11375 0.3403125 1.11375 0.3403125 2.25 0.6875 C2.25 2.3375 2.25 3.9875 2.25 5.6875 C3.17232422 5.63529297 3.17232422 5.63529297 4.11328125 5.58203125 C4.92152344 5.55496094 5.72976563 5.52789062 6.5625 5.5 C7.76326172 5.44779297 7.76326172 5.44779297 8.98828125 5.39453125 C11.25 5.6875 11.25 5.6875 13.10546875 6.94921875 C14.25 8.6875 14.25 8.6875 14.20703125 10.61328125 C12.92989067 13.38128798 11.22966837 14.87544887 8.9375 16.875 C8.15761719 17.56980469 7.37773437 18.26460938 6.57421875 18.98046875 C1.75234508 22.5219121 -2.10638236 21.53404265 -7.75 20.6875 C-8.31082354 18.52432349 -8.8020201 16.3902423 -9.1875 14.1875 C-9.73695536 11.74547619 -10.53960308 9.86621446 -11.75 7.6875 C-3.84513274 -0.4369469 -3.84513274 -0.4369469 0 0 Z " fill="#F2C643" transform="translate(384.75,392.3125)"/>
<path d="M0 0 C-0.06510417 1.98567708 -0.13020833 3.97135417 -0.1953125 5.95703125 C-0.13254462 8.31359719 -0.13254462 8.31359719 2 11 C1.9296875 13.45703125 1.9296875 13.45703125 1 16 C-1.1796875 17.94921875 -1.1796875 17.94921875 -3.875 19.6875 C-5.20144531 20.55955078 -5.20144531 20.55955078 -6.5546875 21.44921875 C-7.36164062 21.96097656 -8.16859375 22.47273438 -9 23 C-9.99 23.66 -10.98 24.32 -12 25 C-14.32387947 25.39387788 -16.65793749 25.73486085 -19 26 C-19 12.23856209 -19 12.23856209 -14.609375 7.32421875 C-13.66578125 6.45410156 -12.7221875 5.58398438 -11.75 4.6875 C-10.81671875 3.80449219 -9.8834375 2.92148437 -8.921875 2.01171875 C-5.59887277 -0.27617717 -3.94578399 -0.43777189 0 0 Z " fill="#F1C644" transform="translate(547,424)"/>
<path d="M0 0 C0.25 6.625 0.25 6.625 -2 10 C-2.309375 11.8871875 -2.309375 11.8871875 -2.625 13.8125 C-3.69334144 18.3634663 -6.02339411 20.38453376 -9.83203125 22.9375 C-13.03050764 24.50504158 -15.52084002 24.5566656 -19 24 C-19.66 23.34 -20.32 22.68 -21 22 C-20.71325582 19.99279077 -20.38133299 17.9914056 -20 16 C-20.33 15.67 -20.66 15.34 -21 15 C-21.35546875 12.6640625 -21.35546875 12.6640625 -21 10 C-18.98828125 8.0859375 -18.98828125 8.0859375 -16.3125 6.375 C-15.44238281 5.80523437 -14.57226562 5.23546875 -13.67578125 4.6484375 C-12.79277344 4.10445313 -11.90976562 3.56046875 -11 3 C-10.13375 2.43925781 -9.2675 1.87851562 -8.375 1.30078125 C-5.42852259 -0.31299668 -3.3084362 -0.23082113 0 0 Z " fill="#F1C744" transform="translate(612,284)"/>
<path d="M0 0 C1 1 1 1 1.0625 3.9375 C1.041875 4.948125 1.02125 5.95875 1 7 C1 7.66 1 8.32 1 9 C1.33 9.33 1.66 9.66 2 10 C2.4886136 13.51801796 2.20864526 14.71731933 0.0625 17.625 C-0.618125 18.40875 -1.29875 19.1925 -2 20 C-2.33 20.99 -2.66 21.98 -3 23 C-5.1875 23.3125 -5.1875 23.3125 -8 23 C-10.6875 20.5625 -10.6875 20.5625 -13 18 C-13.66 17.67 -14.32 17.34 -15 17 C-15 14.69 -15 12.38 -15 10 C-15.639375 9.773125 -16.27875 9.54625 -16.9375 9.3125 C-19 8 -19 8 -19.75 5.375 C-19.8325 4.59125 -19.915 3.8075 -20 3 C-16.31513232 0.54342155 -14.34986453 0.92368659 -10 1 C-6.54508149 0.162444 -3.58820777 -0.1594759 0 0 Z " fill="#F1C744" transform="translate(475,333)"/>
<path d="M0 0 C2.4375 0.125 2.4375 0.125 5 1 C6.1875 3.5 6.1875 3.5 7 6 C7.66 6.33 8.32 6.66 9 7 C9.57269504 16.7358156 9.57269504 16.7358156 6 21 C3.74108933 23.09827702 1.41036201 25.07831413 -1 27 C-3.4375 26.3125 -3.4375 26.3125 -6 25 C-7.07526692 21.85691208 -7 19.35575631 -7 16 C-7.33 15.67 -7.66 15.34 -8 15 C-8.39002553 11.81387594 -8.20917396 10.33861058 -6.50390625 7.578125 C-5.86324219 6.80984375 -5.22257813 6.0415625 -4.5625 5.25 C-3.92441406 4.47140625 -3.28632812 3.6928125 -2.62890625 2.890625 C-1.77878194 1.90390997 -0.92095545 0.92095545 0 0 Z " fill="#F1C744" transform="translate(551,328)"/>
<path d="M0 0 C1.670625 0.061875 1.670625 0.061875 3.375 0.125 C2.715 2.435 2.055 4.745 1.375 7.125 C2.3340625 7.3415625 2.3340625 7.3415625 3.3125 7.5625 C5.375 8.125 5.375 8.125 6.375 9.125 C6.61029412 14.65441176 6.61029412 14.65441176 5.375 17.125 C5.24884173 18.60245349 5.14757972 20.08211283 5.0625 21.5625 C4.61551258 25.83294901 4.61551258 25.83294901 2.625 28.25 C-0.21395624 29.35403854 -1.75834591 29.05472565 -4.625 28.125 C-4.955 27.795 -5.285 27.465 -5.625 27.125 C-5.44864548 24.43417128 -5.00664079 21.79648554 -4.625 19.125 C-5.429375 18.898125 -6.23375 18.67125 -7.0625 18.4375 C-9.625 17.125 -9.625 17.125 -10.4296875 14.8671875 C-10.66948082 11.50048932 -9.8990104 9.89153768 -8.3125 6.9375 C-7.86261719 6.07769531 -7.41273438 5.21789062 -6.94921875 4.33203125 C-4.80500123 0.75833538 -4.32099521 0.14899983 0 0 Z " fill="#F1C643" transform="translate(517.625,265.875)"/>
<path d="M0 0 C3.53080097 1.31144036 6.48719107 3.41188214 8.1875 6.8125 C9.23863963 23.16699604 9.23863963 23.16699604 5.8125 27.5859375 C4.1875 28.8125 4.1875 28.8125 1.5 28.5 C0.736875 28.273125 -0.02625 28.04625 -0.8125 27.8125 C-7.22527417 10.61460563 -7.22527417 10.61460563 -4.98046875 2.984375 C-3.6171172 0.44917948 -2.91520292 -0.30157272 0 0 Z " fill="#F2C643" transform="translate(307.8125,441.1875)"/>
<path d="M0 0 C2.25 1.375 2.25 1.375 4 4 C4.6256297 7.32626458 4.87102423 10.62083472 5 14 C-0.15986225 17.55707125 -5.68345838 21.09051768 -12 22 C-12.99 21.34 -13.98 20.68 -15 20 C-15.375 17.5625 -15.375 17.5625 -15 15 C-14.505 14.566875 -14.01 14.13375 -13.5 13.6875 C-10.97957243 10.85201898 -11.81927744 7.67469212 -12 4 C-4.18341709 -0.90452261 -4.18341709 -0.90452261 0 0 Z " fill="#F2C744" transform="translate(732,155)"/>
<path d="M0 0 C-0.66 1.65 -1.32 3.3 -2 5 C-1.01 5.66 -0.02 6.32 1 7 C1.43132515 11.05445642 1.30019361 12.54970958 -1 16 C-6.85094597 17.84810333 -13.02883764 19.02753891 -18.75 16.375 C-20.96058679 15.13967209 -21.81407728 14.37032148 -22.953125 12.1015625 C-23 10 -23 10 -21.390625 7.953125 C-14.86379528 2.62074777 -8.52558511 -0.96516058 0 0 Z " fill="#F1C644" transform="translate(508,34)"/>
<path d="M0 0 C0.66 0 1.32 0 2 0 C3 3 4 6 5 9 C5.99 8.34 6.98 7.68 8 7 C11.1875 6.875 11.1875 6.875 14 7 C15 9 15 9 14.5 11.1875 C12.35691332 15.20578753 9.33156384 17.94305531 6 21 C5.13375 21.825 4.2675 22.65 3.375 23.5 C1 25 1 25 -1.625 25.125 C-4 24 -4 24 -6 21.6875 C-7.67135519 15.52437773 -5.73774893 9.55448644 -2.96875 3.890625 C-1.9375 2.25 -1.9375 2.25 0 0 Z " fill="#F1C643" transform="translate(498,385)"/>
<path d="M0 0 C2.69667377 1.06232603 3.60707013 2.33826922 5.0625 4.8125 C5.0625 5.8025 5.0625 6.7925 5.0625 7.8125 C6.485625 7.750625 6.485625 7.750625 7.9375 7.6875 C11.0625 7.8125 11.0625 7.8125 13.0625 9.8125 C13.23828125 12.19140625 13.23828125 12.19140625 12.0625 14.8125 C9.29675008 16.5772518 6.32529147 17.63755917 3.25 18.75 C2.42951172 19.07806641 1.60902344 19.40613281 0.76367188 19.74414062 C-5.29359711 22.02851214 -5.29359711 22.02851214 -8.14331055 21.07250977 C-9.9375 19.8125 -9.9375 19.8125 -10.9375 16.8125 C-9.72265625 14.98828125 -9.72265625 14.98828125 -8 13.125 C-7.15115234 12.19107422 -7.15115234 12.19107422 -6.28515625 11.23828125 C-5.61806641 10.53251953 -5.61806641 10.53251953 -4.9375 9.8125 C-5.9275 8.1625 -6.9175 6.5125 -7.9375 4.8125 C-2.99934586 -0.29025928 -2.99934586 -0.29025928 0 0 Z " fill="#F1C744" transform="translate(485.9375,81.1875)"/>
<path d="M0 0 C-0.4125 1.051875 -0.825 2.10375 -1.25 3.1875 C-2.46053942 7.02402192 -2.46053942 7.02402192 -0.125 9.9375 C0.57625 10.618125 1.2775 11.29875 2 12 C0.63016497 15.16115776 0.0109362 15.9927092 -3 18 C-6.5625 18.25 -6.5625 18.25 -10 18 C-10.66 17.34 -11.32 16.68 -12 16 C-14.58354218 15.83312552 -14.58354218 15.83312552 -17 16 C-17.66 14.35 -18.32 12.7 -19 11 C-14.1426123 4.11870075 -8.70332806 -1.08791601 0 0 Z " fill="#F1C643" transform="translate(416,47)"/>
<path d="M0 0 C0.66 0.66 1.32 1.32 2 2 C0.91203125 2.70125 -0.1759375 3.4025 -1.296875 4.125 C-2.78133964 5.08319448 -4.2657079 6.04153827 -5.75 7 C-6.52118164 7.49749756 -7.29236328 7.99499512 -8.08691406 8.50756836 C-13.6066558 12.0763669 -19.06689098 15.71882081 -24.484375 19.44140625 C-26.9309651 20.95722838 -29.29854978 22.02339659 -32 23 C-32.08038482 19.14152852 -31.84171324 17.02122554 -29.3515625 14 C-21.22736554 6.49171689 -11.38533698 -0.62101838 0 0 Z " fill="#F2C743" transform="translate(330,200)"/>
<path d="M0 0 C1.5625 1.6875 1.5625 1.6875 3 4 C2.71395102 5.67542976 2.38218767 7.34385343 2 9 C2.99 10.485 2.99 10.485 4 12 C4.1953125 15.13671875 4.1953125 15.13671875 4.125 18.6875 C4.10695313 19.86699219 4.08890625 21.04648438 4.0703125 22.26171875 C4.03550781 23.61716797 4.03550781 23.61716797 4 25 C-1.703125 25.1796875 -1.703125 25.1796875 -4.375 23.5625 C-7.55046478 18.55503631 -6.25688061 12.73607104 -5.25 7.125 C-4.5194122 4.09147239 -4.17857045 3.17331838 -1.875 0.9375 C-0.946875 0.4734375 -0.946875 0.4734375 0 0 Z " fill="#F1C643" transform="translate(552,234)"/>
<path d="M0 0 C2.75 0 2.75 0 6 1 C8.07145899 3.44051203 9.21512107 5.90439361 10 9 C9.4375 12.875 9.4375 12.875 8 16 C7.01 16.66 6.02 17.32 5 18 C1.54454909 14.85515142 0.04801672 11.52215087 -1 7 C-0.95773763 4.50182456 -0.56255874 2.45480178 0 0 Z " fill="#F1C643" transform="translate(410,180)"/>
<path d="M0 0 C2 2.3125 2 2.3125 3 5 C2 8 2 8 0 9 C-2.05859375 9.16796875 -2.05859375 9.16796875 -4.4375 9.1875 C-5.61119141 9.20876953 -5.61119141 9.20876953 -6.80859375 9.23046875 C-9 9 -9 9 -12 7 C-12.1875 4.375 -12.1875 4.375 -12 2 C-7.88954343 0.00705136 -4.55147826 -0.59000644 0 0 Z " fill="#F1C644" transform="translate(84,443)"/>
</svg>
