<?xml version="1.0" encoding="UTF-8"?>
<svg version="1.1" xmlns="http://www.w3.org/2000/svg" width="690" height="712">
<path d="M0 0 C3.14005176 0.94201553 3.63179068 2.34924724 5.1953125 5.1015625 C6.89095803 7.24396494 8.69290085 8.09256529 11.125 9.3125 C15.35406381 11.45117827 15.35406381 11.45117827 16.8125 14.4375 C17.039375 15.200625 17.26625 15.96375 17.5 16.75 C19.46672915 17.9000831 19.46672915 17.9000831 21.5 18.75 C24.32468387 22.9870258 23.53371392 27.0470539 23.24609375 31.9453125 C23.06466567 36.15784544 23.06466567 36.15784544 25.1484375 39.65234375 C27.83352438 40.90568165 30.35862661 41.65707209 33.25 42.3125 C36.75225758 43.11386402 40.18905593 43.95519252 43.625 45 C50.91490798 46.41094993 58.17560759 44.69174867 65.38720703 43.29003906 C78.11128215 40.83618953 90.56039355 39.92697515 103.5 39.75 C104.38929199 39.73485352 105.27858398 39.71970703 106.19482422 39.70410156 C119.64711906 39.50046705 133.07541371 39.87004686 146.5 40.75 C147.55598389 40.81477539 147.55598389 40.81477539 148.63330078 40.88085938 C167.12246299 42.14931793 185.45641683 48.72951263 202.5 55.75 C203.16531738 56.01828613 203.83063477 56.28657227 204.51611328 56.56298828 C214.55848103 60.65013537 224.12199676 65.53739975 233.625 70.75 C234.68001709 71.31912109 235.73503418 71.88824219 236.82202148 72.47460938 C242.65672001 75.73984387 247.37371327 79.12827868 251.91723633 84.05078125 C253.5641606 85.90830313 253.5641606 85.90830313 256.0625 87.75 C258.92510123 90.09880101 261.15740891 92.74229574 263.5546875 95.5546875 C265.5723892 97.83169223 267.69385619 99.94215463 269.875 102.0625 C284.15786857 116.20011906 296.55560614 133.39418308 304.75 151.75 C305.20963135 152.76819824 305.6692627 153.78639648 306.14282227 154.83544922 C309.70130858 162.79511004 313.1098164 170.81636554 316.4375 178.875 C316.88577148 179.95136719 317.33404297 181.02773437 317.79589844 182.13671875 C327.22789825 205.34299754 330.99373488 229.77054494 330.9375 254.6875 C330.93754028 255.44284027 330.93758057 256.19818054 330.93762207 256.97640991 C330.91508082 264.2177864 330.72496045 270.81486334 328.5 277.75 C363.73545489 275.46951521 363.73545489 275.46951521 395.5 261.75 C396.16 261.75 396.82 261.75 397.5 261.75 C397.74105469 261.17507813 397.98210937 260.60015625 398.23046875 260.0078125 C399.74523893 257.31385199 401.49966422 255.66962457 403.8125 253.625 C404.57175781 252.94179687 405.33101562 252.25859375 406.11328125 251.5546875 C412.77969939 246.51395889 419.46839286 247.82086511 427.34375 248.55566406 C429.40521651 248.74145747 431.46620991 248.8842099 433.53125 249.0234375 C442.50664032 249.84435735 447.64712538 252.03569076 454.5 257.75 C455.5752452 258.55425932 456.65630962 259.35078038 457.7421875 260.140625 C466.32401084 266.39802168 466.32401084 266.39802168 467.5 268.75 C467.5135671 270.1186701 467.48106321 271.48801174 467.421875 272.85546875 C467.38005054 277.61870444 468.2210766 281.57160797 469.75 286.0625 C470.00958496 286.82812256 470.26916992 287.59374512 470.53662109 288.38256836 C477.67364843 308.02031552 491.7012759 325.65398011 504.70288086 341.7878418 C507.52743622 345.34722409 509.90101525 348.95989049 512.125 352.9375 C517.37260381 362.29842746 523.71715185 369.37899616 532.21484375 375.8671875 C537.26676797 380.02962763 540.25569451 385.19841447 543.25 390.9375 C545.54071511 395.29224487 548.16300808 398.98270065 551.25 402.8125 C561.74149559 416.06418231 567.88267068 429.94775533 571.89160156 446.3046875 C572.44767555 448.53969434 573.05052423 450.75341625 573.6796875 452.96875 C575.64219292 460.01600772 576.9452963 466.98555949 577.75 474.25 C577.83024414 474.96043457 577.91048828 475.67086914 577.99316406 476.40283203 C579.33993317 490.45621107 578.29465412 504.02725941 576.3125 517.9375 C576.20018036 518.7450473 576.08786072 519.5525946 575.97213745 520.38461304 C571.54415348 552.06744669 562.55997012 580.59000117 543.5 606.75 C542.77039063 607.75160156 542.04078125 608.75320313 541.2890625 609.78515625 C539.05684098 612.79827437 536.78670536 615.77809393 534.5 618.75 C533.87609375 619.58144531 533.2521875 620.41289063 532.609375 621.26953125 C527.29388274 628.18190459 521.22063165 634.23242124 514.97900391 640.29663086 C513.62239642 641.62972501 512.29956411 642.99696442 510.98046875 644.3671875 C506.82014262 648.36372127 502.00650335 651.42538521 497.21435547 654.60351562 C495.63977928 655.65652186 494.08629864 656.74089476 492.53515625 657.828125 C484.26293077 663.35018879 475.60267652 666.48783584 466.25 669.72265625 C459.71404391 671.98826195 453.322966 674.57831022 446.93334961 677.22460938 C446.15999268 677.54107422 445.38663574 677.85753906 444.58984375 678.18359375 C443.91816162 678.46259521 443.24647949 678.74159668 442.55444336 679.02905273 C427.87249796 684.18125532 408.88117356 680.01963949 393.84228516 678.66870117 C390.51214177 678.36970553 387.18159789 678.07682814 383.8505764 677.78788853 C380.63710039 677.50870505 377.42401826 677.22509744 374.2109375 676.94140625 C373.02341888 676.83719864 371.83590027 676.73299103 370.61239624 676.62562561 C369.50328888 676.52559738 368.39418152 676.42556915 367.25146484 676.32250977 C365.79829361 676.19260399 365.79829361 676.19260399 364.31576538 676.06007385 C361.5 675.75 361.5 675.75 358.26553345 675.15171814 C355.5477807 674.48813344 355.5477807 674.48813344 353.5 675.75 C360.02828703 678.50983611 366.74358233 678.13396266 373.70898438 678.22851562 C374.66482422 678.25494141 375.62066406 678.28136719 376.60546875 678.30859375 C377.47324951 678.32204834 378.34103027 678.33550293 379.23510742 678.34936523 C381.91969752 678.82423991 382.80965321 679.66566521 384.5 681.75 C371.14172772 684.55796336 360.42055604 685.81266394 347.58203125 680.87890625 C344.57755043 679.57803004 344.57755043 679.57803004 341.5 679.75 C342.42683594 680.08773437 343.35367187 680.42546875 344.30859375 680.7734375 C345.50613281 681.21945312 346.70367187 681.66546875 347.9375 682.125 C349.13246094 682.56585937 350.32742188 683.00671875 351.55859375 683.4609375 C354.5 684.75 354.5 684.75 355.5 686.75 C354.84 687.41 354.18 688.07 353.5 688.75 C361.42 691.225 361.42 691.225 369.5 693.75 C366.5 696.75 366.5 696.75 362.5625 697.125 C357.7453324 696.96935646 353.3514358 695.81044195 348.71875 694.55078125 C343.37775831 693.22201511 337.94812705 692.49692064 332.5 691.75 C332.97695313 692.49636719 333.45390625 693.24273438 333.9453125 694.01171875 C336.35716048 698.25972236 337.14465008 702.33974779 335.88671875 707.04296875 C335.16532528 708.97466217 334.34057643 710.8671088 333.5 712.75 C331.07498263 709.11247395 330.44202932 705.76152584 329.4765625 701.5390625 C327.53220922 695.98598954 323.95648275 693.08305801 319.0625 690.0625 C318.13566406 689.48113281 317.20882813 688.89976562 316.25390625 688.30078125 C313.20702354 686.50524007 313.20702354 686.50524007 308.5 684.75 C310.48 687.72 312.46 690.69 314.5 693.75 C311.15747276 693.82427838 308.6964086 693.81546953 305.5 692.75 C306.2734375 694.2659375 306.2734375 694.2659375 307.0625 695.8125 C308.76408951 699.7086629 308.43322076 702.59292572 307.5 706.75 C306.84 706.75 306.18 706.75 305.5 706.75 C305.1596875 706.08355469 304.819375 705.41710937 304.46875 704.73046875 C301.13035352 698.38218821 297.4013594 692.65870318 293.0390625 686.96484375 C291.5 684.75 291.5 684.75 291.5 682.75 C290.84 682.75 290.18 682.75 289.5 682.75 C289.46261719 683.35328125 289.42523438 683.9565625 289.38671875 684.578125 C288.71072102 692.79613667 288.71072102 692.79613667 285.5 695.75 C284.84 695.75 284.18 695.75 283.5 695.75 C283.40961901 690.59828377 283.65318867 685.83086796 284.5 680.75 C284.09910156 681.306875 283.69820313 681.86375 283.28515625 682.4375 C274.43149927 694.32268125 262.97034992 702.62711367 249.5 708.75 C248.51 708.75 247.52 708.75 246.5 708.75 C246.17 707.76 245.84 706.77 245.5 705.75 C246.75 704.91666667 248 704.08333333 249.25 703.25 C250.47783203 702.42822266 250.47783203 702.42822266 251.73046875 701.58984375 C253.6418539 700.32008013 255.56171143 699.06301025 257.48828125 697.81640625 C263.57682877 693.84763258 269.20403547 689.7344372 274.5 684.75 C273.84 684.42 273.18 684.09 272.5 683.75 C273.1001884 679.54868118 274.11923249 675.7575935 275.5 671.75 C273.409831 673.13639822 271.32826362 674.53344824 269.25 675.9375 C268.66347656 676.32486328 268.07695312 676.71222656 267.47265625 677.11132812 C263.77841718 679.62258052 261.22732976 682.16140821 258.5 685.75 C256.54148656 687.14355764 254.54872887 688.49282547 252.5 689.75 C254.3803924 682.41646965 258.84112759 675.75592559 264.5 670.75 C260.9765098 670.75 259.67656563 670.90682286 256.625 672.1875 C250.53293669 674.57037347 244.97456349 674.8616304 238.5 674.75 C239.04296875 672.91015625 239.04296875 672.91015625 240.5 670.75 C242.97202812 669.7173066 245.25369938 668.911965 247.8125 668.1875 C252.39544532 666.84062082 256.49100086 665.42525088 260.5 662.75 C259.27415399 658.93625685 256.95088663 657.48371714 253.5222168 655.60986328 C250.09721872 654.15352581 246.87370647 654.02990755 243.1875 654.0625 C242.41857422 654.0625 241.64964844 654.0625 240.85742188 654.0625 C232.9209706 654.33284141 226.18292024 657.0314761 219 660.21875 C215.5 661.75 215.5 661.75 213.5 661.75 C214.87025223 657.26553815 216.59784422 655.32376232 220.5 652.75 C225.05287357 650.49422054 229.7631067 648.58363612 234.5 646.75 C230.4622529 644.68626259 227.28534992 643.60848915 222.75 643.375 C217.1220226 643.00504904 211.87393874 641.73729914 206.4375 640.3125 C205.59155273 640.09480957 204.74560547 639.87711914 203.87402344 639.65283203 C203.07899414 639.43868652 202.28396484 639.22454102 201.46484375 639.00390625 C200.7493335 638.81127197 200.03382324 638.6186377 199.29663086 638.42016602 C197.5 637.75 197.5 637.75 195.5 635.75 C198.04173977 635.72283176 200.58318415 635.70308031 203.125 635.6875 C203.83785156 635.67912109 204.55070312 635.67074219 205.28515625 635.66210938 C209.47344438 635.64289704 213.3728462 635.9232673 217.5 636.75 C217.83 635.43 218.16 634.11 218.5 632.75 C225.79031024 632.5005217 232.40673679 633.02669093 239.5 634.75 C238.695625 633.863125 237.89125 632.97625 237.0625 632.0625 C234.29504554 628.75562645 233.5 626.06165706 233.5 621.75 C232.23901328 620.22668035 230.91385508 618.75625543 229.5625 617.3125 C225.49327258 612.8814224 221.65157697 608.32653978 217.87109375 603.6484375 C215.80352617 601.12103199 213.69452802 598.63657019 211.56274414 596.16333008 C185.70267431 566.06134572 168.58497164 535.95412293 159.125 497.4375 C158.87403564 496.41849609 158.62307129 495.39949219 158.36450195 494.34960938 C156.90156178 488.16130616 155.9515514 482.09351259 155.5 475.75 C146.1388887 478.30191501 137.08117064 481.22453427 128.0625 484.8125 C106.31128483 493.39277831 86.76773963 495.53299178 64.17822266 489.69238281 C60.60374192 488.7765793 57.02403181 487.88531459 53.44192505 486.99996948 C49.97732001 486.14198019 46.51513668 485.2744747 43.05334473 484.4052124 C41.32817233 483.97309411 39.60235253 483.54355123 37.87585449 483.11676025 C10.21275226 476.25899901 -9.36439478 461.64697643 -31.37890625 444.21484375 C-34.02894083 442.12201293 -36.69636009 440.05591337 -39.375 438 C-45.71829051 433.05458277 -51.52350808 427.97930085 -56.73046875 421.83203125 C-58.54522523 419.69678797 -60.42401822 417.63263935 -62.3125 415.5625 C-69.77294363 407.16408957 -76.30630329 398.20249677 -82.421875 388.79296875 C-84.32307297 386.00907172 -86.3211976 383.37857052 -88.41601562 380.74169922 C-94.76853455 372.74524513 -98.31378604 366.05749791 -99.8828125 355.94140625 C-100.45409335 352.98737804 -101.26396226 350.19992421 -102.16723633 347.33349609 C-106.93816042 331.92862806 -108.46681736 315.69754527 -110.5 299.75 C-110.61706299 298.88221924 -110.73412598 298.01443848 -110.85473633 297.12036133 C-114.65909746 267.04795371 -110.90341046 233.8502418 -99.5 205.75 C-99.14083496 204.85780762 -98.78166992 203.96561523 -98.41162109 203.04638672 C-88.45953414 178.66192231 -75.75911236 153.80834193 -60.38671875 132.390625 C-58.59098748 129.87734479 -56.84712539 127.33260631 -55.10864258 124.77954102 C-49.63614259 116.75617383 -49.63614259 116.75617383 -46.4375 113.375 C-28.18179085 92.64136911 -27.11930336 63.04892541 -27.35473633 37.02978516 C-27.4961716 34.81008333 -27.92658508 32.89201274 -28.5 30.75 C-29.40553319 18.24667634 -29.40553319 18.24667634 -25.5 12.75 C-21.62978884 10.16985923 -19.9510289 10.94072202 -15.5 11.75 C-14.84 11.75 -14.18 11.75 -13.5 11.75 C-12.819375 11.069375 -12.819375 11.069375 -12.125 10.375 C-10.5 8.75 -10.5 8.75 -8.5625 7.9375 C-6.17793371 6.781345 -6.17793371 6.781345 -4.5625 3.625 C-2.5 0.75 -2.5 0.75 0 0 Z M-5.5 15.75 C-6.41160093 17.92208588 -6.41160093 17.92208588 -6.75 20.375 C-6.89953125 21.19226563 -7.0490625 22.00953125 -7.203125 22.8515625 C-7.30109375 23.47804688 -7.3990625 24.10453125 -7.5 24.75 C-10.6875 25.125 -10.6875 25.125 -14.5 24.75 C-16.58835186 22.94185738 -17.88515111 21.02978666 -19.5 18.75 C-19.83 18.75 -20.16 18.75 -20.5 18.75 C-21.12982815 27.61315213 -21.12982815 27.61315213 -18.5 35.75 C-15.58523075 37.1461052 -12.64068134 38.01329697 -9.5 38.75 C-6.71355437 34.84897612 -4.81860889 31.36513112 -3.5 26.75 C-2.571875 26.646875 -1.64375 26.54375 -0.6875 26.4375 C2.65911108 25.71568192 3.50940386 25.40412818 5.5 22.75 C6.53357147 21.10394174 7.54060332 19.44036558 8.5 17.75 C6.38506863 15.63506863 5.43588683 15.24249841 2.625 14.5 C1.60792969 14.21382812 1.60792969 14.21382812 0.5703125 13.921875 C-2.1278782 13.69787426 -3.32158238 14.15124716 -5.5 15.75 Z M12.5 25.75 C11.12926214 27.38604196 9.79944744 29.05678061 8.5 30.75 C7.654375 31.245 6.80875 31.74 5.9375 32.25 C3.01967527 34.04558445 2.15870987 35.79316936 0.5 38.75 C-0.83333333 40.08333333 -2.16666667 41.41666667 -3.5 42.75 C-3.5 43.41 -3.5 44.07 -3.5 44.75 C-14.05808656 44.93451025 -14.05808656 44.93451025 -18.5 43.75 C-19.83333333 46.75 -19.83333333 46.75 -18.5 49.75 C-17.36498293 62.32249679 -19.24411661 77.06750986 -24.54296875 88.578125 C-25.55731174 90.88006255 -26.18101583 93.12954258 -26.8125 95.5625 C-29.74583494 105.57034861 -35.26974566 113.77467295 -41.98046875 121.6171875 C-46.88277014 127.52976708 -50.9072678 134.14985672 -55.08496094 140.58105469 C-56.34665536 142.51495621 -57.62551227 144.4355067 -58.9140625 146.3515625 C-64.72162374 155.06353658 -69.54811825 164.19896941 -74.32861328 173.50585938 C-75.37381926 175.50826316 -76.45160077 177.48441714 -77.55859375 179.453125 C-90.88642976 203.37350674 -99.7162851 228.93345838 -102.00805664 256.24609375 C-102.18803091 258.38129871 -102.38306546 260.51474394 -102.58007812 262.6484375 C-103.63462022 274.56925184 -103.86985555 286.02154603 -102.1796875 297.90234375 C-102.03854523 298.92316544 -101.89740295 299.94398712 -101.75198364 300.9957428 C-101.45193252 303.1433592 -101.14750608 305.29036852 -100.83886719 307.43676758 C-100.38084998 310.64650392 -99.94752171 313.85892452 -99.515625 317.07226562 C-97.71711604 329.98350936 -95.03304623 342.27626699 -91.13050842 354.71507263 C-90.32462451 357.31601366 -89.60712434 359.94002285 -88.875 362.5625 C-86.12631796 369.8194806 -80.72929793 375.7511021 -75.99560547 381.79833984 C-73.84263047 384.60782109 -71.86220105 387.50806101 -69.875 390.4375 C-63.6632488 399.49115546 -57.32442476 408.33742652 -49.34765625 415.93359375 C-47.50773349 417.7423973 -45.8911615 419.63583316 -44.25 421.625 C-36.37869884 430.71679505 -26.06112364 437.67876355 -16.4453125 444.80078125 C-13.97182891 446.63704664 -11.52821155 448.50046686 -9.1171875 450.41796875 C7.08802525 463.29777021 23.41153818 470.76195615 43.5625 475.75 C44.92870648 476.09385408 46.29475307 476.43834397 47.66064453 476.78344727 C50.35917531 477.46408577 53.05875994 478.14027763 55.75927734 478.81298828 C59.05873999 479.639469 62.35267825 480.48366426 65.64453125 481.33984375 C67.38798489 481.78920199 69.13147147 482.23843244 70.875 482.6875 C72.01207397 482.98624023 72.01207397 482.98624023 73.17211914 483.29101562 C82.45426346 485.64532685 90.18108838 485.8897075 99.625 484.125 C100.63546387 483.94187256 101.64592773 483.75874512 102.68701172 483.57006836 C113.26856008 481.5601983 122.99090246 478.13782179 133 474.1875 C140.02259428 471.42393862 147.18288493 469.56156791 154.5 467.75 C154.47381592 467.19578369 154.44763184 466.64156738 154.4206543 466.07055664 C153.88478669 452.6765797 154.73211813 439.78362902 156.75 426.5625 C156.85251068 425.87125031 156.95502136 425.18000061 157.06063843 424.46780396 C161.54402827 394.66717672 175.17341178 365.83535806 194.5 342.75 C195.44516288 341.56862945 196.38912859 340.38630032 197.33203125 339.203125 C203.94070299 331.04937028 210.99135214 324.83942113 219.5 318.75 C221.47973292 317.20906056 223.45891006 315.66740677 225.4375 314.125 C231.77979552 309.36191059 238.54365705 305.52659447 245.5 301.75 C248.68182896 263.21451592 223.56913852 221.24604614 202.5 190.75 C202.00741699 190.02925293 201.51483398 189.30850586 201.00732422 188.56591797 C191.68870382 174.94308492 181.61822926 161.98332644 170.40234375 149.86328125 C164.5 143.30646817 164.5 143.30646817 164.5 138.75 C173.49575311 146.43727993 181.09541526 154.51454767 188.5 163.75 C189.40350947 164.84103656 190.30850837 165.93084107 191.21484375 167.01953125 C203.73952052 182.18906483 214.81410717 198.63181714 224.5 215.75 C224.86254883 216.37551758 225.22509766 217.00103516 225.59863281 217.64550781 C232.77848835 230.09680707 237.8220125 243.1835977 242.5 256.75 C242.76828613 257.51812012 243.03657227 258.28624023 243.31298828 259.07763672 C247.73149798 271.96271604 249.58849846 285.30139505 251.5 298.75 C254.21878256 297.69624367 256.70889873 296.63130754 259.25 295.1875 C263.34001657 293.37845421 267.08647421 293.07211392 271.5 292.75 C270.92833185 285.77564854 269.50354291 279.44567177 267.5 272.75 C267.19094727 271.71109619 266.88189453 270.67219238 266.56347656 269.60180664 C254.76907058 230.65045944 237.08095257 193.23810028 211.56640625 161.33203125 C211.00824219 160.62433594 210.45007813 159.91664063 209.875 159.1875 C209.38773437 158.58808594 208.90046875 157.98867187 208.3984375 157.37109375 C208.10195313 156.83613281 207.80546875 156.30117187 207.5 155.75 C207.83 154.76 208.16 153.77 208.5 152.75 C211.85740829 155.22387979 213.7039074 157.04555902 215.5 160.75 C216.23089844 161.45382813 216.96179688 162.15765625 217.71484375 162.8828125 C220.97688898 166.2409348 223.48702354 169.79235437 226.0625 173.6875 C226.58207275 174.47253906 227.10164551 175.25757813 227.63696289 176.06640625 C233.86112735 185.63656303 239.22258669 195.63605866 244.5 205.75 C245.04333984 206.77689941 245.58667969 207.80379883 246.14648438 208.86181641 C259.91365124 234.96906577 268.85738385 262.31728235 276.5 290.75 C281.02142051 289.63199121 285.54206425 288.51091221 290.06201172 287.38696289 C291.60021263 287.00492925 293.13862352 286.62374004 294.67724609 286.2434082 C296.88694934 285.69703735 299.0958832 285.14764843 301.3046875 284.59765625 C301.99432587 284.4278273 302.68396423 284.25799835 303.39450073 284.08302307 C307.04023758 283.18074671 307.04023758 283.18074671 310.5 281.75 C309.2330189 276.39877549 307.88504969 271.07161275 306.5 265.75 C306.2745752 264.87682129 306.04915039 264.00364258 305.81689453 263.10400391 C294.69116066 220.70838664 274.26801621 184.68204709 245.91015625 151.58984375 C245.11480469 150.65269531 244.31945312 149.71554688 243.5 148.75 C242.71496094 147.86441406 241.92992187 146.97882813 241.12109375 146.06640625 C240.31865234 144.91978516 240.31865234 144.91978516 239.5 143.75 C239.83 142.76 240.16 141.77 240.5 140.75 C241.63151117 141.88151117 242.76228776 143.01376129 243.890625 144.1484375 C245.0158241 145.26817447 246.15223188 146.37670977 247.296875 147.4765625 C266.41206267 166.05652492 281.35709101 189.65060005 292.5 213.75 C292.85803711 214.51586426 293.21607422 215.28172852 293.58496094 216.07080078 C303.15678612 236.75441087 309.64874912 258.30126129 313.5 280.75 C317.12340942 280.39590869 317.12340942 280.39590869 319.828125 278.18359375 C320.13234375 277.52488281 320.4365625 276.86617187 320.75 276.1875 C321.06453125 275.54683594 321.3790625 274.90617188 321.703125 274.24609375 C323.62779798 268.21733868 323.66063878 261.89742574 323.625 255.625 C323.62886719 254.96757812 323.63273437 254.31015625 323.63671875 253.6328125 C323.61470609 241.92207542 322.36392436 230.45332087 320.19067383 218.95581055 C319.81513572 216.9515668 319.46272848 214.94414444 319.11132812 212.93554688 C316.21405146 196.99991883 310.16068888 182.40441959 303.54101562 167.69091797 C302.49274568 165.35886152 301.456681 163.02165118 300.421875 160.68359375 C292.50240085 142.89053068 282.65697565 128.1895994 269.95898438 113.46044922 C268.44760014 111.68856871 266.96416879 109.89597709 265.484375 108.09765625 C260.44940582 102.0214703 255.55726248 96.4801776 249.14453125 91.7890625 C246.5 89.75 246.5 89.75 244.66259766 88.00219727 C238.4884379 82.15630006 231.80800342 78.25099163 224.25 74.4375 C223.62527802 74.11806427 223.00055603 73.79862854 222.35690308 73.46951294 C208.49054868 66.40555412 194.24528179 60.74098018 179.5 55.75 C178.53578125 55.41613281 177.5715625 55.08226563 176.578125 54.73828125 C136.40931552 41.13827004 75.50375203 41.93633436 36.5 59.75 C33.16690441 61.40562122 29.8916793 63.15496106 26.625 64.9375 C24.98396581 65.83086674 23.34081017 66.72035025 21.6953125 67.60546875 C20.98391113 67.99371826 20.27250977 68.38196777 19.53955078 68.78198242 C17.53346324 69.73411758 15.66754891 70.29352967 13.5 70.75 C15.35656279 63.25972942 20.24583364 60.69558146 26.5 56.75 C29.13432965 55.27872072 31.74832086 53.99604338 34.5 52.75 C34.17 52.09 33.84 51.43 33.5 50.75 C31.28621301 50.09486015 31.28621301 50.09486015 28.6875 49.6875 C26.95773317 49.37833931 25.22853615 49.06596897 23.5 48.75 C22.7678125 48.63011719 22.035625 48.51023437 21.28125 48.38671875 C19.5 47.75 19.5 47.75 17.8125 44.625 C15.3920781 38.13086256 15.43668609 32.48432144 16.5 25.75 C15.18 25.75 13.86 25.75 12.5 25.75 Z M426.5 266.75 C426.17 269.72 425.84 272.69 425.5 275.75 C426.61375 276.059375 427.7275 276.36875 428.875 276.6875 C432.5 277.75 432.5 277.75 434.5 278.75 C434.44539838 274.64918577 434.44539838 274.64918577 433.5 270.75 C431.27618924 268.80416558 429.25254348 267.95110988 426.5 266.75 Z M457.5 271.75 C458.5 275.75 458.5 275.75 458.5 275.75 Z M458.5 277.75 C458.83 279.73 459.16 281.71 459.5 283.75 C459.83 282.76 460.16 281.77 460.5 280.75 C459.84 279.76 459.18 278.77 458.5 277.75 Z M422.5 279.75 C413.51380204 294.82370767 413.51380204 294.82370767 404.8125 310.0625 C397.40708873 323.30559378 389.74154056 336.16157973 381.01220703 348.58007812 C379.35197516 350.96240632 377.71878723 353.36180057 376.08984375 355.765625 C375.22516479 357.04010498 375.22516479 357.04010498 374.34301758 358.34033203 C373.22767037 359.98585353 372.11411954 361.63259459 371.00268555 363.28076172 C368.66813775 366.71286537 366.32685969 370.03205002 363.6171875 373.1796875 C361.28807017 375.45228527 361.28807017 375.45228527 361.5 377.75 C362.469375 378.03875 363.43875 378.3275 364.4375 378.625 C367.5 379.75 367.5 379.75 368.5 381.75 C368.91046067 388.13628514 368.31661404 394.42124121 367.5 400.75 C370.00566277 398.44508766 371.67138974 396.02807183 373.4375 393.125 C385.68297275 373.58931995 399.40484446 356.50679555 417.046875 341.59765625 C417.91828125 340.84355469 418.7896875 340.08945312 419.6875 339.3125 C420.88439453 338.29349609 420.88439453 338.29349609 422.10546875 337.25390625 C428.68960808 330.3690232 430.390718 324.13221424 431.3125 314.75 C431.43302734 313.68910156 431.55355469 312.62820313 431.67773438 311.53515625 C431.96981079 308.94151764 432.24339699 306.34734651 432.5 303.75 C430.52 303.75 428.54 303.75 426.5 303.75 C425.22311015 301.1962203 425.47125119 299.47354975 425.5625 296.625 C425.62694938 290.48619696 424.43919697 285.5675909 422.5 279.75 Z M466.5 320.75 C467.5 322.75 467.5 322.75 467.5 322.75 Z M467.5 322.75 C467.83 325.06 468.16 327.37 468.5 329.75 C469.19159401 327.90274948 469.19159401 327.90274948 469.5 325.75 C468.84 324.76 468.18 323.77 467.5 322.75 Z M469.5 329.75 C470.5 332.75 470.5 332.75 470.5 332.75 Z M328.75 286.8125 C327.91710449 286.93971436 327.08420898 287.06692871 326.22607422 287.19799805 C302.7303867 291.023908 275.79892729 295.66586437 254.5 306.75 C253.27516738 307.33307492 252.04844357 307.91218631 250.8203125 308.48828125 C229.67430018 318.52620583 210.10619328 332.83440072 196.3125 351.9375 C190.95108133 359.31541159 190.95108133 359.31541159 188.36328125 361.80859375 C185.85743247 364.41950957 184.42350086 367.39717317 182.875 370.625 C182.54089111 371.30900879 182.20678223 371.99301758 181.86254883 372.69775391 C180.72727688 375.04189223 179.61121069 377.39436196 178.5 379.75 C178.07283691 380.65363281 177.64567383 381.55726563 177.20556641 382.48828125 C175.8547063 385.36199166 174.51826008 388.24193102 173.1875 391.125 C172.76710449 392.02718262 172.34670898 392.92936523 171.91357422 393.85888672 C167.09841732 404.42435162 164.84743071 414.56545089 163.3125 426.0625 C163.04663086 427.90618164 163.04663086 427.90618164 162.77539062 429.78710938 C161.67541278 437.83520986 161.29892058 445.63486499 161.5 453.75 C161.50668701 454.56557373 161.51337402 455.38114746 161.52026367 456.22143555 C161.85283482 489.31047674 170.93050691 525.25464228 189.28466797 552.91455078 C190.38510071 554.57647391 191.4615789 556.25419732 192.53515625 557.93359375 C197.70875523 565.93301887 203.52063099 573.34797332 209.5 580.75 C210.03351074 581.41112793 210.56702148 582.07225586 211.11669922 582.75341797 C214.40392112 586.82160879 217.7054633 590.87788607 221.01464844 594.92822266 C222.35054897 596.56669895 223.67961684 598.21074048 225.0078125 599.85546875 C230.62866779 606.7983022 236.46920791 613.51988302 242.6328125 619.98828125 C247.70591801 625.41824019 251.21491697 631.09272947 254.5 637.75 C258.10688492 636.50398521 259.3303519 635.97781316 261.6875 632.8125 C265.00340002 628.58472747 269.33024476 627.51868081 274.5 626.75 C277.92373767 626.71858956 281.13626616 627.13841203 284.5 627.75 C285.29792969 627.87632812 286.09585938 628.00265625 286.91796875 628.1328125 C290.71165177 628.83181607 293.04127461 629.41254684 296.21875 631.75 C300.30200117 634.23883881 303.5628518 634.57973311 308.25 634.9375 C316.3276127 635.66380635 316.3276127 635.66380635 318.5 636.75 C318.94446146 638.21528907 319.33240971 639.69802729 319.6875 641.1875 C320.37634826 643.65762684 320.37634826 643.65762684 321.5 645.75 C324.88824997 646.93241655 324.88824997 646.93241655 328.5 647.75 C329.6796875 649.30078125 329.6796875 649.30078125 330.75 651.1875 C332.98199655 654.79764207 335.05289051 655.52576871 339.125 656.5625 C340.06601562 656.75457031 341.00703125 656.94664062 341.9765625 657.14453125 C344.5 657.75 344.5 657.75 347.5 659.75 C348.1875 663.375 348.1875 663.375 348.5 666.75 C349.49 666.42 350.48 666.09 351.5 665.75 C353.01766539 665.63367271 354.5404346 665.57503761 356.0625 665.5625 C356.84753906 665.54832031 357.63257813 665.53414062 358.44140625 665.51953125 C360.5 665.75 360.5 665.75 362.5 667.75 C365.30168137 668.19367795 368.03134597 668.52193336 370.8515625 668.7734375 C371.69667389 668.85516205 372.54178528 668.9368866 373.4125061 669.02108765 C376.10736473 669.27662255 378.8031671 669.51626882 381.5 669.75 C382.34961304 669.82367798 383.19922607 669.89735596 384.07458496 669.9732666 C389.15063362 670.40573525 394.22875018 670.80399509 399.30908203 671.18261719 C401.8953206 671.37652356 404.48082979 671.57872697 407.06640625 671.78125 C411.15986243 672.09623636 415.2541503 672.37480012 419.35241699 672.6192627 C421.26612135 672.73576229 423.17860785 672.87188966 425.09082031 673.01074219 C433.22216752 673.36082462 440.03833581 671.36910174 447.55834961 668.49206543 C449.50374524 667.74856863 451.45764316 667.03373199 453.41601562 666.32519531 C456.71388007 665.12540529 459.99558344 663.88752415 463.27197266 662.63037109 C464.59572565 662.12485495 465.92161073 661.62488856 467.24951172 661.13037109 C475.9802559 657.8784945 483.83793484 654.13760879 491.5 648.75 C492.20044434 648.27046875 492.90088867 647.7909375 493.62255859 647.296875 C508.2833025 637.09682591 520.36863051 625.32707433 530.31005859 610.49560547 C531.51254494 608.73159698 532.75603286 607.00590223 534.01953125 605.28515625 C564.14379682 564.25861045 574.12853805 516.48277731 566.7578125 466.41796875 C563.50238336 445.58270634 557.14847553 427.73051155 544.5 410.75 C542.98973869 408.63132682 541.48885153 406.50854112 540 404.375 C539.61376465 403.82650391 539.2275293 403.27800781 538.82958984 402.71289062 C536.3322234 399.11533017 534.22896805 395.43185185 532.1875 391.5625 C528.31685984 384.67422805 522.74499715 380.38503893 516.5 375.75 C516.5 379.2885005 517.31487617 380.34949165 519.203125 383.28515625 C522.37335088 388.41493851 524.84839952 393.66561561 527.25 399.1875 C530.50420929 406.52254252 533.94514371 413.68487012 537.75 420.75 C547.06618393 438.1394895 551.68127569 453.64874757 551.6328125 473.4296875 C551.63424759 474.76895798 551.63424759 474.76895798 551.63571167 476.13528442 C551.63638756 478.01597159 551.63457482 479.89666116 551.63037109 481.77734375 C551.62507848 484.58339003 551.63030325 487.38927153 551.63671875 490.1953125 C551.65760318 526.04107269 551.65760318 526.04107269 547.625 536.9375 C545.57502145 542.97259915 544.2082778 548.41134609 543.5625 554.75 C541.02801874 573.91599442 525.58737042 594.5019923 514.5 609.75 C514.03110352 610.40162109 513.56220703 611.05324219 513.07910156 611.72460938 C508.00605131 618.7057427 502.868399 624.7733673 495.859375 629.9296875 C492.63943116 632.41394881 489.94181275 635.29542248 487.19140625 638.28125 C485.5 639.75 485.5 639.75 482.5 639.75 C485.10303251 633.07972918 490.03194348 629.18425111 495.75390625 625.16796875 C496.33011719 624.70003906 496.90632813 624.23210937 497.5 623.75 C497.5 623.09 497.5 622.43 497.5 621.75 C498.16 621.75 498.82 621.75 499.5 621.75 C501.25610797 619.42986429 502.89055484 617.10705929 504.5 614.6875 C504.98766846 613.96377197 505.47533691 613.24004395 505.9777832 612.49438477 C506.99267709 610.98639713 508.00476332 609.47651645 509.01416016 607.96484375 C510.38340884 605.92379477 511.77114229 603.89723209 513.16796875 601.875 C518.17904585 594.57278769 522.62350554 587.14213115 526.6796875 579.26953125 C528.78566129 575.19768064 531.01691954 571.20472047 533.2734375 567.21484375 C535.89233582 561.9520258 536.93136515 556.63958887 537.8125 550.875 C538.75937852 544.98536463 540.14472783 539.55680681 542.125 533.9375 C545.24862704 524.57118557 545.41160432 515.55630769 545.5 505.75 C545.5234826 504.32729272 545.54814018 502.90460453 545.57373047 501.48193359 C546.12444 478.50085344 546.12444 478.50085344 544.3125 455.625 C544.21163086 454.870979 544.11076172 454.11695801 544.00683594 453.34008789 C541.85110685 440.485609 534.53426746 428.77910683 528.51391602 417.39160156 C524.26623268 409.33959243 520.31649619 401.3011775 516.9074707 392.85522461 C514.43293838 387.39580108 510.90952478 382.65607192 507.5 377.75 C501.38598841 368.36632135 495.99333611 358.5795617 490.59912109 348.77075195 C487.16365264 342.56182313 483.5551823 336.57481725 479.5 330.75 C479.17 331.41 478.84 332.07 478.5 332.75 C479.56484104 335.52283392 480.69723123 338.18112176 481.9375 340.875 C482.30512451 341.68686768 482.67274902 342.49873535 483.05151367 343.33520508 C485.67197942 349.07338183 488.42761355 354.73464057 491.2890625 360.35595703 C493.79033126 365.28032989 496.1687833 370.25507573 498.52319336 375.2512207 C502.2056079 383.05910916 505.93221827 390.77131842 510.25 398.25 C519.15939676 413.70235743 527.68399671 430.70642966 529.30566406 448.66845703 C529.5214808 450.98008206 529.78923042 453.28340602 530.0546875 455.58984375 C532.76938761 481.03157369 534.88088643 509.97248796 527.5 534.75 C527.12907227 536.01602051 526.75814453 537.28204102 526.37597656 538.58642578 C525.07534586 542.97090006 523.70283423 547.33076864 522.3125 551.6875 C521.98613052 552.73124786 521.98613052 552.73124786 521.65316772 553.79608154 C518.35073377 564.22750327 513.83927385 572.84151139 507.5 581.75 C506.96995361 582.49580322 506.43990723 583.24160645 505.89379883 584.01000977 C504.63147035 585.72696649 503.33483604 587.40155549 502 589.0625 C501.31635376 589.92584961 501.31635376 589.92584961 500.61889648 590.80664062 C497.14776392 595.11854656 493.37815836 599.0184898 489.37109375 602.83984375 C487.66153401 604.58509367 486.39928735 606.23997982 485.125 608.3125 C484.320625 609.5190625 484.320625 609.5190625 483.5 610.75 C482.51 610.75 481.52 610.75 480.5 610.75 C480.83 609.1 481.16 607.45 481.5 605.75 C482.16 605.75 482.82 605.75 483.5 605.75 C484.85826743 603.9440525 486.13414751 602.07605021 487.375 600.1875 C490.37183959 595.69534165 493.51123089 591.43393856 496.96533203 587.2824707 C501.67360553 581.62220617 505.87249333 575.91653669 509.5 569.5 C509.84933594 568.88729248 510.19867187 568.27458496 510.55859375 567.64331055 C515.88198707 557.8522542 518.56939935 547.20080266 521.1875 536.4375 C521.64866211 534.58415039 521.64866211 534.58415039 522.11914062 532.69335938 C524.23409643 524.11783837 525.65757944 516.23814474 525.703125 507.41015625 C525.71027527 506.50349716 525.71742554 505.59683807 525.72479248 504.66270447 C526.69192201 461.04092785 526.69192201 461.04092785 514.5 419.75 C514.01144531 418.75274902 513.52289062 417.75549805 513.01953125 416.72802734 C508.16257158 406.94964836 503.00591545 397.34651128 497.58520508 387.87011719 C492.060216 378.1910764 487.59904595 368.17758626 483.1953125 357.9453125 C479.5266295 349.43810616 475.52687516 341.09209447 471.5 332.75 C470.20355185 336.63934445 471.22449091 339.29966758 472.30859375 343.1015625 C472.51032196 343.82828659 472.71205017 344.55501068 472.91989136 345.30375671 C473.58115977 347.66419223 474.25794216 350.01976949 474.9375 352.375 C475.16553314 353.17610199 475.39356628 353.97720398 475.62850952 354.80258179 C478.11805344 363.50849181 480.57749127 372.0167077 484.8125 380.0625 C489.72623877 389.47214672 491.50357146 399.39198648 493.5 409.75 C493.87747268 411.65822374 494.25497325 413.56644208 494.63327026 415.47450256 C495.83358846 421.53633496 497.00403365 427.60315527 498.1484375 433.67578125 C498.87791185 437.53938647 499.61851438 441.39334426 500.4765625 445.23046875 C503.18828904 457.7893235 503.54446017 470.61832388 504.27929688 483.41186523 C504.46928817 486.28548356 504.72625534 489.133852 505.0390625 491.99609375 C508.16861286 521.56578706 500.07458905 550.04078702 485.5 575.75 C484.94957031 576.72453125 484.39914062 577.6990625 483.83203125 578.703125 C472.2763211 597.91689485 446.13637252 628.62746804 423.625 634.5 C422.92375 634.5825 422.2225 634.665 421.5 634.75 C424.1796442 630.33424828 426.57987481 627.6257039 430.875 624.625 C465.85768881 599.1830445 492.22172812 565.6699097 499.24365234 521.875 C500.60952907 510.55253238 499.63586238 499.06517351 498.34204102 487.7824707 C497.79791505 483.00757148 497.39663454 478.26219324 497.16796875 473.4609375 C496.28566463 455.75054718 493.31021878 439.03169329 489.40380859 421.79248047 C488.54951299 418.0080761 487.76352374 414.2115965 486.98828125 410.41015625 C484.79731237 399.92085537 482.34508223 390.34271626 477.46118164 380.77807617 C470.55143319 367.2205993 467.34569511 351.84712092 463.390625 337.23925781 C461.25320383 329.35643116 458.9521264 321.54072809 456.5 313.75 C455.27334355 317.42996936 455.8162627 319.30834781 456.57421875 323.1015625 C456.8306634 324.42390902 457.08666481 325.74634155 457.34228516 327.06884766 C457.48015442 327.76907043 457.61802368 328.46929321 457.7600708 329.19073486 C460.17611863 341.53731545 462.18517382 353.87705437 463.625 366.375 C463.70316956 367.05147583 463.78133911 367.72795166 463.86187744 368.42492676 C464.17622628 371.15588808 464.4883588 373.88708676 464.796875 376.61871338 C465.6474655 384.12993997 466.59666501 391.62784363 467.5625 399.125 C467.72878906 400.42566406 467.89507813 401.72632813 468.06640625 403.06640625 C468.85265646 409.12552495 469.69966186 415.15768315 470.74462891 421.17749023 C473.06916045 434.60695648 473.8800532 448.14763783 474.5 461.75 C474.55881348 462.98250488 474.61762695 464.21500977 474.67822266 465.48486328 C475.45672577 484.2455526 473.34620013 501.20261945 469.22998047 519.39208984 C468.59902994 522.29446228 468.06404118 525.18099203 467.59765625 528.11328125 C465.40367399 541.49987228 459.76869802 552.80962282 453.5 564.75 C452.98775879 565.74128906 452.47551758 566.73257812 451.94775391 567.75390625 C445.58926909 580.01912563 439.38944157 590.99068266 429.5 600.75 C430.07482588 597.07734402 431.05684729 594.40536375 432.94921875 591.21484375 C433.4611377 590.33650879 433.97305664 589.45817383 434.50048828 588.55322266 C435.33555908 587.13468994 435.33555908 587.13468994 436.1875 585.6875 C441.45639028 576.55188821 446.39991833 567.2992815 451.125 557.875 C451.71627686 556.70573975 452.30755371 555.53647949 452.91674805 554.33178711 C458.37497205 543.36076477 461.18845887 533.15223744 463.5 521.125 C464 518.5703125 464.5 516.015625 465 513.4609375 C465.24339111 512.18460449 465.48678223 510.90827148 465.73754883 509.59326172 C466.24095048 507.05578212 466.78184057 504.52541828 467.36206055 502.00439453 C469.43088134 492.80360214 469.77278607 484.26597204 469.3125 474.875 C469.25354258 473.42964062 469.19545102 471.98424569 469.13818359 470.53881836 C468.42416709 453.4506183 467.36171086 436.46700053 464.33984375 419.6171875 C461.64293708 404.38871805 459.89045105 388.9726628 457.98046875 373.62890625 C457.84821396 372.56647705 457.71595917 371.50404785 457.57969666 370.40942383 C456.91678506 365.07417985 456.25847697 359.73841011 455.60620117 354.40185547 C453.84309695 340.03324712 453.84309695 340.03324712 451.5 325.75 C451.17 325.75 450.84 325.75 450.5 325.75 C450.46261719 327.04486328 450.42523437 328.33972656 450.38671875 329.67382812 C449.83912455 345.91687862 448.34984601 362.03449057 446.70825195 378.19580078 C446.22186771 382.99349947 445.7434743 387.79199755 445.26708984 392.59069824 C445.01509329 395.12329503 444.76043369 397.65562903 444.50244141 400.18762207 C443.23284206 412.85866134 442.37920009 425.48311609 442.2890625 438.21875 C442.26097973 440.52604859 442.23231518 442.83334016 442.203125 445.140625 C442.16218466 448.68293948 442.12518646 452.22512501 442.09863281 455.76757812 C441.91620585 478.30045355 439.50324068 499.90912042 434.8125 521.9375 C434.55147995 523.16900284 434.55147995 523.16900284 434.28518677 524.42538452 C431.7897569 536.06551364 428.93455866 547.08316005 423.8359375 557.88916016 C422.47529003 560.8029151 421.1677324 563.7360443 419.86851501 566.67753601 C418.23567846 570.37320004 416.58770838 574.06206621 414.9375 577.75 C414.62207245 578.45605377 414.3066449 579.16210754 413.98165894 579.88955688 C402.91834206 604.54082897 402.91834206 604.54082897 398.5 606.75 C399.03205479 600.81398609 400.82831111 596.12863523 403.2890625 590.73046875 C403.67057465 589.87302567 404.05208679 589.01558258 404.44515991 588.13215637 C405.66351854 585.39682484 406.89340072 582.66689228 408.125 579.9375 C420.314993 553.00903887 420.314993 553.00903887 428.1875 524.625 C428.45626953 523.33335937 428.72503906 522.04171875 429.00195312 520.7109375 C429.72534748 517.20609224 430.39589518 513.69329823 431.04678345 510.17431641 C431.36545241 508.46971319 431.69270532 506.76670331 432.0262146 505.06494141 C434.8258682 490.69709387 435.98789739 476.9130711 435.94308472 462.28710938 C435.90636345 440.67333561 437.04613888 419.26480111 438.9375 397.75 C439.04714081 396.50238892 439.15678162 395.25477783 439.26974487 393.96936035 C440.15566558 383.98981884 441.04231733 374.00969766 442.09936523 364.04663086 C443.46039873 350.90685027 443.78005564 337.89225124 443.70581055 324.68530273 C443.68723363 321.26343516 443.68530396 317.8418353 443.68554688 314.41992188 C443.6806407 312.21874767 443.67481636 310.01757527 443.66796875 307.81640625 C443.66629951 306.30077843 443.66629951 306.30077843 443.66459656 304.75453186 C443.63028782 299.64832485 443.37721352 294.78271176 442.5 289.75 C442.17 289.75 441.84 289.75 441.5 289.75 C437.59111131 311.87500293 437.59111131 311.87500293 435.9375 334.25 C435.41256054 354.43081955 430.71177728 373.1393309 425.38528442 392.50140381 C416.73573987 423.99945601 412.13053146 455.77205706 409.12533569 488.23764038 C408.61131435 493.74455852 408.06337714 499.24793819 407.5 504.75 C407.42023926 505.55743652 407.34047852 506.36487305 407.25830078 507.19677734 C405.19517327 526.28860723 395.44215886 544.76999708 387.625 562.0625 C387.18542969 563.03960938 386.74585938 564.01671875 386.29296875 565.0234375 C383.8165597 570.3751908 381.24219894 575.17414288 377.5 579.75 C376.51 580.08 375.52 580.41 374.5 580.75 C375.07323848 575.2781781 377.04607375 571.02264602 379.375 566.125 C383.30322474 557.62794772 386.88308385 549.02240464 390.3125 540.3125 C390.76802246 539.16507324 391.22354492 538.01764648 391.69287109 536.83544922 C395.83909218 526.22802088 399.63193141 515.65243031 401.0625 504.3125 C401.18052979 503.44181885 401.29855957 502.5711377 401.42016602 501.67407227 C402.44095592 493.86377972 403.18315859 486.02711882 403.9375 478.1875 C406.83295831 448.286034 411.90318319 419.25898185 419.95092773 390.3034668 C422.99809554 379.22649643 425.29479374 368.01988746 427.5 356.75 C427.68248291 355.89422363 427.86496582 355.03844727 428.05297852 354.15673828 C428.62929419 351.0538874 428.59434826 348.09047791 428.5625 344.9375 C428.54896484 343.19533203 428.54896484 343.19533203 428.53515625 341.41796875 C428.52355469 340.53753906 428.51195312 339.65710938 428.5 338.75 C427.83484375 339.42546875 427.1696875 340.1009375 426.484375 340.796875 C423.66127305 343.61997695 420.75142343 346.34365788 417.8293457 349.0637207 C414.99584624 351.70226529 412.17832578 354.35767979 409.35888672 357.01123047 C407.88836151 358.38673356 406.40200837 359.74531368 404.91015625 361.09765625 C382.92208601 381.69355817 362.28324268 415.54928692 358.5 445.75 C356.42446352 446.3034764 354.65634036 446.75 352.5 446.75 C352.58869896 432.21032654 353.16711547 419.36761035 358.5 405.75 C361.07568906 398.93783615 361.07568906 398.93783615 361.5 391.75 C360.84 392.41 360.18 393.07 359.5 393.75 C359.03851563 394.20890625 358.57703125 394.6678125 358.1015625 395.140625 C356.98182553 396.2658241 355.87329023 397.40223188 354.7734375 398.546875 C348.67197314 404.82410171 341.9170463 410.18600028 335.11328125 415.67578125 C329.70378074 420.23562199 325.69534984 425.29318601 321.73828125 431.11328125 C319.24598928 434.04922728 317.02295556 435.27328186 313.5 436.75 C313.83 434.77 314.16 432.79 314.5 430.75 C311.24788285 434.6406607 308.53049169 438.69632679 305.875 443 C305.22748779 444.04837036 305.22748779 444.04837036 304.56689453 445.11791992 C303.66089627 446.59012607 302.75712043 448.06370201 301.85546875 449.53857422 C300.97290776 450.97845848 300.08514035 452.41516863 299.19140625 453.84814453 C293.59484832 462.82772816 288.91581053 471.79680386 285.09912109 481.68286133 C284.64980225 482.82791138 284.64980225 482.82791138 284.19140625 483.99609375 C283.93560791 484.67341553 283.67980957 485.3507373 283.41625977 486.04858398 C282.5 487.75 282.5 487.75 279.5 489.75 C278.84 489.75 278.18 489.75 277.5 489.75 C286.78207209 461.51633636 300.62625743 432.52051925 321.92431641 411.33349609 C324.91374472 408.3292457 327.79489185 405.22209297 330.6875 402.125 C331.58142456 401.17113403 331.58142456 401.17113403 332.4934082 400.19799805 C336.62184277 395.76660122 340.52858918 391.20629032 344.3046875 386.46875 C346.29430699 384.00473725 348.34804228 381.61041257 350.42797852 379.22265625 C359.55533615 368.6902231 367.44517305 357.23221572 374.80078125 345.40625 C376.74079086 342.3735913 378.80047593 339.44218216 380.875 336.5 C385.39824725 330.05323921 389.45067094 323.36726466 393.42578125 316.57226562 C394.48675158 314.77247413 395.56819995 312.98665027 396.65625 311.203125 C397.3059375 310.12546875 397.955625 309.0478125 398.625 307.9375 C399.49511719 306.50470703 399.49511719 306.50470703 400.3828125 305.04296875 C400.75148438 304.28628906 401.12015625 303.52960938 401.5 302.75 C401.17 302.09 400.84 301.43 400.5 300.75 C398.85293065 302.68646097 397.20706584 304.62391392 395.5625 306.5625 C395.06105469 307.15345459 394.55960938 307.74440918 394.04296875 308.35327148 C390.9819432 311.97027329 387.97272339 315.62222268 385 319.3125 C381.85148517 323.18243297 378.57845953 326.9050179 375.1875 330.5625 C367.51602222 338.8525369 359.97387049 347.21538806 353.40332031 356.41625977 C347.24944137 365.00578147 340.19798246 372.28668799 332.64794922 379.66723633 C327.61974926 384.59098022 323.01185981 389.48953879 318.6953125 395.046875 C315.79015301 398.62404647 312.65787856 401.95852369 309.5 405.3125 C308.89341553 405.95783691 308.28683105 406.60317383 307.66186523 407.26806641 C306.48029951 408.52389098 305.29826628 409.7792759 304.11572266 411.03417969 C293.54854524 422.25601754 284.61089221 433.90036928 277 447.3125 C276.35490479 448.44220215 275.70980957 449.5719043 275.04516602 450.73583984 C265.52033279 467.59803049 255.21172052 486.30041834 252.5 505.75 C251.51 505.42 250.52 505.09 249.5 504.75 C246.99430498 476.68621575 271.73458787 438.21099433 288.6472168 417.41503906 C293.19342323 412.02949511 298.11529237 407.05398603 303.15356445 402.1315918 C307.20936506 398.13921469 310.79680538 393.87409505 314.33984375 389.41796875 C317.2633498 385.80720088 320.37958059 382.39060174 323.51171875 378.9609375 C325.0960382 377.19919917 326.59390998 375.41911213 328.0625 373.5625 C330.04495221 371.27505515 331.88172815 369.54035232 334.1875 367.625 C341.51259473 361.36011635 347.25971157 353.48598673 352.9375 345.75 C357.28211071 339.88592087 362.0858098 334.56176545 367.07958984 329.25878906 C374.2183068 321.67589618 381.12854095 314.00186101 387.5 305.75 C384.37027997 305.41246302 384.37027997 305.41246302 382.29296875 307.76953125 C381.00326172 309.15205078 381.00326172 309.15205078 379.6875 310.5625 C368.21704783 322.47449583 354.18838615 332.41347321 340.14697266 341.08984375 C332.41570511 345.87901141 326.0492735 351.46921795 319.5 357.75 C318.15479907 358.94764689 316.80166318 360.13649726 315.4375 361.3125 C311.27769036 364.91882146 307.22089086 368.63476315 303.15625 372.34765625 C300.96422038 374.33015362 298.74660045 376.2677615 296.5 378.1875 C286.62153238 386.85635934 278.75750647 395.84582393 271.5 406.75 C271.05124512 407.41837891 270.60249023 408.08675781 270.14013672 408.77539062 C266.83760782 413.71241107 263.6423398 418.70975302 260.5 423.75 C260.10425781 424.37535645 259.70851563 425.00071289 259.30078125 425.64501953 C243.6113959 450.69850475 234.00919546 481.32068845 232.5 510.75 C231.84 510.75 231.18 510.75 230.5 510.75 C226.07598936 504.00780779 228.00245286 492.51768523 229.01171875 484.875 C238.46181084 439.88334205 262.89274625 396.98468856 297.5 366.75 C299.1691245 365.25273543 300.83579607 363.75273187 302.5 362.25 C303.32628906 361.5075 304.15257812 360.765 305.00390625 360 C306.66222983 358.50517311 308.31592441 357.0051942 309.96484375 355.5 C319.51791454 346.80715833 329.2106096 338.59576002 340.38671875 332.0625 C354.0033462 324.02316276 365.69211553 313.99670515 376.6328125 302.625 C379.41296243 299.76211896 382.39570505 297.2555437 385.5 294.75 C381.42821318 294.75 379.81001399 296.8459068 376.9375 299.4375 C363.70465845 310.95220346 349.0013186 320.47941824 334.40649414 330.15307617 C325.31369202 336.18289715 316.32617684 342.33499537 307.5 348.75 C306.81373535 349.24693359 306.1274707 349.74386719 305.42041016 350.25585938 C297.53434563 355.98919723 289.98863024 361.84772964 282.875 368.52734375 C280.80036186 370.46890477 278.67828555 372.30244253 276.5 374.125 C266.0465529 383.3062223 258.05400353 394.13732938 250.12304688 405.47265625 C248.57680352 407.64223478 246.98177436 409.76201313 245.359375 411.875 C228.86821542 433.64637339 218.3454106 462.0752804 218.0859375 489.4140625 C218.06657135 490.68728363 218.0472052 491.96050476 218.0272522 493.27230835 C217.977929 496.62260638 217.93652546 499.97280404 217.89910889 503.32324219 C217.85877328 506.7559554 217.80781743 510.18851019 217.7578125 513.62109375 C217.66219302 520.33062647 217.57702898 527.04022946 217.5 533.75 C213.60214233 531.97961426 213.60214233 531.97961426 212.68286133 529.91308594 C211.10480249 520.64047557 211.16322209 511.32490538 211.18432617 501.9453125 C211.18747796 499.02045096 211.16399533 496.09661154 211.13867188 493.171875 C211.04362464 465.12580027 219.70520884 433.79114217 237.20605469 411.43457031 C239.29635445 408.71323667 241.26342915 405.90479385 243.25292969 403.109375 C245.9720437 399.30103908 248.73626278 395.52600598 251.5 391.75 C251.95020508 391.1302832 252.40041016 390.51056641 252.86425781 389.87207031 C261.21426352 378.4237561 270.65639691 368.74766078 281.74609375 359.9453125 C284.57431996 357.69075487 287.31434777 355.35123891 290.0625 353 C302.18327509 342.89414758 315.34792541 334.11136868 328.3828125 325.2421875 C334.29777755 321.21362939 340.18279053 317.14228907 346.0625 313.0625 C347.57203247 312.01872192 347.57203247 312.01872192 349.11206055 310.95385742 C350.04574463 310.30521729 350.97942871 309.65657715 351.94140625 308.98828125 C352.77357666 308.41118408 353.60574707 307.83408691 354.46313477 307.23950195 C356.58313378 305.76912182 356.58313378 305.76912182 358.5 303.75 C348.335748 305.202036 339.76819857 310.43811181 330.81445312 315.16894531 C327.91927384 316.69845514 325.02260195 318.22508492 322.125 319.75 C321.14321777 320.26780029 320.16143555 320.78560059 319.14990234 321.3190918 C313.18918659 324.43440556 307.18315882 327.29460045 301 329.9375 C283.46430986 337.50575945 268.87479237 348.52435147 254.95703125 361.484375 C252.79239861 363.48037966 250.57612502 365.36877377 248.3125 367.25 C244.70231591 370.40255512 241.82693622 373.89219547 238.90234375 377.6796875 C236.42722723 380.84300714 233.87337798 383.92756301 231.30126953 387.01196289 C218.52102927 402.35863076 207.22138069 417.66133101 202.8125 437.4375 C202.60044922 438.34822266 202.38839844 439.25894531 202.16992188 440.19726562 C200.43903986 447.71595503 199.33482301 454.82225828 199.26171875 462.5390625 C199.25201553 463.38738144 199.24231232 464.23570038 199.23231506 465.10972595 C199.2073406 467.8648655 199.19477331 470.6197584 199.1875 473.375 C199.18357239 474.78493729 199.18357239 474.78493729 199.17956543 476.22335815 C199.17475027 492.3749415 200.3264026 507.87371237 203.5 523.75 C203.7482251 525.00538574 203.7482251 525.00538574 204.00146484 526.28613281 C205.78186545 535.0084624 208.21519043 543.54212144 210.83764648 552.0456543 C213.98029255 562.30912235 213.98029255 562.30912235 212.5 566.75 C211.84 566.75 211.18 566.75 210.5 566.75 C209.24074803 563.69122748 207.99446117 560.62731662 206.75 557.5625 C206.22792969 556.2950293 206.22792969 556.2950293 205.6953125 555.00195312 C190.33978375 517.03967371 186.1160382 469.29283864 197.5 429.75 C197.86992065 428.4340686 197.86992065 428.4340686 198.24731445 427.09155273 C201.66030339 415.28578842 207.46039939 405.93135158 215.12939453 396.45166016 C217.01748442 394.1075229 218.86681077 391.73386698 220.71899414 389.36132812 C222.96898464 386.48271552 225.23490643 383.61673176 227.5 380.75 C228.23476563 379.81800781 228.96953125 378.88601563 229.7265625 377.92578125 C231.63484049 375.52017212 233.56106083 373.13093391 235.5 370.75 C236.32177734 369.72326172 236.32177734 369.72326172 237.16015625 368.67578125 C241.18723461 363.82995883 245.70871615 359.98929465 250.64453125 356.0859375 C253.38857887 353.84114888 255.89425159 351.46739014 258.4375 349 C273.0146188 335.81791753 290.50458173 327.4990115 308.12646484 319.19335938 C316.46614455 315.25557727 324.53023365 311.11122308 332.49316406 306.45776367 C336.20918183 304.34721282 339.9604858 302.61169751 343.9375 301.0625 C344.6377832 300.78051758 345.33806641 300.49853516 346.05957031 300.20800781 C352.06215812 297.82911449 358.16261272 295.80220304 364.328125 293.890625 C367.34681427 292.80508649 369.8227819 291.50126297 372.5 289.75 C369.42259266 288.77211891 367.49884623 288.7630056 364.39672852 289.61450195 C363.59811905 289.82835037 362.79950958 290.04219879 361.97669983 290.26252747 C361.11942795 290.50202621 360.26215607 290.74152496 359.37890625 290.98828125 C358.48316391 291.22910934 357.58742157 291.46993744 356.66453552 291.71806335 C353.79463812 292.49045542 350.92836697 293.27529564 348.0625 294.0625 C344.31603789 295.08787111 340.56771784 296.1057917 336.81640625 297.11328125 C335.90815094 297.35794632 334.99989563 297.60261139 334.06411743 297.85469055 C329.2075409 299.13415006 324.45644615 300.14856984 319.46484375 300.78125 C312.64013931 301.69006881 306.75861787 304.15075822 300.5 306.9375 C298.78466064 307.68713013 298.78466064 307.68713013 297.03466797 308.4519043 C293.84478396 309.86043931 290.6690959 311.29538606 287.5 312.75 C286.7977832 313.07129883 286.09556641 313.39259766 285.37207031 313.72363281 C268.39351199 321.68382158 251.26825714 334.46042996 238.27636719 347.97265625 C236.52209316 349.72789469 234.70476543 351.34313296 232.8203125 352.95703125 C216.35158525 367.28948937 205.04721793 381.70011564 195.68652344 401.30908203 C194.33027855 404.09915125 192.91975591 406.85880773 191.5078125 409.62109375 C169.98102674 452.15630555 177.05520633 493.06415243 189.5 537.75 C189.83 538.74 190.16 539.73 190.5 540.75 C185.30218692 538.08539077 183.60523228 535.70991682 181.78759766 530.20141602 C181.52769043 529.33057373 181.2677832 528.45973145 181 527.5625 C180.71302246 526.64847412 180.42604492 525.73444824 180.13037109 524.79272461 C175.3648202 509.22150319 170.59835909 493.12678789 170.5 476.75 C170.45081899 474.73046147 170.401306 472.71093101 170.3515625 470.69140625 C169.87541532 444.99252934 175.35668253 423.92145006 186.98266602 401.05737305 C188.31576253 398.43107256 189.62475913 395.79372333 190.93164062 393.15429688 C197.63089346 379.75437309 205.04878509 368.65228145 215.8125 358.125 C216.64773193 357.29887207 217.48296387 356.47274414 218.34350586 355.62158203 C223.40391752 350.66282056 228.52997137 345.9826061 234.125 341.6328125 C236.56402565 339.69924282 238.79811899 337.6343321 241.0625 335.5 C248.32816202 328.88430135 256.44966644 323.35675717 264.5 317.75 C265.469375 317.06679688 266.43875 316.38359375 267.4375 315.6796875 C286.45212883 302.90423376 308.77389639 295.31340812 331.0625 290.890625 C336.61834734 289.77702586 342.05367393 288.30646939 347.5 286.75 C347.5 286.42 347.5 286.09 347.5 285.75 C341.14541675 285.62373361 335.03249125 285.84415618 328.75 286.8125 Z M513.5 372.75 C514.5 374.75 514.5 374.75 514.5 374.75 Z M357.5 380.75 C349.36719976 390.31174084 341.33160753 399.93859012 333.5 409.75 C337.4786023 408.12238997 340.30309944 405.35077598 343.375 402.4375 C344.39193052 401.48168934 345.41015826 400.52725695 346.4296875 399.57421875 C347.18318481 398.86700684 347.18318481 398.86700684 347.9519043 398.14550781 C349.50714597 396.74355837 351.11932022 395.45032421 352.76171875 394.15234375 C355.30820776 391.91826281 356.39786639 390.76235585 357.4375 387.625 C357.67339844 386.96242188 357.90929687 386.29984375 358.15234375 385.6171875 C358.69657473 383.53216067 358.69657473 383.53216067 357.5 380.75 Z M274.5 635.75 C272.46138006 637.07688476 272.46138006 637.07688476 270.5 639 C269.4790625 639.93585937 269.4790625 639.93585937 268.4375 640.890625 C266.77021358 642.49068213 265.1237777 644.10592507 263.5 645.75 C268.7759033 654.38905673 268.7759033 654.38905673 276.73046875 660.140625 C279.88704866 660.85263182 279.88704866 660.85263182 282.93359375 661.16015625 C286.18864895 661.90827396 286.57910283 663.13151386 288.5 665.75 C293.16551877 667.36864937 297.94672627 668.01376346 302.8125 667.1875 C305.5 666.75 305.5 666.75 308.125 668.1875 C314.60469675 671.18735961 322.63131103 670.27637533 329.5 668.75 C329.231875 668.110625 328.96375 667.47125 328.6875 666.8125 C327.5 663.75 327.5 663.75 327.05078125 661.51953125 C326.46179393 658.95889844 325.87570592 656.99640586 324.5 654.75 C321.30752011 653.07337387 318.00699153 652.49083864 314.5 651.75 C311.43371643 650.62183906 308.46794289 649.31327769 305.640625 647.66796875 C303.01207856 646.54076362 300.97452045 646.61701815 298.125 646.625 C293.0161891 646.28711568 293.0161891 646.28711568 290.765625 643.9453125 C289.84394873 642.49030671 288.93359948 641.02805922 288.03515625 639.55859375 C286.05028275 637.22018044 284.8235881 637.08799281 281.8125 636.8125 C281.06613281 636.80347656 280.31976563 636.79445313 279.55078125 636.78515625 C277.5 636.75 277.5 636.75 274.5 635.75 Z M292.5 635.75 C293.67705175 638.45721903 294.31440802 639.8452668 296.5 641.75 C299.55197812 642.55561992 302.48408634 642.93600809 305.625 643.23046875 C308.76186281 643.79732032 310.05693979 644.79660487 312.5 646.75 C313.49 646.75 314.48 646.75 315.5 646.75 C315.17 644.77 314.84 642.79 314.5 640.75 C313.47519531 640.64042969 312.45039063 640.53085937 311.39453125 640.41796875 C310.03378133 640.25843255 308.67310806 640.0982416 307.3125 639.9375 C306.63896484 639.86724609 305.96542969 639.79699219 305.27148438 639.72460938 C300.96590112 639.19953825 298.0879858 638.14417699 294.5 635.75 C293.84 635.75 293.18 635.75 292.5 635.75 Z M332.5 659.75 C333.80155006 663.82964281 333.80155006 663.82964281 335.5 667.75 C337.39533342 668.21523063 337.39533342 668.21523063 339.5625 668.375 C340.861875 668.49875 342.16125 668.6225 343.5 668.75 C343.91780879 666.37694422 343.91780879 666.37694422 343.5 663.75 C340.09420689 660.9452292 336.82189851 660.25254634 332.5 659.75 Z M316.5 679.75 C320.27593959 684.03070998 320.27593959 684.03070998 325.5 685.75 C324.7575 684.76 324.015 683.77 323.25 682.75 C322.83234375 682.193125 322.4146875 681.63625 321.984375 681.0625 C320.3308053 679.30839752 320.3308053 679.30839752 316.5 679.75 Z M302.5 687.75 C303.5 689.75 303.5 689.75 303.5 689.75 Z " fill="#F1C643" transform="translate(111.5,-0.75)"/>
<path d="M0 0 C0.66 0 1.32 0 2 0 C2.24532471 0.71728271 2.49064941 1.43456543 2.7434082 2.17358398 C8.32230983 18.38473083 14.36926833 34.1781678 21.52294922 49.77246094 C23.07599237 53.16605275 24.60275314 56.57080167 26.12890625 59.9765625 C32.56840967 74.22710754 39.56406823 87.96406541 47.49511719 101.44140625 C48.9296583 103.88040542 50.34634768 106.32884267 51.7578125 108.78125 C56.54479247 117.0645717 61.55391202 125.1290829 67 133 C67.43006348 133.63373535 67.86012695 134.2674707 68.30322266 134.92041016 C75.54049547 145.58122767 83.29738274 155.49602559 92 165 C93.04220703 166.15048828 93.04220703 166.15048828 94.10546875 167.32421875 C114.00951699 188.24681104 141.54093255 200.41243133 167 213 C168.33376123 213.66581018 169.667332 214.33200432 171 215 C170.67 216.32 170.34 217.64 170 219 C166.04 218.01 166.04 218.01 162 217 C162 216.34 162 215.68 162 215 C161.2471875 214.77570313 160.494375 214.55140625 159.71875 214.3203125 C126.51970691 202.53325729 96.90426583 182.58851332 75 155 C74.25105469 154.07960938 73.50210938 153.15921875 72.73046875 152.2109375 C41.59389004 113.07076062 19.82236957 65.6150437 2.625 18.875 C2.24956055 17.86880615 1.87412109 16.8626123 1.48730469 15.82592773 C-0.34686448 10.68360852 -1.54839432 6.46912178 -1 1 C-0.67 0.67 -0.34 0.34 0 0 Z " fill="#F1C643" transform="translate(81,210)"/>
<path d="M0 0 C3.43631168 3.85947668 4.9193319 8.47937337 6.73046875 13.234375 C7.45894108 15.10808975 8.18745824 16.98178707 8.91601562 18.85546875 C10.04568854 21.78313345 11.17281025 24.71175951 12.2980957 27.64111328 C16.72669913 39.14273095 21.35230349 50.35027512 27.09048462 61.26403809 C28.49094738 63.93705502 29.84283077 66.63449848 31.203125 69.328125 C49.71915707 105.47192205 72.62374876 138.02532492 100 168 C100.86367187 168.95648438 101.72734375 169.91296875 102.6171875 170.8984375 C107.21293617 175.97229493 111.87912508 180.93869995 116.75 185.75 C120.40461298 189.36325951 123.84907439 193.05108732 127.1796875 196.9609375 C130.18702606 200.32967296 133.43543968 203.45438923 136.66796875 206.60546875 C139 209 139 209 141.04296875 211.578125 C143.46342839 214.57350419 146.22470397 216.82697513 149.1953125 219.25390625 C151.06052306 221.05855803 151.99263363 222.62697717 153 225 C152.01 225.66 151.02 226.32 150 227 C149.38125 226.36384766 149.38125 226.36384766 148.75 225.71484375 C148.1725 225.12832031 147.595 224.54179687 147 223.9375 C146.443125 223.36902344 145.88625 222.80054688 145.3125 222.21484375 C143.36601691 220.35056012 141.38246937 218.59407781 139.34008789 216.83789062 C135.14377799 213.17422099 131.1779151 209.32281247 127.24609375 205.37890625 C126.54154556 204.67531479 125.83699738 203.97172333 125.11109924 203.24681091 C123.63346633 201.76985352 122.15707543 200.29165258 120.68188477 198.81225586 C118.44333519 196.56834915 116.19949527 194.32983296 113.95507812 192.09179688 C112.51009596 190.64615382 111.06542408 189.20020055 109.62109375 187.75390625 C108.96048447 187.0953212 108.29987518 186.43673615 107.61924744 185.75819397 C103.75807866 181.87783812 100.07772253 177.88926764 96.50593567 173.74061584 C94.47868939 171.39745002 92.36289735 169.14090026 90.25 166.875 C85.95505096 162.17007855 81.98763692 157.28436385 78.09545898 152.2434082 C75.26767016 148.58592369 72.34368233 145.05572185 69.3125 141.5625 C55.06929169 124.50220144 43.65931137 105.4351442 33 86 C32.4421582 84.98744141 31.88431641 83.97488281 31.30957031 82.93164062 C-2.24331285 21.5607291 -2.24331285 21.5607291 0 0 Z " fill="#F1C643" transform="translate(96,186)"/>
<path d="M0 0 C3.46315595 0.56492802 6.11501029 1.40342349 9.15234375 3.15234375 C9.92151123 3.59368652 10.69067871 4.0350293 11.4831543 4.48974609 C12.29308838 4.96750488 13.10302246 5.44526367 13.9375 5.9375 C14.7828833 6.43330566 15.6282666 6.92911133 16.49926758 7.43994141 C23.98803371 11.89080515 31.10217137 16.6833245 38 22 C38.61907227 22.47630859 39.23814453 22.95261719 39.87597656 23.44335938 C68.04502227 45.31646067 91.58651485 70.80866987 109 102 C109.57790283 103.03374756 109.57790283 103.03374756 110.16748047 104.08837891 C123.90381373 129.07992412 133.61561632 161.29852615 133 190 C131.68 190.33 130.36 190.66 129 191 C128.75354736 189.81148437 128.50709473 188.62296875 128.25317383 187.3984375 C127.31995784 182.90878034 126.37615382 178.42139956 125.42944336 173.93457031 C125.02429365 172.00742371 124.62186258 170.07970316 124.22241211 168.15136719 C113.11344967 114.57187958 86.09664697 68.22790914 42.65234375 34.09765625 C39.81640102 31.85479727 37.10665137 29.49341957 34.375 27.125 C24.68737544 19.02675134 13.77375104 12.40101259 2.78515625 6.21875 C1 5 1 5 -1 2 C-0.67 1.34 -0.34 0.68 0 0 Z " fill="#F1C743" transform="translate(298,69)"/>
<path d="M0 0 C0.30067383 0.62753174 0.60134766 1.25506348 0.91113281 1.90161133 C7.80429501 16.20244801 15.22032669 29.77705418 24 43 C24.73967513 44.13841847 25.4780789 45.27766464 26.21484375 46.41796875 C42.21926949 70.9158323 62.19400961 93.82752442 86 111 C87.01707031 111.75023437 88.03414063 112.50046875 89.08203125 113.2734375 C108.14016316 126.93775849 129.26344696 137.96785328 152 144 C152 144.66 152 145.32 152 146 C147.28400182 146.92470553 144.32734391 147.22923777 140 145 C140 144.34 140 143.68 140 143 C138.50533203 143.08701172 138.50533203 143.08701172 136.98046875 143.17578125 C132.62021609 142.98322838 129.2597928 141.89307377 125.3125 140.1875 C124.58844971 139.88126709 123.86439941 139.57503418 123.1184082 139.25952148 C71.97604462 116.96725358 24.72421219 70.68984224 3.984375 18.44140625 C2.21386392 14.05025773 -0.24463789 9.99792805 -2.5390625 5.86328125 C-4 3 -4 3 -4 1 C-2 0 -2 0 0 0 Z " fill="#F1C643" transform="translate(36,287)"/>
<path d="M0 0 C2.16874252 0.50603992 3.99967627 0.99983813 6 2 C7.01675692 3.65295626 7.96494382 5.34848227 8.875 7.0625 C9.36742187 7.98160156 9.85984375 8.90070313 10.3671875 9.84765625 C11.21223984 11.4791329 12.05417729 13.11280708 12.84960938 14.76904297 C15.74540585 20.77032097 19.20176736 26.36516725 22.75 32 C23.74942627 33.59183105 23.74942627 33.59183105 24.76904297 35.21582031 C29.73416211 43.08317674 34.83119709 50.85334856 40.0234375 58.57226562 C44.74396779 65.59494847 49.40463763 72.65452873 54.0390625 79.734375 C55.31877532 81.68657086 56.5985613 83.63871876 57.87841797 85.59082031 C59.79345872 88.51191407 61.70693555 91.43395929 63.61480713 94.35974121 C70.96240173 105.62495892 78.47885346 116.65586912 86.69631958 127.30685425 C88.0467394 129.06070247 89.38438149 130.82369937 90.71899414 132.58959961 C95.76072208 139.25430279 101.01956078 145.68413934 106.45703125 152.02734375 C108.99779401 154.99742126 111.50359184 157.99265732 114 161 C113.34 162.32 112.68 163.64 112 165 C107.2916115 161.15994766 103.14514689 157.15886202 99.25 152.5 C98.73614746 151.8918042 98.22229492 151.2836084 97.69287109 150.65698242 C81.48364022 131.35163427 67.00995872 110.85222918 53.25 89.75 C52.00181185 87.84341617 50.75311506 85.93716524 49.50390625 84.03125 C47.68168052 81.25103537 45.85993155 78.47052398 44.0408783 75.68823242 C40.14255582 69.72790568 36.21464124 63.78858127 32.230896 57.88494873 C28.30413171 52.03875292 24.72342193 45.99660825 21.1484375 39.93212891 C19.92648494 37.87631841 18.68440085 35.83373606 17.4375 33.79296875 C17.01927979 33.10589844 16.60105957 32.41882813 16.17016602 31.7109375 C15.36388349 30.38741411 14.55459359 29.06571691 13.74194336 27.74609375 C11 23.22431398 11 23.22431398 11 21 C9.68 20.67 8.36 20.34 7 20 C7.33 19.01 7.66 18.02 8 17 C7.40396406 15.02616331 7.40396406 15.02616331 6.34765625 12.98828125 C5.98349609 12.23095703 5.61933594 11.47363281 5.24414062 10.69335938 C4.85419922 9.90767578 4.46425781 9.12199219 4.0625 8.3125 C3.67642578 7.51521484 3.29035156 6.71792969 2.89257812 5.89648438 C1.93709398 3.92653557 0.97267894 1.96150061 0 0 Z " fill="#F1C643" transform="translate(130,218)"/>
<path d="M0 0 C4.36596728 3.70135868 6.65869213 8.40599806 9.3125 13.375 C9.83102539 14.33905762 10.34955078 15.30311523 10.88378906 16.29638672 C22.85441392 38.7262654 33.64001935 61.55401337 43.84613037 84.83062744 C47.88563796 94.0360323 52.0000482 103.20762589 56.125 112.375 C56.50264496 113.21465302 56.88028992 114.05430603 57.26937866 114.91940308 C64.36431913 130.68350544 71.63216749 146.36180009 79 162 C79.88043427 163.87359176 80.76065984 165.74728162 81.640625 167.62109375 C83.4234958 171.41576282 85.20997344 175.20870152 87 179 C85.02 179.99 85.02 179.99 83 181 C82.49210937 179.97261719 81.98421875 178.94523438 81.4609375 177.88671875 C80.76573715 176.48692346 80.07041816 175.08718709 79.375 173.6875 C79.04371094 173.01654297 78.71242188 172.34558594 78.37109375 171.65429688 C76.41831119 167.73030927 74.38253279 163.87413111 72.24609375 160.046875 C68.45525446 153.13751362 65.12408799 146.02011333 61.77856445 138.88793945 C60.70321395 136.59599191 59.6225677 134.3066046 58.54101562 132.01757812 C53.22411065 120.73918279 48.08451914 109.38475921 43 98 C42.64007965 97.19412445 42.2801593 96.3882489 41.90933228 95.55795288 C41.1900692 93.94721739 40.47084609 92.33646405 39.75166321 90.72569275 C30.48979467 69.98503931 21.059413 49.36760033 11 29 C10.50467773 27.99420898 10.00935547 26.98841797 9.49902344 25.95214844 C8.12898862 23.17409947 6.75402223 20.39859733 5.375 17.625 C4.98505859 16.8402832 4.59511719 16.05556641 4.19335938 15.24707031 C1.93415262 10.74260252 -0.46146212 6.35342016 -3 2 C-2.01 1.34 -1.02 0.68 0 0 Z " fill="#F1C743" transform="translate(201,155)"/>
<path d="M0 0 C4.79294747 3.13008814 8.32009605 6.33754688 12 10.69921875 C18.44582966 18.11444077 25.58289883 24.71493226 33.265625 30.82421875 C35.06830145 32.25863415 36.85043653 33.71930634 38.609375 35.20703125 C56.76414518 50.5419037 77.4484051 60.94208348 99.3125 69.9375 C99.97369843 70.2127652 100.63489685 70.4880304 101.31613159 70.77163696 C116.33584673 76.99064117 131.47319784 80.30873026 147.5 82.75 C148.92067704 82.97199094 150.34125058 83.1946452 151.76171875 83.41796875 C155.17332965 83.95290625 158.58622041 84.47905775 162 85 C162.33 86.32 162.66 87.64 163 89 C159.31457812 90.22847396 156.40289306 89.7115807 152.6484375 89.1796875 C151.92171341 89.08114471 151.19498932 88.98260193 150.44624329 88.881073 C148.08755672 88.5561345 145.73116436 88.21772999 143.375 87.875 C142.17334702 87.70127869 142.17334702 87.70127869 140.94741821 87.52404785 C129.64078347 85.87083915 118.7152645 84.12323172 108 80 C107.2054541 79.7014209 106.4109082 79.4028418 105.59228516 79.09521484 C86.2488025 71.74302295 65.51595083 63.68189081 49 51 C47.77796875 50.06994141 47.77796875 50.06994141 46.53125 49.12109375 C43.98178692 47.12428327 41.49201387 45.06809066 39 43 C38.05213623 42.21890869 37.10427246 41.43781738 36.12768555 40.63305664 C28.56953179 34.35526741 21.36561058 27.79584185 14.39306641 20.87353516 C12.72234792 19.22267662 11.03140282 17.59430946 9.33984375 15.96484375 C8.26172258 14.89975003 7.18484976 13.83339086 6.109375 12.765625 C5.60847351 12.28941711 5.10757202 11.81320923 4.5914917 11.3225708 C1.0746187 7.75965694 0.28430206 4.94070872 0 0 Z " fill="#F1C643" transform="translate(45,377)"/>
<path d="M0 0 C4.15427249 1.55906264 6.46833582 4.59766225 9.1875 7.9375 C9.91803589 8.81474731 9.91803589 8.81474731 10.66333008 9.7097168 C12.86399917 12.36023648 15.02673218 15.03399636 17.15625 17.7421875 C26.94216375 30.12513221 38.38002088 41.51866853 51 51 C51.64130859 51.48533203 52.28261719 51.97066406 52.94335938 52.47070312 C62.89701134 59.96553896 73.07693159 66.73084207 83.93847656 72.83251953 C85.98102122 73.98925195 88.00332685 75.17568908 90.0234375 76.37109375 C103.7245337 84.40508621 118.15912038 91.11310872 134.00390625 93.44140625 C140.04564381 94.33439276 143.22587225 95.05459123 147 100 C110.07708192 98.27296028 73.77434104 77.30159002 46 54 C45.39897461 53.49758789 44.79794922 52.99517578 44.17871094 52.47753906 C33.33333601 43.37136193 23.15592534 33.97451489 14.3046875 22.87109375 C12.66881581 20.8331858 11.01836914 18.83196366 9.3203125 16.84765625 C8.87107422 16.32026855 8.42183594 15.79288086 7.95898438 15.24951172 C6.69702376 13.77183529 5.43067369 12.29791082 4.1640625 10.82421875 C1.98363551 7.97864346 0.37259742 5.31010739 -1 2 C-0.67 1.34 -0.34 0.68 0 0 Z " fill="#F2C643" transform="translate(49,349)"/>
<path d="M0 0 C5.57197267 4.17142804 8.85417123 8.46746927 12.125 14.5625 C13.07640532 16.26991646 14.03095128 17.97558587 14.98828125 19.6796875 C15.48021973 20.55850586 15.9721582 21.43732422 16.47900391 22.34277344 C18.97202823 26.69816297 21.64402682 30.93817205 24.3125 35.1875 C30.79856353 45.57384974 36.96261308 56.13338098 43.10058594 66.72802734 C46.50885667 72.59918985 49.94122466 78.45622741 53.375 84.3125 C53.73119415 84.91999084 54.08738831 85.52748169 54.45437622 86.15338135 C59.68362524 95.06951444 64.92535038 103.97824228 70.1875 112.875 C70.83702637 113.97368408 71.48655273 115.07236816 72.15576172 116.2043457 C75.4317331 121.72870165 78.74255721 127.22819182 82.11328125 132.6953125 C83.09421753 134.28883545 83.09421753 134.28883545 84.0949707 135.91455078 C85.3360071 137.92457487 86.58295662 139.93096383 87.83666992 141.93310547 C88.38556885 142.82143066 88.93446777 143.70975586 89.5 144.625 C89.9846875 145.40101563 90.469375 146.17703125 90.96875 146.9765625 C92 149 92 149 92 152 C91.01 152.33 90.02 152.66 89 153 C84.12718566 146.21348856 79.6164137 139.28401567 75.3125 132.125 C74.70728516 131.1239624 74.10207031 130.1229248 73.47851562 129.09155273 C71.64900165 126.0630366 69.82440048 123.03159837 68 120 C66.97290776 118.30062921 65.94557872 116.60140151 64.91796875 114.90234375 C58.43110103 104.15603975 52.08566533 93.33006738 45.7734375 82.48046875 C41.6752642 75.43720797 37.55849672 68.40492203 33.4375 61.375 C33.07855652 60.76253418 32.71961304 60.15006836 32.34979248 59.51904297 C28.11142442 52.28808458 23.8606661 45.06463811 19.58984375 37.8527832 C0 4.77176603 0 4.77176603 0 0 Z " fill="#F1C744" transform="translate(150,191)"/>
<path d="M0 0 C3.23734672 1.1865409 4.79258285 2.68790785 6.68212891 5.52148438 C7.17008942 6.24404419 7.65804993 6.966604 8.16079712 7.71105957 C8.93585098 8.89049133 8.93585098 8.89049133 9.7265625 10.09375 C10.27428314 10.91387573 10.82200378 11.73400146 11.38632202 12.57897949 C12.54895613 14.32459206 13.70701081 16.07326196 14.86083984 17.82470703 C16.58677453 20.44203228 18.32908523 23.04779275 20.07421875 25.65234375 C27.28591661 36.48271792 33.89687422 47.51036284 40 59 C40.33582092 59.62884094 40.67164185 60.25768188 41.01763916 60.90557861 C43.12546457 64.85905946 45.19420186 68.83177049 47.25 72.8125 C47.82234375 73.91013672 48.3946875 75.00777344 48.984375 76.13867188 C54.59115041 86.96357121 59.85215709 97.83238396 63.8125 109.375 C64.11091797 110.21160156 64.40933594 111.04820312 64.71679688 111.91015625 C66.35612253 116.6246052 67.48457093 121.03313809 68 126 C63.66807638 123.84983495 62.18597134 122.11066356 60.4921875 117.609375 C60.06897217 116.51939209 59.64575684 115.42940918 59.2097168 114.30639648 C58.76926025 113.13278564 58.32880371 111.9591748 57.875 110.75 C56.90496962 108.27508415 55.93104579 105.80223689 54.94921875 103.33203125 C54.70273087 102.70905655 54.45624298 102.08608185 54.20228577 101.44422913 C42.1917516 71.28718104 25.49839908 43.09699052 7.078125 16.47265625 C6.05142119 14.98222674 5.02539182 13.49133244 4 12 C3.14631836 10.76419189 3.14631836 10.76419189 2.27539062 9.50341797 C1.72560547 8.69662598 1.17582031 7.88983398 0.609375 7.05859375 C-0.14134277 5.96309204 -0.14134277 5.96309204 -0.90722656 4.84545898 C-2 3 -2 3 -2 1 C-1.34 0.67 -0.68 0.34 0 0 Z " fill="#F2C643" transform="translate(340,150)"/>
<path d="M0 0 C2.31 0.33 4.62 0.66 7 1 C7.1959375 1.53625 7.391875 2.0725 7.59375 2.625 C9.60892017 7.90613562 11.93295858 12.96740936 14.5 18 C19.33147765 27.51179404 23.74898636 37.20520785 28.19400024 46.90206909 C30.72857258 52.42416014 33.29087637 57.93320545 35.85546875 63.44140625 C36.71252804 65.28391493 37.56954279 67.12644434 38.42651367 68.96899414 C39.70400855 71.71563681 40.98223397 74.46192467 42.26309204 77.20700073 C54 102.3665272 54 102.3665272 54 107 C54.45375 107.45375 54.9075 107.9075 55.375 108.375 C58.54499734 111.54499734 59.26270376 115.69910529 60 120 C59.01 120.33 58.02 120.66 57 121 C44.32113192 96.37140001 33.04392154 71.01409173 21.62384033 45.78526306 C18.27566919 38.39275332 14.89039932 31.01730678 11.49902344 23.64453125 C9.2638939 18.78015083 7.06144194 13.90521183 4.92553711 8.99633789 C3.47871939 5.87562345 1.75976071 2.95388405 0 0 Z " fill="#F2C643" transform="translate(251,176)"/>
<path d="M0 0 C3 1 3 1 4.05947876 2.51095581 C4.38096893 3.16202301 4.70245911 3.81309021 5.03369141 4.48388672 C5.40483063 5.22331512 5.77596985 5.96274353 6.15835571 6.72457886 C6.55211395 7.53476471 6.94587219 8.34495056 7.3515625 9.1796875 C7.76989349 10.02105255 8.18822449 10.8624176 8.61923218 11.72927856 C9.96389066 14.43998194 11.29438354 17.15738093 12.625 19.875 C13.49781868 21.63715452 14.37150779 23.39887819 15.24609375 25.16015625 C19.92065735 34.59918311 24.49937035 44.08128213 28.97622681 53.61569214 C32.91254916 61.99013827 37.13660601 70.14234113 41.609375 78.2421875 C43 81 43 81 43 83 C40.525 83.495 40.525 83.495 38 84 C37.77795898 83.47865479 37.55591797 82.95730957 37.32714844 82.42016602 C34.58352753 76.10167073 31.47054235 70.02409519 28.25 63.9375 C20.94278397 50.01710474 13.96121503 35.96983447 7.125 21.8125 C6.55273682 20.62881836 5.98047363 19.44513672 5.39086914 18.22558594 C4.85196045 17.10571289 4.31305176 15.98583984 3.7578125 14.83203125 C3.03295654 13.32733276 3.03295654 13.32733276 2.29345703 11.79223633 C-1.08198059 4.50554699 -1.08198059 4.50554699 -0.625 1.6875 C-0.41875 1.130625 -0.2125 0.57375 0 0 Z " fill="#F1C643" transform="translate(276,182)"/>
<path d="M0 0 C0.99 0 1.98 0 3 0 C3.433125 1.0725 3.86625 2.145 4.3125 3.25 C5.25249772 5.46697577 6.06915743 7.08852151 7.5625 9 C9.55278181 11.76908774 10.09367905 14.73724456 11 18 C11.66 18.66 12.32 19.32 13 20 C13 21.32 13 22.64 13 24 C13.99 24.66 14.98 25.32 16 26 C18.18748835 29.72683201 19 31.61495124 19 36 C20.29103643 37.3743291 21.6256709 38.70896357 23 40 C24.28317892 43.84953676 24.06643637 46.94738135 24 51 C21.65215005 48.85242242 20.24516293 46.84546895 18.85522461 43.9909668 C18.26462502 42.78907967 18.26462502 42.78907967 17.66209412 41.56291199 C17.2463765 40.70039322 16.83065887 39.83787445 16.40234375 38.94921875 C15.96741104 38.05765579 15.53247833 37.16609283 15.08436584 36.24751282 C14.1661525 34.36184369 13.25097742 32.47469251 12.33862305 30.58618164 C10.9461634 27.70542308 9.54323068 24.82995361 8.13867188 21.95507812 C7.24676745 20.12009697 6.35547136 18.28481997 5.46484375 16.44921875 C4.83823097 15.16454964 4.83823097 15.16454964 4.19895935 13.85392761 C2.16486546 9.63183293 0.34766993 5.50394667 -1 1 C-0.67 0.67 -0.34 0.34 0 0 Z " fill="#F2C643" transform="translate(251,221)"/>
<path d="M0 0 C3.42409111 3.06679465 5.27342685 6.11716523 7.25 10.25 C7.77078125 11.32765625 8.2915625 12.4053125 8.828125 13.515625 C9.21484375 14.33546875 9.6015625 15.1553125 10 16 C8.35 16.33 6.7 16.66 5 17 C3.82558465 14.89983377 2.66035988 12.79541245 1.5 10.6875 C1.16613281 10.09259766 0.83226562 9.49769531 0.48828125 8.88476562 C-1.06825114 6.04171156 -2 4.29339012 -2 1 C-1.34 0.67 -0.68 0.34 0 0 Z " fill="#F1C744" transform="translate(223,256)"/>
<path d="M0 0 C6.60930375 -0.86679393 9.64122379 0.01128901 15.0625 4 C16.72447144 5.31316262 18.37603381 6.64011803 20 8 C19.67 8.66 19.34 9.32 19 10 C9.1 6.04 9.1 6.04 -1 2 C-0.67 1.34 -0.34 0.68 0 0 Z " fill="#F2C643" transform="translate(197,436)"/>
<path d="M0 0 C5.75 3.75 5.75 3.75 8 6 C9.31747324 6.69748583 10.64914193 7.36959957 12 8 C12 9.65 12 11.3 12 13 C9.73828125 13.3359375 9.73828125 13.3359375 7 13 C4.98046875 10.6640625 4.98046875 10.6640625 3.1875 7.625 C2.28064453 6.12839844 2.28064453 6.12839844 1.35546875 4.6015625 C0 2 0 2 0 0 Z " fill="#F1C644" transform="translate(322,130)"/>
<path d="M0 0 C3.07684111 2.02192416 4.92027706 4.54049291 7.1875 7.4375 C6.1975 8.9225 6.1975 8.9225 5.1875 10.4375 C0.89845765 8.8489658 -1.13595526 6.00622632 -3.8125 2.4375 C-3.8125 1.7775 -3.8125 1.1175 -3.8125 0.4375 C-1.8125 -0.5625 -1.8125 -0.5625 0 0 Z " fill="#F2C845" transform="translate(312.8125,142.5625)"/>
<path d="M0 0 C1.34444159 0.90029571 2.67531438 1.82088022 4 2.75 C5.11375 3.51570312 5.11375 3.51570312 6.25 4.296875 C6.8275 4.85890625 7.405 5.4209375 8 6 C8 7.32 8 8.64 8 10 C4 10 4 10 2.296875 8.6875 C1.78640625 8.130625 1.2759375 7.57375 0.75 7 C0.22921875 6.443125 -0.2915625 5.88625 -0.828125 5.3125 C-1.40820312 4.6628125 -1.40820312 4.6628125 -2 4 C-1.34 2.68 -0.68 1.36 0 0 Z " fill="#F3C742" transform="translate(265,128)"/>
<path d="M0 0 C3.84556115 1.28185372 4.42068027 2.78579777 6.28125 6.2109375 C7 8 7 8 6.75 10.4375 C6.5025 10.953125 6.255 11.46875 6 12 C2.86809018 10.9200311 1.99400788 9.99049526 0.1875 7.125 C-0.99119908 4.02316031 -1.26070809 2.9798555 0 0 Z " fill="#F2C744" transform="translate(208,230)"/>
<path d="M0 0 C3 1 3 1 4.75 3.375 C6 6 6 6 5 9 C3.125 8.75 3.125 8.75 1 8 C-0.3125 6.1875 -0.3125 6.1875 -1 4 C-0.625 1.75 -0.625 1.75 0 0 Z " fill="#F2C644" transform="translate(243,294)"/>
<path d="M0 0 C4.875 1.75 4.875 1.75 6 4 C6.13415472 6.6723621 6.04318541 9.32250488 6 12 C3.02404533 9.44918171 1.55997434 6.56565563 0 3 C0 2.01 0 1.02 0 0 Z " fill="#F1C543" transform="translate(244,208)"/>
<path d="M0 0 C0.99 2.31 1.98 4.62 3 7 C1.68 7.33 0.36 7.66 -1 8 C-4 3.25 -4 3.25 -4 1 C-2 0 -2 0 0 0 Z " fill="#F2C841" transform="translate(253,167)"/>
<path d="M0 0 C2.0625 0.4375 2.0625 0.4375 4 1 C4.33 2.65 4.66 4.3 5 6 C3.68 6 2.36 6 1 6 C0.34 4.35 -0.32 2.7 -1 1 C-0.67 0.67 -0.34 0.34 0 0 Z " fill="#F1C744" transform="translate(268,168)"/>
<path d="M0 0 C1.65 0 3.3 0 5 0 C5.33 1.32 5.66 2.64 6 4 C4.02 4 2.04 4 0 4 C0 2.68 0 1.36 0 0 Z " fill="#F1C743" transform="translate(189,433)"/>
<path d="M0 0 C1.32 0.66 2.64 1.32 4 2 C4 2.99 4 3.98 4 5 C2.68 5.33 1.36 5.66 0 6 C-0.38218767 4.34385343 -0.71395102 2.67542976 -1 1 C-0.67 0.67 -0.34 0.34 0 0 Z " fill="#F1C744" transform="translate(193,204)"/>
<path d="M0 0 C1.98 0.495 1.98 0.495 4 1 C4 2.32 4 3.64 4 5 C2.68 4.67 1.36 4.34 0 4 C0 2.68 0 1.36 0 0 Z " fill="#F3CA46" transform="translate(335,145)"/>
<path d="M0 0 C0.99 0.33 1.98 0.66 3 1 C2.67 2.65 2.34 4.3 2 6 C0.68 5.67 -0.64 5.34 -2 5 C-1.34 3.35 -0.68 1.7 0 0 Z " fill="#F1C743" transform="translate(589,611)"/>
<path d="M0 0 C0.66 0 1.32 0 2 0 C2.33 1.65 2.66 3.3 3 5 C1.68 5 0.36 5 -1 5 C-1 1 -1 1 0 0 Z " fill="#F2C744" transform="translate(219,249)"/>
<path d="M0 0 C2 2 2 2 2 5 C0.68 4.67 -0.64 4.34 -2 4 C-2 3.01 -2 2.02 -2 1 C-1.34 0.67 -0.68 0.34 0 0 Z " fill="#F2C744" transform="translate(237,281)"/>
</svg>
