<?xml version="1.0" encoding="UTF-8"?>
<svg version="1.1" xmlns="http://www.w3.org/2000/svg" width="705" height="884">
<path d="M0 0 C2.5 2.4375 2.5 2.4375 4 5 C4 5.66 4 6.32 4 7 C4.54785156 6.95359375 5.09570312 6.9071875 5.66015625 6.859375 C19.73806281 6.21842966 32.86706201 11.29452458 43.6484375 20.18359375 C74.35876861 48.95681166 77.59348879 96.28248168 79.96166992 135.59472656 C80.01702408 136.47887741 80.07237823 137.36302826 80.12940979 138.27397156 C80.2320877 139.92919284 80.32880157 141.58480064 80.41807556 143.24079895 C81.17749502 155.43001223 84.50478663 170.59189514 94 179 C99.09858501 182.39458815 104.58009465 185.16231707 110 188 C118.05813654 192.32616645 124.89718617 196.78867878 128.4375 205.5625 C130.60460611 210.33013345 134.01197547 212.72967191 138 216 C151.21577835 227.5454915 159.67064658 244.19477906 164 261 C164.68964844 259.96101563 165.37929688 258.92203125 166.08984375 257.8515625 C171.58014808 249.66914294 177.13172903 242.09254104 184 235 C184.825 234.071875 185.65 233.14375 186.5 232.1875 C189.36160705 229.68359383 192.32730586 228.13950831 195.68359375 226.38671875 C198.07840501 224.95306277 199.86878817 223.36956026 201.875 221.4375 C209.0411851 214.9962986 217.87947489 213.77836228 227.0625 212.0625 C241.37535964 209.31654262 248.76102437 204.05625162 258 193 C258.7734375 192.09765625 259.546875 191.1953125 260.34375 190.265625 C271.04556612 177.52895652 279.54742571 164.04617241 287.3828125 149.41845703 C293.63058336 137.75609063 300.08086781 126.43849075 307.40869141 115.42333984 C309.9396494 111.56904573 312.3944583 107.66683411 314.86157227 103.77148438 C349.07065876 49.86089293 349.07065876 49.86089293 380.96044922 42.25244141 C391.77257301 39.85342974 401.10731728 39.75261764 411.90966797 42.14477539 C416.26330322 43.13875837 416.26330322 43.13875837 420.28125 41.6171875 C420.8484375 41.08351562 421.415625 40.54984375 422 40 C426.91307062 39.37611802 428.86334406 39.24222937 433 42 C435.55008737 45.82513106 435.72277497 48.59628858 435 53 C434.48472032 54.66839204 433.96320397 56.33486323 433.4375 58 C430.38361626 69.18323623 432.03809737 82.28771517 433.609375 93.671875 C433.73828125 94.77015625 433.8671875 95.8684375 434 97 C432.46876315 98.53123685 431.06787176 98.24307107 428.9375 98.3125 C421.98920037 98.2135527 417.37682614 95.14905095 412.0625 90.9375 C406.37410786 86.57713715 400.95429318 84.65494677 393.75 85 C380.39120639 86.82588811 372.11360474 92.69848589 363 102 C361.98099609 102.98419922 361.98099609 102.98419922 360.94140625 103.98828125 C356.69819069 108.09919165 352.80170274 112.48112623 349 117 C348.53819336 117.5480127 348.07638672 118.09602539 347.60058594 118.66064453 C326.98476897 143.24204347 310.15198213 168.09115217 307.875 200.875 C307.7929834 202.05304199 307.7109668 203.23108398 307.62646484 204.44482422 C307.1535744 211.66741795 306.74908964 218.88736712 306.625 226.125 C306.59905762 226.89827637 306.57311523 227.67155273 306.54638672 228.46826172 C306.52350193 235.42676406 308.696326 241.38501871 313.3125 246.625 C314.199375 247.40875 315.08625 248.1925 316 249 C324.24307577 256.63668859 330.19331123 264.89175039 331.21484375 276.42578125 C331.26395986 279.67290202 331.10116472 282.55740433 330.375 285.734375 C329.88752663 289.97945558 330.7289983 293.38918256 331.75 297.5 C331.93393311 298.29027588 332.11786621 299.08055176 332.30737305 299.89477539 C333.01700948 302.94323092 333.74716353 305.98596177 334.50439453 309.02294922 C341.45532343 336.92089014 325.84531275 362.3151558 311.88217163 385.57009888 C310.19069552 388.37896154 308.49542397 391.1855295 306.80029297 393.9921875 C304.46443587 397.89478575 302.21186383 401.83861762 300 405.8125 C299.65388672 406.43261963 299.30777344 407.05273926 298.95117188 407.69165039 C297.96577575 409.46016959 296.98285613 411.23006794 296 413 C288.0734655 427.2509378 279.23194778 440.32702338 269 453 C268.2471875 453.93714844 267.494375 454.87429688 266.71875 455.83984375 C259.16416361 465.15990413 251.38516947 474.31179011 243.3125 483.1875 C239.55850824 487.32427804 236.02853544 491.60721231 232.515625 495.94921875 C229.02356167 500.1841589 225.41125076 504.31005952 221.80224609 508.4453125 C218.58774827 512.13836528 215.44616946 515.87330567 212.375 519.6875 C208.29628182 524.72591657 203.95961372 529.47973957 199.5546875 534.23046875 C197.49886278 536.45918393 195.48383043 538.70767919 193.5 541 C190.13542128 544.87972953 186.66411092 548.65857509 183.1875 552.4375 C180.27210044 555.60779789 177.37616922 558.79394757 174.5 562 C171.65489763 565.17025693 168.79385143 568.32467379 165.91235352 571.46191406 C164.97416604 572.48362212 164.03714456 573.50640215 163.10131836 574.53027344 C160.89899245 576.93929766 158.68532065 579.33245513 156.44140625 581.703125 C155.65636719 582.54359375 154.87132812 583.3840625 154.0625 584.25 C153.02802734 585.34054687 153.02802734 585.34054687 151.97265625 586.453125 C149.4223123 589.7458463 147.75019841 593.23594154 146 597 C140.31192224 609.09374312 133.67716623 620.05793927 126 631 C125.47212891 631.75603516 124.94425781 632.51207031 124.40039062 633.29101562 C117.14408223 643.64075634 109.46543917 653.5604863 101.40576172 663.29443359 C99.49453721 665.61326208 97.62036743 667.96065185 95.75 670.3125 C88.00141209 680.01845563 80.05323183 689.54679027 72 699 C71.50032715 699.58749023 71.0006543 700.17498047 70.48583984 700.78027344 C65.49499408 706.64495334 60.49541946 712.49079548 55.3125 718.1875 C52.21031992 721.59821516 49.26761726 725.0973376 46.375 728.6875 C43.31461645 732.47047411 40.15704685 735.96241355 36.6640625 739.34375 C34.3086822 741.68807218 32.17055227 744.2002977 30 746.71484375 C26.22622164 751.02668036 22.32039412 755.22031218 18.43945312 759.43554688 C16.57884022 761.45773268 14.72201081 763.48336608 12.86572266 765.50952148 C11.95432226 766.50417637 11.0425375 767.49847919 10.13037109 768.49243164 C7.80710343 771.02438841 5.48899173 773.56076551 3.1796875 776.10546875 C-1.66252527 781.43156677 -6.56121675 786.66165087 -11.734375 791.671875 C-13.53817064 793.52543052 -15.20158959 795.39668218 -16.875 797.36328125 C-22.07181769 803.34476009 -27.71348008 808.89949227 -33.31396484 814.49926758 C-35.23696182 816.42444702 -37.15180574 818.35749031 -39.06640625 820.29101562 C-46.06718346 827.32431277 -53.14493152 833.91715022 -61 840 C-61.69383789 840.55405518 -62.38767578 841.10811035 -63.10253906 841.67895508 C-81.43473428 856.19080119 -102.75247325 866.9301744 -125 874 C-125.71269043 874.23509277 -126.42538086 874.47018555 -127.15966797 874.71240234 C-137.95353995 878.25640257 -148.75766743 880.4365355 -160 882 C-160.87527344 882.13277344 -161.75054687 882.26554688 -162.65234375 882.40234375 C-168.44130289 883.14503974 -174.29596403 883.16404624 -180.125 883.25 C-180.97304199 883.27151123 -181.82108398 883.29302246 -182.69482422 883.31518555 C-188.78896169 883.34672131 -194.64492036 882.73815592 -199.56274414 878.72460938 C-202.96023196 875.08034966 -204.0833191 871.91582702 -204 867 C-201.13991972 855.26307797 -189.87579713 849.00308928 -180.73339844 842.27880859 C-174.7910133 837.89483488 -168.89826924 833.4430454 -163 829 C-162.41541016 828.56010742 -161.83082031 828.12021484 -161.22851562 827.66699219 C-152.90364163 821.38707853 -144.90063446 814.80215053 -137 808 C-136.28328125 807.39671875 -135.5665625 806.7934375 -134.828125 806.171875 C-122.83787416 795.96529784 -112.04823845 784.60477552 -104 771 C-104.91885986 771.43231934 -105.83771973 771.86463867 -106.78442383 772.31005859 C-126.24560408 781.44264654 -145.66003992 789.97881495 -166 797 C-166.96099609 797.33854004 -167.92199219 797.67708008 -168.91210938 798.02587891 C-189.3414805 805.21857272 -208.23577048 809.18971211 -229.90332031 809.29516602 C-231.5476135 809.30669751 -233.19186891 809.32716798 -234.8359375 809.35668945 C-246.02434243 809.55664198 -257.44910669 809.70823611 -266.6875 802.375 C-269.95441404 799.01979098 -270.46095113 796.76712483 -270.41796875 792.0390625 C-269.90785046 789.55044802 -269.15844782 788.70655329 -267.25 787.0625 C-263.15220792 784.4619781 -260.3731676 783.85318753 -255.5859375 784.0078125 C-241.35610687 784.3387706 -232.81135122 783.24103647 -220.94580078 774.96728516 C-216.48021595 771.87846831 -211.96071023 769.33456568 -207.0625 767 C-194.04521553 760.74327454 -182.21989374 752.68128512 -170.59326172 744.15966797 C-169.08462716 743.06159654 -167.5602944 741.98518775 -166.03515625 740.91015625 C-150.75255121 730.08587078 -138.64546975 716.5408699 -127 702 C-125.54304734 700.22803055 -124.08469125 698.45721417 -122.625 696.6875 C-119.23104955 692.54523061 -115.91655887 688.34839455 -112.625 684.125 C-109.06002612 679.55210175 -105.40604087 675.08307134 -101.625 670.6875 C-96.83199144 665.10267783 -92.35399295 659.310398 -87.91113281 653.44482422 C-83.81781388 648.0464418 -79.63079716 642.73404875 -75.38134766 637.45800781 C-72.49458846 633.87267005 -69.63760338 630.26714387 -66.80932617 626.63549805 C-60.12934067 618.06290943 -53.14245446 609.77971379 -46.02734375 601.56640625 C-37.03358483 591.16964419 -28.51458319 580.46966748 -20.3125 569.4375 C-19.68976196 568.60907593 -19.68976196 568.60907593 -19.05444336 567.76391602 C-18.18834587 566.58578729 -17.34226793 565.39277156 -16.51293945 564.18847656 C-15.34923389 562.50516904 -14.13452844 560.85703442 -12.89916992 559.22558594 C-7.26276571 551.19437879 -6.05766317 544.45583731 -6.56787109 534.72317505 C-6.78294462 530.50153404 -6.84597217 526.27690503 -6.91796875 522.05078125 C-6.93596527 521.12263107 -6.95396179 520.1944809 -6.97250366 519.23820496 C-7.17366781 504.74389818 -6.12523524 490.26560291 -5.28036499 475.80267334 C-3.99136154 453.69894229 -3.44463974 431.73909604 -4.75 409.625 C-4.79356628 408.87175446 -4.83713257 408.11850891 -4.88201904 407.34243774 C-6.94112951 372.50983059 -12.76663685 338.28220046 -19.10546875 304.00195312 C-19.28658203 303.01938538 -19.46769531 302.03681763 -19.65429688 301.0244751 C-19.99762171 299.1675892 -20.34375475 297.31121919 -20.69335938 295.45550537 C-23.77912674 278.7857742 -26.8619877 256.72397541 -19 241 C-18.88690869 238.89315085 -18.77965682 236.78573273 -18.70996094 234.67700195 C-18.25190449 220.91819712 -16.91455616 208.61907716 -6.75 198.5 C0.14804197 192.73169516 9.50568087 188.83143971 18 186 C19.0825524 184.22460447 19.0825524 184.22460447 20 182 C20.45479736 181.15566406 20.90959473 180.31132812 21.37817383 179.44140625 C25.22895149 172.13044664 27.69658905 165.00165642 29.6875 157 C29.96916016 155.91460937 30.25082031 154.82921875 30.54101562 153.7109375 C31.10042602 151.54564459 31.65207206 149.37832941 32.19555664 147.20898438 C32.73642922 145.05140344 33.28788596 142.89645093 33.84936523 140.74414062 C39.31504918 119.608634 41.12174516 87.42673555 29.72265625 67.80078125 C24.75517656 60.57660718 16.66387259 53.53682333 7.984375 51.53515625 C1.64995645 50.54955616 -5.2430518 50.99580126 -10.984375 54.05859375 C-15.55860051 56.19500528 -21.28500586 55.41999856 -26.0625 54.25 C-28 53 -28 53 -28.7590332 51.15429688 C-29.06955583 48.37815538 -28.39824461 47.52881162 -26.79296875 45.28125 C-24.05565223 41.18615637 -22.09790384 37.08206366 -20.3125 32.5 C-20.00924805 31.7275293 -19.70599609 30.95505859 -19.39355469 30.15917969 C-16.9607872 23.61394026 -15.97004026 17.39528134 -15.484375 10.453125 C-14.88112631 6.15254562 -13.69237714 2.4416546 -10.3125 -0.4375 C-6.72801265 -1.30940233 -3.51507842 -1.13807867 0 0 Z M-7 5 C-9.30628676 7.30628676 -9.31406503 7.94779487 -9.640625 11.078125 C-9.73859375 11.90280273 -9.8365625 12.72748047 -9.9375 13.57714844 C-10.0921875 14.90020996 -10.0921875 14.90020996 -10.25 16.25 C-11.46039815 25.43652726 -13.94493478 32.64612246 -18 41 C-19.06124692 43.64918677 -20.03326891 46.31463586 -21 49 C-15.30889176 49.46458026 -11.50047544 48.45610674 -7 45 C-2.40637984 40.5107803 -0.64404066 36.15078151 1 30 C1.226875 29.175 1.45375 28.35 1.6875 27.5 C2.63080216 19.95358269 2.50498767 12.50577016 -2 6 C-4.46287948 4.97058086 -4.46287948 4.97058086 -7 5 Z M7 13 C7.01160156 14.07378906 7.02320313 15.14757812 7.03515625 16.25390625 C7.04454315 17.69010241 7.05364238 19.12630048 7.0625 20.5625 C7.07087891 21.26697266 7.07925781 21.97144531 7.08789062 22.69726562 C7.10882603 27.24024798 6.74800682 31.51784892 6 36 C6.76183594 36.35191406 7.52367187 36.70382813 8.30859375 37.06640625 C15.2323707 40.37702619 21.2264908 43.93982012 27 49 C27.62648438 49.54398438 28.25296875 50.08796875 28.8984375 50.6484375 C43.3968555 64.13386559 47.83583441 85.85285252 48.90625 104.90625 C48.9371875 105.9271875 48.968125 106.948125 49 108 C49.03867187 108.96873047 49.03867187 108.96873047 49.078125 109.95703125 C49.50520496 121.63766827 48.44442974 132.58167994 46 144 C45.80132324 144.94214355 45.60264648 145.88428711 45.39794922 146.85498047 C41.52101905 164.79340566 36.29357411 181.91722027 24 196 C23.34 196.33 22.68 196.66 22 197 C23.80507804 193.07130074 25.92759752 189.54651172 28.3125 185.9375 C35.04381284 175.41220829 38.99672567 164.70663725 41.75 152.5625 C42.18505859 150.75168945 42.18505859 150.75168945 42.62890625 148.90429688 C46.34475783 133.04830008 47.68292466 118.30958639 46.1875 102.125 C46.05819092 100.69969971 46.05819092 100.69969971 45.92626953 99.24560547 C45.21272634 91.97537945 43.99258579 85.04046981 42 78 C41.1435351 80.47423193 40.99600168 81.97732359 41.45556641 84.58374023 C42.12050474 88.75615375 42.21815319 92.81668105 42.2734375 97.03515625 C42.28601089 97.9022522 42.29858429 98.76934814 42.3115387 99.66271973 C42.70876861 133.61175113 42.70876861 133.61175113 37.79589844 148.47998047 C36.86319038 151.43317451 36.08976435 154.4103517 35.3203125 157.41015625 C34.73555208 159.64874531 34.14962907 161.88703102 33.5625 164.125 C33.29880615 165.14537354 33.0351123 166.16574707 32.76342773 167.21704102 C30.11326708 176.81885563 26.61811392 186.37577181 18 192 C15.26061723 193.42425801 12.46124939 194.65776193 9.625 195.875 C0.31328609 200.09637666 -6.40345619 204.02755979 -10.30859375 213.88671875 C-11.59379252 217.81492515 -12.11717283 221.09486516 -12.0625 225.25 C-12.05347656 226.14203125 -12.04445313 227.0340625 -12.03515625 227.953125 C-12.02355469 228.62859375 -12.01195312 229.3040625 -12 230 C-11.45472656 229.61328125 -10.90945313 229.2265625 -10.34765625 228.828125 C-1.81091705 222.9326675 7.38082668 217.88232937 18.03515625 218.046875 C24.09997326 218.0757895 27.93441645 217.64393367 32.52539062 213.40454102 C34.01831438 211.91927962 35.49998816 210.42343735 36.98046875 208.92578125 C48.26805212 197.60883181 65.08166938 192.01703228 80.8125 191.6875 C92.94759612 191.77119032 104.07422246 194.82463169 115 200 C115.66 199.67 116.32 199.34 117 199 C108.10281105 193.33893498 108.10281105 193.33893498 98.75 188.5 C88.02611185 183.20769156 83.23437988 175.98372478 79 165 C78.49960205 163.83984375 77.9992041 162.6796875 77.48364258 161.484375 C75.57794879 156.37185151 75.29466993 151.31610158 74.97265625 145.90625 C74.89760361 144.84249146 74.82255096 143.77873291 74.745224 142.68273926 C74.50619579 139.28916133 74.28245236 135.89486419 74.0625 132.5 C71.59259325 94.41275696 67.44826245 50.76297033 38 23 C29.01506525 15.96958028 18.30579121 12.68118159 7 13 Z M4 38 C2.515 41.465 2.515 41.465 1 45 C1.73863281 45.07476562 2.47726562 45.14953125 3.23828125 45.2265625 C15.49999652 46.81575558 23.85005183 51.79919892 32 61 C32 56.96968211 30.67493878 56.21095085 27.875 53.375 C21.67441663 47.34271818 12.79165203 39.4075305 4 38 Z M421.83203125 46.73046875 C421.16558594 47.54128906 420.49914062 48.35210937 419.8125 49.1875 C419.13832031 49.98542969 418.46414063 50.78335938 417.76953125 51.60546875 C412.18707524 59.15965315 412.41189086 67.90609011 413 77 C413.84158841 81.87122783 415.16207342 85.63157176 418.875 89 C421.84628406 90.9016218 423.60759716 91.44801581 427 92 C426.98952637 91.1028125 426.97905273 90.205625 426.96826172 89.28125 C426.93396274 85.91908138 426.90899625 82.55710156 426.89013672 79.19482422 C426.88014414 77.74590094 426.86654547 76.29699749 426.84912109 74.84814453 C426.76050481 67.28448399 426.75353582 60.30100858 429 53 C429.15580438 50.63543935 429.09884425 48.37226196 429 46 C425.17174494 44.69321936 425.17174494 44.69321936 421.83203125 46.73046875 Z M354 62 C353.39671875 62.47179687 352.7934375 62.94359375 352.171875 63.4296875 C343.42248401 70.40555329 337.33665991 80.18665314 331.25 89.4375 C330.21238525 91.00359009 330.21238525 91.00359009 329.15380859 92.60131836 C324.38991339 99.81755814 319.72166536 107.09009331 315.15063477 114.42993164 C313.0247962 117.83611712 310.88689047 121.21079864 308.56640625 124.48828125 C302.72868427 132.76577338 298.07379336 141.4823683 293.5 150.5 C285.98611676 165.28633694 277.90070933 178.2720527 266.88671875 190.70703125 C264.23437003 193.7026354 261.73561551 196.80160297 259.25 199.9375 C249.59623782 211.72306245 240.02995569 215.69344978 225.25 218.5625 C216.2699694 220.27978735 216.2699694 220.27978735 208 224 C208 224.33 208 224.66 208 225 C208.58007812 225.03738281 209.16015625 225.07476562 209.7578125 225.11328125 C213.80621229 225.45398816 216.63853116 225.8158555 220.3125 227.6875 C221.199375 228.120625 222.08625 228.55375 223 229 C226.04710313 227.82611601 228.54485512 225.95422939 231.1875 224.0625 C238.66152255 219.06760585 245.99747343 216.85375556 255 218 C263.7993919 219.93959199 271.26635298 223.48117453 279 228 C280.33026263 228.67277303 281.6631291 229.3404559 283 230 C282.99476318 229.21351074 282.98952637 228.42702148 282.98413086 227.61669922 C282.9632799 224.03614101 282.95031399 220.45559562 282.9375 216.875 C282.92912109 215.6375 282.92074219 214.4 282.91210938 213.125 C282.90888672 211.92617187 282.90566406 210.72734375 282.90234375 209.4921875 C282.89710693 208.39245605 282.89187012 207.29272461 282.88647461 206.15966797 C282.9991442 203.02381895 283.41373624 200.07940617 284 197 C284.99 196.67 285.98 196.34 287 196 C286.855625 196.51304687 286.71125 197.02609375 286.5625 197.5546875 C283.74531768 209.17556458 283.75558059 222.47072389 287 234 C287.33 234 287.66 234 288 234 C288.01458252 232.83654053 288.02916504 231.67308105 288.04418945 230.47436523 C288.10293439 226.08491945 288.18014921 221.69594672 288.26245117 217.30688477 C288.29534725 215.42089618 288.32348423 213.53481746 288.34643555 211.64868164 C288.78570123 176.47938877 300.86445223 147.59127141 323.50390625 120.99609375 C326.08427968 117.89883801 328.51473111 114.72000889 330.9375 111.5 C348.14789937 88.83355224 368.81112806 72.18358833 397 66 C397.99 66 398.98 66 400 66 C400.33 66.66 400.66 67.32 401 68 C400.30777344 68.07476562 399.61554688 68.14953125 398.90234375 68.2265625 C379.62252202 70.81752668 363.73429449 80.59745175 350 94 C349.10667969 94.84304687 348.21335937 95.68609375 347.29296875 96.5546875 C341.49972414 102.14537111 336.46837449 108.04048793 331.6640625 114.48828125 C329.26596189 117.6927182 326.73640018 120.77226122 324.17822266 123.84960938 C302.24328745 150.32214683 290.81112673 178.73658497 290.81469727 213.30297852 C290.81249549 215.69239734 290.79424287 218.08136469 290.77539062 220.47070312 C290.77245854 222.00520678 290.77047251 223.53971259 290.76953125 225.07421875 C290.75875298 226.13379036 290.75875298 226.13379036 290.74775696 227.21476746 C290.76745425 231.51209728 291.24331984 235.06218481 293 239 C294.485 239.99 294.485 239.99 296 241 C295.7834375 239.36804688 295.7834375 239.36804688 295.5625 237.703125 C295.37461066 236.21879923 295.18713318 234.73442129 295 233.25 C294.90460938 232.53972656 294.80921875 231.82945312 294.7109375 231.09765625 C292.83398783 215.94799106 294.90249392 201.01880194 297 186 C297.11794922 185.13971191 297.23589844 184.27942383 297.35742188 183.39306641 C299.35938751 169.82890093 305.16014179 158.76090571 312 147 C312.62334229 145.90510254 312.62334229 145.90510254 313.25927734 144.78808594 C318.81684792 135.08685278 325.39028392 126.55362012 332.62109375 118.04296875 C335.17439271 115.02932061 337.55866699 111.94361446 339.87768555 108.74804688 C353.40651745 90.21524768 374.77714218 76.87363828 397 72 C400.3331655 71.50634881 403.63466829 71.15836855 407 71 C407.14695312 69.60587891 407.14695312 69.60587891 407.296875 68.18359375 C408.14929443 61.13643655 408.9912841 55.87944999 413 50 C413 49.34 413 48.68 413 48 C392.66349619 42.57693232 369.86182996 48.28996867 354 62 Z M36 65 C37 67 37 67 37 67 Z M37 67 C38 69 38 69 38 69 Z M38 69 C39 71 39 71 39 71 Z M39 72 C40 74 40 74 40 74 Z M40 74 C41 78 41 78 41 78 Z M374 83 C377.36643955 84.12214652 377.82912128 83.9256268 380.9375 82.625 C385.14345837 80.89075127 388.75075669 79.86964826 393.328125 79.90234375 C394.52695312 79.90717773 394.52695312 79.90717773 395.75 79.91210938 C396.575 79.92048828 397.4 79.92886719 398.25 79.9375 C399.09046875 79.94201172 399.9309375 79.94652344 400.796875 79.95117188 C402.86461401 79.96292039 404.93231624 79.98085478 407 80 C407 78.02 407 76.04 407 74 C395.34395026 72.76583003 384.06048618 77.4564668 374 83 Z M365 89 C362.30415003 91.18542249 359.61583067 93.37904769 356.9375 95.5859375 C355.26337349 96.96174892 353.5810658 98.32806245 351.875 99.6640625 C345.75294849 104.63822935 341.2280946 110.86349632 336.47949219 117.09423828 C335.00163046 118.99789978 333.48380855 120.85994371 331.9453125 122.71484375 C325.56114355 130.42879431 320.04717266 138.25082746 315.14599609 146.98291016 C313.91622016 149.14746251 312.64205819 151.28203556 311.36328125 153.41796875 C305.9209673 162.63799346 301.7997107 171.33583188 300 182 C299.85481934 182.85803223 299.70963867 183.71606445 299.56005859 184.60009766 C296.06698617 206.31267566 292.69071706 231.97655943 304 252 C305.31281924 253.59739765 306.67026572 255.15882171 308.0625 256.6875 C312.99531059 262.51792039 316.33347455 268.89420504 319.72485352 275.71362305 C320.12373779 276.51195557 320.52262207 277.31028809 320.93359375 278.1328125 C321.28478271 278.85355957 321.63597168 279.57430664 321.99780273 280.31689453 C322.89865395 282.17420347 322.89865395 282.17420347 325 283 C325.68455485 274.06275611 324.36406886 267.20934079 318.68359375 260.1015625 C315.3605793 256.40712319 311.92599469 252.88003291 308.32421875 249.45703125 C306.13564749 247.14339877 304.95861371 245.40886689 303.75 242.5 C303.43546875 241.7678125 303.1209375 241.035625 302.796875 240.28125 C294.83467789 217.48750925 301.82472914 181.53958013 311.88867188 160.21337891 C320.98562867 142.09540653 333.62821962 126.1101592 347 111 C347.78246094 110.10539062 348.56492187 109.21078125 349.37109375 108.2890625 C354.99472069 101.93366236 360.95156571 95.94668493 367 90 C366.01 89.505 366.01 89.505 365 89 Z M28.75 223.6875 C14.41648876 241.68609474 8.23939093 260.82311173 10.76953125 283.73828125 C10.8573436 284.55034027 10.94515594 285.36239929 11.03562927 286.19906616 C12.14138479 295.90737386 13.84816421 305.50923866 15.5625 315.125 C16.04037893 317.82885887 16.5163317 320.53303014 16.98924255 323.23776245 C17.27991106 324.89792662 17.57350203 326.5575832 17.8707428 328.21658325 C19.2601829 336.10772332 20.12577886 343.81736425 20.1328125 351.84375 C20.13376923 352.53891724 20.13472595 353.23408447 20.13571167 353.95031738 C20.13638489 355.39884534 20.13459135 356.84737647 20.13037109 358.29589844 C20.12494431 360.52285356 20.13037833 362.74961298 20.13671875 364.9765625 C20.13605909 366.39062545 20.13478027 367.80468827 20.1328125 369.21875 C20.13168457 370.49685547 20.13055664 371.77496094 20.12939453 373.09179688 C20 376 20 376 19 377 C18.87470291 379.60919805 18.81390718 382.1931924 18.79467773 384.80395508 C18.77982834 386.03416634 18.77982834 386.03416634 18.76467896 387.28923035 C18.73283534 390.03263397 18.70815167 392.77605343 18.68359375 395.51953125 C18.66297833 397.44968565 18.64198081 399.379836 18.62062073 401.3099823 C18.57649259 405.38997989 18.53564766 409.46999274 18.49731445 413.55004883 C18.44920432 418.66513018 18.39540468 423.78012851 18.33934593 428.89512825 C18.06981841 453.59739542 17.93289484 478.29630578 18 503 C20.5034478 500.58635241 22.13977306 498.26143369 23.84765625 495.21875 C24.37037109 494.29449219 24.89308594 493.37023437 25.43164062 492.41796875 C25.96982422 491.45503906 26.50800781 490.49210937 27.0625 489.5 C28.13584128 487.59325579 29.21002405 485.68698496 30.28515625 483.78125 C30.75832275 482.93626953 31.23148926 482.09128906 31.71899414 481.22070312 C32.74600469 479.44031663 33.85988844 477.71016735 35 476 C35.32884882 473.12066002 35.32884882 473.12066002 35.30078125 469.7421875 C35.30615402 469.0786174 35.31152679 468.4150473 35.31706238 467.73136902 C35.32876403 465.44573749 35.32181666 463.1606383 35.3125 460.875 C35.31233887 460.07673798 35.31217773 459.27847595 35.31201172 458.45602417 C35.26931036 426.96415119 33.42780185 395.4531511 32 364 C32.66 364 33.32 364 34 364 C34.48951954 373.60365813 34.96811443 383.20783879 35.4375 392.8125 C35.47227573 393.52395802 35.50705147 394.23541603 35.54288101 394.96843338 C36.76142651 419.97339085 37.62469622 444.96661592 38 470 C42.23443065 466.17626895 42.23443065 466.17626895 44.25878906 461.04345703 C44.26104492 460.28919434 44.26330078 459.53493164 44.265625 458.7578125 C44.27215088 457.43898071 44.27215088 457.43898071 44.27880859 456.09350586 C44.26930176 455.11389893 44.25979492 454.13429199 44.25 453.125 C44.24178223 452.06095947 44.23356445 450.99691895 44.22509766 449.90063477 C43.84002763 420.63324239 41.16497474 391.57582095 38.24045181 362.47401047 C38.03561296 360.43293047 37.83257689 358.39167842 37.63000488 356.35037231 C37.37903502 353.83085846 37.12386066 351.31175837 36.86364746 348.79318237 C36.20413119 342.16770717 35.83039221 335.65837985 36 329 C36.33 329 36.66 329 37 329 C42.06486627 371.93736311 45.55177657 414.78289351 47 458 C50.60480926 454.43056152 53.9971406 450.76544558 57.25 446.875 C57.72961182 446.30370361 58.20922363 445.73240723 58.70336914 445.14379883 C60.13829658 443.4314505 61.56922116 441.71581482 63 440 C64.13501953 438.64841797 64.13501953 438.64841797 65.29296875 437.26953125 C76.31548751 423.99833836 86.34968222 410.11835353 95.40844727 395.43237305 C97 393 97 393 98.83959961 390.78051758 C105.55547372 382.11138255 105.77693279 372.11345486 106.66430664 361.5534668 C106.93332995 358.36197044 107.24471425 355.1770063 107.56445312 351.99023438 C108.58642401 341.33180224 109.18566135 330.72052078 109.22265625 320.01171875 C109.2274852 319.04454422 109.23231415 318.07736969 109.23728943 317.08088684 C109.18311444 308.81027716 107.98258488 301.02474831 106 293 C107.32 293 108.64 293 110 293 C110.06058594 293.90621094 110.12117188 294.81242187 110.18359375 295.74609375 C110.64952423 302.52000612 111.18641453 309.25886322 112 316 C112.33 316 112.66 316 113 316 C113.21510512 306.23661764 112.97213033 296.93557092 111.4375 287.26953125 C111.01786885 284.13353773 110.92329865 281.15913681 111 278 C111.66 277.67 112.32 277.34 113 277 C116.50005882 306.66554713 115.88493965 335.27209537 114 365 C116.7899759 362.60154978 116.9850019 362.1092619 117.52416992 358.18139648 C117.60785542 356.57867164 117.67551001 354.97506062 117.73046875 353.37109375 C117.770616 352.50799088 117.81076324 351.644888 117.85212708 350.75563049 C117.9349878 348.91916138 118.01102621 347.08237381 118.08081055 345.24536133 C118.18514934 342.49936483 118.30823527 339.7547826 118.43554688 337.00976562 C119.09469913 322.17472756 119.75320226 307.17564438 118.25 292.375 C118.16347168 291.49948486 118.07694336 290.62396973 117.98779297 289.72192383 C117.17301568 282.25902636 115.59006885 275.20871354 113.54980469 267.98974609 C112.54279574 264.34537534 111.65572309 260.67058343 110.75 257 C110.41193401 255.6457145 110.07343887 254.29153601 109.734375 252.9375 C109.49203125 251.968125 109.2496875 250.99875 109 250 C110.485 250.495 110.485 250.495 112 251 C112.81758623 253.30354144 113.41163669 255.438627 113.9375 257.8125 C114.1022583 258.5144751 114.2670166 259.2164502 114.43676758 259.93969727 C115.77666858 265.75227018 116.99429527 271.59326551 118.1875 277.4375 C118.43777954 278.6601355 118.43777954 278.6601355 118.69311523 279.9074707 C120.77431144 290.43115437 121.16304698 300.66554298 121.125 311.375 C121.12367065 312.44800858 121.12367065 312.44800858 121.12231445 313.54269409 C121.10183305 327.70972282 120.66455744 341.84810796 120 356 C123.97236899 351.36235562 127.06669827 346.2527563 130.25 341.0625 C130.82484131 340.12752686 131.39968262 339.19255371 131.99194336 338.22924805 C136.48026929 330.90081586 140.95074267 323.58243284 145 316 C145.4640625 315.15953125 145.928125 314.3190625 146.40625 313.453125 C153.27608301 299.24928108 146.14661025 278.60892926 141.3125 264.4375 C134.73177902 246.14169597 124.26634153 230.0769952 110.8359375 216.109375 C109 214 109 214 109 212 C109.53625 212.28875 110.0725 212.5775 110.625 212.875 C113.01529427 214.09345368 113.01529427 214.09345368 115.80859375 214.7578125 C130.57095402 220.50374955 139.96638947 241.12587995 146.0625 254.5 C148.82795113 261.04707853 150.67634721 267.70320564 152.35180664 274.60351562 C152.5399292 275.37630859 152.72805176 276.14910156 152.921875 276.9453125 C153.08268555 277.63125488 153.24349609 278.31719727 153.40917969 279.02392578 C154.04997667 281.16715337 154.94802862 283.02989443 156 285 C160.33111176 274.32690316 159.80265478 264.82682772 156 254 C145.77507766 229.99758088 129.34108745 211.12035231 105 201 C76.09060866 189.46231732 48.30336963 201.40575322 28.75 223.6875 Z M220.3125 241.6875 C215.76021343 247.99253861 211.85519906 254.752187 209 262 C209.33 262.66 209.66 263.32 210 264 C212.91171789 260.33019796 212.91171789 260.33019796 214 256 C215.32 256 216.64 256 218 256 C217.56429688 256.64582031 217.12859375 257.29164063 216.6796875 257.95703125 C210.87338854 267.14405406 207.97906114 276.62553155 205 287 C204.58865559 288.39755297 204.17596206 289.79470978 203.76171875 291.19140625 C201.46505907 298.94715262 201.46505907 298.94715262 199.23144531 306.72119141 C195.60746178 319.54368512 191.60062475 331.4014884 185 343 C184.38125 344.10988281 183.7625 345.21976562 183.125 346.36328125 C179.26666999 353.01739336 175.072898 359.39826121 170.75552368 365.76358032 C169.58642247 367.48781932 168.41791619 369.2124581 167.25 370.9375 C166.85830627 371.51582581 166.46661255 372.09415161 166.06304932 372.69000244 C159.32827989 382.66945134 153.48944382 392.95460893 147.8828125 403.61328125 C144.69233955 409.65654936 141.14072609 415.41287452 137.4453125 421.15625 C135.71113738 423.8516855 134.05191707 426.57950007 132.4296875 429.34375 C125.78681929 440.61830923 118.24760963 450.84929367 110 461 C109.19691406 461.99386719 108.39382813 462.98773438 107.56640625 464.01171875 C106.16339701 465.73394477 104.754663 467.45152523 103.33984375 469.1640625 C100.37310487 472.75980945 97.43700163 476.37995518 94.5 480 C92.83649982 482.04788132 91.17266407 484.09548962 89.50878906 486.14306641 C88.19040211 487.76566368 86.87250355 489.38865777 85.5546875 491.01171875 C79.32789407 498.65572144 72.95887305 506.17547983 66.56787109 513.68212891 C65.14831708 515.34965688 63.73015891 517.01836073 62.3125 518.6875 C61.62921631 519.49018311 61.62921631 519.49018311 60.93212891 520.30908203 C57.38041417 524.50049078 53.98439782 528.80015541 50.65625 533.171875 C49 535 49 535 46 536 C48.9025103 530.06304711 52.8690686 525.70135767 57.359375 520.8828125 C60.61452737 517.32911065 63.63441535 513.62003458 66.66015625 509.87109375 C69.18733213 506.77013503 71.77611347 503.72821552 74.375 500.6875 C78.66097127 495.66104799 82.7603649 490.5137924 86.80859375 485.29492188 C90.04500805 481.14883745 93.41849184 477.15103806 96.875 473.1875 C103.12224414 466.00056749 108.89698469 458.48551661 114.60009766 450.86279297 C115.75470332 449.32640629 116.92767154 447.80383726 118.10546875 446.28515625 C124.95498665 437.27417002 130.56675962 427.39859775 136.37695312 417.70263672 C137.7466855 415.4218098 139.12652544 413.1479602 140.515625 410.87890625 C144.1829533 404.86874167 147.67661624 398.79704776 151.02807617 392.60424805 C155.82132876 383.74756602 160.92364626 375.32127221 166.61962891 367.02246094 C173.55453823 356.86172715 180.35486708 346.62499489 186.125 335.75 C186.65589233 334.75057373 186.65589233 334.75057373 187.19750977 333.73095703 C189.5025099 329.26308059 191.4542394 324.78882696 193 320 C192.67 319.01 192.34 318.02 192 317 C191.50971313 317.95869995 191.50971313 317.95869995 191.00952148 318.93676758 C174.64658508 350.84837786 174.64658508 350.84837786 169 353 C168.34 353 167.68 353 167 353 C168.55310466 348.94467117 170.26181198 345.48374645 172.74609375 341.91796875 C184.94515529 323.83906292 191.94086365 304.30799465 197.61401367 283.44165039 C201.99646763 267.34527982 207.17929686 250.27816872 218.26953125 237.35546875 C218.84058594 236.57816406 219.41164063 235.80085937 220 235 C219.67 234.01 219.34 233.02 219 232 C213.96769097 232.7014059 212.07457163 235.97632958 209.14453125 239.8359375 C201.58692467 250.98650458 197.57519234 262.85173147 193.8515625 275.6953125 C191.85553788 282.57341702 189.6739381 289.38419798 187.4375 296.1875 C187.0856665 297.28489502 186.73383301 298.38229004 186.37133789 299.51293945 C183.8836131 307.04469341 180.72325241 313.99915365 177 321 C176.34 321 175.68 321 175 321 C176.48084798 317.2210436 178.10175944 313.52104126 179.75 309.8125 C184.30100295 299.29335692 187.7655102 288.4339928 190.875 277.41015625 C195.59581865 260.73288255 200.26076017 245.20664481 212 232 C211.67 231.34 211.34 230.68 211 230 C202.05474953 230.72868613 195.42671434 231.49475147 189 238 C188.21238281 238.77472656 187.42476563 239.54945313 186.61328125 240.34765625 C171.49657676 256.06625097 164.50702022 274.7873976 157.88305664 295.16186523 C152.44571826 311.82766281 145.17888514 326.57861688 136 341.5 C135.63827698 342.09228394 135.27655396 342.68456787 134.90386963 343.2947998 C129.12825089 352.75003901 123.09291558 362.01042779 116.88745117 371.19018555 C112.20139902 378.13623519 107.71735039 385.18527043 103.3125 392.3125 C91.56544812 411.2485029 78.79701978 428.66292877 64.375 445.625 C43.95388176 469.66868546 28.31536972 496.09339956 13.5625 523.9375 C1.19154055 547.26001408 -11.91346127 569.7651878 -29 590 C-29.84175781 591.00417969 -30.68351563 592.00835938 -31.55078125 593.04296875 C-35.39645406 597.61836941 -39.26613832 602.17075502 -43.203125 606.66796875 C-50.41707423 614.91033738 -57.32798412 623.3135534 -64 632 C-64.41846191 632.54366211 -64.83692383 633.08732422 -65.26806641 633.64746094 C-66.92595309 635.8014846 -68.58270968 637.9563703 -70.23779297 640.11254883 C-78.75433477 651.20078508 -87.48179237 662.10900782 -96.32080078 672.94140625 C-99.1551761 676.41617401 -101.98406338 679.8953977 -104.8125 683.375 C-105.3600293 684.04813232 -105.90755859 684.72126465 -106.47167969 685.41479492 C-109.37685853 688.9896166 -112.26228647 692.57849862 -115.125 696.1875 C-118.61909389 700.57166833 -122.22938785 704.84993923 -125.86816406 709.11401367 C-128.77348293 712.52440951 -131.59025075 715.98968305 -134.375 719.5 C-144.11238761 731.34973095 -154.90889061 740.68469924 -167.55371094 749.32763672 C-170.03928023 751.02685325 -172.50752907 752.74952676 -174.9765625 754.47265625 C-185.15274383 761.48890132 -195.57769787 767.66711644 -206.50976562 773.43286133 C-213.34176614 777.0454216 -219.82375787 780.92367111 -226.1953125 785.29296875 C-231.06060582 788.25415702 -235.47474958 789.24103611 -241.1328125 789.30859375 C-242.83630859 789.34629883 -242.83630859 789.34629883 -244.57421875 789.38476562 C-246.94916243 789.42003707 -249.32416954 789.45126096 -251.69921875 789.47851562 C-252.83230469 789.50494141 -253.96539062 789.53136719 -255.1328125 789.55859375 C-256.16293457 789.57204834 -257.19305664 789.58550293 -258.25439453 789.59936523 C-261.3301689 790.04817777 -262.71779998 790.94260863 -265 793 C-264.40994162 795.65526273 -263.69827462 797.46075651 -261.5078125 799.15234375 C-242.79604907 809.43993153 -211.62698932 804.88335485 -191.91772461 799.43505859 C-168.61584851 792.58448171 -146.13683762 783.96611689 -124 774 C-122.32425163 773.26034217 -120.64847353 772.5207517 -118.97265625 771.78125 C-103.25759468 764.73987473 -89.87501117 754.88929072 -76.13720703 744.59814453 C-74.32527656 743.24323285 -72.50726189 741.8976268 -70.68359375 740.55859375 C-56.18368697 729.84641772 -42.61897474 718.75030477 -30.828125 705.05859375 C-23.87317076 697.22683972 -16.18569487 690.5000949 -8 684 C-6.83068227 683.04200878 -5.662781 682.08228675 -4.49609375 681.12109375 C18.16310135 662.54504074 44.32462272 645.62895908 73.125 639.0625 C100.51433937 632.73098305 123.22253171 611.04788644 141.26171875 590.26171875 C145.70576742 585.15133002 150.3733174 580.26254549 155.0390625 575.35546875 C158.9026634 571.27556587 162.66624413 567.13356544 166.34765625 562.88867188 C168.84102291 560.03868894 171.41834445 557.26981663 174 554.5 C177.82901545 550.37229646 181.60862497 546.2150928 185.29296875 541.95703125 C187.33633431 539.6144085 189.41680859 537.30726578 191.5 535 C204.21715074 520.89358069 216.43969924 506.34758589 228.67578125 491.82421875 C233.55711821 486.035715 238.47409847 480.28085019 243.4375 474.5625 C243.98535156 473.92997314 244.53320312 473.29744629 245.09765625 472.64575195 C247.70806938 469.63323362 250.32572701 466.62803814 252.96484375 463.640625 C269.82331709 444.44124676 283.33108778 423.77835524 295.68115234 401.49047852 C299.38344734 394.82283109 303.21254906 388.25813559 307.1875 381.75 C327.71567332 348.67205201 327.71567332 348.67205201 329.3203125 311.13476562 C329.09085938 310.24466797 328.86140625 309.35457031 328.625 308.4375 C328.40328125 307.54353516 328.1815625 306.64957031 327.953125 305.72851562 C327.51504225 303.96716526 327.06636183 302.20841244 326.60644531 300.45263672 C326 298 326 298 325.63574219 295.84814453 C324.6854355 290.60096599 322.41417398 287.92451112 318.79199219 284.08496094 C315.83618292 280.6459131 314.07301533 276.69019179 312.125 272.625 C308.76885516 265.93012305 305.32296968 260.41223771 300.0078125 255.05078125 C298.12646467 253.12917111 296.64907767 251.20773536 295.125 249 C285.93389148 236.51016486 271.28514598 226.13541456 256 223 C239.48048605 221.15596123 230.22469633 229.06124991 220.3125 241.6875 Z M21 222 C9.44324788 227.77837606 2.80302722 236.0982606 -1.375 248.375 C-8.90629067 272.6715986 -2.65896138 300.13116699 7.203125 322.88671875 C8.08800789 325.23339348 8.56799159 327.53323201 9 330 C8.01 330 7.02 330 6 330 C5.79375 328.845 5.5875 327.69 5.375 326.5 C4.55292722 322.72433716 3.35541726 319.24399421 1.9152832 315.66015625 C-6.86935715 293.73247813 -11.41351602 265.98752613 -2.1953125 243.48828125 C1.31378936 236.1833862 5.54314417 229.97655638 11 224 C1.97169677 225.97906438 -4.91924674 229.90217131 -10.8125 237.125 C-23.1557342 256.92560486 -17.08182229 284.4980502 -13 306 C-11.83842471 312.22626979 -10.69726146 318.4562941 -9.5625 324.6875 C-9.4118811 325.51289276 -9.26126221 326.33828552 -9.1060791 327.18869019 C-6.83483504 339.6931303 -4.8577447 352.21370648 -3.1875 364.8125 C-3.08849396 365.54350922 -2.98948792 366.27451843 -2.88748169 367.02767944 C0.28079202 390.62328858 1.34574934 414.14378786 1.25 437.9375 C1.24822754 439.22470947 1.24645508 440.51191895 1.24462891 441.83813477 C1.21818182 458.2750013 0.87819706 474.61972462 -0.28369141 491.01464844 C-1.35960803 506.6668121 -1.18727108 522.31964802 -1 538 C2.40587919 534.90374619 3.89460505 532.55058507 4.21118164 527.89306641 C4.19434326 526.64187012 4.17750488 525.39067383 4.16015625 524.1015625 C4.15459213 523.38790024 4.14902802 522.67423798 4.14329529 521.93894958 C4.13074104 520.3512821 4.11400656 518.7636438 4.09375 517.17605591 C4.03805205 512.62922133 4.02032262 508.08227916 4.00390625 503.53515625 C3.99996857 502.51145432 3.99603088 501.48775238 3.99197388 500.43302917 C3.95511274 483.46907691 4.29839513 466.5056641 4.57302856 449.54449463 C4.80971085 434.92054784 5.04468834 420.29815921 5.05859375 405.671875 C5.06036621 404.67007706 5.06213867 403.66827911 5.06396484 402.63612366 C5.30639862 384.20446224 5.30639862 384.20446224 3 366 C3.99 366 4.98 366 6 366 C7.15766346 379.97766555 7.15278261 393.92029967 7.125 407.9375 C7.12416916 409.80146927 7.12416916 409.80146927 7.12332153 411.70309448 C7.11492842 428.05662682 6.97777565 444.40607047 6.73828125 460.7578125 C6.72628441 461.58411982 6.71428757 462.41042713 6.70192719 463.26177406 C6.58249823 471.44108905 6.45610182 479.62021757 6.30958652 487.79909515 C6.25571699 490.85449273 6.20621326 493.90995247 6.15743065 496.96543503 C6.13361272 498.3835362 6.10768875 499.80160391 6.07943153 501.21962357 C5.9266911 508.89375144 5.97972435 516.38391976 7 524 C9.18081024 522.23230483 9.18081024 522.23230483 9.23377991 520.01225281 C9.22632248 519.19311905 9.21886505 518.37398529 9.21118164 517.5300293 C9.20784317 516.59236221 9.2045047 515.65469513 9.20106506 514.68861389 C9.18756516 513.66086349 9.17406525 512.6331131 9.16015625 511.57421875 C9.15459213 510.50268051 9.14902802 509.43114227 9.14329529 508.32713318 C9.13081561 506.00332159 9.11412161 503.67952973 9.09375 501.35577393 C9.04057272 495.11357174 9.02153047 488.87129605 9.00390625 482.62890625 C8.99996857 481.36705505 8.99603088 480.10520386 8.99197388 478.80511475 C8.97197628 468.23694278 9.19257474 457.68776427 9.5 447.125 C10.13355819 424.81516122 10.08327346 402.5042472 10.0625 380.1875 C10.06164398 379.26579262 10.06078796 378.34408524 10.05990601 377.39444733 C10.04844662 365.92961199 10.02821496 354.46480611 10 343 C10.66 343 11.32 343 12 343 C12 399.43 12 455.86 12 514 C15.48090339 510.51909661 15.38231477 509.96347902 15.43237305 505.27539062 C15.4521521 504.07891403 15.47193115 502.88243744 15.49230957 501.64970398 C15.4987146 500.33186417 15.50511963 499.01402435 15.51171875 497.65625 C15.52880621 496.25074298 15.5471077 494.84525028 15.56652832 493.43977356 C15.61539467 489.59852119 15.64487806 485.75733825 15.6701622 481.91586685 C15.69335218 478.68455104 15.72652421 475.45336714 15.75946522 472.2221384 C15.86535261 461.73715073 15.93012379 451.25207769 15.98510742 440.766716 C16.00011166 437.97925638 16.01646719 435.19180764 16.03320312 432.40435791 C16.1052434 420.27597287 16.15318349 408.14770108 16.18033218 396.01913452 C16.18743522 393.33696077 16.1977361 390.65481619 16.20883179 387.97265625 C16.3081325 362.04353867 15.04879733 337.18706073 10.4375 311.625 C9.95965086 308.93100728 9.48439507 306.23657581 9.01075745 303.5418396 C8.7199083 301.89175432 8.4262994 300.24215185 8.1292572 298.59317017 C3.15284069 270.68810445 5.76511751 247.84186488 21.96875 224.44140625 C22.3090625 223.96574219 22.649375 223.49007812 23 223 C22.34 222.67 21.68 222.34 21 222 Z M126 228 C127.4361137 231.98758475 129.37285374 235.27004531 131.6875 238.8125 C142.42812421 255.91122079 148.84297523 275.95454568 151 296 C151.99 295.505 151.99 295.505 153 295 C152.48105269 271.36430895 142.75916022 245.69874917 127 228 C126.67 228 126.34 228 126 228 Z M208 264 C209 267 209 267 209 267 Z M207 267 C208 269 208 269 208 269 Z M206 270 C207 272 207 272 207 272 Z M205 273 C206 275 206 275 206 275 Z M203 280 C204 282 204 282 204 282 Z M201 287 C202 290 202 290 202 290 Z M200 291 C201 294 201 294 201 294 Z M194 311 C195 313 195 313 195 313 Z M193 314 C194 316 194 316 194 316 Z M112 326 C111.42737014 332.03203116 110.85779033 338.06433969 110.29101562 344.09692383 C110.09784071 346.14843496 109.90383752 348.19986829 109.70898438 350.2512207 C109.42880127 353.20243508 109.15161327 356.1539179 108.875 359.10546875 C108.78750488 360.02023483 108.70000977 360.93500092 108.60986328 361.87748718 C108.23255772 365.93174272 107.8814917 369.92257381 108 374 C108.99 373.505 108.99 373.505 110 373 C110.46406219 370.56139871 110.80180835 368.21221296 111.0625 365.75 C111.14483887 365.02345215 111.22717773 364.2969043 111.31201172 363.54833984 C111.55346576 361.36664723 111.77916535 359.18386603 112 357 C112.11472656 355.90429688 112.22945313 354.80859375 112.34765625 353.6796875 C113.1848314 344.45896962 113.09342079 335.24865834 113 326 C112.67 326 112.34 326 112 326 Z M82.4375 641.5 C81.42558594 641.7784375 80.41367187 642.056875 79.37109375 642.34375 C78.58863281 642.5603125 77.80617188 642.776875 77 643 C76.855625 644.299375 76.71125 645.59875 76.5625 646.9375 C72.25418179 667.91841953 54.57164772 686.34901171 41.34960938 702.35058594 C39.64790337 704.43031202 38.00582902 706.55189057 36.375 708.6875 C32.26137272 714.02409756 27.87263068 719.12965146 23.49560547 724.25 C21.97507549 726.02916404 20.45810901 727.81132285 18.94140625 729.59375 C13.71174959 735.72882735 8.42871372 741.80210014 3.01171875 747.7734375 C0.57550648 750.46982778 -1.81059213 753.2073398 -4.1953125 755.94921875 C-6.22958141 758.26088797 -8.3022231 760.5353143 -10.375 762.8125 C-15.11220452 768.05522376 -19.57227877 773.49413388 -24 779 C-23.67 779.66 -23.34 780.32 -23 781 C-20.977658 778.83472555 -18.95711122 776.66781928 -16.9375 774.5 C-16.09541992 773.59894531 -16.09541992 773.59894531 -15.23632812 772.6796875 C-12.28051231 769.50429679 -9.37185488 766.29910484 -6.52734375 763.0234375 C-2.99281558 758.96062563 0.67484136 755.03669221 4.375 751.125 C11.56516686 743.48202739 18.72360729 735.86195513 25.3125 727.6875 C28.74223855 723.44229913 32.33473444 719.4178179 36.0625 715.4375 C40.19104661 711.01965941 44.11109281 706.52982015 47.83203125 701.7578125 C49.49289621 699.64507256 51.17497555 697.56310346 52.88671875 695.4921875 C63.9078412 682.14556925 74.57735383 668.60347085 83.3125 653.625 C83.77479004 652.83440186 84.23708008 652.04380371 84.71337891 651.22924805 C86.81186108 647.52134015 88.54456575 644.31373577 89 640 C86.80151066 640 84.53377806 640.9217164 82.4375 641.5 Z M134 605 C133.40574219 605.61746094 132.81148438 606.23492188 132.19921875 606.87109375 C121.94866405 617.34483316 110.03319192 628.80187619 96.6875 635.0625 C92.05134742 637.84228759 90.69077827 642.65990305 88.76855469 647.4440918 C82.94027538 661.83245465 73.3070654 673.85792171 63.68115234 685.88964844 C62.13224173 687.83399688 60.60247544 689.79116813 59.08203125 691.7578125 C53.12305188 699.45730688 46.90291105 706.89016001 40.52050781 714.24121094 C38.99143055 716.00991238 37.47439219 717.78823177 35.9609375 719.5703125 C30.24993932 726.28989173 24.42610459 732.87445603 18.4375 739.34765625 C16.48256122 741.47490534 14.57117955 743.62272252 12.6875 745.8125 C8.62858592 750.50039834 4.35512404 754.9887823 0.11401367 759.51098633 C-2.80832417 762.63263641 -5.71197472 765.75678692 -8.5 769 C-11.88666625 772.93959135 -15.44703755 776.71112378 -19 780.5 C-24.6559321 786.53812933 -30.19797254 792.62523108 -35.484375 798.9921875 C-55.32650212 822.74344807 -75.95328434 839.80464582 -104.1875 852.5625 C-105.10165176 852.97965775 -105.10165176 852.97965775 -106.03427124 853.40524292 C-107.78222571 854.19910938 -109.53748631 854.97682828 -111.29296875 855.75390625 C-112.3193042 856.21095947 -113.34563965 856.6680127 -114.40307617 857.13891602 C-117 858 -117 858 -120 857 C-118.03620797 856.06876163 -116.07234155 855.13767988 -114.1081543 854.20727539 C-112.39135196 853.39308267 -110.67538581 852.57712476 -108.96020508 851.75952148 C-104.80791906 849.78396939 -100.65166113 847.83069237 -96.4453125 845.97265625 C-76.62664099 837.14836634 -62.03664253 823.34212737 -47 808 C-47.99 807.67 -48.98 807.34 -50 807 C-47.75600175 802.91324821 -45.07410837 799.75639375 -41.875 796.375 C-36.11596737 790.20447244 -30.79709358 783.74511132 -25.5234375 777.15478516 C-19.09038804 769.12733766 -12.56501603 761.30761817 -5.54296875 753.7890625 C-3.10829029 751.11876999 -0.82389411 748.38010774 1.4375 745.5625 C4.80348706 741.37759659 8.33201537 737.4171199 12 733.5 C16.42614763 728.76805085 20.61200942 723.9165351 24.66796875 718.859375 C26.82693209 716.21220387 29.04332661 713.63327519 31.28930664 711.06054688 C37.75545327 703.63986891 43.71704548 695.9259023 49.53417969 687.98925781 C50.96940118 686.04152551 52.42307385 684.10908985 53.8828125 682.1796875 C58.56117793 675.96152505 62.97948316 669.66649091 67 663 C67.5427356 662.10172485 67.5427356 662.10172485 68.09643555 661.18530273 C72.93610755 653.12410705 72.93610755 653.12410705 74 644 C41.73608537 648.6689895 10.50196386 673.75038976 -13 695 C-13.6398584 695.57814453 -14.2797168 696.15628906 -14.93896484 696.75195312 C-21.33293535 702.56041795 -27.65994439 708.32882691 -33.22265625 714.953125 C-40.66674555 723.52609817 -48.92706476 730.89008796 -58.07910156 737.59277344 C-60.24508044 739.17954291 -62.39993406 740.78083516 -64.5546875 742.3828125 C-66.1820383 743.5888836 -67.80964669 744.79460723 -69.4375 746 C-70.65228027 746.90141724 -70.65228027 746.90141724 -71.89160156 747.82104492 C-75.58176424 750.54415351 -79.27942881 753.21856655 -83.1171875 755.73046875 C-89.65432958 760.0419318 -94.15512367 763.73550966 -97.53515625 771.01953125 C-102.93262857 782.00158826 -111.54856026 791.29047838 -120 800 C-120.90878906 800.94875 -121.81757813 801.8975 -122.75390625 802.875 C-128.81716387 809.08487978 -135.19746302 814.6220781 -142 820 C-143.12103811 820.90992485 -144.24076972 821.82146104 -145.359375 822.734375 C-153.09624577 829.0249341 -161.01572174 835.02152679 -169.06323242 840.90869141 C-186.24100542 851.76718518 -186.24100542 851.76718518 -198 867 C-198.25329784 870.14710302 -198.25329784 870.14710302 -197 873 C-191.30495446 878.13943134 -184.88172253 878.18195588 -177.59375 877.8359375 C-119.59306999 873.85334511 -75.42066691 848.2420878 -34.9375 808.0625 C-34.43790771 807.56766113 -33.93831543 807.07282227 -33.42358398 806.56298828 C-30.72115268 803.84834516 -28.15981913 801.05520104 -25.66015625 798.15234375 C-21.14938847 792.9470403 -16.22753683 788.17874368 -11.31640625 783.35546875 C-7.2836494 779.36646695 -3.4417617 775.29537062 0.2578125 770.99609375 C3.32083777 767.48666345 6.54376618 764.12812889 9.75 760.75 C18.06263924 751.95284934 26.34098807 743.13153759 34.265625 733.98046875 C36.27264538 731.68866845 38.32402851 729.44003248 40.375 727.1875 C43.50422827 723.72469918 46.50500349 720.19320997 49.4375 716.5625 C52.51336588 712.75912497 55.68753166 709.09917348 59 705.5 C63.03510021 701.11105254 66.83830304 696.59137234 70.58203125 691.953125 C73.35501544 688.56641087 76.20243136 685.2506135 79.0625 681.9375 C83.09906349 677.25146138 87.05727015 672.52302355 90.890625 667.66796875 C92.49409655 665.63987418 94.10851631 663.62330202 95.734375 661.61328125 C107.88402952 646.57361185 119.31701228 631.1203499 130 615 C130.50289551 614.25105469 131.00579102 613.50210938 131.52392578 612.73046875 C131.99169434 612.01503906 132.45946289 611.29960938 132.94140625 610.5625 C133.57284546 609.60537109 133.57284546 609.60537109 134.21704102 608.62890625 C134.60460571 607.82259766 134.60460571 607.82259766 135 607 C134.67 606.34 134.34 605.68 134 605 Z M-28 784 C-28.66 785.32 -29.32 786.64 -30 788 C-29.01 787.34 -28.02 786.68 -27 786 C-27.33 785.34 -27.66 784.68 -28 784 Z M-35 792 C-34 794 -34 794 -34 794 Z " fill="#F1C643" transform="translate(270,1)"/>
<path d="M0 0 C0.66 0 1.32 0 2 0 C2.33 2.31 2.66 4.62 3 7 C3.99 7 4.98 7 6 7 C11.59407944 53.15115537 11.59407944 53.15115537 3.23779297 69.56542969 C1.68770864 72.6142346 0.22621128 75.7019578 -1.24609375 78.7890625 C-11.09328403 99.23702738 -21.83880128 119.47138505 -35 138 C-35.45133301 138.64001953 -35.90266602 139.28003906 -36.36767578 139.93945312 C-44.06461404 150.83205072 -52.10219185 161.43188346 -60.35400391 171.90869141 C-61.91130278 173.88730638 -63.46264417 175.87041168 -65.01171875 177.85546875 C-69.88074448 184.08805577 -74.80654208 190.26650956 -79.8359375 196.37109375 C-81.26513224 198.10728158 -82.68717276 199.8493864 -84.1015625 201.59765625 C-89.00960008 207.65685173 -94.06828157 213.56609095 -99.19335938 219.44116211 C-102.44692116 223.1796114 -105.6323123 226.95899439 -108.75 230.8125 C-111.57487839 234.30235888 -114.47717579 237.68010514 -117.5 241 C-121.36533345 245.24651686 -125.01398246 249.6301311 -128.625 254.09375 C-131.16664258 257.2039179 -133.76567562 260.2592504 -136.375 263.3125 C-140.20939011 267.80448199 -143.88999529 272.38879871 -147.5 277.0625 C-151.90214624 282.74657263 -156.58767391 288.07068041 -161.5 293.31640625 C-163.63629423 295.60958458 -165.70702766 297.93663261 -167.75 300.3125 C-173.35663294 306.75813026 -179.51269621 312.45650127 -186 318 C-186.93585938 318.81339844 -187.87171875 319.62679688 -188.8359375 320.46484375 C-205.83887825 335.15444099 -222.4445342 348.35214977 -244.89453125 353.03515625 C-277.14971157 359.87029616 -305.36296231 382.84820179 -330 404 C-330.82371094 404.70125 -331.64742187 405.4025 -332.49609375 406.125 C-339.69278915 412.41228459 -346.3533646 419.30527574 -352.3984375 426.71386719 C-356.02644908 431.13004973 -359.92336965 434.59044313 -364.5 438 C-365.22993164 438.55051025 -365.95986328 439.10102051 -366.71191406 439.66821289 C-376.24252031 446.77830025 -386.12094895 453.3880503 -396 460 C-396.89299805 460.59989746 -397.78599609 461.19979492 -398.70605469 461.81787109 C-403.93990473 465.33367385 -409.18772965 468.82743957 -414.44726562 472.3046875 C-416.95778896 473.97196696 -419.45596913 475.65653604 -421.953125 477.34375 C-446.37251804 493.71383244 -480.71394019 514.58111966 -511.3125 514.0625 C-513.1378125 514.0315625 -513.1378125 514.0315625 -515 514 C-515 513.01 -515 512.02 -515 511 C-514.38817871 510.89042969 -513.77635742 510.78085937 -513.14599609 510.66796875 C-488.35265662 506.12567755 -466.32002931 497.68738158 -444 486 C-443.03642578 485.49629883 -442.07285156 484.99259766 -441.08007812 484.47363281 C-440.17193359 483.96928711 -439.26378906 483.46494141 -438.328125 482.9453125 C-437.11237793 482.27653076 -437.11237793 482.27653076 -435.87207031 481.59423828 C-433.45950054 479.53971551 -433.48027847 478.06002521 -433 475 C-431.05838333 473.27141338 -429.27729666 471.91374898 -427.125 470.5 C-426.51148682 470.07912109 -425.89797363 469.65824219 -425.26586914 469.22460938 C-423.18654304 467.80219696 -421.09374189 466.40109286 -419 465 C-415.80833089 462.83944408 -412.62227622 460.67070071 -409.4375 458.5 C-408.624021 457.94650879 -407.81054199 457.39301758 -406.97241211 456.82275391 C-400.1034718 452.12546347 -393.52924011 447.15768904 -387 442 C-385.85147994 441.118201 -384.70170198 440.23803836 -383.55078125 439.359375 C-372.99812952 431.26522636 -362.97124265 422.85182942 -354.5625 412.5 C-345.47131723 401.36301168 -333.83507226 392.96338914 -322.41796875 384.35546875 C-319.43316498 382.10147522 -316.48110974 379.81264477 -313.55078125 377.48828125 C-304.03690232 369.94790478 -294.36719827 362.83821135 -284.10253906 356.34765625 C-282.16114677 355.10328962 -280.26510949 353.80920018 -278.3671875 352.5 C-268.61270112 346.09745675 -258.03821773 343.73682918 -246.73339844 341.46948242 C-236.84634466 339.45262111 -228.78296659 336.42053617 -220.6875 330.3125 C-219.7696875 329.62285156 -218.851875 328.93320312 -217.90625 328.22265625 C-216.9471875 327.48917969 -215.988125 326.75570313 -215 326 C-213.9790625 325.23558594 -212.958125 324.47117187 -211.90625 323.68359375 C-208.5657989 321.17032633 -205.27171053 318.60201729 -202 316 C-201.21447754 315.37544922 -201.21447754 315.37544922 -200.41308594 314.73828125 C-192.02011695 307.98233098 -184.32209212 300.52805779 -176.6875 292.9375 C-175.768479 292.02774414 -174.84945801 291.11798828 -173.90258789 290.18066406 C-167.84231887 284.09248267 -162.35530408 277.71054012 -157 271 C-155.18367544 268.81823127 -153.34196841 266.66033333 -151.5 264.5 C-145.87133162 257.87629519 -140.36061422 251.16016556 -134.8984375 244.3984375 C-129.98670826 238.34361491 -124.93106121 232.43315566 -119.80664062 226.55883789 C-116.55307884 222.8203886 -113.3676877 219.04100561 -110.25 215.1875 C-107.40695745 211.67397758 -104.48217847 208.27782868 -101.4375 204.9375 C-97.88435049 201.0296471 -94.54216469 197.01446587 -91.2734375 192.8671875 C-89.04746998 190.05986764 -86.78755638 187.28367892 -84.51879883 184.51098633 C-72.46468198 169.76425226 -60.85307242 154.70122519 -49.6640625 139.28759766 C-48.58537308 137.80471621 -47.50230003 136.32500975 -46.4140625 134.84912109 C-38.60142806 124.25298777 -31.8650109 113.26929112 -25.51318359 101.74121094 C-23.98791468 98.97810682 -22.44254842 96.22697494 -20.89453125 93.4765625 C-14.27024022 81.62278782 -8.08530089 69.60390581 -3 57 C-2.70270996 56.27022949 -2.40541992 55.54045898 -2.09912109 54.78857422 C0.05195096 49.02663843 0.39857743 43.86418627 0.25 37.75 C0.23356445 36.36748047 0.23356445 36.36748047 0.21679688 34.95703125 C0.11995014 28.95253385 -0.22546339 22.99637097 -0.7734375 17.015625 C-1.17315975 11.69518405 -1.2849037 6.32937507 -1 1 C-0.67 0.67 -0.34 0.34 0 0 Z M3 20 C4 22 4 22 4 22 Z M4 34 C3.98582031 34.92039062 3.97164062 35.84078125 3.95703125 36.7890625 C2.20296134 83.34302608 -38.71466081 132.23020871 -66.67333984 167.32617188 C-68.03834019 169.04837327 -69.38995016 170.78034824 -70.73828125 172.515625 C-76.13479671 179.45332038 -81.67583748 186.23367426 -87.3828125 192.91796875 C-89.79496524 195.74683013 -92.15419998 198.61575122 -94.5 201.5 C-100.54122349 208.91471657 -106.71746411 216.21704192 -112.98046875 223.4453125 C-117.93947695 229.17590059 -122.79812869 234.9439247 -127.4375 240.9375 C-131.87038185 246.66431284 -136.53033813 252.15261222 -141.30004883 257.60083008 C-145.21815442 262.07974995 -149.01465646 266.64145641 -152.765625 271.26171875 C-172.62952723 295.60541711 -172.62952723 295.60541711 -182.859375 304.171875 C-185.0222097 306.01896741 -187.09646188 307.9460262 -189.16967773 309.89257812 C-195.77818662 316.07483447 -202.7228303 321.62930259 -210 327 C-210.87906006 327.65645508 -210.87906006 327.65645508 -211.77587891 328.32617188 C-213.57265712 329.66489065 -215.37826746 330.99067381 -217.1875 332.3125 C-217.72101074 332.70896729 -218.25452148 333.10543457 -218.80419922 333.51391602 C-227.96554705 340.10980926 -237.14830964 342.99228214 -248.125 345.3125 C-259.36299409 347.83662263 -269.26609155 350.80131874 -279 357 C-279.62519531 357.39670898 -280.25039063 357.79341797 -280.89453125 358.20214844 C-285.71076473 361.31243148 -290.3630488 364.63036234 -295 368 C-296.13574463 368.81694336 -296.13574463 368.81694336 -297.29443359 369.65039062 C-307.8995388 377.28624091 -318.19502437 385.22801747 -328.25878906 393.56298828 C-330.7815772 395.64503132 -333.3309177 397.69406795 -335.875 399.75 C-346.76659475 408.55283101 -346.76659475 408.55283101 -356 419 C-356 419.66 -356 420.32 -356 421 C-356.66 421 -357.32 421 -358 421 C-358.9590625 422.2065625 -358.9590625 422.2065625 -359.9375 423.4375 C-363.12898283 427.42218762 -367.00900586 430.40917647 -370.984375 433.58203125 C-373.97593297 435.98070273 -376.89333134 438.45152348 -379.8125 440.9375 C-384.86646388 445.17566656 -390.1105644 449.03965153 -395.54418945 452.77709961 C-398.78630362 454.90933567 -398.78630362 454.90933567 -401 458 C-396.29364879 456.41013856 -392.58606367 453.83161271 -388.5625 451 C-387.86020264 450.50943115 -387.15790527 450.0188623 -386.43432617 449.51342773 C-384.9866069 448.50052947 -383.54040002 447.48546617 -382.09570312 446.46826172 C-380.17273906 445.12102198 -378.23782464 443.79378476 -376.296875 442.47265625 C-363.35598528 433.57961075 -352.281724 423.0321793 -342.28125 410.91796875 C-337.45482076 405.14674322 -331.92424495 400.60255073 -326 396 C-325.28569824 395.43780762 -324.57139648 394.87561523 -323.83544922 394.29638672 C-275.68287219 356.45867686 -275.68287219 356.45867686 -246.8046875 349.796875 C-245.87938232 349.58192383 -244.95407715 349.36697266 -244.00073242 349.14550781 C-242.1729855 348.72612372 -240.34247796 348.31853323 -238.5090332 347.92480469 C-228.78312336 345.74373756 -221.73177848 341.37797094 -213.8125 335.4375 C-212.98387451 334.82124756 -212.15524902 334.20499512 -211.30151367 333.57006836 C-204.29117868 328.31180779 -197.58286832 322.78283677 -191 317 C-190.12275269 316.25194092 -190.12275269 316.25194092 -189.2277832 315.48876953 C-183.41507876 310.49808588 -177.98011791 305.16371191 -172.5625 299.75 C-171.67240234 298.87214844 -170.78230469 297.99429687 -169.86523438 297.08984375 C-163.80458812 291.04247868 -158.31714395 284.70525641 -153 278 C-147.7668976 271.55328798 -142.46989067 265.16799168 -137.09082031 258.84301758 C-134.14065907 255.36795885 -131.24350085 251.85564826 -128.375 248.3125 C-124.80067479 243.91773359 -121.06142322 239.71296517 -117.24609375 235.52734375 C-114.93812402 232.93037607 -112.74444137 230.26595987 -110.5625 227.5625 C-107.46851286 223.73544273 -104.2716945 220.05719127 -100.9375 216.4375 C-97.13504633 212.3016004 -93.57711516 208.05461971 -90.109375 203.63671875 C-88.18133007 201.22666259 -86.19762416 198.87519327 -84.18554688 196.53515625 C-78.86147478 190.34014775 -73.84161221 183.95991641 -68.9140625 177.44580078 C-65.29372566 172.66622694 -61.58790547 167.97021456 -57.8125 163.3125 C-52.66631967 156.9376817 -47.84189536 150.38290604 -43.16162109 143.66015625 C-42.05392009 142.07706108 -40.9277918 140.50690723 -39.80078125 138.9375 C-9.46702927 97.07792024 -9.46702927 97.07792024 5.09765625 49.234375 C5.09282227 47.90019531 5.09282227 47.90019531 5.08789062 46.5390625 C5.07951172 45.61867188 5.07113281 44.69828125 5.0625 43.75 C5.05573242 42.34621094 5.05573242 42.34621094 5.04882812 40.9140625 C5.03706918 38.60930959 5.02063426 36.30468773 5 34 C4.67 34 4.34 34 4 34 Z M-403 458 C-403.33 458.66 -403.66 459.32 -404 460 C-403.01 459.67 -402.02 459.34 -401 459 C-401.66 458.67 -402.32 458.34 -403 458 Z M-406 460 C-406.33 460.66 -406.66 461.32 -407 462 C-406.01 461.67 -405.02 461.34 -404 461 C-404.66 460.67 -405.32 460.34 -406 460 Z M-411.625 464.5 C-412.40875 465.325 -413.1925 466.15 -414 467 C-410.34683329 465.75023244 -409.21934164 465.32901247 -407 462 C-409.36278736 461.77011494 -409.36278736 461.77011494 -411.625 464.5 Z " fill="#F1C643" transform="translate(584,284)"/>
<path d="M0 0 C0.99 0.33 1.98 0.66 3 1 C1.26979139 6.94071628 -1.48137996 12.33484744 -4.1875 17.875 C-7.20437524 24.08609845 -10.17860797 30.28318278 -12.81420898 36.66650391 C-17.88020094 48.90359739 -25.65545387 58.72777262 -33.99731445 68.85864258 C-38.76999023 74.66265202 -43.28400096 80.63040116 -47.765625 86.66015625 C-58.67199078 101.33311824 -69.83450475 115.81744464 -81.26953125 130.08203125 C-81.81834961 130.76668457 -82.36716797 131.45133789 -82.93261719 132.15673828 C-83.99298784 133.4779131 -85.05476328 134.79796209 -86.11816406 136.11669922 C-88.18840135 138.69158302 -90.16598175 141.24897262 -92 144 C-93.32 144 -94.64 144 -96 144 C-94.54194238 139.46661395 -91.97755181 136.32264811 -88.875 132.8125 C-87.86884152 131.64795566 -86.86363861 130.48258506 -85.859375 129.31640625 C-85.36759766 128.74809082 -84.87582031 128.17977539 -84.36914062 127.59423828 C-76.48934242 118.4189383 -69.32321843 108.61911592 -62 99 C-60.53525885 97.0780468 -59.07041087 95.15617502 -57.60546875 93.234375 C-53.7357044 88.15722039 -49.86737827 83.07897231 -46 78 C-49.63261228 81.54114363 -52.99452773 85.23248568 -56.25 89.125 C-56.72888672 89.69412109 -57.20777344 90.26324219 -57.70117188 90.84960938 C-61.40079346 95.25672832 -65.04239216 99.71004711 -68.67578125 104.171875 C-75.00539019 111.87378571 -81.49796242 119.44357795 -88 127 C-88.66 126.67 -89.32 126.34 -90 126 C-89.41037887 122.83321264 -88.48432665 121.06716228 -86.33984375 118.6796875 C-85.79763184 118.06722168 -85.25541992 117.45475586 -84.69677734 116.82373047 C-84.11621582 116.18064941 -83.5356543 115.53756836 -82.9375 114.875 C-81.73944605 113.5221066 -80.54282809 112.16794018 -79.34765625 110.8125 C-78.76773926 110.15636719 -78.18782227 109.50023437 -77.59033203 108.82421875 C-74.97155958 105.82030905 -72.51887669 102.6929721 -70.0546875 99.5625 C-65.81883263 94.27976085 -61.39303881 89.15213008 -57 84 C-60.61345275 86.71797231 -63.3991616 89.5103766 -66.1875 93.0625 C-70.89373566 98.94133309 -75.88405477 104.4781969 -81 110 C-81.99 109.01 -82.98 108.02 -84 107 C-82.96552734 105.89205078 -82.96552734 105.89205078 -81.91015625 104.76171875 C-77.29137964 99.78561558 -72.75772135 94.79317445 -68.5 89.5 C-65.30064791 85.5236624 -61.97378016 81.73369839 -58.5 78 C-53.41909616 72.52920951 -48.60797228 66.87827815 -44 61 C-43.54173828 60.42636719 -43.08347656 59.85273438 -42.61132812 59.26171875 C-38.49868778 53.98089652 -35.27750953 48.39382217 -32.125 42.5 C-31.62742187 41.5821875 -31.12984375 40.664375 -30.6171875 39.71875 C-29.40571482 37.48218506 -28.20014274 35.24265862 -27 33 C-25.515 33.99 -25.515 33.99 -24 35 C-27.63 41.93 -31.26 48.86 -35 56 C-29.91601071 49.29090996 -29.91601071 49.29090996 -25.82421875 42.2578125 C-25.30666016 41.25492187 -24.78910156 40.25203125 -24.25585938 39.21875 C-23.73830078 38.1978125 -23.22074219 37.176875 -22.6875 36.125 C-22.15060547 35.08085937 -21.61371094 34.03671875 -21.06054688 32.9609375 C-19.35899064 29.64794529 -17.66560976 26.33121952 -16 23 C-14.02 23.495 -14.02 23.495 -12 24 C-11.67201416 23.30849854 -11.34402832 22.61699707 -11.00610352 21.90454102 C-9.52709809 18.78947924 -8.04484435 15.6759742 -6.5625 12.5625 C-5.7880957 10.92958008 -5.7880957 10.92958008 -4.99804688 9.26367188 C-4.50498047 8.22919922 -4.01191406 7.19472656 -3.50390625 6.12890625 C-3.04830322 5.17056885 -2.5927002 4.21223145 -2.12329102 3.22485352 C-1 1 -1 1 0 0 Z M-14 27 C-13 29 -13 29 -13 29 Z M-15 29 C-14 31 -14 31 -14 31 Z M-16 31 C-16.28721924 31.55461914 -16.57443848 32.10923828 -16.87036133 32.68066406 C-18.18068143 35.20572984 -19.49652909 37.72787494 -20.8125 40.25 C-21.49022461 41.55904297 -21.49022461 41.55904297 -22.18164062 42.89453125 C-22.62314453 43.73886719 -23.06464844 44.58320313 -23.51953125 45.453125 C-23.92276611 46.22817383 -24.32600098 47.00322266 -24.74145508 47.80175781 C-26.00923895 50.01613724 -27.42724905 51.99359345 -29 54 C-28.67 54.66 -28.34 55.32 -28 56 C-22.71392115 49.21860357 -17.57002408 42.31395768 -15 34 C-15.33 33.01 -15.66 32.02 -16 31 Z M-30 56 C-30.66 57.32 -31.32 58.64 -32 60 C-31.01 59.34 -30.02 58.68 -29 58 C-29.33 57.34 -29.66 56.68 -30 56 Z M-39 60 C-38 62 -38 62 -38 62 Z M-34 61 C-34 64 -34 64 -34 64 Z M-39 67 C-39 70 -39 70 -39 70 Z M-48 71 C-48 74 -48 74 -48 74 Z M-43 72 C-43.66 73.32 -44.32 74.64 -45 76 C-44.01 75.34 -43.02 74.68 -42 74 C-42.33 73.34 -42.66 72.68 -43 72 Z M-53 77 C-53.66 78.32 -54.32 79.64 -55 81 C-54.01 80.34 -53.02 79.68 -52 79 C-52.33 78.34 -52.66 77.68 -53 77 Z " fill="#F1C743" transform="translate(562,316)"/>
<path d="M0 0 C0.99 0.33 1.98 0.66 3 1 C-8.16330179 39.37384992 -36.85868538 73.90284393 -61 105 C-61.47147461 105.6079541 -61.94294922 106.2159082 -62.42871094 106.84228516 C-68.25858736 114.34582021 -74.21476819 121.73952829 -80.22558594 129.09863281 C-83.63609166 133.28600984 -86.97552397 137.5180524 -90.25 141.8125 C-98.59792906 152.74143128 -107.51261088 163.19069943 -116.41601562 173.66601562 C-121.1351961 179.22068034 -125.84075049 184.78059925 -130.4375 190.4375 C-137.40309769 198.98279573 -144.5275106 207.38821767 -152.0625 215.4375 C-156.63305715 220.37784332 -160.53600218 225.68201 -164.33422852 231.22631836 C-165.48633549 232.86880167 -166.73620994 234.44181625 -168 236 C-168.99 236 -169.98 236 -171 236 C-170.48547417 231.52201739 -168.89537315 229.21556879 -166 225.8125 C-165.1853125 224.84957031 -164.370625 223.88664063 -163.53125 222.89453125 C-160.47338011 219.39780041 -157.36530886 215.95049471 -154.23828125 212.515625 C-151.19241413 209.09234677 -148.32473523 205.53684698 -145.44140625 201.9765625 C-142.71469716 198.65215877 -139.9292704 195.38395641 -137.125 192.125 C-132.29130138 186.50739623 -127.48742347 180.86614336 -122.70703125 175.203125 C-120.91809137 173.08394901 -119.12369807 170.96960777 -117.32421875 168.859375 C-107.40189964 157.21073077 -97.73958061 145.36538622 -88.453125 133.203125 C-85.87080606 129.82240794 -83.25318881 126.47013708 -80.625 123.125 C-80.16689941 122.54169922 -79.70879883 121.95839844 -79.23681641 121.35742188 C-76.89679641 118.3852947 -74.54243388 115.42591599 -72.1640625 112.484375 C-44.04189915 77.68794821 -18.44071111 40.89498876 0 0 Z " fill="#F1C743" transform="translate(424,367)"/>
<path d="M0 0 C9.70120854 1.37605795 17.90444202 9.78012573 24 17 C41.92781052 41.44103342 45.83481242 75.57936362 42 105 C39.77163482 118.49050777 35.43289758 131.37498657 30.67675781 144.15673828 C30.08793518 145.76049401 29.54025406 147.37923781 29 149 C32.9195304 141.134809 35.91481456 133.60649871 38.140625 125.09375 C38.91974321 122.28892446 39.86175318 119.67587849 41 117 C41.99 117.495 41.99 117.495 43 118 C42.67602324 130.51728409 38.03887132 146.96112868 29 156 C27.7625 156.2165625 27.7625 156.2165625 26.5 156.4375 C23.65063471 156.7765556 23.65063471 156.7765556 22 160 C20.68 159.67 19.36 159.34 18 159 C18.65681763 157.98885132 18.65681763 157.98885132 19.3269043 156.95727539 C24.18058535 149.12054148 27.3145088 141.34129993 30.11791992 132.59985352 C30.81446832 130.43137228 31.53342355 128.27130619 32.25585938 126.11132812 C36.44850178 113.42559243 38.37159746 101.95963836 38.3125 88.5625 C38.30758545 87.2429834 38.3026709 85.9234668 38.29760742 84.56396484 C38.07264406 60.31877359 33.7177172 33.23269917 16.19140625 15.11328125 C10.83317807 9.94607725 5.42962976 5.77427617 -1 2 C-0.67 1.34 -0.34 0.68 0 0 Z " fill="#F1C644" transform="translate(283,34)"/>
</svg>
