<?xml version="1.0" encoding="UTF-8"?>
<svg version="1.1" xmlns="http://www.w3.org/2000/svg" width="863" height="656">
<path d="M0 0 C1.3125 1.9375 1.3125 1.9375 2 5 C-0.83242357 13.46394809 -8.16439558 21.08494064 -15.125 26.375 C-19.60473423 30.46519212 -22.14238873 35.69904654 -25 41 C-24.41734375 41.06469482 -23.8346875 41.12938965 -23.234375 41.19604492 C-6.61856481 43.098307 7.64757382 46.217328 22.7578125 53.55078125 C26.10681243 55.04774387 29.42837651 56.1240129 32.9375 57.1875 C48.93566556 62.32086777 67.58670989 70.71473044 79.1796875 83.17578125 C82.09301136 86.09535688 85.38706068 88.51742243 88.66796875 91.0078125 C91 93 91 93 92.86328125 95.4296875 C98.19399112 101.84213192 104.27866706 104.02282303 112.1875 106.0625 C123.06544594 108.87861798 123.06544594 108.87861798 126 113 C126.375 115.625 126.375 115.625 126 118 C123.8614515 120.1385485 122.86724686 120.42655063 120 121 C124.79730928 127.04509427 129.72648294 132.87015286 135 138.5 C139.44743243 143.25497137 143.66136747 148.12700364 147.734375 153.2109375 C149.75273014 155.69560228 151.82919861 158.11701921 153.93188477 160.53027344 C176.95492636 187.12382033 196.41356043 223.9821139 198.5703125 259.63671875 C198.61566132 260.35737015 198.66101013 261.07802155 198.70773315 261.82051086 C198.80188738 263.33571619 198.89423158 264.85103497 198.98486328 266.36645508 C199.12519516 268.69073244 199.27520489 271.01425713 199.42578125 273.33789062 C199.51621298 274.81246406 199.60607668 276.28707246 199.6953125 277.76171875 C199.74108429 278.45754562 199.78685608 279.1533725 199.83401489 279.87028503 C200.11455691 284.77088617 200.11455691 284.77088617 199 287 C198.86082449 288.6486945 198.72558852 290.29780465 198.60888672 291.94824219 C196.88123942 313.8908395 189.95421739 335.7677706 182.05615234 356.17773438 C180.87537439 359.33302637 179.78474154 362.5111834 178.70703125 365.703125 C178.31829834 366.85377441 177.92956543 368.00442383 177.52905273 369.18994141 C176.78702733 371.39859327 176.05040783 373.60907266 175.32055664 375.82177734 C171.35834032 387.52274073 166.59784159 397.08557122 158 406 C156.76245115 407.38840708 155.5329221 408.78401459 154.3125 410.1875 C153.74015625 410.83976562 153.1678125 411.49203125 152.578125 412.1640625 C151.20183797 413.7651885 149.87733018 415.41053388 148.5625 417.0625 C146.53319121 419.38878081 144.62625587 421.2527365 142.296875 423.23828125 C139.57933602 425.58990883 136.94543778 427.98440076 134.38671875 430.5078125 C122.3351039 442.34366954 108.93987772 451.39600955 94.625 460.27734375 C92.12809658 461.91593662 89.76009122 463.67747508 87.38134766 465.48144531 C52.0030923 491.97689282 3.9437864 504.12494578 -38.9375 511.375 C-39.70347504 511.50859924 -40.46945007 511.64219849 -41.25863647 511.77984619 C-55.5929636 514.25481854 -69.47998964 514.77912984 -83.9375 513.0625 C-91.63280696 512.15505826 -99.25407386 511.7712209 -107 511.5625 C-120.77579736 511.15586678 -134.33944785 509.77754912 -148 508 C-149.40161377 507.82597656 -149.40161377 507.82597656 -150.83154297 507.6484375 C-162.02882365 506.23672244 -172.40768402 504.39487732 -182 498 C-182.72703125 499.68802734 -182.72703125 499.68802734 -183.46875 501.41015625 C-192.14829701 521.37574057 -202.36308088 539.27219701 -216.01953125 556.265625 C-218.18107074 558.9557347 -220.29428775 561.67766445 -222.38671875 564.421875 C-234.59011617 580.40356052 -247.78108768 594.09335222 -263.015625 607.1875 C-266.21945244 610.11383058 -269.16262748 613.29676159 -272.1171875 616.47265625 C-279.42870611 622.88261904 -288.21941302 626.63206439 -297.125 630.3125 C-298.24720947 630.78179932 -299.36941895 631.25109863 -300.52563477 631.73461914 C-311.02157775 636.08544809 -321.62864296 640.12747851 -332.30371094 644.01586914 C-334.12216086 644.67959348 -335.93788331 645.35083228 -337.75097656 646.02905273 C-344.05595375 648.37139525 -350.39884024 650.37549309 -356.875 652.1875 C-358.24011719 652.57711914 -358.24011719 652.57711914 -359.6328125 652.97460938 C-366.48269933 654.91240631 -372.64443895 656.15677517 -379.80078125 656.16796875 C-380.55481735 656.17129715 -381.30885345 656.17462555 -382.08573914 656.17805481 C-383.68353673 656.18310719 -385.28134482 656.18546366 -386.87915039 656.18530273 C-389.26662877 656.18745858 -391.65362079 656.20554587 -394.04101562 656.22460938 C-411.7075987 656.29771802 -427.37739196 653.37936994 -444.25 648.3125 C-447.97440494 647.21263065 -451.70157932 646.12240051 -455.4296875 645.03515625 C-456.34203156 644.76831024 -457.25437561 644.50146423 -458.19436646 644.22653198 C-465.87237024 641.99780881 -473.59349577 640.08136286 -481.375 638.25 C-497.30152678 634.43676956 -514.97136584 629.23633024 -527.625 618.3125 C-531.74290058 614.91827402 -535.99411332 611.88118098 -540.4375 608.9375 C-541.08178955 608.51065918 -541.7260791 608.08381836 -542.38989258 607.64404297 C-546.15518315 605.16877038 -549.96872305 602.78949949 -553.8125 600.4375 C-561.86766406 595.34625387 -568.44472156 588.62942147 -575.09765625 581.87109375 C-576.86116093 580.13655835 -578.67407089 578.53352719 -580.5625 576.9375 C-590.48819184 568.3456956 -599.47851349 559.14023664 -607.0859375 548.44140625 C-609.24437207 545.68830093 -611.38374034 544.08649563 -614.31640625 542.2578125 C-617.92798596 539.55960214 -620.38369207 535.62398105 -623 532 C-625.95512082 527.91120112 -628.81281477 524.08577912 -632.5 520.625 C-642.18586108 511.00300174 -644.69887202 498.81247786 -648 486 C-648.42780762 484.37650635 -648.42780762 484.37650635 -648.86425781 482.72021484 C-653.0280936 466.89536354 -656.63946594 451.02817762 -659.47998047 434.91162109 C-659.95090486 432.27488667 -660.45743083 429.64787353 -660.97265625 427.01953125 C-662.90014222 416.58507735 -663.26030679 406.27165508 -663.25 395.6875 C-663.24940582 395.00902008 -663.24881165 394.33054016 -663.24819946 393.63150024 C-663.22586139 386.97040795 -662.96775043 380.59334785 -662 374 C-661.84269929 371.81159699 -661.71167432 369.62116454 -661.60546875 367.4296875 C-661.53650391 366.2025 -661.46753906 364.9753125 -661.39648438 363.7109375 C-661.25846808 361.17762914 -661.13066285 358.64374137 -661.01367188 356.109375 C-660.5689609 348.56896593 -659.38669414 341.9757303 -656.88208008 334.83959961 C-655.80193261 331.3623798 -655.5207704 328.13363919 -655.46875 324.51171875 C-654.91140929 321.52530143 -653.5630818 319.24679638 -652.16357422 316.5769043 C-649.86539877 311.48726059 -648.50404942 306.04243461 -646.93994141 300.69113159 C-643.20875033 288.03284809 -639.12016137 276.19577702 -632 265 C-631.61376465 264.37464355 -631.2275293 263.74928711 -630.82958984 263.10498047 C-623.23517174 250.87246502 -614.24987849 239.53527628 -604.63671875 228.828125 C-603.43124932 227.48168181 -602.24971465 226.11371588 -601.08203125 224.734375 C-597.38864798 220.41947462 -593.75320908 216.85972689 -589.12109375 213.58203125 C-586.66777434 211.75220738 -584.44570355 209.75306059 -582.1875 207.6875 C-573.29447834 199.58288578 -564.15390828 192.45683797 -553.875 186.1875 C-552.75407959 185.50026855 -551.63315918 184.81303711 -550.47827148 184.10498047 C-540.91517492 178.31386685 -530.99315564 173.4371142 -520.8515625 168.74609375 C-515.44251915 166.24138309 -510.18356194 163.5147061 -504.9375 160.6875 C-482.27557976 148.58587234 -460.71788565 142.62910774 -434.89892578 142.51953125 C-432.13582768 142.50007624 -429.37568828 142.43781544 -426.61328125 142.375 C-414.97371403 142.23315586 -406.41933474 143.6889081 -396 149 C-394.86224121 149.55864746 -393.72448242 150.11729492 -392.55224609 150.69287109 C-389.20695161 152.3807045 -385.91408824 154.14291344 -382.625 155.9375 C-381.52800781 156.51951172 -380.43101562 157.10152344 -379.30078125 157.70117188 C-370.1517032 162.64824821 -362.30602454 168.10157764 -355.4375 175.9375 C-354.59058594 176.89527344 -353.74367188 177.85304687 -352.87109375 178.83984375 C-352.25363281 179.55269531 -351.63617188 180.26554688 -351 181 C-351.15726562 180.23429688 -351.31453125 179.46859375 -351.4765625 178.6796875 C-354.37243468 158.3221383 -351.80936697 141.52811261 -339.65844727 124.95410156 C-335.40437086 119.35680428 -330.9067827 114.03838223 -326 109 C-325.32710938 108.2884375 -324.65421875 107.576875 -323.9609375 106.84375 C-320.50108751 103.25575742 -320.50108751 103.25575742 -319 102 C-318.34 102 -317.68 102 -317 102 C-316.731875 101.443125 -316.46375 100.88625 -316.1875 100.3125 C-315 98 -315 98 -313.4375 95.9375 C-311.5828742 92.1476125 -311.54537132 88.80053018 -311.40625 84.62109375 C-310.93619812 81.58835516 -310.11246484 80.19879153 -308 78 C-305.5 77.5 -305.5 77.5 -303 78 C-299.81075648 81.21218771 -299.56775041 83.81865129 -299.5625 88.25 C-299.80304497 97.59987823 -303.50968984 103.49476958 -310 110 C-311.30338488 111.11491171 -312.6163087 112.21874782 -313.9375 113.3125 C-321.00000345 119.34113887 -325.48476087 127.63766852 -330.32421875 135.45703125 C-332 138 -332 138 -334.16015625 140.65234375 C-338.28707804 145.918331 -337.43508601 153.87024919 -336.76171875 160.26171875 C-335.67170733 166.5705727 -332.74490412 170.91098809 -329 176 C-327.70552856 177.85220963 -326.41383713 179.7063654 -325.125 181.5625 C-324.08435154 183.04238319 -323.04306085 184.52181613 -322 186 C-321.87471924 185.41621582 -321.74943848 184.83243164 -321.62036133 184.23095703 C-320.60412823 179.56227616 -319.54253027 174.90663801 -318.40625 170.265625 C-318.19033203 169.38165039 -317.97441406 168.49767578 -317.75195312 167.58691406 C-316.4229207 163.01469733 -314.38974074 159.09243102 -312 155 C-310.84938812 152.8436882 -309.71957388 150.67709738 -308.59033203 148.50952148 C-307.29880504 146.03627444 -305.98982331 143.57280616 -304.6796875 141.109375 C-302.87941924 137.70756091 -301.14137161 134.28301179 -299.4453125 130.828125 C-293.10275283 118.03828196 -286.86985791 111.00632245 -274.48046875 103.640625 C-271.9783285 101.98566609 -270.04108789 100.18857909 -268 98 C-268.33 97.484375 -268.66 96.96875 -269 96.4375 C-270.3578232 93.12780596 -270.32214498 90.54359483 -270 87 C-268.8125 85 -268.8125 85 -267 84 C-264.59375 84.15234375 -264.59375 84.15234375 -262 85 C-260.19921875 87.06640625 -260.19921875 87.06640625 -258.6875 89.5625 C-258.17574219 90.38878906 -257.66398437 91.21507813 -257.13671875 92.06640625 C-256.57404297 93.02353516 -256.57404297 93.02353516 -256 94 C-255.38560059 93.4438501 -255.38560059 93.4438501 -254.75878906 92.87646484 C-234.28610281 74.78365668 -205.05001815 63.5761922 -178 61 C-178.70576172 60.22076172 -178.70576172 60.22076172 -179.42578125 59.42578125 C-180.04839844 58.72839844 -180.67101562 58.03101563 -181.3125 57.3125 C-181.92738281 56.62800781 -182.54226563 55.94351563 -183.17578125 55.23828125 C-185 53 -185 53 -186.25512695 50.50927734 C-188.45995628 47.33854336 -190.10168265 46.80529239 -193.7421875 45.61328125 C-194.89203125 45.23236328 -196.041875 44.85144531 -197.2265625 44.45898438 C-198.43054688 44.08064453 -199.63453125 43.70230469 -200.875 43.3125 C-202.0403125 42.92255859 -203.205625 42.53261719 -204.40625 42.13085938 C-211.39601409 39.86422301 -218.15660373 38.33518438 -225.45751953 37.48120117 C-228 37 -228 37 -230 35 C-229.44444444 30.44444444 -229.44444444 30.44444444 -228 29 C-223.1116555 28.10000215 -218.52131145 27.89152474 -213.5625 28.125 C-211.70818359 28.19074219 -211.70818359 28.19074219 -209.81640625 28.2578125 C-194.58165078 30.04692929 -180.97101528 37.66520119 -167.6081543 44.65966797 C-165.21817726 45.90439301 -162.81556698 47.12137256 -160.41015625 48.3359375 C-159.34112816 48.91074356 -159.34112816 48.91074356 -158.25050354 49.49716187 C-150.73698434 53.25488318 -144.39644988 51.59569002 -136.625 49.1875 C-120.16977458 44.50170329 -102.70919205 43.08784847 -85.75 41.3125 C-83.91441528 41.11720703 -83.91441528 41.11720703 -82.04174805 40.91796875 C-77.05906619 40.41080474 -72.13255404 39.93029207 -67.12109375 39.9453125 C-60.36122172 40.12905709 -60.36122172 40.12905709 -54.6875 37 C-52.64735976 34.45295605 -52.64735976 34.45295605 -50.8515625 31.67578125 C-47.70461454 27.12797671 -43.43649409 24.22392899 -39 21 C-38.38447266 20.54866699 -37.76894531 20.09733398 -37.13476562 19.63232422 C-29.55073625 14.09057083 -21.84253942 8.72782087 -13.875 3.75 C-13.28436768 3.367229 -12.69373535 2.98445801 -12.08520508 2.59008789 C-7.92732702 0.06534539 -4.81386733 -0.36747079 0 0 Z M-32 29 C-40.6336993 35.47598267 -40.6336993 35.47598267 -47 44 C-45.68 44.33 -44.36 44.66 -43 45 C-43.3411247 48.63866349 -44.53176496 51.00510634 -46.5 54 C-50.13539067 59.6259504 -50.73357364 65.36053689 -50 72 C-49.34 72.99 -48.68 73.98 -48 75 C-47.77449463 74.10244995 -47.77449463 74.10244995 -47.54443359 73.18676758 C-43.83992348 58.60813424 -39.63409217 45.64457395 -31.78515625 32.70703125 C-31.52605469 32.14371094 -31.26695312 31.58039062 -31 31 C-31.33 30.34 -31.66 29.68 -32 29 Z M-30 49 C-37.26968978 62.83887411 -41.91379497 79.21283493 -38 94.8125 C-37.67 95.864375 -37.34 96.91625 -37 98 C-27.98989408 97.97231918 -20.11034572 96.68860472 -11.5 94.0625 C-2.97013387 91.46311898 5.09379762 89.79828812 14 89 C14.78890625 88.91532471 15.5778125 88.83064941 16.390625 88.7434082 C23.85034627 87.97881396 31.25418292 87.8079076 38.75 87.8125 C40.59682373 87.81262085 40.59682373 87.81262085 42.48095703 87.81274414 C51.15823665 87.86715613 59.45597177 88.41391346 68 90 C69.9997498 90.33483109 71.99967817 90.6686034 74 91 C62.64461113 76.05869885 40.21294734 68.0539789 22.85375977 62.3605957 C18.18773941 60.81933106 13.91015032 59.08052291 9.5625 56.75 C-2.63377915 50.380832 -16.52403042 50.06454617 -30 49 Z M-102.8125 52.6875 C-104.06828857 52.86249023 -105.32407715 53.03748047 -106.61791992 53.21777344 C-117.90287312 54.85760814 -128.94592725 57.22225154 -140 60 C-136.2937535 64.15579122 -131.79160908 66.94836515 -127.1875 70 C-120.88777376 74.22608641 -114.843853 78.60078562 -109 83.4375 C-104.07843152 87.49825187 -99.21963847 90.8822635 -93.46484375 93.71875 C-90.48642624 95.26696069 -87.76721924 97.10431425 -85 99 C-84.89123018 96.14479219 -84.81233534 93.29379439 -84.75 90.4375 C-84.69972656 89.23770508 -84.69972656 89.23770508 -84.6484375 88.01367188 C-84.55231848 82.12638185 -85.61490442 78.83851276 -89 74 C-89.763125 73.29875 -90.52625 72.5975 -91.3125 71.875 C-93 70 -93 70 -92.90625 67.734375 C-91.71024771 64.12574741 -89.78502101 62.13605455 -87.1875 59.375 C-86.31480469 58.43398438 -85.44210937 57.49296875 -84.54296875 56.5234375 C-82.43950465 54.43612904 -80.38240658 52.73696743 -78 51 C-86.41447917 50.74008918 -94.48697651 51.50379213 -102.8125 52.6875 Z M-80 64 C-80.66 64.99 -81.32 65.98 -82 67 C-75.54487966 67.56131481 -70.84560277 65.63463787 -65 63 C-65.66 62.01 -66.32 61.02 -67 60 C-72.65524821 59.23871659 -75.62281048 60.43717132 -80 64 Z M-158 62 C-157.67 62.66 -157.34 63.32 -157 64 C-156.34 63.67 -155.68 63.34 -155 63 C-155.99 62.67 -156.98 62.34 -158 62 Z M-155 64 C-152.10355385 67.98261346 -148.78862689 71.00218195 -145.078125 74.18359375 C-138.08731637 80.29398099 -131.98876397 87.26968566 -126.1875 94.5 C-125.465625 95.325 -124.74375 96.15 -124 97 C-123.34 97 -122.68 97 -122 97 C-122 95.68 -122 94.36 -122 93 C-119.23735711 92.40267181 -116.83967231 92 -114 92 C-123.95392365 83.89721387 -134.28933357 76.50619488 -144.95703125 69.37158203 C-146.25251388 68.5018376 -147.54235184 67.62357647 -148.82421875 66.73388672 C-151.64749916 64.62909529 -151.64749916 64.62909529 -155 64 Z M-166 68 C-167.35665294 68.6178309 -168.68801925 69.2922368 -170 70 C-171.75705326 70.32951205 -173.52858584 70.58589447 -175.3046875 70.7890625 C-196.6284041 73.4852777 -215.17504528 79.70644599 -234 90 C-234.96421875 90.52464844 -235.9284375 91.04929687 -236.921875 91.58984375 C-239.37483594 92.99100477 -241.69857428 94.35986056 -244 96 C-244.68513672 96.44206787 -245.37027344 96.88413574 -246.07617188 97.33959961 C-250.56114516 100.60655069 -250.56114516 100.60655069 -252.45507812 105.62866211 C-252.33868513 108.62654748 -251.98534193 111.4772994 -251.5 114.4375 C-251.36851562 115.45521484 -251.23703125 116.47292969 -251.1015625 117.52148438 C-250.77281281 120.0223302 -250.40508452 122.5105773 -250 125 C-249.3030603 124.06969971 -249.3030603 124.06969971 -248.59204102 123.12060547 C-236.29761451 106.74437657 -220.47270785 103.5790859 -201 100.6875 C-174.94938643 97.76488532 -146.68129766 103.23744284 -123.34643555 115.14892578 C-120.72053921 116.10136305 -119.57462781 115.96887799 -117 115 C-117.44730469 114.62488281 -117.89460937 114.24976563 -118.35546875 113.86328125 C-126.91254113 106.61987456 -134.26344813 98.49184486 -141.1875 89.6875 C-144.73611616 85.32091859 -148.51761532 81.39295586 -152.625 77.5625 C-153.1511792 77.06645264 -153.6773584 76.57040527 -154.21948242 76.05932617 C-157.8802628 72.72311335 -161.47563813 70.06180127 -166 68 Z M-61 72 C-62.12148438 72.41572266 -62.12148438 72.41572266 -63.265625 72.83984375 C-64.25046875 73.20207031 -65.2353125 73.56429687 -66.25 73.9375 C-67.22453125 74.29714844 -68.1990625 74.65679687 -69.203125 75.02734375 C-71.46457161 75.81379655 -73.66796552 76.47251601 -76 77 C-75.81870185 80.43793339 -75.81870185 80.43793339 -75 84 C-71.82553386 86.32794183 -69.24309967 86.11724799 -65.4375 85.6875 C-64.48746094 85.58824219 -63.53742187 85.48898438 -62.55859375 85.38671875 C-59.88801667 85.05761553 -59.88801667 85.05761553 -57 84 C-57.28359887 82.5608866 -57.57721399 81.12374482 -57.875 79.6875 C-58.03742187 78.88699219 -58.19984375 78.08648437 -58.3671875 77.26171875 C-58.94478999 74.74698882 -58.94478999 74.74698882 -61 72 Z M-59.0625 87.9375 C-63.52235254 91.06888583 -67.67856886 91.33854204 -73 90.5625 C-73.66 90.376875 -74.32 90.19125 -75 90 C-75 91.65 -75 93.3 -75 95 C-73.98679687 95.09087891 -73.98679687 95.09087891 -72.953125 95.18359375 C-72.06109375 95.26738281 -71.1690625 95.35117188 -70.25 95.4375 C-69.36828125 95.51871094 -68.4865625 95.59992188 -67.578125 95.68359375 C-65.30649548 95.96238465 -63.20148177 96.38790577 -61 97 C-62.81817001 99.31459868 -63.75615543 99.95377187 -66.69921875 100.51171875 C-67.68535156 100.56972656 -68.67148437 100.62773438 -69.6875 100.6875 C-70.68136719 100.75324219 -71.67523437 100.81898437 -72.69921875 100.88671875 C-73.45847656 100.92410156 -74.21773437 100.96148437 -75 101 C-75 101.66 -75 102.32 -75 103 C-68.89365599 106.52234074 -68.89365599 106.52234074 -62 107 C-63.0625 109.5 -63.0625 109.5 -65 112 C-68.78613423 112.40565724 -71.39076038 112.20307987 -75 111 C-75 112.65 -75 114.3 -75 116 C-69.06 116.99 -69.06 116.99 -63 118 C-66 122 -66 122 -68.26171875 122.390625 C-70.5078125 122.26041667 -72.75390625 122.13020833 -75 122 C-75 125.3 -75 128.6 -75 132 C-73.453125 132.309375 -71.90625 132.61875 -70.3125 132.9375 C-65 134 -65 134 -62.51171875 134.546875 C-56.65255572 135.60389352 -50.95753869 136.22825957 -45.8125 133 C-45.214375 132.34 -44.61625 131.68 -44 131 C-44.33 129.68 -44.66 128.36 -45 127 C-45.70125 127.33 -46.4025 127.66 -47.125 128 C-50 129 -50 129 -56 129 C-52.37 125.37 -48.74 121.74 -45 118 C-50.445 102.16 -50.445 102.16 -56 86 C-57.35015996 85.88588742 -57.35015996 85.88588742 -59.0625 87.9375 Z M-112 95 C-108.84038969 98.48646655 -105.4711713 101.15569869 -101.625 103.875 C-97.50290632 106.80429403 -93.93460498 109.81616333 -90.53515625 113.5546875 C-88.82372975 115.16595418 -87.1380997 116.04870726 -85 117 C-89.39399735 106.75517195 -100.46086058 99.9636801 -110 95 C-110.66 95 -111.32 95 -112 95 Z M-10 103 C-10 103.33 -10 103.66 -10 104 C-8.92685547 103.90912109 -8.92685547 103.90912109 -7.83203125 103.81640625 C-0.22385955 103.17665054 7.3868332 102.57712716 15 102 C15 103.32 15 104.64 15 106 C23.24170155 104.52203348 31.46633934 102.96291649 39.6875 101.375 C40.87794922 101.14554687 42.06839844 100.91609375 43.29492188 100.6796875 C46.19671417 100.12030585 49.0984044 99.56040087 52 99 C49.53985675 96.53985675 48.15651247 96.74279621 44.79614258 96.72167969 C44.05904053 96.73102539 43.32193848 96.74037109 42.5625 96.75 C41.78479248 96.75676758 41.00708496 96.76353516 40.20581055 96.77050781 C23.3087162 97.05052518 6.10065802 97.44432906 -10 103 Z M-24.546875 106.12109375 C-25.39121094 106.16943359 -26.23554687 106.21777344 -27.10546875 106.26757812 C-27.97816406 106.32365234 -28.85085938 106.37972656 -29.75 106.4375 C-31.08224609 106.51581055 -31.08224609 106.51581055 -32.44140625 106.59570312 C-34.62799196 106.72501733 -36.81407894 106.85996642 -39 107 C-38.34 108.98 -37.68 110.96 -37 113 C-29.78069368 111.55613874 -22.94889267 109.42211826 -16 107 C-18.97818634 106.11900265 -21.45292865 105.93294836 -24.546875 106.12109375 Z M5 119 C5.19200101 121.45246611 5.19200101 121.45246611 6 124 C7.72356632 125.18459975 7.72356632 125.18459975 9.9375 125.8125 C26.52239006 132.4042687 34.55418954 148.49825352 42.33203125 163.46875 C42.72471191 164.22220703 43.11739258 164.97566406 43.52197266 165.75195312 C44.27803487 167.21023148 45.02686802 168.67228942 45.76708984 170.13867188 C49.37908238 177.13909713 53.85854362 183.33156105 61 187 C64.41614691 188.05728021 67.8487445 188.67845063 71.375 189.25 C73.17498889 189.56480765 74.97450006 189.8823635 76.7734375 190.203125 C77.56153809 190.33364258 78.34963867 190.46416016 79.16162109 190.59863281 C81 191 81 191 82 192 C82.25 194.4375 82.25 194.4375 82 197 C76.20265519 200.86489654 68.39191921 198.49285086 61.8203125 197.24609375 C42.7864763 193.29620521 27.14485554 184.98625699 15.1171875 169.58984375 C4.88971637 155.98939599 4.88971637 155.98939599 -9 147 C-17.74958228 146.21598725 -26.22393702 147.10768988 -34.84765625 148.6015625 C-37.7638837 148.9701563 -39.93705705 148.80357555 -42.8125 148.375 C-46.13018233 148.28850549 -46.89968004 148.90513401 -49.37109375 151.2421875 C-54.65639683 157.92475461 -58.06888327 165.0202694 -61 173 C-65.59141578 184.77245362 -71.26888191 195.75234593 -78 206.4375 C-81.94084746 212.70383765 -85.20456982 219.2097888 -88.43359375 225.859375 C-90 229 -90 229 -91 230 C-94 230.125 -94 230.125 -97 230 C-97.33 229.67 -97.66 229.34 -98 229 C-97.75906242 222.61515415 -95.77014571 217.62971271 -93.15625 211.83203125 C-87.71340881 198.50074793 -90.54609755 180.15423914 -92.3125 166.25 C-92.43012695 165.29303223 -92.54775391 164.33606445 -92.66894531 163.35009766 C-93.34879558 158.52594276 -94.0231176 154.99443197 -97 151 C-99.51495465 149.32410241 -99.51495465 149.32410241 -102.49609375 148.0546875 C-103.60178711 147.54043213 -104.70748047 147.02617676 -105.84667969 146.49633789 C-107.03165039 145.96129639 -108.21662109 145.42625488 -109.4375 144.875 C-111.91449881 143.73448444 -114.38600551 142.5825132 -116.85546875 141.42578125 C-117.47108673 141.13833542 -118.08670471 140.85088959 -118.72097778 140.55473328 C-123.25463047 138.41377667 -127.56940596 136.01683953 -131.88061523 133.46484375 C-143.01845036 126.87280614 -154.36245207 123.57741239 -167 121 C-167.99 120.79246094 -168.98 120.58492187 -170 120.37109375 C-185.62401676 118.43843543 -200.83381317 120.1952882 -216 124 C-216.70125 124.17080078 -217.4025 124.34160156 -218.125 124.51757812 C-225.6858726 126.37144593 -232.98702414 128.57240332 -240.21875 131.4609375 C-243.90562139 132.17552774 -246.45748057 131.10092684 -250 130 C-250.2266333 131.28052246 -250.4532666 132.56104492 -250.68676758 133.88037109 C-251.53628537 138.67115685 -252.39360165 143.46052063 -253.25317383 148.24951172 C-253.62278691 150.31489221 -253.99033782 152.38064292 -254.35571289 154.44677734 C-254.8839447 157.43168343 -255.41979676 160.41514022 -255.95703125 163.3984375 C-256.11653763 164.30927094 -256.27604401 165.22010437 -256.44038391 166.15853882 C-257.41114979 171.50073102 -258.69369955 176.60678954 -260.38009644 181.76979065 C-261.38250427 185.37612469 -261.40093773 188.84356961 -261.3125 192.5625 C-261.30557129 193.35261475 -261.29864258 194.14272949 -261.29150391 194.95678711 C-261.14677122 203.06259553 -260.40720299 211.13837526 -259.53637695 219.19555664 C-258.71044234 227.69411534 -259.36016373 235.34433837 -263.125 243.125 C-263.47820312 243.87007812 -263.83140625 244.61515625 -264.1953125 245.3828125 C-264.46085937 245.91648438 -264.72640625 246.45015625 -265 247 C-257.99145398 245.54682415 -251.5976714 243.1161429 -245.125 240.125 C-244.03747437 239.63386719 -244.03747437 239.63386719 -242.92797852 239.1328125 C-237.67886659 236.64232687 -234.2260364 233.57060715 -230.41015625 229.1640625 C-229.96542969 228.65617187 -229.52070313 228.14828125 -229.0625 227.625 C-228.62035156 227.10164063 -228.17820312 226.57828125 -227.72265625 226.0390625 C-226 225 -226 225 -223.08203125 225.03125 C-219.23748563 226.23967499 -218.0518455 227.69032913 -215.625 230.875 C-214.86316406 231.865 -214.10132813 232.855 -213.31640625 233.875 C-212.55199219 234.90625 -211.78757812 235.9375 -211 237 C-210.24589844 237.99 -209.49179687 238.98 -208.71484375 240 C-200.85404685 250.50008443 -200.85404685 250.50008443 -201.15234375 255.609375 C-204.22376441 264.2716305 -219.14188092 270.01667168 -227 274 C-228.65336596 274.69900158 -230.31445437 275.38261992 -232 276 C-232 276.66 -232 277.32 -232 278 C-216.76030204 287.34313907 -201.86078289 293.18803652 -184 295 C-182.64547123 295.20596591 -181.2912409 295.41391774 -179.9375 295.625 C-170.16474187 296.55573887 -161.56882068 295.86431732 -151.99609375 293.72265625 C-146.92356499 292.69542144 -141.79801751 292.54516415 -136.63378906 292.46704102 C-132.37341424 292.34081144 -130.20734124 291.77682564 -127 289 C-123.25 288.3125 -123.25 288.3125 -120 288 C-119.48780935 291.51216444 -119.29055264 293.77985118 -121.1015625 296.89453125 C-129.88875016 307.52140106 -141.6307222 314.41458522 -153.99121094 320.04443359 C-155.94332752 320.97304131 -157.81216471 321.99044122 -159.6953125 323.05078125 C-171.6634828 329.46022313 -183.70846469 328.72340294 -197 328 C-194.91301831 331.68759054 -192.82898264 335.33431693 -190.5 338.875 C-185.18882133 347.39055031 -182.5475504 356.52572519 -179.8125 366.125 C-176.71100098 376.83823413 -173.21858012 387.24680378 -168.91918945 397.55322266 C-159.72427923 419.78944436 -162.8014235 447.63619601 -171.63378906 469.64038086 C-173.89070399 474.97095141 -176.35455087 480.22712062 -178.8984375 485.42578125 C-180.19670706 487.99301276 -180.19670706 487.99301276 -180 491 C-159.2901447 499.82668315 -137.83131553 500.78600979 -115.62625122 502.48345947 C-111.04062275 502.83520861 -106.45939573 503.21825879 -101.87890625 503.6328125 C-66.95003466 506.73911949 -34.76927122 503.56157007 -1 494 C0.35085693 493.61787354 0.35085693 493.61787354 1.72900391 493.22802734 C21.99964796 487.37402096 41.48998341 479.22346016 60.5625 470.25 C61.4712085 469.82686523 62.37991699 469.40373047 63.31616211 468.96777344 C68.75028132 466.35001676 73.61487337 463.32966433 78.50170898 459.79833984 C82.66567556 456.80100008 86.9702209 454.01565345 91.25 451.1875 C94.83714091 448.79733469 98.41916263 446.39959516 102 444 C102.68739258 443.54189941 103.37478516 443.08379883 104.08300781 442.61181641 C112.62971057 436.88189534 120.12089819 430.43858477 127.52734375 423.296875 C129.86272864 421.04631119 132.25305094 418.90173102 134.73046875 416.80859375 C138.59627396 413.53358501 141.75465902 409.88088692 145 406 C145.70125 405.19820313 146.4025 404.39640625 147.125 403.5703125 C158.66990528 390.06116987 164.49578737 376.81632273 169.76171875 359.94140625 C171.32334495 354.9498693 173.08779264 350.08524032 174.97265625 345.2109375 C178.12865489 336.96801435 180.55938006 328.60792121 182.75 320.0625 C182.94488007 319.30875092 183.13976013 318.55500183 183.34054565 317.77841187 C186.80334657 304.23400257 188.69909214 291.00277347 189 277 C189.02352539 276.21093262 189.04705078 275.42186523 189.07128906 274.60888672 C189.19627458 270.06278659 189.1962449 265.54557945 189 261 C188.98005981 259.65578979 188.98005981 259.65578979 188.9597168 258.28442383 C188.59661557 249.11951962 186.19602629 241.11431685 183.23706055 232.51733398 C182.44429541 230.2073011 181.68057103 227.88913804 180.91992188 225.56835938 C176.43592627 212.13998427 170.58656376 199.4454221 162.9375 187.5 C162.5161377 186.83403809 162.09477539 186.16807617 161.66064453 185.48193359 C158.96638635 181.29941852 156.10290837 177.46944173 152.6953125 173.83203125 C150.76104726 171.74177687 149.01242814 169.54942802 147.25 167.3125 C143.63755939 162.75677219 139.90766129 158.31513106 136.13769531 153.89013672 C133.20741003 150.4451809 130.33726842 146.95997636 127.5 143.4375 C123.38246573 138.37544174 119.0184039 133.58454419 114.5859375 128.80078125 C105.67755706 119.15227857 105.67755706 119.15227857 103.7734375 115.9140625 C101.20049935 113.13710282 98.19714677 112.64984374 94.625 111.875 C93.54871338 111.6279834 93.54871338 111.6279834 92.45068359 111.37597656 C90.30452887 110.89503219 88.15437016 110.4425248 86 110 C84.3603125 109.65582031 84.3603125 109.65582031 82.6875 109.3046875 C56.46042965 104.55437629 30.07597877 111.55396957 5 119 Z M-109 109 C-106.89814449 112.26955301 -104.86031093 115.17787002 -102.1875 118 C-100 121 -100 121 -100.0625 124.3125 C-101 127 -101 127 -103 128 C-104.70363822 128.22622081 -106.41328701 128.40888473 -108.125 128.5625 C-109.03507813 128.64628906 -109.94515625 128.73007813 -110.8828125 128.81640625 C-111.58148437 128.87699219 -112.28015625 128.93757813 -113 129 C-107.15998667 132.89334222 -101.50754812 133.38669595 -94.6875 133.6875 C-93.45290039 133.75807617 -93.45290039 133.75807617 -92.19335938 133.83007812 C-90.13073587 133.93380445 -88.06504792 133.97257853 -86 134 C-84.70025605 132.90239875 -84.70025605 132.90239875 -84.625 130.21484375 C-84.69525632 126.87746706 -84.69525632 126.87746706 -87.125 124.69140625 C-88.07375 123.98886719 -89.0225 123.28632812 -90 122.5625 C-91.50433594 121.4178125 -91.50433594 121.4178125 -93.0390625 120.25 C-94.01617188 119.5075 -94.99328125 118.765 -96 118 C-97.47074128 116.70141907 -98.93078223 115.39051634 -100.375 114.0625 C-103.09051861 111.64870568 -105.43888147 110.00156459 -109 109 Z M-270.1875 113.6875 C-275.96454365 117.97786388 -275.96454365 117.97786388 -277.75073242 119.09301758 C-282.81824378 122.34311046 -285.21620879 126.01040056 -287.9375 131.3125 C-288.3593457 132.10140625 -288.78119141 132.8903125 -289.21582031 133.703125 C-292.33630788 139.58196366 -295.31881614 145.53500667 -298.2331543 151.51855469 C-300.03764774 155.19863188 -301.99624505 158.64242687 -304.25 162.0625 C-310.61319816 172.2748262 -313.27740054 187.10092645 -312 199 C-310.46761405 202.19452843 -310.46761405 202.19452843 -309.15625 204.03125 C-306.64511778 208.30696162 -305.45625452 213.28266488 -304 218 C-302.35677553 215.53516329 -301.19667253 213.36863343 -300.01171875 210.68359375 C-299.63466797 209.83603516 -299.25761719 208.98847656 -298.86914062 208.11523438 C-298.47919922 207.23158203 -298.08925781 206.34792969 -297.6875 205.4375 C-295.38759515 200.23039005 -293.06178753 195.08934826 -290.40234375 190.0546875 C-287.73260562 184.77773075 -286.32889842 179.39605823 -284.875 173.6875 C-282.61601465 165.36242363 -279.78437724 158.01954086 -275.5625 150.5 C-271.3086308 142.90516566 -268.02197569 135.32024749 -265.25 127.0625 C-264.72901733 125.54269531 -264.72901733 125.54269531 -264.19750977 123.9921875 C-262.58845523 118.99429634 -261.41409721 115.2070475 -263 110 C-266.11150766 110 -267.72771659 111.85199265 -270.1875 113.6875 Z M-18.625 114.6875 C-19.7696875 115.02716797 -20.914375 115.36683594 -22.09375 115.71679688 C-23.18945312 116.06162109 -24.28515625 116.40644531 -25.4140625 116.76171875 C-26.4138916 117.07069092 -27.4137207 117.37966309 -28.44384766 117.69799805 C-31.6035727 119.30743584 -32.55439882 120.79998974 -34 124 C-34 124.99 -34 125.98 -34 127 C-33.23300781 127.07476562 -32.46601562 127.14953125 -31.67578125 127.2265625 C-23.83161231 128.15583687 -16.45945908 129.82252415 -8.875 132 C-7.50661987 132.39179443 -7.50661987 132.39179443 -6.1105957 132.79150391 C1.71943398 135.09707348 1.71943398 135.09707348 5 137 C5.9375 138.9375 5.9375 138.9375 6 141 C4.50390625 142.62890625 4.50390625 142.62890625 3 144 C3.969375 144.763125 4.93875 145.52625 5.9375 146.3125 C11.89267295 151.41693396 16.49408311 157.78115615 21.29296875 163.9453125 C25.71557237 169.53256044 29.99355369 174.12117773 36 178 C36 166.05768131 24.54344896 148.52976961 16.6875 140.1875 C7.34802246 131.46116169 7.34802246 131.46116169 -4.3125 127.75 C-7.95123287 127.37378206 -9.01205862 126.99131779 -12.125 124.75 C-14 122 -14 122 -13.99609375 119.50390625 C-13 117 -13 117 -10.27734375 115.41796875 C-9.17519531 115.01191406 -8.07304688 114.60585937 -6.9375 114.1875 C-5.28041016 113.55908203 -5.28041016 113.55908203 -3.58984375 112.91796875 C-2.73519531 112.61503906 -1.88054688 112.31210938 -1 112 C-1 111.67 -1 111.34 -1 111 C-7.25123965 110.71182229 -12.72669543 112.82505349 -18.625 114.6875 Z M-34 134 C-35.485 136.475 -35.485 136.475 -37 139 C-28.585 138.01 -28.585 138.01 -20 137 C-23.6249797 135.18751015 -25.37259584 134.68111085 -29.25 134.375 C-30.14203125 134.30023438 -31.0340625 134.22546875 -31.953125 134.1484375 C-32.96632813 134.07496094 -32.96632813 134.07496094 -34 134 Z M-98 141 C-97.18595703 141.27650391 -97.18595703 141.27650391 -96.35546875 141.55859375 C-93.29661764 142.79866852 -90.72837723 143.86321125 -88.90625 146.70703125 C-88.05713086 149.12056011 -87.50999945 151.49135406 -87 154 C-86.74734375 155.1240625 -86.4946875 156.248125 -86.234375 157.40625 C-83.93224222 168.51065516 -82.91737799 179.70818041 -82 191 C-79.92026304 187.19079756 -79.61660717 184.09892913 -79.375 179.75 C-79.30023437 178.48671875 -79.22546875 177.2234375 -79.1484375 175.921875 C-79.09945312 174.95765625 -79.05046875 173.9934375 -79 173 C-79.66 173 -80.32 173 -81 173 C-80.86015045 169.62472444 -80.71204731 166.24985869 -80.5625 162.875 C-80.52318359 161.92367187 -80.48386719 160.97234375 -80.44335938 159.9921875 C-80.22946977 155.25371013 -79.93438179 150.66405699 -79 146 C-78.01 146 -77.02 146 -76 146 C-75.67 145.01 -75.34 144.02 -75 143 C-75.71027344 142.87882813 -76.42054688 142.75765625 -77.15234375 142.6328125 C-78.07144531 142.46523437 -78.99054687 142.29765625 -79.9375 142.125 C-81.31228516 141.88136719 -81.31228516 141.88136719 -82.71484375 141.6328125 C-83.84599609 141.31957031 -83.84599609 141.31957031 -85 141 C-85.33 140.34 -85.66 139.68 -86 139 C-87.85625 138.938125 -87.85625 138.938125 -89.75 138.875 C-90.44609375 138.85179687 -91.1421875 138.82859375 -91.859375 138.8046875 C-94.30155975 139.02751458 -95.88636771 139.79085 -98 141 Z M-66 144 C-72.26113384 151.65249692 -75.65258344 161.09862801 -76 171 C-75.1956805 173.89765372 -75.1956805 173.89765372 -74 176 C-71.49834169 173.49834169 -70.8822788 171.26497842 -69.6875 167.9375 C-67.56681549 162.28026219 -65.09435105 157.17399608 -62 152 C-61.22692201 150.64711352 -60.45591131 149.29304249 -59.6875 147.9375 C-59.130625 146.968125 -58.57375 145.99875 -58 145 C-60.64 144.67 -63.28 144.34 -66 144 Z M-266 153 C-266.83820766 154.13369094 -267.61953557 155.3095712 -268.375 156.5 C-268.79523438 157.1496875 -269.21546875 157.799375 -269.6484375 158.46875 C-272.465192 163.74405901 -274.15025864 169.30347235 -275.58374023 175.0871582 C-278.40392419 186.35644538 -283.01637961 196.54496237 -288 207 C-289.17318065 209.49703967 -290.33728041 211.99805159 -291.5 214.5 C-291.9640625 215.4796875 -292.428125 216.459375 -292.90625 217.46875 C-294.91716723 222.12258702 -295.25853169 226.58255477 -295.53515625 231.609375 C-295.59962196 232.69958954 -295.59962196 232.69958954 -295.66539001 233.81182861 C-295.8013162 236.12436122 -295.93197891 238.43715666 -296.0625 240.75 C-296.1539494 242.32163484 -296.24574238 243.89324973 -296.33789062 245.46484375 C-296.5625755 249.30967602 -296.78254157 253.15475251 -297 257 C-300.375 257.1875 -300.375 257.1875 -304 257 C-306.15828431 253.76257354 -306.61390268 251.68190105 -307.33203125 247.890625 C-307.68974609 246.05612793 -307.68974609 246.05612793 -308.0546875 244.18457031 C-308.17811523 243.54120728 -308.30154297 242.89784424 -308.42871094 242.23498535 C-312.33268004 217.28228229 -312.33268004 217.28228229 -327 198 C-325.71491615 201.45937264 -324.19346518 204.40901407 -322.1875 207.5 C-314.67529613 219.89789147 -312.21054877 232.3673117 -311.75 246.6875 C-311.30478237 253.7817874 -309.75405966 258.65287858 -305 264 C-302.52017257 266.02164214 -299.96205295 267.90296397 -297.38671875 269.80078125 C-293.86626444 273.04466959 -292.36977807 276.84788012 -290.3984375 281.14453125 C-288.32730732 285.37357081 -286.27075518 288.79549148 -282 291 C-278.7089914 291.3058398 -275.58381554 291.18178605 -272.28515625 291 C-264.23105211 291 -258.23206663 295.38827069 -252 300 C-248.52681323 301.21866202 -245.02828443 301.17074284 -241.375 301.3125 C-232.51611819 301.93225716 -226.10182221 304.92006891 -218.31689453 308.88842773 C-204.23016273 316.0382844 -190.11775097 322.66646075 -174 319 C-157.58788815 313.13727817 -157.58788815 313.13727817 -144 303 C-148.29992788 302.84363899 -152.01770374 302.90138625 -156.1875 303.984375 C-176.31328911 308.62386205 -201.35261082 304.25812949 -220 296 C-220.97195313 295.57074219 -221.94390625 295.14148438 -222.9453125 294.69921875 C-227.48518459 292.55034596 -231.78470035 290.17484245 -235.98828125 287.4296875 C-236.6838916 286.97811279 -237.37950195 286.52653809 -238.09619141 286.0612793 C-239.4520532 285.17061454 -240.79765052 284.26404419 -242.13037109 283.33911133 C-247.00949087 280.11231536 -251.17269981 279.18559351 -257 279 C-257 278.34 -257 277.68 -257 277 C-264.26 277 -271.52 277 -279 277 C-282.89287318 269.21425363 -282.69972091 261.84336485 -280.27734375 253.515625 C-278.83236025 250.18778421 -277.12636221 247.19393273 -275.14453125 244.15234375 C-267.95376007 232.11031377 -269.55499096 219.83234413 -271.5390625 206.33203125 C-273.08329065 195.16909386 -272.48446896 184.91301878 -268.93041992 174.22338867 C-266.62365955 167.22904106 -265.71397251 160.32088227 -265 153 C-265.33 153 -265.66 153 -266 153 Z M-438.02587891 153.00585938 C-463.24704141 153.11878153 -484.75300247 162.69260282 -506.875 173.875 C-508.43600653 174.66053668 -509.99720362 175.44569482 -511.55859375 176.23046875 C-514.60842403 177.76366635 -517.656502 179.30027407 -520.70361328 180.83886719 C-523.42518496 182.21130639 -526.15179207 183.57233039 -528.88623047 184.91894531 C-545.99869022 193.35390534 -560.83897195 202.78779295 -574.32958984 216.33740234 C-580.45858584 222.43773305 -587.01529898 227.91331556 -594 233 C-599.06873152 236.69595007 -602.27490151 240.86967488 -605.875 246.00390625 C-607.9373406 248.91165485 -610.11094806 251.69695261 -612.3125 254.5 C-621.39235262 266.62741561 -628.62963587 279.73131195 -633.37792969 294.12207031 C-633.98048705 295.94109357 -634.61860051 297.74821884 -635.2578125 299.5546875 C-640.39654307 314.32449802 -645.16285421 329.46586997 -646.48046875 345.1015625 C-647 348 -647 348 -648.47314453 349.71069336 C-650.56103631 352.84119563 -650.68726506 355.87250488 -650.94921875 359.52734375 C-651.01192459 360.26336823 -651.07463043 360.9993927 -651.13923645 361.75772095 C-651.33765105 364.15003407 -651.51458927 366.54321628 -651.6875 368.9375 C-651.749375 369.75765594 -651.81125 370.57781189 -651.875 371.42282104 C-652.28977927 376.9462578 -652.6565581 382.47171974 -653 388 C-653.06912598 389.0509082 -653.13825195 390.10181641 -653.20947266 391.18457031 C-654.75750315 417.71240709 -648.34990183 445.28681676 -641.80810547 470.83740234 C-641.08857656 473.6533472 -640.40089645 476.47468932 -639.72265625 479.30078125 C-635.91610366 494.66538279 -629.66991887 506.90130932 -619.01953125 518.62109375 C-616.08022175 521.8555484 -613.43015145 525.25327496 -610.8125 528.75 C-606.5058841 534.45731553 -601.84064013 539.7431553 -597 545 C-595.78656385 546.37049887 -594.57791859 547.74526042 -593.375 549.125 C-592.8078125 549.76695312 -592.240625 550.40890625 -591.65625 551.0703125 C-590.55906684 552.34863439 -589.49536976 553.65653424 -588.46875 554.9921875 C-581.99890094 563.14292872 -572.85875958 567.42264326 -563.9140625 572.37109375 C-562.82013184 572.97808105 -561.72620117 573.58506836 -560.59912109 574.21044922 C-558.41160445 575.42013731 -556.219389 576.6213777 -554.02197266 577.81298828 C-549.20065757 580.46459881 -544.75577371 583.0766384 -540.546875 586.6328125 C-535.26705615 590.90052739 -529.38995547 592.72787454 -523 594.8125 C-520.51938609 595.65722021 -518.04024714 596.50628254 -515.5625 597.359375 C-514.93682129 597.57344498 -514.31114258 597.78751495 -513.66650391 598.0080719 C-505.93718161 600.67298456 -498.38401982 603.76735429 -490.8203125 606.86450195 C-489.84835937 607.26113037 -488.87640625 607.65775879 -487.875 608.06640625 C-487.02679688 608.41646729 -486.17859375 608.76652832 -485.3046875 609.12719727 C-481.40340392 610.60464311 -478.04782575 611.12750402 -473.87109375 611.14526367 C-472.84902832 611.15164352 -471.82696289 611.15802338 -470.77392578 611.16459656 C-469.67290527 611.16570938 -468.57188477 611.1668222 -467.4375 611.16796875 C-466.29522949 611.17129715 -465.15295898 611.17462555 -463.97607422 611.17805481 C-461.55517987 611.18311897 -459.13427854 611.18546329 -456.71337891 611.18530273 C-453.04187181 611.18747522 -449.37067213 611.20559781 -445.69921875 611.22460938 C-443.34114685 611.22754634 -440.98307354 611.22952911 -438.625 611.23046875 C-436.99776001 611.24124702 -436.99776001 611.24124702 -435.33764648 611.25224304 C-428.04134951 611.23080852 -421.15529983 610.40195252 -414 609 C-413.13421829 608.83466263 -412.26843658 608.66932526 -411.37641907 608.49897766 C-409.04085167 608.04961291 -406.7080149 607.58742052 -404.375 607.125 C-397.2592136 605.73131445 -390.13630366 604.54341762 -382.96118164 603.49731445 C-363.91127133 600.70982309 -348.33626733 595.24323452 -330.84448242 587.28662109 C-328.2390634 586.10813356 -325.62192158 584.9614458 -323 583.8203125 C-320.10197966 582.53288436 -317.42456019 581.19063246 -314.8125 579.375 C-314.07773437 578.86710937 -313.34296875 578.35921875 -312.5859375 577.8359375 C-311.73257812 577.23007812 -310.87921875 576.62421875 -310 576 C-309.46149414 575.62004883 -308.92298828 575.24009766 -308.36816406 574.84863281 C-304.75457251 572.2977448 -301.15758928 569.72491901 -297.57275391 567.13378906 C-296.25519269 566.18396691 -294.93109432 565.24322175 -293.60546875 564.3046875 C-290.17754691 561.83009303 -287.22449397 559.25624726 -284.3125 556.1875 C-281.07988031 552.84754723 -277.68236952 550.32216087 -273.8125 547.75 C-261.8374724 539.74238276 -252.22732676 529.29052586 -242.5078125 518.75 C-239.66600299 515.6804177 -236.71636922 512.7614459 -233.6875 509.875 C-225.2270984 501.4987815 -218.97265084 491.23492403 -212.87109375 481.08203125 C-211.10460184 478.17229823 -209.25248989 475.33883045 -207.375 472.5 C-198.34957035 458.09205788 -195.26156056 443.54382025 -192 427 C-191.81775879 426.13036621 -191.63551758 425.26073242 -191.44775391 424.36474609 C-189.30792453 414.104211 -188.71136879 404.04122779 -188.625 393.5625 C-188.61098145 392.40113525 -188.59696289 391.23977051 -188.58251953 390.04321289 C-188.65188691 377.60599697 -191.49408562 367.8539321 -197.6875 357.125 C-198.48933716 355.69945801 -198.48933716 355.69945801 -199.30737305 354.24511719 C-200.3729007 352.35490802 -201.44442044 350.46806172 -202.52246094 348.58496094 C-203.80609295 346.33924121 -205.06926328 344.08427557 -206.3203125 341.8203125 C-216.03405628 324.14943739 -216.03405628 324.14943739 -232.1484375 312.796875 C-236.61420792 311.54890628 -241.1479345 311.22587579 -245.75244141 310.78369141 C-252.6552413 310.06538363 -258.19602467 308.45347841 -263.5 303.8125 C-268.11022099 300.47008978 -273.67354496 300.93486362 -279.1875 301.125 C-286.08270257 300.89892778 -289.35666096 297.77232068 -294 293 C-294.66 293 -295.32 293 -296 293 C-302.91858061 322.4480595 -302.91858061 322.4480595 -308 352.25 C-308.77557956 357.65790472 -310.43887988 362.1885753 -313 367 C-313.20272358 356.97644511 -312.58039956 347.00152811 -312 337 C-314.83167589 340.49346082 -317.54288237 344.05053053 -320.1875 347.6875 C-320.88230469 348.64011719 -321.57710938 349.59273437 -322.29296875 350.57421875 C-324.7219673 354.02595354 -325.08442299 355.83692092 -325.25 360 C-326.39793332 372.82690715 -335.99389841 385.9015583 -345.52929688 394.28613281 C-350.15742539 398.1389761 -354.86259853 401.13265849 -360.21875 403.83984375 C-362.97365684 405.63415807 -363.94369506 407.97192583 -365 411 C-366.59357622 408.56276578 -367.000036 406.99915404 -367.125 404.0625 C-365.66264989 400.08165804 -363.85374856 399.35184283 -360.2578125 397.34765625 C-356.42209631 395.05817167 -353.25852595 392.03282719 -350 389 C-349.154375 388.21625 -348.30875 387.4325 -347.4375 386.625 C-338.98014192 377.51707591 -331.90070523 368.31285761 -331.30859375 355.609375 C-330.55802678 349.26280875 -326.23752558 344.3195125 -322.63427734 339.25024414 C-319.10509396 334.27324603 -316.07306556 329.56287191 -314.01953125 323.77734375 C-312.96001275 320.89106922 -311.74513946 318.11536143 -310.48730469 315.31152344 C-303.44902247 300.16870804 -303.44902247 300.16870804 -300 284 C-302.09807632 279.95926043 -304.34973469 277.61282149 -308 275 C-308.4125 275.50789063 -308.825 276.01578125 -309.25 276.5390625 C-312.37745357 280.26687546 -315.36046578 283.41210901 -319.375 286.1875 C-322.44184503 288.28130476 -322.44184503 288.28130476 -323.8125 291.6875 C-323.874375 292.450625 -323.93625 293.21375 -324 294 C-325.5625 295.6875 -325.5625 295.6875 -327 297 C-327 297.66 -327 298.32 -327 299 C-327.66 299 -328.32 299 -329 299 C-329.66 299.99 -330.32 300.98 -331 302 C-332.9453125 302.51171875 -332.9453125 302.51171875 -335.125 302.6875 C-336.40375 302.790625 -337.6825 302.89375 -339 303 C-339 302.34 -339 301.68 -339 301 C-338.443125 300.773125 -337.88625 300.54625 -337.3125 300.3125 C-334.36753316 298.64103234 -332.31843456 296.44723648 -330 294 C-330.33 293.34 -330.66 292.68 -331 292 C-332.25167969 292.31066406 -333.50335938 292.62132812 -334.79296875 292.94140625 C-340.27375414 294.15971573 -345.72205408 294.55053314 -351.3125 294.9375 C-364.89728816 296.03655457 -374.74831589 297.95364147 -386 306 C-399.78580006 315.81188444 -399.78580006 315.81188444 -406.5078125 317.70703125 C-410.6723954 318.96883771 -413.24798276 319.92194478 -415.79296875 323.5703125 C-417.77096013 327.54663451 -419.44358327 331.60295368 -421.0859375 335.7265625 C-424.08529964 342.59744173 -428.02494404 345.69103457 -434.20898438 349.76464844 C-438.70452364 352.86544297 -442.94868596 356.33310164 -447.24902344 359.6965332 C-448.30138184 360.50997192 -448.30138184 360.50997192 -449.375 361.33984375 C-450.00148438 361.82831787 -450.62796875 362.31679199 -451.2734375 362.82006836 C-453 364 -453 364 -456 365 C-453.67334019 362.47293844 -451.33744884 359.954582 -449 357.4375 C-448.35160156 356.73302734 -447.70320312 356.02855469 -447.03515625 355.30273438 C-442.6023817 350.5407934 -437.93343892 346.23414879 -433 342 C-428.31107176 337.94808302 -426.64827072 334.24326892 -424.625 328.5625 C-420.13208475 316.98187651 -420.13208475 316.98187651 -414 314 C-411.36078254 313.01559735 -408.69929572 312.12973421 -406.0234375 311.25 C-402.52533658 309.80375673 -399.56229622 307.87576018 -396.5 305.6875 C-395.67701416 305.0996875 -395.67701416 305.0996875 -394.83740234 304.5 C-393.22203293 303.33735472 -391.61096552 302.16873969 -390 301 C-382.32849458 295.54470725 -375.13732517 292.3388066 -366 290 C-366 289.67 -366 289.34 -366 289 C-368.43681587 288.49645133 -370.87435439 287.99703244 -373.3125 287.5 C-374.00279297 287.35691406 -374.69308594 287.21382812 -375.40429688 287.06640625 C-378.32524773 286.47374956 -381.01108122 286 -384 286 C-383.67 284.35 -383.34 282.7 -383 281 C-381.36417969 281.2165625 -381.36417969 281.2165625 -379.6953125 281.4375 C-374.80549467 282.05639495 -369.90827714 282.55276367 -365 283 C-363.84709473 283.11069824 -363.84709473 283.11069824 -362.67089844 283.22363281 C-349.68294992 284.32718399 -340.42963984 281.05257523 -329 275 C-328.67 276.32 -328.34 277.64 -328 279 C-328.62648438 279.40992188 -329.25296875 279.81984375 -329.8984375 280.2421875 C-331.12433594 281.05042969 -331.12433594 281.05042969 -332.375 281.875 C-333.18710937 282.40867187 -333.99921875 282.94234375 -334.8359375 283.4921875 C-337.07594096 284.95865055 -337.07594096 284.95865055 -339 287 C-327.85980668 286.28892383 -320.1664646 279.0063687 -312 272 C-312.32613281 271.34773438 -312.65226562 270.69546875 -312.98828125 270.0234375 C-314.32552083 267.34895833 -315.66276042 264.67447917 -317 262 C-317.54140625 261.07574219 -318.0828125 260.15148437 -318.640625 259.19921875 C-320.36013081 255.15245076 -320.3931639 251.78059029 -320.4375 247.4375 C-320.97873019 232.92429473 -325.72708412 222.63554666 -334 211 C-334.61359375 210.12988281 -335.2271875 209.25976562 -335.859375 208.36328125 C-341.05724783 201.34138424 -347.15870199 196.2580844 -354.3125 191.3125 C-358.48802274 188.36872821 -361.43930355 185.35315826 -364.625 181.375 C-372.71622631 171.741703 -384.98054494 166.57289178 -396 161 C-396.82918945 160.5771875 -397.65837891 160.154375 -398.51269531 159.71875 C-406.9176934 155.50711111 -414.46181613 152.93421942 -424 153 C-424.90363281 152.97550781 -425.80726563 152.95101562 -426.73828125 152.92578125 C-430.50377757 152.85807523 -434.26074101 152.99496961 -438.02587891 153.00585938 Z M-225 237 C-225.598125 237.86625 -226.19625 238.7325 -226.8125 239.625 C-230.78982282 244.45217812 -236.38978712 246.53278138 -242 249 C-243.19625 249.52980469 -244.3925 250.05960938 -245.625 250.60546875 C-253.9454875 254.16625845 -262.06105312 256.42983059 -271 258 C-271.66 261.3 -272.32 264.6 -273 268 C-272.27820557 267.99476318 -271.55641113 267.98952637 -270.81274414 267.98413086 C-267.56267151 267.96342642 -264.31261272 267.95036082 -261.0625 267.9375 C-259.92619141 267.92912109 -258.78988281 267.92074219 -257.61914062 267.91210938 C-256.53955078 267.90888672 -255.45996094 267.90566406 -254.34765625 267.90234375 C-252.84730835 267.89448853 -252.84730835 267.89448853 -251.31665039 267.88647461 C-249 268 -249 268 -248 269 C-241.90878331 269.42605232 -237.68859941 268.55010204 -232.1875 266 C-231.50042969 265.6918335 -230.81335938 265.38366699 -230.10546875 265.06616211 C-223.8072118 262.12927667 -218.3894045 258.3960185 -213 254 C-214.47181561 249.66498025 -216.7982667 246.28143997 -219.5625 242.6875 C-219.97435547 242.13771484 -220.38621094 241.58792969 -220.81054688 241.02148438 C-221.8449318 239.65866955 -222.91912256 238.32624296 -224 237 C-224.33 237 -224.66 237 -225 237 Z M-178 403 C-178.07476562 403.79535156 -178.14953125 404.59070313 -178.2265625 405.41015625 C-181.73513587 437.57207881 -188.61799416 464.58680315 -207.21386719 491.40576172 C-208.82799729 493.75017758 -210.39802744 496.11504906 -211.9453125 498.50390625 C-217.09734598 506.45795645 -222.27075115 513.91153215 -229.5625 520.0625 C-234.37553184 524.13289607 -238.55680883 528.77061761 -242.81274414 533.40649414 C-248.63840069 539.74741783 -254.40574065 545.76818198 -261.3125 550.9375 C-262.44974964 551.79747548 -263.58646288 552.65816072 -264.72265625 553.51953125 C-265.55434326 554.14722412 -265.55434326 554.14722412 -266.40283203 554.78759766 C-272.82300425 559.66111879 -278.97747818 564.7652847 -284.89453125 570.23828125 C-287 572 -287 572 -289.63671875 573.48046875 C-292.25204095 575.16205608 -292.71863098 576.26530336 -294 579 C-295.8496988 579.97529573 -297.70866971 580.9368674 -299.609375 581.80859375 C-302.28832764 583.1436927 -304.69570377 584.71744549 -307.1875 586.375 C-313.20426285 590.24175113 -319.43937993 593.18683205 -326 596 C-326.89009766 596.38623535 -327.78019531 596.7724707 -328.69726562 597.17041016 C-331.77238548 598.5005055 -334.853836 599.81484348 -337.9375 601.125 C-338.91356201 601.54499268 -339.88962402 601.96498535 -340.89526367 602.39770508 C-352.96651369 607.46100446 -365.15191457 610.44405569 -378.0625 612.4375 C-380.01985721 612.75010609 -381.97721048 613.06273995 -383.93429565 613.37704468 C-385.2737625 613.59205101 -386.61338345 613.80609942 -387.95315552 614.01919556 C-392.61207385 614.76355901 -397.25782414 615.56484301 -401.90234375 616.39453125 C-403.81551392 616.7349646 -403.81551392 616.7349646 -405.76733398 617.08227539 C-408.17271045 617.51256544 -410.57724764 617.94758733 -412.98071289 618.38842773 C-426.24029753 620.73809351 -439.49501781 621.22756824 -452.93041992 621.29516602 C-454.51319317 621.30668358 -456.09592764 621.32713217 -457.6784668 621.35668945 C-474.94475342 621.67660098 -489.35870677 618.12709917 -505.3125 611.5 C-519.3980103 604.3241519 -519.3980103 604.3241519 -534 603 C-533.19175781 603.53109375 -532.38351562 604.0621875 -531.55078125 604.609375 C-530.48214844 605.31578125 -529.41351562 606.0221875 -528.3125 606.75 C-527.25675781 607.44609375 -526.20101562 608.1421875 -525.11328125 608.859375 C-522 611 -522 611 -519.625 612.99609375 C-507.21354148 622.47091253 -490.9094328 626.54734809 -476.07684326 630.45257568 C-473.74448819 631.06734903 -471.41348251 631.68709867 -469.08251953 632.30712891 C-456.73458784 635.58777697 -444.3757156 638.8257134 -432 642 C-431.22446777 642.19901917 -430.44893555 642.39803833 -429.64990234 642.60308838 C-427.46535329 643.16192243 -425.27981387 643.71665598 -423.09375 644.26953125 C-421.24813477 644.73709839 -421.24813477 644.73709839 -419.36523438 645.21411133 C-411.59002351 647.029869 -404.10650098 647.18617851 -396.16235352 647.18530273 C-393.96805848 647.18746982 -391.77428317 647.20560231 -389.58007812 647.22460938 C-377.01649484 647.27574328 -365.57970251 646.21128669 -354 641 C-347.03320449 638.01699094 -339.91481475 635.61839147 -332.70532227 633.29663086 C-300.64457028 624.38785031 -300.64457028 624.38785031 -275 605 C-273.75675328 603.86486169 -272.48575803 602.75928705 -271.1875 601.6875 C-266.80905785 597.94850579 -262.81541912 593.850546 -258.77807617 589.75195312 C-255.95552804 586.90117542 -253.13186686 584.20228292 -250 581.6875 C-226.43257001 561.58586854 -204.45701009 526.93916747 -194 498 C-193.08838434 495.47715665 -192.17347486 492.95598136 -191.25 490.4375 C-191.01394043 489.7875708 -190.77788086 489.1376416 -190.53466797 488.46801758 C-188.68191638 483.49743803 -186.49438131 478.73785421 -184.21557617 473.94946289 C-179.21650091 463.41690022 -175.90367449 453.49388373 -174 442 C-173.81050781 441.03320312 -173.62101562 440.06640625 -173.42578125 439.0703125 C-171.8937574 428.02287447 -171.86162386 415.45984062 -176 405 C-176.66 404.34 -177.32 403.68 -178 403 Z " fill="#F1C643" transform="translate(663,0)"/>
<path d="M0 0 C3.94850071 3.44443679 6.87467865 7.32954022 9.9375 11.5625 C10.64777344 12.53960937 11.35804688 13.51671875 12.08984375 14.5234375 C13.47862314 16.43709012 14.86190853 18.35474846 16.23828125 20.27734375 C18.44609349 23.48925953 18.44609349 23.48925953 21.85766602 24.90966797 C22.62780029 24.95752441 23.39793457 25.00538086 24.19140625 25.0546875 C25.04669922 25.12042969 25.90199219 25.18617188 26.78320312 25.25390625 C28.56666593 25.37442782 30.35052846 25.48920002 32.13476562 25.59765625 C43.60828512 26.5045862 51.09853463 31.25772175 58.9375 39.5625 C67.35662 50.11677827 68.02253274 60.50234153 66.9375 73.5625 C65.32709499 82.26684101 60.55814104 87.98106562 54.9375 94.5625 C53.18200652 96.77163745 51.46405165 99.00862165 49.75 101.25 C49.32460938 101.80373291 48.89921875 102.35746582 48.4609375 102.92797852 C45.53377522 106.74923288 42.69150036 110.61509948 39.9375 114.5625 C38.6175 114.2325 37.2975 113.9025 35.9375 113.5625 C35.710625 114.09875 35.48375 114.635 35.25 115.1875 C30.21162066 124.30456738 22.45198146 128.64557688 13 132.375 C7.07035195 134.80424291 2.98230213 137.65726751 -1.48828125 142.21875 C-8.29564298 148.41665143 -16.48271559 152.52316618 -24.625 156.6875 C-25.61435547 157.19925781 -26.60371094 157.71101562 -27.62304688 158.23828125 C-30.43185854 159.68835124 -33.24612211 161.12719307 -36.0625 162.5625 C-36.82151611 162.95332764 -37.58053223 163.34415527 -38.36254883 163.74682617 C-42.05720916 165.6305924 -45.70516365 167.2477602 -49.625 168.625 C-58.27556776 171.86769226 -66.50244397 176.00384662 -74.8046875 180.0390625 C-78.84877794 182.00005129 -82.92249445 183.81543883 -87.0625 185.5625 C-87.64862061 185.90684082 -88.23474121 186.25118164 -88.83862305 186.60595703 C-91.8240153 187.89004605 -94.45597213 187.97809083 -97.69921875 188.15625 C-98.35371506 188.19254517 -99.00821136 188.22884033 -99.68254089 188.26623535 C-101.80879486 188.37780323 -103.93523433 188.47238853 -106.0625 188.5625 C-107.117789 188.60987305 -107.117789 188.60987305 -108.19439697 188.65820312 C-135.79186722 189.84197506 -158.4308159 186.81548792 -183.7800293 175.05639648 C-190.84756199 171.85084278 -197.62927391 170.12826697 -205.25244141 168.82080078 C-220.42904027 166.19924789 -229.4979561 159.257879 -239.0625 147.5625 C-239.866875 146.655 -240.67125 145.7475 -241.5 144.8125 C-244.08795838 139.42954658 -244.4624127 135.40667705 -243.0625 129.5625 C-237.50725483 117.12514534 -228.8755919 105.8655245 -220.0625 95.5625 C-219.14404297 94.43908203 -219.14404297 94.43908203 -218.20703125 93.29296875 C-211.78450759 86.04665346 -201.65144037 83.67002442 -192.25 83.0625 C-186.92070655 83.10221158 -184.4269369 85.03811853 -180.71484375 88.69140625 C-179.0625 90.5625 -179.0625 90.5625 -177.25 93.1875 C-170.96464764 100.01159685 -160.02128479 101.88427055 -151.3125 103.875 C-150.22839844 104.13861328 -149.14429688 104.40222656 -148.02734375 104.67382812 C-140.20770323 106.51177782 -133.70480419 107.83777323 -126.0625 104.5625 C-125.7325 103.9025 -125.4025 103.2425 -125.0625 102.5625 C-121.34650809 102.36163557 -120.29041555 102.4105563 -117.0625 104.5625 C-114.41531732 104.65153081 -111.94344065 104.61474232 -109.3125 104.4375 C-108.5589624 104.39109375 -107.8054248 104.3446875 -107.02905273 104.296875 C-100.55254786 103.79737719 -94.70123162 102.32215804 -88.46875 100.484375 C-84.01835646 99.27991069 -79.65736698 98.77872903 -75.0625 98.5625 C-74.9078125 97.386875 -74.9078125 97.386875 -74.75 96.1875 C-74.0625 93.5625 -74.0625 93.5625 -71.0625 91.5625 C-66.87653315 91.65349928 -65.35150103 92.30491212 -62.1875 95.125 C-61.48625 95.929375 -60.785 96.73375 -60.0625 97.5625 C-59.32 96.44875 -59.32 96.44875 -58.5625 95.3125 C-52.77071185 88.94153304 -45.63688637 87.86197614 -37.52246094 86.60107422 C-33.35904017 86.01869348 -33.35904017 86.01869348 -30.0625 83.5625 C-27.5085422 83.05774821 -24.95830836 82.73712749 -22.375 82.41796875 C-19.85810917 81.78199276 -19.85810917 81.78199276 -18.90625 79.328125 C-18.6278125 78.41546875 -18.349375 77.5028125 -18.0625 76.5625 C-17.23760477 74.74614416 -16.4040042 72.93372092 -15.5625 71.125 C-13.82125553 67.32405337 -12.25623656 63.5777957 -11.0625 59.5625 C-14.0325 58.9025 -17.0025 58.2425 -20.0625 57.5625 C-16.73942308 52.7625 -16.73942308 52.7625 -13.3125 51.75 C-12.57 51.688125 -11.8275 51.62625 -11.0625 51.5625 C-12.99714686 45.75855943 -15.78609542 42.66362857 -20.19140625 38.4765625 C-24.89299465 33.66700443 -25.87475347 28.33176128 -26.3125 21.875 C-26.16882514 14.26023237 -23.96916862 7.44615274 -18.66015625 1.90234375 C-13.4403347 -2.47515941 -5.97591331 -2.80502054 0 0 Z M-15.1875 13.36328125 C-16.30346207 16.16813235 -16.36359736 18.48590326 -16.375 21.5 C-16.40013672 23.02947266 -16.40013672 23.02947266 -16.42578125 24.58984375 C-15.75964628 30.04069015 -12.47158025 33.42465776 -8.875 37.375 C-8.15957031 38.16519531 -7.44414062 38.95539063 -6.70703125 39.76953125 C-6.16433594 40.36121094 -5.62164062 40.95289063 -5.0625 41.5625 C-4.27875 41.294375 -3.495 41.02625 -2.6875 40.75 C-1.49125 40.358125 -0.295 39.96625 0.9375 39.5625 C1.7109375 39.28664063 2.484375 39.01078125 3.28125 38.7265625 C10.13111684 36.42213199 15.14545997 35.70682084 21.875 39 C23.9375 40.5625 23.9375 40.5625 24.9375 42.5625 C25.38194444 47.78472222 25.38194444 47.78472222 23.9375 50.3125 C18.17867253 53.91176717 10.37163737 54.16445707 3.79296875 55.09765625 C0.87473404 55.49470596 0.87473404 55.49470596 -2.0625 56.5625 C-2.7225 60.1925 -3.3825 63.8225 -4.0625 67.5625 C-2.5775 67.2325 -1.0925 66.9025 0.4375 66.5625 C8.02076019 64.87733107 15.32356072 65.58601559 22.9375 66.5625 C23.71222656 66.65789062 24.48695313 66.75328125 25.28515625 66.8515625 C27.16980746 67.08423549 29.05373622 67.32274825 30.9375 67.5625 C31.10185547 66.65757812 31.10185547 66.65757812 31.26953125 65.734375 C32.84435413 57.79624341 32.84435413 57.79624341 35.9375 54.5625 C42.32203501 54.93083856 42.32203501 54.93083856 45.3125 58 C48.21349546 62.57464668 48.02412254 65.19190222 47.9375 70.5625 C44.7625906 72.4703584 42.83164789 72.7234041 39.1875 72.1875 C37.98867188 72.02121094 37.98867188 72.02121094 36.765625 71.8515625 C36.16234375 71.75617188 35.5590625 71.66078125 34.9375 71.5625 C34.69966797 72.46742188 34.69966797 72.46742188 34.45703125 73.390625 C33.34546181 77.19821092 32.3673669 80.04413109 29.8125 83.125 C24.89194314 85.58527843 20.51207969 85.38116278 15.30859375 83.7265625 C12.81554764 82.73826106 10.37940301 81.6702507 7.9375 80.5625 C2.57529771 78.20380975 -2.28007834 77.09520064 -8.0625 78.5625 C-11.63985518 81.48990734 -14.30895707 84.87093695 -17.0625 88.5625 C-17.7225 89.2225 -18.3825 89.8825 -19.0625 90.5625 C-18.39863281 91.15417969 -17.73476563 91.74585938 -17.05078125 92.35546875 C-3.21303268 104.73873863 -3.21303268 104.73873863 -2.859375 109.0234375 C-2.83617187 110.46589844 -2.83617187 110.46589844 -2.8125 111.9375 C-2.77382813 113.37222656 -2.77382813 113.37222656 -2.734375 114.8359375 C-3.1147637 117.99678645 -3.85401739 119.30241733 -6.0625 121.5625 C-9.64253773 122.75584591 -12.30565896 122.89793224 -16.0625 122.5625 C-19.54856511 119.29327148 -19.80384414 115.26019974 -20.4375 110.75 C-21.44744836 104.51134052 -22.65087429 100.20036293 -27.0625 95.5625 C-32.14686641 93.02031679 -40.04264753 93.92822302 -45.375 95.5625 C-49.35099583 97.29011565 -51.76469393 100.18006953 -54.421875 103.52734375 C-56.17034144 105.69627474 -58.06586328 107.62228997 -60.0625 109.5625 C-59.74498779 110.10140869 -59.42747559 110.64031738 -59.1003418 111.19555664 C-57.64596607 113.66956037 -56.19795169 116.14723147 -54.75 118.625 C-54.25048828 119.47255859 -53.75097656 120.32011719 -53.23632812 121.19335938 C-45.10122467 135.14694743 -45.10122467 135.14694743 -46.0625 142.5625 C-47.5625 145.5 -47.5625 145.5 -50.0625 147.5625 C-55.08655985 148.38611637 -57.80732855 148.08613705 -62 145.1875 C-63.95266147 143.66629221 -64.94825176 142.79099647 -66.0625 140.5625 C-66.32768302 135.87760001 -65.77810614 132.85151534 -64.0625 128.5625 C-63.58093785 122.93510229 -64.81503386 119.06820088 -67.4375 114.1875 C-67.75460937 113.55972656 -68.07171875 112.93195313 -68.3984375 112.28515625 C-70.07296774 108.80879981 -70.07296774 108.80879981 -73.0625 106.5625 C-80.50061435 105.60728953 -87.04237073 107.49746284 -94.14453125 109.5390625 C-100.01666576 111.15865649 -106.02034679 111.85494431 -112.0625 112.5625 C-110.61736702 118.2137924 -109.02177839 123.75001492 -107.06152344 129.24707031 C-104.84999688 135.49785731 -103.26822924 140.86793218 -104.0625 147.5625 C-106.75351234 150.25351234 -108.25325946 149.86137549 -112 149.875 C-113.06089844 149.89175781 -114.12179688 149.90851563 -115.21484375 149.92578125 C-118.0625 149.5625 -118.0625 149.5625 -119.91796875 148.34375 C-122.18915205 144.80907565 -121.56327387 140.59404659 -121.0625 136.5625 C-120.546875 135.551875 -120.03125 134.54125 -119.5 133.5 C-117.46970767 129.35114176 -117.82569138 125.95553608 -119.0625 121.5625 C-120.31025242 118.84954984 -121.66335582 116.20014437 -123.0625 113.5625 C-124.17625 113.60890625 -125.29 113.6553125 -126.4375 113.703125 C-135.38242827 113.95460865 -143.33232181 113.49383314 -151.93359375 110.89746094 C-155.4438803 109.85133692 -157.57214498 109.49660876 -161.0625 110.5625 C-160.87300781 111.76519531 -160.68351562 112.96789062 -160.48828125 114.20703125 C-159.78032835 120.63142093 -160.53001981 126.85365426 -161.25 133.25 C-161.36408203 134.44689453 -161.47816406 135.64378906 -161.59570312 136.87695312 C-162.79851921 147.84883385 -162.79851921 147.84883385 -167.0625 152.5625 C-170.84932207 155.08704805 -173.61684918 155.18433425 -178.0625 154.5625 C-180.64198607 152.73189698 -181.83661033 150.80489319 -182.40625 147.671875 C-183.02652062 138.3057887 -178.3357227 130.62802098 -173.37890625 122.95703125 C-171.94858755 120.35529427 -171.55160169 118.50529009 -171.3125 115.5625 C-171.23515625 114.7375 -171.1578125 113.9125 -171.078125 113.0625 C-171.06103555 110.32818769 -171.19785782 108.16516031 -172.0625 105.5625 C-173.88594064 104.20357613 -173.88594064 104.20357613 -176.1875 103.3125 C-180.2320565 101.34109667 -182.02687732 99.46726275 -184.4375 95.6875 C-186.82485998 92.31271741 -186.82485998 92.31271741 -190.625 91.1015625 C-193.55227217 91.32110791 -196.21647625 91.85200329 -199.0625 92.5625 C-199.81660156 92.665625 -200.57070312 92.76875 -201.34765625 92.875 C-212.14137093 95.06900371 -219.79457814 107.76063484 -225.5 116.375 C-226.31169666 117.64171937 -227.11917323 118.91115542 -227.921875 120.18359375 C-229.16769275 122.15007614 -230.45241378 124.09474957 -231.828125 125.97265625 C-234.89308095 130.2080212 -235.49344272 133.02485188 -234.77807617 138.1953125 C-233.45056525 142.58683275 -230.41186834 145.30986955 -227.125 148.375 C-226.43623779 149.03153564 -225.74747559 149.68807129 -225.0378418 150.36450195 C-218.59519066 156.31220296 -213.41499165 158.81323876 -204.8125 160.30859375 C-203.16624069 160.59915927 -201.52042607 160.8922525 -199.875 161.1875 C-198.58517212 161.41638916 -198.58517212 161.41638916 -197.26928711 161.64990234 C-190.34693818 163.00851187 -184.31790049 165.40815228 -177.9375 168.375 C-169.53565822 172.26697682 -161.20138345 175.24021682 -152.25 177.625 C-151.18313965 177.91157471 -150.1162793 178.19814941 -149.01708984 178.4934082 C-139.70079958 180.87348772 -128.5175263 183.45837329 -119.0625 180.5625 C-116.82465229 178.70374124 -115.20612427 176.82284243 -113.5 174.47265625 C-112.0625 172.5625 -112.0625 172.5625 -109.0625 170.5625 C-108.98184883 174.11115136 -109.11935873 177.14639775 -110.0625 180.5625 C-107.43437553 180.52896245 -104.81402324 180.46122425 -102.1875 180.375 C-101.46046875 180.36919922 -100.7334375 180.36339844 -99.984375 180.35742188 C-94.50315925 180.1410581 -90.6606651 178.64661203 -85.86132812 176.0534668 C-80.90819222 173.41487634 -75.75251236 171.19733992 -70.63208008 168.90576172 C-68.7613126 168.06756859 -66.89330674 167.22343104 -65.02539062 166.37890625 C-59.22329011 163.76980736 -53.41104925 161.27845483 -47.4453125 159.05859375 C-40.78938498 156.54403073 -34.54142376 153.43525681 -28.25 150.125 C-27.18330078 149.57779297 -26.11660156 149.03058594 -25.01757812 148.46679688 C-17.40055931 144.49126822 -10.5341503 140.35254093 -4.6875 134 C0.00148567 129.1734143 5.85792278 126.92539383 11.9296875 124.23828125 C22.08047509 119.52449312 28.18826183 112.63442648 35.328125 104.25 C36.9375 102.5625 36.9375 102.5625 39.875 100.75 C44.7200343 97.28926121 47.62272548 92.44882101 50.9375 87.5625 C51.52273438 86.71171875 52.10796875 85.8609375 52.7109375 84.984375 C58.56958468 76.35358744 60.96005301 69.17876633 59.69921875 58.5546875 C57.96607658 49.62637933 51.21518413 42.63401001 43.9375 37.5625 C37.72946981 34.28437187 31.17317667 34.15470678 24.26953125 33.96875 C19.2003462 33.35070165 15.23083443 31.49680734 12 27.5 C11.25943359 26.58541016 11.25943359 26.58541016 10.50390625 25.65234375 C8.75949993 23.32501861 7.09341475 20.95356812 5.4375 18.5625 C0.6475462 10.69030725 0.6475462 10.69030725 -6.625 5.8125 C-10.66439333 7.05539026 -12.98638296 9.83996544 -15.1875 13.36328125 Z M2.9375 44.5625 C0.17509708 46.55272146 0.17509708 46.55272146 -2.0625 48.5625 C0.89720455 48.28147755 3.854788 47.9882082 6.8125 47.6875 C7.65425781 47.60886719 8.49601563 47.53023438 9.36328125 47.44921875 C10.16894531 47.36542969 10.97460938 47.28164063 11.8046875 47.1953125 C12.92012939 47.08533936 12.92012939 47.08533936 14.05810547 46.97314453 C16.17132504 46.68858718 16.17132504 46.68858718 17.9375 44.5625 C13.04637041 41.62782224 8.06922682 42.71828567 2.9375 44.5625 Z M37.9375 60.5625 C38.2675 62.2125 38.5975 63.8625 38.9375 65.5625 C39.9275 65.2325 40.9175 64.9025 41.9375 64.5625 C40.6175 63.2425 39.2975 61.9225 37.9375 60.5625 Z M8.9375 72.5625 C13.74115177 76.47658663 17.70019672 77.97832022 23.9375 77.5625 C24.5975 77.2325 25.2575 76.9025 25.9375 76.5625 C25.9375 75.9025 25.9375 75.2425 25.9375 74.5625 C20.12983704 73.0568096 14.9393137 72.34425223 8.9375 72.5625 Z M-65.0625 99.5625 C-65.0625 100.2225 -65.0625 100.8825 -65.0625 101.5625 C-64.0725 101.2325 -63.0825 100.9025 -62.0625 100.5625 C-63.0525 100.2325 -64.0425 99.9025 -65.0625 99.5625 Z M-13.0625 106.5625 C-12.7325 109.5325 -12.4025 112.5025 -12.0625 115.5625 C-11.4025 115.2325 -10.7425 114.9025 -10.0625 114.5625 C-10.31811323 112.2193787 -10.65520772 109.88406597 -11.0625 107.5625 C-11.7225 107.2325 -12.3825 106.9025 -13.0625 106.5625 Z M-170.0625 129.5625 C-171.07491247 131.45173398 -172.07197425 133.34919944 -173.0625 135.25 C-173.619375 136.30574219 -174.17625 137.36148438 -174.75 138.44921875 C-176.0297274 141.48476262 -176.35101043 143.32276826 -176.0625 146.5625 C-174.7425 146.5625 -173.4225 146.5625 -172.0625 146.5625 C-169.91190691 143.03063168 -169.6827272 139.89962007 -169.4375 135.8125 C-169.36273438 134.64203125 -169.28796875 133.4715625 -169.2109375 132.265625 C-169.16195312 131.37359375 -169.11296875 130.4815625 -169.0625 129.5625 C-169.3925 129.5625 -169.7225 129.5625 -170.0625 129.5625 Z M-58.0625 131.5625 C-58.7225 133.5425 -59.3825 135.5225 -60.0625 137.5625 C-57.0925 139.5425 -57.0925 139.5425 -54.0625 141.5625 C-52.67054085 137.38662255 -54.23926781 135.42775224 -56.0625 131.5625 C-56.7225 131.5625 -57.3825 131.5625 -58.0625 131.5625 Z M-113.0625 137.5625 C-113.7225 138.8825 -114.3825 140.2025 -115.0625 141.5625 C-113.7425 141.8925 -112.4225 142.2225 -111.0625 142.5625 C-111.3925 140.9125 -111.7225 139.2625 -112.0625 137.5625 C-112.3925 137.5625 -112.7225 137.5625 -113.0625 137.5625 Z " fill="#F1C743" transform="translate(369.0625,388.4375)"/>
<path d="M0 0 C7.69942379 6.3334718 16.17756916 14.36114479 18.875 24.1875 C18.91625 25.445625 18.9575 26.70375 19 28 C19.04898438 29.07765625 19.09796875 30.1553125 19.1484375 31.265625 C19.34073167 38.21779877 19.36338863 43.83378751 16 50 C11.04112245 55.07808134 5.86213031 56.61504654 -0.875 58.5 C-9.9667302 61.06433416 -17.53273031 63.99894482 -24.1875 70.9375 C-25.10595703 71.87916016 -25.10595703 71.87916016 -26.04296875 72.83984375 C-28.1117574 75.03109405 -28.1117574 75.03109405 -29.98828125 77.85546875 C-34.53006417 83.35869515 -41.99851785 85.91365786 -48.2734375 88.96875 C-55.01300401 92.41341733 -58.70581766 95.19157176 -62 102 C-62.69838583 103.13671399 -63.40893368 104.26606675 -64.1328125 105.38671875 C-70.74609063 116.3440129 -72.75592625 126.6654894 -74.390625 139.3203125 C-75.06197464 143.37423146 -76.09439492 147.23259158 -77.1875 151.1875 C-79.25068441 158.8216478 -78.97782243 165.03951396 -77.46484375 172.71484375 C-76.86270519 176.97029355 -76.77685116 181.14467126 -76.75 185.4375 C-76.7190625 186.66823242 -76.7190625 186.66823242 -76.6875 187.92382812 C-76.62604588 197.54907953 -80.3640554 203.24340186 -87 210 C-94.54624274 217.56282789 -103.7249378 223.07580949 -113.375 227.5625 C-116.57281029 229.10275312 -118.78927608 230.57677522 -121.1875 233.1875 C-124.5560305 236.82872106 -128.35228942 239.54048219 -132.4375 242.3125 C-133.05842529 242.74522217 -133.67935059 243.17794434 -134.3190918 243.6237793 C-142.7820063 249.24983886 -150.73274639 249.31484535 -160.625 248.9375 C-161.73101562 248.92267578 -162.83703125 248.90785156 -163.9765625 248.89257812 C-173.00682702 248.57239447 -173.00682702 248.57239447 -176.61328125 245.734375 C-178.7615405 243.2731942 -180.23563791 241.27468289 -181.5625 238.3125 C-181.96984375 237.43980469 -182.3771875 236.56710937 -182.796875 235.66796875 C-183.19390625 234.78753906 -183.5909375 233.90710938 -184 233 C-186.53745119 227.55143186 -189.18146929 222.73868709 -192.8125 217.9375 C-201.93302357 204.53309414 -205.28848976 187.12233963 -207.34765625 171.27734375 C-207.90766913 167.16414573 -208.97350138 163.40714945 -210.1875 159.4375 C-213.69456234 146.91998519 -213.41415536 132.27350516 -209 120 C-207.37345632 117.23910553 -205.59864856 114.75266284 -203.640625 112.21875 C-200.69223716 108.23140645 -199.41174049 104.04718521 -198.44140625 99.22265625 C-196.9852735 92.19523298 -194.73703514 87.61687105 -190.3125 81.98046875 C-187.68085372 78.58866788 -185.30260896 75.08001296 -182.9375 71.5 C-182.51082031 70.85933594 -182.08414063 70.21867187 -181.64453125 69.55859375 C-179.16111674 65.81436879 -176.78036093 62.02176546 -174.4375 58.1875 C-168.79740903 49.34874632 -161.93463117 42.7391208 -153.65283203 36.45922852 C-148.77197753 32.71828048 -144.27258753 28.66836285 -139.8125 24.4375 C-139.13823975 23.79876953 -138.46397949 23.16003906 -137.76928711 22.50195312 C-135.29162487 20.14740266 -132.82021792 17.78641706 -130.35302734 15.42089844 C-116.73554163 2.41665625 -101.8580655 -0.31861139 -83.98217773 -4.70947266 C-77.94340572 -6.20978278 -71.98469053 -7.84105234 -66.0625 -9.75 C-44.63327138 -16.64192358 -18.7641407 -13.39214881 0 0 Z M-76.23339844 0.71459961 C-83.5023265 2.95362629 -90.85171336 4.63079949 -98.31542969 6.08764648 C-106.68128205 7.83013941 -114.44651736 10.93426908 -120.6875 16.9375 C-121.92886719 18.10345703 -121.92886719 18.10345703 -123.1953125 19.29296875 C-124.12085937 20.18628906 -125.04640625 21.07960938 -126 22 C-135.6401739 31.29030556 -145.5253504 39.77666057 -156.33691406 47.68823242 C-158.0419352 49.03307661 -159.56600684 50.36750854 -161 52 C-161 52.66 -161 53.32 -161 54 C-160.2575 54.53625 -159.515 55.0725 -158.75 55.625 C-154.5862725 59.22094648 -152.20986028 63.48167664 -151.75 69 C-151.8325 69.66 -151.915 70.32 -152 71 C-154.79953012 72.90368048 -156.15773599 72.99184124 -159.625 72.8125 C-163 72 -163 72 -165 69 C-161.535 68.01 -161.535 68.01 -158 67 C-158.99 65.02 -159.98 63.04 -161 61 C-163.77925055 60.41336509 -163.77925055 60.41336509 -167 61 C-169.06840723 63.33199736 -170.57499042 65.37805279 -172.1875 68 C-173.139163 69.48010771 -174.09233129 70.95924847 -175.046875 72.4375 C-175.53091797 73.19804687 -176.01496094 73.95859375 -176.51367188 74.7421875 C-177.9430607 76.91350613 -179.44840833 78.98913942 -181.015625 81.0625 C-186.9859614 89.04268192 -190.21506432 95.73134367 -192.1796875 105.4921875 C-193.51959864 111.22190276 -196.46087383 115.04433489 -200.03515625 119.5859375 C-202.57550861 123.99998911 -203.26297226 127.99751507 -203.9375 133 C-204.06664795 133.92466064 -204.1957959 134.84932129 -204.32885742 135.80200195 C-205.26261374 143.63317747 -204.8363694 150.53282341 -202 158 C-201.34 158.66 -200.68 159.32 -200 160 C-199.6596875 159.52949219 -199.319375 159.05898438 -198.96875 158.57421875 C-195.28057866 153.83648801 -191.97445968 151.15170307 -186 150 C-181.85318383 150 -180.17343345 150.88546848 -176.6875 153.1875 C-174 156 -174 156 -172.875 159 C-173 162 -173 162 -174.4375 164.6875 C-179.56799741 169.31746108 -185.05283955 170.32416277 -191.82421875 170.3984375 C-194.65918462 169.87928756 -196.61594578 168.57823555 -199 167 C-197.76185645 184.40981439 -193.93736386 202.18289993 -183.07421875 216.14453125 C-180.30447272 219.95749612 -178.73454613 223.94586565 -177.05859375 228.32421875 C-175.5976198 232.01708649 -173.84313357 236.15686643 -171 239 C-161.97728346 240.65723365 -148.98186503 242.4398592 -140.84765625 237.3984375 C-137.67201061 234.9948833 -134.55593285 232.52973419 -131.4765625 230.00390625 C-125.91467246 225.50351258 -120.08014694 222.01012182 -113.71289062 218.7824707 C-107.19234006 215.4655254 -101.6073799 212.48136449 -96.70703125 206.90625 C-94.83475556 204.81547074 -92.80412742 203.1399771 -90.625 201.375 C-86.50799587 197.77463953 -85.21786586 195.08478255 -84.828125 189.56640625 C-84.63769191 182.85363997 -85.58173765 176.54680032 -87 170 C-87.99 170 -88.98 170 -90 170 C-90 170.66 -90 171.32 -90 172 C-92.37548002 173.1906727 -94.75473611 174.37313853 -97.13671875 175.55078125 C-105.46637832 179.68353864 -113.64550056 183.92838094 -121.5625 188.8125 C-126.63609309 191.90285184 -131.91787361 194.49826174 -137.29125977 197.02075195 C-141.79737183 199.19329195 -145.21986829 201.72748598 -149 205 C-156.03221864 208.64168465 -163.17597749 208.74193317 -171 208 C-173.36328125 207.21484375 -173.36328125 207.21484375 -175 206 C-176.14183054 201.43267782 -176.40255035 199.12290361 -174.8125 194.6875 C-171.99329357 190.50729736 -168.92410165 188.76283742 -164.19140625 187.2109375 C-163.27939453 186.90929687 -162.36738281 186.60765625 -161.42773438 186.296875 C-160.48220703 185.99265625 -159.53667969 185.6884375 -158.5625 185.375 C-157.15000977 184.90707031 -157.15000977 184.90707031 -155.70898438 184.4296875 C-149.2184805 182.30435666 -143.40951059 180.96454667 -136.5625 180.6875 C-128.96743516 180.18646431 -122.22586178 178.27865905 -115 176 C-114.06929688 175.77441406 -113.13859375 175.54882812 -112.1796875 175.31640625 C-106.49428548 173.91678893 -103.20196789 171.8386329 -99.0234375 167.75390625 C-96.24602793 165.3464605 -93.16828135 164.01581345 -89.78515625 162.62890625 C-86.85385145 159.9541708 -87.24744946 156.8609972 -87 153 C-88.02738281 153.5053125 -89.05476563 154.010625 -90.11328125 154.53125 C-97.54505323 158.05889318 -103.63290554 160.87673842 -112.05859375 160.1484375 C-112.69925781 160.09945312 -113.33992188 160.05046875 -114 160 C-114.33 160.33 -114.66 160.66 -115 161 C-117.5751945 161.12772014 -120.11173199 161.18521854 -122.6875 161.1875 C-123.39583984 161.19974609 -124.10417969 161.21199219 -124.83398438 161.22460938 C-128.22012684 161.23398927 -130.72825413 161.09669264 -133.953125 159.94921875 C-138.14705684 158.64264768 -141.74106906 159.19826681 -146.0625 159.625 C-154.26457513 160.24088789 -161.57470261 160.04605246 -169 156 C-171.3558981 153.60450697 -172.80074292 152.00135127 -173.4609375 148.68359375 C-173.41839844 147.57177734 -173.41839844 147.57177734 -173.375 146.4375 C-173.35566406 145.32181641 -173.35566406 145.32181641 -173.3359375 144.18359375 C-172.95308509 141.69505309 -172.39440449 140.1004883 -171 138 C-165.99469596 134.39205773 -158.83246112 135.57104841 -153 136 C-149.82903965 136.69127828 -146.94934293 137.65490218 -144 139 C-143.28199219 139.31195313 -142.56398437 139.62390625 -141.82421875 139.9453125 C-139.2609115 141.42731027 -139.01637114 143.28967697 -138 146 C-134.68629 148.20914 -133.6553979 148.22481553 -129.8125 148.125 C-128.91144531 148.10695313 -128.01039063 148.08890625 -127.08203125 148.0703125 C-126.39496094 148.04710937 -125.70789063 148.02390625 -125 148 C-125 149.32 -125 150.64 -125 152 C-113.72479925 154.14765729 -104.22229786 153.93881545 -93.9375 148.5078125 C-91.01233987 147.00633403 -88.12271437 146.00762004 -85 145 C-82.06666641 142.06666641 -82.11135909 134.6464416 -81.375 130.6875 C-81.13265625 129.43775391 -80.8903125 128.18800781 -80.640625 126.90039062 C-80.41632813 125.69962891 -80.19203125 124.49886719 -79.9609375 123.26171875 C-79.75259277 122.15787842 -79.54424805 121.05403809 -79.32958984 119.91674805 C-79.01961849 117.17361637 -78.94530701 115.52960961 -80 113 C-81.35470475 112.05170667 -82.71965284 111.11515318 -84.12890625 110.25 C-89.58082241 106.60780132 -94.32844799 101.91589448 -98.5625 96.9375 C-104.51085967 89.98873438 -111.25941593 84.98892465 -118.98852539 80.19555664 C-126.07873086 75.79038764 -130.97912385 71.91592853 -134 64 C-134.64635183 60.51487092 -134.77492526 57.46900137 -134 54 C-130.77804704 49.84537644 -128.54287919 48.21281092 -123.375 47.5 C-118.64690294 47.59439032 -116.1217489 49.5338768 -112.80859375 52.76953125 C-108.77463165 57.74446076 -106.86674857 63.68450742 -104.64453125 69.62109375 C-101.75836443 77.22865302 -98.55248856 83.73745041 -93.79296875 90.42578125 C-92.34654349 92.50245717 -91.25424867 94.41350406 -90.1875 96.6875 C-86.77006423 101.86247417 -81.9009608 105.2735798 -77 109 C-72.84741755 105.11179809 -72.84741755 105.11179809 -70.1875 100.1875 C-69.795625 99.135625 -69.40375 98.08375 -69 97 C-70.65 95.68 -72.3 94.36 -74 93 C-73.030625 92.95875 -72.06125 92.9175 -71.0625 92.875 C-66.8421058 92.25533895 -64.19810785 90.31475975 -60.78125 87.86328125 C-57.98297748 85.98859587 -55.1305328 84.40643544 -52.1652832 82.81787109 C-43.08365112 77.93595346 -35.4837763 72.46199784 -29 64.3125 C-21.95484792 55.98467077 -11.87790625 53.43487654 -1.75585938 50.53515625 C5.41107424 48.59605077 5.41107424 48.59605077 11 44 C11.26750592 41.13122959 11.26107637 38.99096571 10.9375 36.1875 C10.85725586 35.15786133 10.85725586 35.15786133 10.77539062 34.10742188 C10.06796957 26.23643185 8.34786246 20.6030162 2.6875 14.875 C2.21376953 14.37613281 1.74003906 13.87726563 1.25195312 13.36328125 C0.30648082 12.3725401 -0.64717078 11.38953526 -1.60913086 10.41479492 C-2.93745913 9.0636167 -4.23145934 7.67894532 -5.5234375 6.29296875 C-12.52535912 -0.18988297 -23.16192722 -2.07732908 -32.265625 -4.13671875 C-36 -5 -36 -5 -38.609375 -5.83203125 C-50.43916969 -9.31978106 -64.90908712 -2.82897913 -76.23339844 0.71459961 Z M-125.0625 56 C-125.701875 56.66 -126.34125 57.32 -127 58 C-125.77662097 63.99455726 -123.61886482 67.92339185 -119 72 C-116.09512605 73.88129683 -113.11596028 75.49741471 -110 77 C-111.43829717 68.89323412 -113.65032903 61.1974132 -119.75 55.375 C-122.62028922 53.44688366 -122.62028922 53.44688366 -125.0625 56 Z M-164 143 C-164.66 144.65 -165.32 146.3 -166 148 C-161.21925452 152.00548945 -158.27544014 153.14910111 -152.0625 153.1875 C-150.50208984 153.20876953 -150.50208984 153.20876953 -148.91015625 153.23046875 C-146.04953387 153.00392282 -144.42329849 152.47733619 -142 151 C-144.42444892 147.70967646 -146.15690233 145.45414506 -150 144 C-152.40837755 143.71121265 -154.82810468 143.50954974 -157.25 143.375 C-159.14492187 143.26285156 -159.14492187 143.26285156 -161.078125 143.1484375 C-162.04234375 143.09945312 -163.0065625 143.05046875 -164 143 Z M-193 159 C-192.34 160.32 -191.68 161.64 -191 163 C-186.94393835 162.53199289 -183.53411321 162.12046792 -180 160 C-182.66955527 156.82772842 -182.66955527 156.82772842 -186.5 155.5625 C-189.39843626 156.06972634 -190.82182537 157.06384477 -193 159 Z M-148.25 189.25 C-148.90315186 189.47598877 -149.55630371 189.70197754 -150.22924805 189.93481445 C-159.83072968 192.75564497 -159.83072968 192.75564497 -168 198 C-168 198.99 -168 199.98 -168 201 C-163.06901492 202.59064035 -158.7280747 201.86346066 -154 200 C-151.10128547 198.12387608 -148.39324386 196.09071707 -145.6640625 193.9765625 C-142.26982746 191.45825909 -138.84095121 189.73929866 -135 188 C-135 187.67 -135 187.34 -135 187 C-139.90606849 186.72911278 -143.62346853 187.6432966 -148.25 189.25 Z " fill="#F1C643" transform="translate(251,228)"/>
<path d="M0 0 C2 2 2 2 2.4375 4.375 C2 7 2 7 -0.07421875 8.92578125 C-5.92942009 13.07679849 -12.52633855 15.94761438 -19 19 C-19.6604834 19.31936523 -20.3209668 19.63873047 -21.00146484 19.96777344 C-33.82317625 26.0941665 -47.05144966 28.66640223 -61 31 C-62.07088867 31.18691406 -63.14177734 31.37382812 -64.24511719 31.56640625 C-83.06492542 34.80397928 -101.81169913 35.90116286 -120.85821533 36.70031738 C-124.84956059 36.8752909 -128.81402293 37.13262976 -132.7890625 37.53125 C-150.68844685 39.29410687 -168.21200089 38.35656683 -185.73632812 34.44970703 C-187.98611836 34.00275776 -190.20350388 33.72920165 -192.484375 33.49609375 C-196 33 -196 33 -198 31 C-197.9375 28.5 -197.9375 28.5 -197 26 C-193.00164843 23.45559445 -188.5861609 23.50965575 -184 24 C-181.95579638 24.46822541 -179.91449445 24.94917034 -177.875 25.4375 C-161.10672744 28.95883724 -142.98194526 28.89074357 -126.01708984 26.82226562 C-121.10577514 26.23881762 -116.29214681 25.92809565 -111.34375 25.88671875 C-96.70115505 25.76091645 -82.98439333 24.48451737 -68.625 21.6875 C-67.85961914 21.5387442 -67.09423828 21.3899884 -66.30566406 21.23672485 C-61.18753213 20.22863093 -56.09016823 19.14044218 -51 18 C-49.94384995 17.76630707 -49.94384995 17.76630707 -48.86636353 17.52789307 C-39.96134986 15.5313154 -31.69140799 12.97343492 -23.4375 9 C-22.51904297 8.57460938 -21.60058594 8.14921875 -20.65429688 7.7109375 C-16.69019142 5.85551987 -12.82111994 3.94234674 -9.0546875 1.7109375 C-5.67674823 -0.18105406 -3.8090598 -0.53149672 0 0 Z " fill="#F1C744" transform="translate(698,452)"/>
<path d="M0 0 C11.6607629 5.28654977 20.1985732 19.63731111 27 30 C27.36125977 30.54108398 27.72251953 31.08216797 28.09472656 31.63964844 C34.31147489 41.04045763 38.15928724 50.12221407 41 61 C41.34829584 62.29575117 41.69724675 63.59132646 42.046875 64.88671875 C42.7139789 67.38322681 43.37309106 69.88188675 44.0234375 72.3828125 C45.26982374 76.99942713 46.69821577 81.54786315 48.16796875 86.09765625 C50.77752586 95.20047753 50.39601301 103.24383139 48.25 112.3125 C48.09313721 113.00649902 47.93627441 113.70049805 47.7746582 114.41552734 C46.70388285 118.64419126 45.53524543 121.36389214 42 124 C39.3125 123.875 39.3125 123.875 37 123 C34.65095068 118.30190136 36.82841015 111.44896788 38.125 106.5625 C40.31050135 97.15063845 37.3722239 87.76793663 34.6875 78.75 C34.04575935 76.54459516 33.40512957 74.33886677 32.765625 72.1328125 C32.45818359 71.07868164 32.15074219 70.02455078 31.83398438 68.93847656 C31.12593225 66.44371211 30.46900284 63.94986598 29.859375 61.4296875 C25.44508921 43.2114063 13.71816217 28.41601551 2.19140625 13.96484375 C-0.1844303 10.75047666 -2.08071357 7.50193265 -4 4 C-2.68 2.68 -1.36 1.36 0 0 Z " fill="#F1C744" transform="translate(781,166)"/>
<path d="M0 0 C4.72952992 4.21545058 7.41000036 9.39338601 10.4375 14.875 C11.60438377 16.96687304 12.77486824 19.05653781 13.95214844 21.14257812 C14.83123764 22.70085182 15.70179718 24.26393324 16.5703125 25.828125 C21.14058898 32.86300084 28.19588796 35.50168591 36.04345703 37.61669922 C39.72981689 38.33888352 43.12185779 37.87366641 46.78125 37.234375 C49 37 49 37 52.1875 38.4375 C52.785625 38.953125 53.38375 39.46875 54 40 C48.96013962 44.19988365 45.95527721 46.42385813 39.1953125 46.26171875 C36.0829448 45.89067135 33.34687871 44.86900417 30.41796875 43.78515625 C26.99404929 42.67335042 23.52999393 42.20078622 19.96875 41.72265625 C9.69433099 39.22164636 3.62298405 33.2735757 -3.5 25.875 C-4.50929943 24.84916 -5.51970904 23.82441104 -6.53125 22.80078125 C-14.84621651 14.33279024 -14.84621651 14.33279024 -15.375 9.75 C-14.87855761 4.78557614 -13.52492587 3.44295085 -10 0 C-6.0756391 -1.3081203 -4.00215261 -1.08532952 0 0 Z M-6 7 C-6.95274457 8.7138816 -6.95274457 8.7138816 -7 11 C-4.90370683 13.70522638 -4.90370683 13.70522638 -2.0625 16.25 C-0.65677734 17.58804687 -0.65677734 17.58804687 0.77734375 18.953125 C1.51082031 19.62859375 2.24429688 20.3040625 3 21 C3.33 20.34 3.66 19.68 4 19 C3.11352533 16.84687428 3.11352533 16.84687428 1.75 14.5625 C1.31171875 13.78003906 0.8734375 12.99757813 0.421875 12.19140625 C-0.90659549 10.14395585 -2.13053993 8.56290882 -4 7 C-4.66 7 -5.32 7 -6 7 Z " fill="#F2C743" transform="translate(111,314)"/>
<path d="M0 0 C2.88844993 0.09978282 4.05485799 0.33466835 6.625 1.8125 C8.82000566 5.56230133 8.76840268 9.12554975 8.125 13.375 C7.1015625 15.65625 7.1015625 15.65625 6.125 17.375 C6.74375 18.035 7.3625 18.695 8 19.375 C11.10349857 23.75640974 12.3581143 27.82487087 11.8671875 33.1953125 C9.44177432 43.58629317 3.28589223 53.2921729 -5 59.9375 C-8.01637295 62.25677833 -8.01637295 62.25677833 -9.9375 65.5625 C-12.05914271 68.64230393 -13.33491809 69.39164391 -16.875 70.375 C-19.24054705 64.71858151 -19.24054705 64.71858151 -18.30615234 61.28417969 C-17.31140721 59.04945178 -16.2243375 56.90253691 -15.0625 54.75 C-10.50173518 45.95149249 -9.63620459 39.19160022 -9.62109375 29.32421875 C-9.48994779 24.94118271 -9.27813875 22.91920274 -6.59765625 19.30078125 C-2.6185622 16.48630009 -0.61464886 16.97333484 4.125 17.375 C3.135 13.745 2.145 10.115 1.125 6.375 C-1.515 7.365 -4.155 8.355 -6.875 9.375 C-5.89673913 0.57065217 -5.89673913 0.57065217 0 0 Z M0.125 24.375 C-2.28622368 26.34035717 -2.28622368 26.34035717 -2.0703125 30.0703125 C-2.057009 31.54700108 -2.03314835 33.02362358 -2 34.5 C-1.99097656 35.25410156 -1.98195312 36.00820313 -1.97265625 36.78515625 C-1.9490687 38.64857254 -1.91319719 40.51182593 -1.875 42.375 C1.06411889 38.64935634 3.13965219 35.05092323 4.125 30.375 C3.46512875 26.96658871 3.46512875 26.96658871 2.125 24.375 C1.465 24.375 0.805 24.375 0.125 24.375 Z " fill="#F1C644" transform="translate(214.875,226.625)"/>
<path d="M0 0 C4.79599024 2.78836642 7.44389526 6.74585812 9 12 C9.50616467 18.72475918 7.18917828 25.31309727 5.44335938 31.73510742 C3.85782732 37.84445072 3.52226406 43.69369001 3.46875 49.98828125 C3 53 3 53 0.96875 54.91796875 C0.3190625 55.27503906 -0.330625 55.63210938 -1 56 C-4.875 54.25 -4.875 54.25 -6 52 C-5.94190767 50.35308255 -5.85382408 48.70716786 -5.75 47.0625 C-5.69168989 41.46472915 -7.14089995 37.77438045 -9.62109375 32.828125 C-13.88607667 24.08068127 -16.83012398 15.77933889 -13.8125 6.25 C-10.25458208 -0.12971489 -7.193582 -2.05530914 0 0 Z M-5 6 C-7.9945434 10.4918151 -7.47229696 14.72943976 -7 20 C-6.21515851 23.42063864 -5.20116283 26.70395199 -4 30 C-0.49530828 24.74296242 1.86916148 18.37385082 1 12 C-0.19126532 9.1798125 -0.19126532 9.1798125 -2 7 C-2.99 6.67 -3.98 6.34 -5 6 Z " fill="#F2C643" transform="translate(175,255)"/>
<path d="M0 0 C5.67951193 2.89771017 6.91395616 8.84106412 8.8125 14.625 C10.19950024 19.58619317 11.07298201 24.00261223 9.125 28.9375 C5.80218739 31.55547357 2.21550114 31.75956684 -1.9375 31.5625 C-5.607761 30.00068681 -6.7102373 28.90339404 -8.9375 25.5625 C-8.8125 23 -8.8125 23 -7.9375 20.5625 C-5.875 19.25 -5.875 19.25 -3.9375 18.5625 C-3.31875 19.3875 -2.7 20.2125 -2.0625 21.0625 C-1.36125 21.8875 -0.66 22.7125 0.0625 23.5625 C0.7225 23.5625 1.3825 23.5625 2.0625 23.5625 C1.75241116 21.95786551 1.43933713 20.35380769 1.125 18.75 C0.95097656 17.85667969 0.77695313 16.96335937 0.59765625 16.04296875 C0.08508847 13.44852829 0.08508847 13.44852829 -0.9375 10.5625 C-1.2675 12.8725 -1.5975 15.1825 -1.9375 17.5625 C-6.50101039 17.08213048 -6.50101039 17.08213048 -8.25 15 C-9.50941744 10.53479271 -9.86114443 6.27783966 -7.625 2.125 C-5.05870385 -0.25120014 -3.42660502 -0.51034543 0 0 Z " fill="#F2C643" transform="translate(232.9375,526.4375)"/>
<path d="M0 0 C2.93557847 2.44631539 3.00448842 4.0397546 3.4375 7.875 C3.25217723 13.10305281 0.61466881 16.38533119 -3 20 C-6.25 20.5625 -6.25 20.5625 -10 20 C-13.60621131 17.21921039 -15.63168281 14.10495156 -17.0625 9.8125 C-16.98685548 6.40849669 -16.38407087 5.38407087 -14 3 C-9.44079688 -0.97091885 -5.87128953 -1.6239737 0 0 Z M-8 6 C-8.66 6.66 -9.32 7.32 -10 8 C-9.34 9.32 -8.68 10.64 -8 12 C-7.01 11.67 -6.02 11.34 -5 11 C-4.67 9.35 -4.34 7.7 -4 6 C-5.32 6 -6.64 6 -8 6 Z " fill="#F2C743" transform="translate(85,313)"/>
<path d="M0 0 C2.58221567 1.89362483 3.81351878 3.79849439 4.30859375 6.98828125 C4.64850681 13.11701678 4.64850681 13.11701678 2.80078125 15.6328125 C1.25 16.9375 1.25 16.9375 -2 19 C-2.639375 19.45375 -3.27875 19.9075 -3.9375 20.375 C-7.18908929 21.36033009 -9.73839033 20.77092592 -13 20 C-14.875 18.9375 -14.875 18.9375 -16 17 C-16.53523139 14.31854373 -16.7757271 11.73612933 -17 9 C-13.535 10.485 -13.535 10.485 -10 12 C-10.03480469 11.30132812 -10.06960937 10.60265625 -10.10546875 9.8828125 C-10.13253906 8.97273438 -10.15960938 8.06265625 -10.1875 7.125 C-10.22230469 6.22007812 -10.25710937 5.31515625 -10.29296875 4.3828125 C-10.19628906 3.59648437 -10.09960938 2.81015625 -10 2 C-6.30513897 -0.46324069 -4.36706908 -0.38991688 0 0 Z M-5 6 C-6.35712166 7.55855981 -6.35712166 7.55855981 -7.625 9.5 C-8.07101563 10.1496875 -8.51703125 10.799375 -8.9765625 11.46875 C-9.31429687 11.9740625 -9.65203125 12.479375 -10 13 C-7.58354218 13.16687448 -7.58354218 13.16687448 -5 13 C-2.71271266 11.16116119 -2.71271266 11.16116119 -2.875 8.375 C-2.91625 7.59125 -2.9575 6.8075 -3 6 C-3.66 6 -4.32 6 -5 6 Z " fill="#F1C643" transform="translate(105,441)"/>
<path d="M0 0 C2.97 0.495 2.97 0.495 6 1 C6.70031905 7.41959128 5.53477136 10.75021095 1.71484375 15.9453125 C-1.29894565 19.55636768 -3.93721466 22.52028248 -8.6875 23.625 C-11 23 -11 23 -12.8125 21.125 C-14.4590371 16.79200763 -14.75993422 12.58195631 -14 8 C-12.67578125 5.73828125 -12.67578125 5.73828125 -11 4 C-7.8125 3.25 -7.8125 3.25 -5 3 C-5.33 4.0725 -5.66 5.145 -6 6.25 C-7.1717751 9.99731601 -7.1717751 9.99731601 -7 14 C-2.50664023 9.47915791 -0.26327654 6.45027515 0 0 Z " fill="#F1C643" transform="translate(168,517)"/>
<path d="M0 0 C1.75 1.0625 1.75 1.0625 3 3 C4.07191224 7.67047478 4.43042941 9.89318153 2.6875 14.375 C1 17 1 17 -1 19 C-3.53125 19.30078125 -3.53125 19.30078125 -6.5 19.3125 C-7.4796875 19.32925781 -8.459375 19.34601562 -9.46875 19.36328125 C-10.3040625 19.24339844 -11.139375 19.12351562 -12 19 C-14.0765211 15.88521835 -14.58940519 13.92681152 -14.52734375 10.203125 C-13.4954502 5.89210307 -10.20484012 2.90755857 -7 0 C-4.26634878 -1.36682561 -2.89333621 -0.84683011 0 0 Z M-5 6 C-6.6446674 8.46326712 -6.6446674 8.46326712 -8 11 C-6.05396726 11.59070014 -6.05396726 11.59070014 -4 12 C-2.70366379 10.93354885 -2.70366379 10.93354885 -2.9375 8.4375 C-2.958125 7.633125 -2.97875 6.82875 -3 6 C-3.66 6 -4.32 6 -5 6 Z " fill="#F1C744" transform="translate(290,540)"/>
<path d="M0 0 C1.9763674 5.38011125 2.47523204 8.55448952 0 14 C-2.66038614 16.83902118 -5.51237994 19.25618997 -9 21 C-10.99960012 21.039992 -13.00047242 21.04346799 -15 21 C-16.59112769 17.81774461 -16.33732786 15.54194252 -16 12 C-14.5680644 8.84573627 -12.85540724 5.9222664 -11 3 C-10.34 3 -9.68 3 -9 3 C-8.67 5.64 -8.34 8.28 -8 11 C-7.34 10.34 -6.68 9.68 -6 9 C-6.27034634 6.56282742 -6.27034634 6.56282742 -7 4 C-7.185625 3.236875 -7.37125 2.47375 -7.5625 1.6875 C-7.706875 1.130625 -7.85125 0.57375 -8 0 C-4.71023192 -1.09658936 -3.28696233 -0.79953138 0 0 Z " fill="#F1C643" transform="translate(255,253)"/>
<path d="M0 0 C3.67882073 3.28466137 5.75150101 6.66360908 8 11 C8 11.66 8 12.32 8 13 C8.66 12.67 9.32 12.34 10 12 C9.34 8.37 8.68 4.74 8 1 C14.36363636 3.54545455 14.36363636 3.54545455 16 6 C17.20165003 10.8867101 17.54152376 12.85446896 15.375 17.4375 C13 20 13 20 10.5625 21.0625 C7.0465344 20.97674474 5.69937746 20.28408862 3 18 C-0.32139467 13.62036917 -1.29267763 9.96553903 -0.75 4.5 C-0.52353417 2.9962669 -0.28172482 1.49436646 0 0 Z " fill="#F2C643" transform="translate(375,483)"/>
<path d="M0 0 C2.09584148 3.14376221 2.59285045 5.16750538 2.5234375 8.9296875 C1.53189306 12.85146776 -1.68539924 14.94878026 -5 17 C-8.55353929 18.1845131 -11.27013478 18.26641894 -15 18 C-17 16.875 -17 16.875 -18 15 C-17.75896128 11.22372667 -16.88638485 8.26973374 -15 5 C-14.34 5.33 -13.68 5.66 -13 6 C-13 7.65 -13 9.3 -13 11 C-8.04485498 10.12527407 -8.04485498 10.12527407 -4.5625 6.875 C-4.376875 6.25625 -4.19125 5.6375 -4 5 C-5.65 5 -7.3 5 -9 5 C-9 4.01 -9 3.02 -9 2 C-5.54970958 -0.30019361 -4.05445642 -0.43132515 0 0 Z " fill="#F2C644" transform="translate(142,428)"/>
<path d="M0 0 C2.375 1.5625 2.375 1.5625 4 4 C4.61089984 8.81083621 4.73857492 10.8428993 2.125 14.9375 C-0.67502693 17.6551732 -1.48138527 17.96228257 -5.4375 18.25 C-9 18 -9 18 -10.875 16.75 C-12 15 -12 15 -13 11 C-8.545 10.505 -8.545 10.505 -4 10 C-4 8.68 -4 7.36 -4 6 C-6.97 5.67 -9.94 5.34 -13 5 C-8.99989012 -0.37945811 -6.6453044 -1.76303994 0 0 Z " fill="#F2C743" transform="translate(182,233)"/>
<path d="M0 0 C3.4375 1.1875 3.4375 1.1875 5.5 4.4375 C6.4375 8.1875 6.4375 8.1875 5.9375 10.875 C4.07095904 13.75258397 2.37849142 15.40922612 -0.5625 17.1875 C-3.25 17.125 -3.25 17.125 -5.5625 16.1875 C-8.24700733 12.160739 -8.23554618 8.91586241 -7.5625 4.1875 C-5.36405363 0.49411009 -4.29385772 0.22599251 0 0 Z " fill="#F1C744" transform="translate(818.5625,300.8125)"/>
<path d="M0 0 C1 3 1 3 0.13671875 4.83203125 C-3.51388757 9.82086523 -7.25412067 12.69967295 -12.65234375 15.6796875 C-15.34370933 17.19330075 -17.66895442 18.9797605 -20 21 C-21.32 20.34 -22.64 19.68 -24 19 C-22.60667426 15.63279613 -21.0210714 14.0140476 -18 12 C-17.34 12.33 -16.68 12.66 -16 13 C-15.75894531 12.40316406 -15.51789063 11.80632812 -15.26953125 11.19140625 C-13.74592541 8.56142817 -12.24671368 7.5504498 -9.6875 5.9375 C-8.88828125 5.42832031 -8.0890625 4.91914063 -7.265625 4.39453125 C-2.22488038 1.29186603 -2.22488038 1.29186603 0 0 Z " fill="#F2C643" transform="translate(282,422)"/>
<path d="M0 0 C2.375 0.875 2.375 0.875 5.375 2.875 C5.95273162 6.58898899 5.61316995 8.43676729 3.8125 11.75 C1.375 13.875 1.375 13.875 -2.25 14.375 C-3.36375 14.21 -4.4775 14.045 -5.625 13.875 C-8.11336965 10.14244552 -8.16726552 8.29059065 -7.625 3.875 C-5.12276234 1.01529981 -3.85770151 -0.18370007 0 0 Z " fill="#F2C743" transform="translate(714.625,440.125)"/>
<path d="M0 0 C2.2477975 2.05233685 3.0022242 3.00667261 4 6 C2.4375 7.5625 2.4375 7.5625 0 9 C-5.31523533 8.90335936 -8.14960591 7.61703688 -12 4 C-11.67 3.67 -11.34 3.34 -11 3 C-8.70310483 3.0089898 -6.42224061 3.13265461 -4.12890625 3.2578125 C-3.07509766 3.13019531 -3.07509766 3.13019531 -2 3 C-1.34 2.01 -0.68 1.02 0 0 Z " fill="#F2C644" transform="translate(343,526)"/>
</svg>
